G04*
G04 #@! TF.GenerationSoftware,Altium Limited,Altium Designer,18.0.12 (696)*
G04*
G04 Layer_Color=8388736*
%FSLAX23Y23*%
%MOIN*%
G70*
G01*
G75*
%ADD26C,0.016*%
%ADD27R,0.024X0.043*%
%ADD28R,0.058X0.020*%
%ADD29R,0.020X0.058*%
%ADD30R,0.051X0.106*%
%ADD31R,0.071X0.055*%
%ADD32R,0.055X0.071*%
%ADD33R,0.043X0.032*%
%ADD34R,0.032X0.043*%
%ADD35C,0.067*%
%ADD36R,0.067X0.067*%
%ADD37R,0.067X0.067*%
%ADD38P,0.095X4X360.0*%
%ADD39P,0.095X4X270.0*%
%ADD40C,0.018*%
D26*
X4201Y2402D02*
D03*
X4185D02*
D03*
X4169D02*
D03*
X4154D02*
D03*
X4138D02*
D03*
X4122D02*
D03*
X4106D02*
D03*
X4091D02*
D03*
X4075D02*
D03*
X4201Y2417D02*
D03*
X4185D02*
D03*
X4169D02*
D03*
X4154D02*
D03*
X4138D02*
D03*
X4122D02*
D03*
X4106D02*
D03*
X4091D02*
D03*
X4075D02*
D03*
X4201Y2433D02*
D03*
X4185D02*
D03*
X4169D02*
D03*
X4106D02*
D03*
X4091D02*
D03*
X4075D02*
D03*
X4201Y2449D02*
D03*
X4185D02*
D03*
X4169D02*
D03*
X4106D02*
D03*
X4091D02*
D03*
X4075D02*
D03*
X4201Y2465D02*
D03*
X4185D02*
D03*
X4169D02*
D03*
X4106D02*
D03*
X4091D02*
D03*
X4075D02*
D03*
X4201Y2480D02*
D03*
X4185D02*
D03*
X4169D02*
D03*
X4106D02*
D03*
X4091D02*
D03*
X4075D02*
D03*
X4201Y2496D02*
D03*
X4185D02*
D03*
X4169D02*
D03*
X4106D02*
D03*
X4091D02*
D03*
X4075D02*
D03*
X4201Y2512D02*
D03*
X4185D02*
D03*
X4169D02*
D03*
X4154D02*
D03*
X4138D02*
D03*
X4122D02*
D03*
X4106D02*
D03*
X4091D02*
D03*
X4075D02*
D03*
X4201Y2528D02*
D03*
X4185D02*
D03*
X4169D02*
D03*
X4154D02*
D03*
X4138D02*
D03*
X4122D02*
D03*
X4106D02*
D03*
X4091D02*
D03*
X4075D02*
D03*
D27*
X427Y1579D02*
D03*
X453Y1579D02*
D03*
X478Y1579D02*
D03*
X427Y1492D02*
D03*
X453Y1492D02*
D03*
X478Y1492D02*
D03*
X431Y1177D02*
D03*
X457Y1177D02*
D03*
X482Y1177D02*
D03*
X431Y1091D02*
D03*
X457Y1091D02*
D03*
X482Y1091D02*
D03*
D28*
X1270Y2754D02*
D03*
Y2734D02*
D03*
Y2715D02*
D03*
Y2695D02*
D03*
Y2675D02*
D03*
Y2656D02*
D03*
Y2636D02*
D03*
Y2616D02*
D03*
Y2596D02*
D03*
Y2577D02*
D03*
Y2557D02*
D03*
Y2537D02*
D03*
Y2518D02*
D03*
Y2498D02*
D03*
Y2478D02*
D03*
Y2459D02*
D03*
X1714D02*
D03*
Y2478D02*
D03*
Y2498D02*
D03*
Y2518D02*
D03*
Y2537D02*
D03*
Y2557D02*
D03*
Y2577D02*
D03*
Y2596D02*
D03*
Y2616D02*
D03*
Y2636D02*
D03*
Y2656D02*
D03*
Y2675D02*
D03*
Y2695D02*
D03*
Y2715D02*
D03*
Y2734D02*
D03*
Y2754D02*
D03*
D29*
X1344Y2385D02*
D03*
X1364D02*
D03*
X1384D02*
D03*
X1404D02*
D03*
X1423D02*
D03*
X1443D02*
D03*
X1463D02*
D03*
X1482D02*
D03*
X1502D02*
D03*
X1522D02*
D03*
X1541D02*
D03*
X1561D02*
D03*
X1581D02*
D03*
X1600D02*
D03*
X1620D02*
D03*
X1640D02*
D03*
Y2828D02*
D03*
X1620D02*
D03*
X1600D02*
D03*
X1581D02*
D03*
X1561D02*
D03*
X1541D02*
D03*
X1522D02*
D03*
X1502D02*
D03*
X1482D02*
D03*
X1463D02*
D03*
X1443D02*
D03*
X1423D02*
D03*
X1404D02*
D03*
X1384D02*
D03*
X1364D02*
D03*
X1344D02*
D03*
D30*
X1504Y2091D02*
D03*
X1630D02*
D03*
D31*
X2524Y1406D02*
D03*
X2681D02*
D03*
X1642Y2236D02*
D03*
X1484D02*
D03*
X909Y2421D02*
D03*
X1067D02*
D03*
X909Y2657D02*
D03*
X1067D02*
D03*
X909Y2768D02*
D03*
X1067D02*
D03*
X1504Y1850D02*
D03*
X1346D02*
D03*
X339Y2378D02*
D03*
X181D02*
D03*
X339Y2602D02*
D03*
X181D02*
D03*
X339Y2827D02*
D03*
X181D02*
D03*
X1067Y2315D02*
D03*
X909D02*
D03*
X1067Y2539D02*
D03*
X909D02*
D03*
X1067Y2874D02*
D03*
X909D02*
D03*
X1520Y902D02*
D03*
X1362D02*
D03*
D32*
X2177Y1398D02*
D03*
Y1240D02*
D03*
X2114Y2346D02*
D03*
Y2189D02*
D03*
X1012Y1689D02*
D03*
Y1846D02*
D03*
Y1264D02*
D03*
Y1421D02*
D03*
X1020Y441D02*
D03*
Y598D02*
D03*
Y850D02*
D03*
Y1008D02*
D03*
X728Y1689D02*
D03*
Y1846D02*
D03*
Y1264D02*
D03*
Y1421D02*
D03*
X724Y441D02*
D03*
Y598D02*
D03*
X1874Y831D02*
D03*
Y988D02*
D03*
X724Y850D02*
D03*
Y1008D02*
D03*
X1870Y1240D02*
D03*
Y1398D02*
D03*
X2181Y988D02*
D03*
Y831D02*
D03*
D33*
X1965Y2307D02*
D03*
Y2244D02*
D03*
X1870Y2307D02*
D03*
Y2244D02*
D03*
D34*
X1453Y2969D02*
D03*
X1390D02*
D03*
X1614D02*
D03*
X1551D02*
D03*
X1287D02*
D03*
X1224D02*
D03*
X1709D02*
D03*
X1772D02*
D03*
D35*
X2741Y944D02*
D03*
Y1044D02*
D03*
Y1144D02*
D03*
Y1244D02*
D03*
X2441Y944D02*
D03*
Y1044D02*
D03*
Y1144D02*
D03*
X4554Y1429D02*
D03*
X4454D02*
D03*
X4354D02*
D03*
X4254D02*
D03*
X4154D02*
D03*
X4054D02*
D03*
X3954D02*
D03*
X3854D02*
D03*
X3754D02*
D03*
X4554Y1329D02*
D03*
X4454D02*
D03*
X4354D02*
D03*
X4254D02*
D03*
X4154D02*
D03*
X4054D02*
D03*
X3954D02*
D03*
X3854D02*
D03*
X3025Y3561D02*
D03*
Y3461D02*
D03*
X2925Y3561D02*
D03*
Y3461D02*
D03*
X2825Y3561D02*
D03*
Y3461D02*
D03*
X2725Y3561D02*
D03*
Y3461D02*
D03*
X2625Y3561D02*
D03*
Y3461D02*
D03*
X2525Y3561D02*
D03*
Y3461D02*
D03*
X2425Y3561D02*
D03*
Y3461D02*
D03*
X2325Y3561D02*
D03*
Y3461D02*
D03*
X2225Y3561D02*
D03*
Y3461D02*
D03*
X2125Y3561D02*
D03*
X5154Y280D02*
D03*
Y380D02*
D03*
Y480D02*
D03*
Y580D02*
D03*
Y680D02*
D03*
X3598Y1725D02*
D03*
X3527Y1796D02*
D03*
X3456Y1866D02*
D03*
X3386Y1937D02*
D03*
X628Y3512D02*
D03*
X728D02*
D03*
X828D02*
D03*
X928D02*
D03*
X1028D02*
D03*
X1128D02*
D03*
X1228D02*
D03*
X1328D02*
D03*
X1428D02*
D03*
X1528D02*
D03*
X1628D02*
D03*
X130Y2142D02*
D03*
Y2042D02*
D03*
Y1942D02*
D03*
Y1842D02*
D03*
X1279Y1585D02*
D03*
Y1485D02*
D03*
Y1385D02*
D03*
X1579Y1685D02*
D03*
Y1585D02*
D03*
Y1485D02*
D03*
Y1385D02*
D03*
X1291Y660D02*
D03*
Y560D02*
D03*
Y460D02*
D03*
X1591Y760D02*
D03*
Y660D02*
D03*
Y560D02*
D03*
Y460D02*
D03*
X3820Y3461D02*
D03*
X3920D02*
D03*
X4020D02*
D03*
X4120D02*
D03*
X4220D02*
D03*
X4320D02*
D03*
X4420D02*
D03*
X4520D02*
D03*
X3720Y3561D02*
D03*
X3820D02*
D03*
X3920D02*
D03*
X4020D02*
D03*
X4120D02*
D03*
X4220D02*
D03*
X4320D02*
D03*
X4420D02*
D03*
X4520D02*
D03*
X3260Y2542D02*
D03*
Y2442D02*
D03*
Y2342D02*
D03*
Y2242D02*
D03*
X3520Y3106D02*
D03*
X3449Y3036D02*
D03*
X3378Y2965D02*
D03*
X3308Y2894D02*
D03*
X5008Y2542D02*
D03*
Y2442D02*
D03*
Y2342D02*
D03*
Y2242D02*
D03*
X4724Y3106D02*
D03*
X4795Y3036D02*
D03*
X4866Y2965D02*
D03*
X4936Y2894D02*
D03*
X4890Y1937D02*
D03*
X4819Y1866D02*
D03*
X4748Y1796D02*
D03*
X4678Y1725D02*
D03*
D36*
X2441Y1244D02*
D03*
X3754Y1329D02*
D03*
X2125Y3461D02*
D03*
X528Y3512D02*
D03*
X1279Y1685D02*
D03*
X1291Y760D02*
D03*
X3720Y3461D02*
D03*
D37*
X5154Y180D02*
D03*
X130Y2242D02*
D03*
X3260Y2642D02*
D03*
X5008D02*
D03*
D38*
X3315Y2008D02*
D03*
X4654Y3177D02*
D03*
D39*
X3591D02*
D03*
X4961Y2008D02*
D03*
D40*
X5227Y580D02*
D03*
X516Y1492D02*
D03*
X524Y1091D02*
D03*
X1270Y2782D02*
D03*
X1421Y2878D02*
D03*
X4106Y2449D02*
D03*
X4091Y2496D02*
D03*
X4091Y2480D02*
D03*
X4106Y2465D02*
D03*
X4106Y2433D02*
D03*
X4106Y2480D02*
D03*
X4138Y2512D02*
D03*
X4122Y2512D02*
D03*
X4169Y2465D02*
D03*
Y2449D02*
D03*
Y2480D02*
D03*
X4185Y2496D02*
D03*
X4185Y2512D02*
D03*
Y2465D02*
D03*
X4169Y2512D02*
D03*
X4075Y2417D02*
D03*
X4185Y2449D02*
D03*
Y2433D02*
D03*
X4154Y2417D02*
D03*
X4138Y2417D02*
D03*
X4122Y2417D02*
D03*
X4106Y2417D02*
D03*
X4106Y2496D02*
D03*
Y2512D02*
D03*
X4091Y2512D02*
D03*
X4091Y2465D02*
D03*
Y2449D02*
D03*
X4154Y2433D02*
D03*
X4185Y2417D02*
D03*
Y2480D02*
D03*
X4169Y2496D02*
D03*
X4154Y2512D02*
D03*
X4091Y2417D02*
D03*
X4169Y2417D02*
D03*
X4091Y2433D02*
D03*
X1287Y2921D02*
D03*
X1401Y2768D02*
D03*
X1606Y2689D02*
D03*
X1480Y2937D02*
D03*
X1795Y1972D02*
D03*
X1650Y2594D02*
D03*
X1579Y2579D02*
D03*
X1382Y2768D02*
D03*
X1402Y2886D02*
D03*
X1681Y2917D02*
D03*
X1972Y2949D02*
D03*
X1965Y2606D02*
D03*
X1941Y2528D02*
D03*
X1626Y2520D02*
D03*
X1528Y2736D02*
D03*
X1299Y2846D02*
D03*
X1228Y2886D02*
D03*
X1520Y2772D02*
D03*
X2012Y2382D02*
D03*
X1894Y2630D02*
D03*
X594Y2480D02*
D03*
X1441Y2768D02*
D03*
X1384Y2423D02*
D03*
X1500Y2323D02*
D03*
X1598D02*
D03*
X1122Y1291D02*
D03*
X1279Y1585D02*
D03*
X1783Y1339D02*
D03*
X917Y1382D02*
D03*
X827Y1008D02*
D03*
M02*
