G04*
G04 #@! TF.GenerationSoftware,Altium Limited,Altium Designer,18.0.12 (696)*
G04*
G04 Layer_Color=65535*
%FSLAX23Y23*%
%MOIN*%
G70*
G01*
G75*
%ADD10C,0.024*%
%ADD11C,0.010*%
%ADD12C,0.008*%
%ADD13C,0.000*%
%ADD14C,0.005*%
%ADD15C,0.010*%
%ADD16C,0.008*%
G36*
X564Y1651D02*
Y1645D01*
X526Y1629D01*
Y1635D01*
X537Y1640D01*
Y1656D01*
X526Y1660D01*
Y1665D01*
X564Y1651D01*
D02*
G37*
G36*
Y1620D02*
X534Y1600D01*
X564D01*
Y1595D01*
X526D01*
Y1600D01*
X556Y1620D01*
X526D01*
Y1625D01*
X564D01*
Y1620D01*
D02*
G37*
G36*
Y1559D02*
X559D01*
Y1572D01*
X526D01*
Y1577D01*
X559D01*
Y1589D01*
X564D01*
Y1559D01*
D02*
G37*
G36*
Y1548D02*
X526D01*
Y1553D01*
X564D01*
Y1548D01*
D02*
G37*
G36*
X518Y1512D02*
X515D01*
Y1544D01*
X518D01*
Y1512D01*
D02*
G37*
G36*
X538Y1506D02*
X538D01*
X538D01*
X538Y1506D01*
X538D01*
X537Y1506D01*
X537Y1506D01*
X536Y1505D01*
X535Y1505D01*
X534Y1505D01*
X534Y1504D01*
X533Y1504D01*
X533Y1504D01*
X533Y1504D01*
X533Y1503D01*
X532Y1503D01*
X532Y1502D01*
X531Y1501D01*
X531Y1500D01*
Y1500D01*
X531Y1500D01*
X530Y1500D01*
X530Y1500D01*
X530Y1500D01*
X530Y1499D01*
X530Y1499D01*
X530Y1498D01*
X530Y1497D01*
X530Y1496D01*
X529Y1495D01*
Y1494D01*
X530Y1493D01*
X530Y1493D01*
X530Y1492D01*
X530Y1491D01*
X530Y1490D01*
X530Y1489D01*
Y1489D01*
X530Y1489D01*
X530Y1489D01*
X531Y1489D01*
X531Y1488D01*
X531Y1488D01*
X532Y1487D01*
X532Y1487D01*
X533Y1486D01*
X533Y1486D01*
X533Y1486D01*
X533Y1486D01*
X534Y1486D01*
X534Y1485D01*
X535Y1485D01*
X535Y1485D01*
X536Y1485D01*
X536D01*
X536D01*
X537Y1485D01*
X537Y1485D01*
X538Y1485D01*
X538Y1485D01*
X539Y1486D01*
X539Y1486D01*
X539Y1486D01*
X539Y1486D01*
X540Y1487D01*
X540Y1487D01*
X540Y1487D01*
X541Y1488D01*
X541Y1489D01*
X541Y1490D01*
X541Y1490D01*
X541Y1490D01*
X542Y1490D01*
X542Y1490D01*
X542Y1491D01*
X542Y1491D01*
X542Y1491D01*
X542Y1492D01*
X542Y1492D01*
X542Y1493D01*
X543Y1494D01*
X543Y1495D01*
X543Y1495D01*
X543Y1496D01*
Y1496D01*
X543Y1497D01*
X543Y1497D01*
X543Y1497D01*
X544Y1498D01*
X544Y1498D01*
X544Y1499D01*
X544Y1500D01*
X545Y1502D01*
X545Y1503D01*
X545Y1503D01*
X546Y1504D01*
Y1504D01*
X546Y1504D01*
X546Y1504D01*
X546Y1504D01*
X546Y1505D01*
X547Y1505D01*
X547Y1506D01*
X548Y1507D01*
X548Y1507D01*
X549Y1508D01*
X549D01*
X549Y1508D01*
X550Y1508D01*
X550Y1508D01*
X551Y1509D01*
X551Y1509D01*
X552Y1509D01*
X553Y1509D01*
X554Y1509D01*
X554D01*
X554D01*
X554D01*
X555Y1509D01*
X555Y1509D01*
X556Y1509D01*
X557Y1509D01*
X558Y1508D01*
X559Y1508D01*
X559Y1508D01*
X560D01*
X560Y1507D01*
X560Y1507D01*
X560Y1507D01*
X561Y1506D01*
X562Y1506D01*
X562Y1505D01*
X563Y1504D01*
X563Y1503D01*
Y1503D01*
X563Y1503D01*
X563Y1502D01*
X564Y1502D01*
X564Y1502D01*
X564Y1502D01*
X564Y1501D01*
X564Y1501D01*
X564Y1500D01*
X564Y1498D01*
X565Y1497D01*
X565Y1496D01*
Y1495D01*
X565Y1495D01*
Y1494D01*
X565Y1494D01*
X565Y1493D01*
X564Y1492D01*
X564Y1491D01*
X564Y1489D01*
X563Y1488D01*
Y1488D01*
X563Y1488D01*
X563Y1488D01*
X563Y1488D01*
X563Y1487D01*
X562Y1486D01*
X562Y1485D01*
X561Y1485D01*
X560Y1484D01*
X559Y1483D01*
X559D01*
X559Y1483D01*
X559Y1483D01*
X559Y1483D01*
X558Y1483D01*
X558Y1483D01*
X557Y1482D01*
X557Y1482D01*
X556Y1482D01*
X554Y1481D01*
X553Y1481D01*
X553Y1486D01*
X553D01*
X553D01*
X553Y1486D01*
X553Y1486D01*
X554Y1486D01*
X554Y1486D01*
X555Y1487D01*
X556Y1487D01*
X557Y1487D01*
X558Y1488D01*
X558Y1489D01*
X558Y1489D01*
X558Y1489D01*
X559Y1489D01*
X559Y1489D01*
X559Y1490D01*
X559Y1490D01*
X559Y1490D01*
X559Y1491D01*
X560Y1491D01*
X560Y1492D01*
X560Y1493D01*
X560Y1493D01*
X560Y1494D01*
X560Y1495D01*
Y1496D01*
X560Y1497D01*
X560Y1497D01*
X560Y1498D01*
X560Y1499D01*
X559Y1500D01*
X559Y1501D01*
X559Y1502D01*
X558Y1502D01*
X558Y1502D01*
X558Y1503D01*
X558Y1503D01*
X557Y1503D01*
X557Y1504D01*
X556Y1504D01*
X555Y1504D01*
X554Y1504D01*
X554D01*
X554D01*
X554Y1504D01*
X553Y1504D01*
X553Y1504D01*
X552Y1504D01*
X551Y1503D01*
X551Y1503D01*
X551Y1503D01*
X551Y1503D01*
X551Y1502D01*
X551Y1502D01*
X550Y1502D01*
X550Y1502D01*
X550Y1501D01*
X550Y1501D01*
X550Y1500D01*
X549Y1500D01*
X549Y1499D01*
X549Y1498D01*
X549Y1497D01*
X548Y1496D01*
X548Y1495D01*
Y1495D01*
X548Y1495D01*
X548Y1495D01*
X548Y1494D01*
X548Y1494D01*
X548Y1493D01*
X548Y1492D01*
X547Y1492D01*
X547Y1490D01*
X547Y1489D01*
X546Y1488D01*
X546Y1488D01*
X546Y1487D01*
X546Y1487D01*
Y1487D01*
X546Y1487D01*
X546Y1486D01*
X545Y1486D01*
X545Y1486D01*
X545Y1485D01*
X544Y1484D01*
X543Y1483D01*
X543Y1482D01*
X542Y1482D01*
X542D01*
X542Y1482D01*
X542Y1482D01*
X541Y1481D01*
X541Y1481D01*
X540Y1481D01*
X539Y1481D01*
X539Y1480D01*
X538Y1480D01*
X536Y1480D01*
X536D01*
X536D01*
X536D01*
X536Y1480D01*
X536D01*
X535Y1480D01*
X535Y1480D01*
X534Y1481D01*
X533Y1481D01*
X532Y1481D01*
X531Y1482D01*
X531D01*
X531Y1482D01*
X530Y1482D01*
X530Y1482D01*
X530Y1483D01*
X529Y1483D01*
X528Y1484D01*
X528Y1485D01*
X527Y1486D01*
X526Y1487D01*
Y1487D01*
X526Y1487D01*
X526Y1487D01*
X526Y1487D01*
X526Y1488D01*
X526Y1488D01*
X526Y1489D01*
X526Y1489D01*
X525Y1490D01*
X525Y1491D01*
X525Y1493D01*
X525Y1494D01*
Y1495D01*
X525Y1495D01*
Y1496D01*
X525Y1496D01*
X525Y1497D01*
X525Y1497D01*
X525Y1499D01*
X526Y1500D01*
X526Y1502D01*
X526Y1503D01*
Y1503D01*
X526Y1503D01*
X527Y1503D01*
X527Y1504D01*
X527Y1504D01*
X527Y1504D01*
X528Y1505D01*
X528Y1506D01*
X529Y1507D01*
X530Y1508D01*
X531Y1509D01*
X531D01*
X531Y1509D01*
X531Y1509D01*
X532Y1509D01*
X532Y1509D01*
X532Y1509D01*
X533Y1509D01*
X533Y1510D01*
X534Y1510D01*
X535Y1510D01*
X537Y1511D01*
X538Y1511D01*
X538Y1506D01*
D02*
G37*
G36*
X564Y1446D02*
X559D01*
Y1458D01*
X526D01*
Y1463D01*
X559D01*
Y1476D01*
X564D01*
Y1446D01*
D02*
G37*
G36*
Y1430D02*
Y1424D01*
X526Y1409D01*
Y1414D01*
X537Y1419D01*
Y1435D01*
X526Y1439D01*
Y1445D01*
X564Y1430D01*
D02*
G37*
G36*
Y1377D02*
X559D01*
Y1390D01*
X526D01*
Y1395D01*
X559D01*
Y1407D01*
X564D01*
Y1377D01*
D02*
G37*
G36*
X527Y1374D02*
X527Y1374D01*
X528Y1374D01*
X528Y1374D01*
X529Y1374D01*
X529D01*
X529Y1374D01*
X529Y1374D01*
X529Y1374D01*
X530Y1373D01*
X530Y1373D01*
X531Y1373D01*
X532Y1372D01*
X533Y1371D01*
X534Y1371D01*
X534Y1371D01*
X534Y1371D01*
X534Y1370D01*
X534Y1370D01*
X535Y1370D01*
X536Y1369D01*
X536Y1368D01*
X537Y1367D01*
X539Y1366D01*
X540Y1364D01*
X540Y1364D01*
X540Y1364D01*
X540Y1364D01*
X541Y1363D01*
X541Y1363D01*
X542Y1362D01*
X542Y1362D01*
X543Y1361D01*
X544Y1360D01*
X545Y1358D01*
X546Y1358D01*
X547Y1357D01*
X547Y1356D01*
X548Y1356D01*
X548Y1356D01*
X548Y1356D01*
X548Y1356D01*
X548Y1356D01*
X549Y1356D01*
X549Y1355D01*
X550Y1355D01*
X551Y1354D01*
X552Y1354D01*
X553Y1354D01*
X553Y1354D01*
X554D01*
X554D01*
X554D01*
X554D01*
X554Y1354D01*
X555Y1354D01*
X555Y1354D01*
X556Y1354D01*
X557Y1355D01*
X558Y1355D01*
X558Y1356D01*
X558Y1356D01*
X559Y1356D01*
X559Y1357D01*
X559Y1357D01*
X560Y1358D01*
X560Y1359D01*
X560Y1360D01*
X560Y1361D01*
Y1361D01*
X560Y1362D01*
Y1362D01*
X560Y1362D01*
X560Y1363D01*
X560Y1364D01*
X559Y1365D01*
X559Y1366D01*
X558Y1367D01*
X558Y1367D01*
X558Y1367D01*
X557Y1367D01*
X557Y1368D01*
X556Y1368D01*
X555Y1368D01*
X554Y1368D01*
X553Y1369D01*
X553Y1373D01*
X553D01*
X553Y1373D01*
X554D01*
X554Y1373D01*
X554Y1373D01*
X555Y1373D01*
X556Y1373D01*
X556Y1373D01*
X557Y1372D01*
X558Y1372D01*
X559Y1372D01*
X560Y1371D01*
X560Y1371D01*
X561Y1370D01*
X561Y1370D01*
X561Y1370D01*
X561Y1370D01*
X562Y1369D01*
X562Y1369D01*
X562Y1369D01*
X562Y1368D01*
X562Y1368D01*
X563Y1367D01*
X563Y1367D01*
X563Y1366D01*
X564Y1365D01*
X564Y1365D01*
X564Y1364D01*
X564Y1363D01*
X564Y1362D01*
X564Y1361D01*
Y1360D01*
X564Y1360D01*
X564Y1360D01*
X564Y1359D01*
X564Y1358D01*
X564Y1358D01*
X563Y1356D01*
X563Y1356D01*
X563Y1355D01*
X563Y1354D01*
X562Y1353D01*
X562Y1353D01*
X561Y1352D01*
X561Y1352D01*
X561Y1352D01*
X561Y1352D01*
X561Y1352D01*
X560Y1351D01*
X560Y1351D01*
X559Y1351D01*
X559Y1351D01*
X558Y1350D01*
X558Y1350D01*
X557Y1349D01*
X556Y1349D01*
X555Y1349D01*
X554Y1349D01*
X553Y1349D01*
X553D01*
X553D01*
X553Y1349D01*
X552Y1349D01*
X551Y1349D01*
X551Y1349D01*
X550Y1350D01*
X549Y1350D01*
X549Y1350D01*
X549Y1350D01*
X548Y1350D01*
X548Y1351D01*
X547Y1351D01*
X546Y1352D01*
X545Y1352D01*
X544Y1353D01*
X544D01*
X544Y1353D01*
X544Y1353D01*
X544Y1353D01*
X544Y1354D01*
X543Y1354D01*
X543Y1354D01*
X542Y1355D01*
X542Y1355D01*
X542Y1356D01*
X541Y1356D01*
X540Y1357D01*
X540Y1358D01*
X539Y1359D01*
X538Y1359D01*
X537Y1360D01*
X537Y1360D01*
X537Y1361D01*
X537Y1361D01*
X537Y1361D01*
X537Y1361D01*
X536Y1362D01*
X536Y1363D01*
X535Y1364D01*
X534Y1364D01*
X534Y1365D01*
X533Y1365D01*
X533Y1366D01*
X533Y1366D01*
X533Y1366D01*
X532Y1366D01*
X532Y1366D01*
X532Y1366D01*
X531Y1367D01*
X531Y1367D01*
X530Y1368D01*
Y1349D01*
X526D01*
Y1374D01*
X526D01*
X526D01*
X526D01*
X527Y1374D01*
D02*
G37*
G36*
X1334Y2921D02*
X1334Y2921D01*
X1335Y2921D01*
X1335Y2921D01*
X1336Y2921D01*
X1338Y2920D01*
X1338Y2920D01*
X1339Y2920D01*
X1340Y2920D01*
X1341Y2919D01*
X1342Y2919D01*
X1342Y2918D01*
X1342Y2918D01*
X1343Y2918D01*
X1343Y2918D01*
X1343Y2918D01*
X1343Y2917D01*
X1344Y2917D01*
X1344Y2917D01*
X1345Y2916D01*
X1345Y2915D01*
X1346Y2915D01*
X1346Y2914D01*
X1346Y2913D01*
X1347Y2913D01*
X1347Y2912D01*
X1348Y2911D01*
X1348Y2910D01*
X1343Y2909D01*
Y2909D01*
X1343Y2909D01*
X1343Y2909D01*
X1343Y2909D01*
X1343Y2910D01*
X1342Y2910D01*
X1342Y2911D01*
X1341Y2912D01*
X1341Y2913D01*
X1340Y2914D01*
X1340Y2914D01*
X1339Y2915D01*
X1339D01*
X1339Y2915D01*
X1339Y2915D01*
X1339Y2915D01*
X1338Y2915D01*
X1338Y2915D01*
X1337Y2916D01*
X1336Y2916D01*
X1335Y2916D01*
X1334Y2917D01*
X1333Y2917D01*
X1332D01*
X1332Y2917D01*
X1332D01*
X1331Y2917D01*
X1331Y2917D01*
X1330Y2917D01*
X1329Y2916D01*
X1328Y2916D01*
X1326Y2915D01*
X1326Y2915D01*
X1325Y2915D01*
X1325D01*
X1325Y2914D01*
X1325Y2914D01*
X1325Y2914D01*
X1324Y2914D01*
X1324Y2913D01*
X1323Y2912D01*
X1322Y2911D01*
X1322Y2910D01*
X1321Y2909D01*
Y2909D01*
X1321Y2909D01*
X1321Y2909D01*
X1321Y2908D01*
X1321Y2908D01*
X1321Y2908D01*
X1321Y2907D01*
X1320Y2907D01*
X1320Y2905D01*
X1320Y2904D01*
X1320Y2903D01*
X1320Y2901D01*
Y2901D01*
Y2901D01*
Y2901D01*
Y2901D01*
X1320Y2900D01*
X1320Y2900D01*
Y2899D01*
X1320Y2899D01*
X1320Y2897D01*
X1320Y2896D01*
X1321Y2894D01*
X1321Y2893D01*
Y2893D01*
X1321Y2893D01*
X1321Y2893D01*
X1322Y2892D01*
X1322Y2892D01*
X1322Y2892D01*
X1322Y2891D01*
X1323Y2890D01*
X1324Y2889D01*
X1325Y2888D01*
X1326Y2888D01*
X1326D01*
X1326Y2887D01*
X1326Y2887D01*
X1326Y2887D01*
X1326Y2887D01*
X1327Y2887D01*
X1328Y2887D01*
X1329Y2886D01*
X1330Y2886D01*
X1331Y2886D01*
X1332Y2886D01*
X1333D01*
X1333Y2886D01*
X1333Y2886D01*
X1334Y2886D01*
X1334Y2886D01*
X1335Y2886D01*
X1336Y2886D01*
X1337Y2887D01*
X1338Y2887D01*
X1338Y2887D01*
X1339Y2888D01*
X1339Y2888D01*
X1340Y2888D01*
X1340Y2888D01*
X1340Y2888D01*
X1340Y2889D01*
X1340Y2889D01*
X1340Y2889D01*
X1341Y2890D01*
X1341Y2890D01*
X1341Y2890D01*
X1342Y2891D01*
X1342Y2892D01*
X1342Y2892D01*
X1343Y2893D01*
X1343Y2894D01*
X1343Y2895D01*
X1344Y2895D01*
X1349Y2894D01*
Y2894D01*
X1349Y2894D01*
X1348Y2894D01*
X1348Y2893D01*
X1348Y2893D01*
X1348Y2892D01*
X1348Y2891D01*
X1347Y2891D01*
X1347Y2890D01*
X1346Y2889D01*
X1346Y2888D01*
X1345Y2888D01*
X1345Y2887D01*
X1344Y2886D01*
X1344Y2885D01*
X1343Y2885D01*
X1343Y2885D01*
X1343Y2884D01*
X1342Y2884D01*
X1342Y2884D01*
X1342Y2884D01*
X1341Y2884D01*
X1341Y2883D01*
X1340Y2883D01*
X1339Y2883D01*
X1339Y2882D01*
X1338Y2882D01*
X1337Y2882D01*
X1336Y2882D01*
X1335Y2882D01*
X1334Y2881D01*
X1333Y2881D01*
X1332D01*
X1332Y2881D01*
X1331Y2881D01*
X1330Y2882D01*
X1330Y2882D01*
X1329Y2882D01*
X1327Y2882D01*
X1326Y2882D01*
X1325Y2883D01*
X1324Y2883D01*
X1323Y2883D01*
X1323Y2884D01*
X1322Y2884D01*
X1322Y2884D01*
X1322Y2884D01*
X1322Y2884D01*
X1322Y2885D01*
X1321Y2885D01*
X1321Y2885D01*
X1320Y2886D01*
X1320Y2886D01*
X1319Y2887D01*
X1319Y2887D01*
X1318Y2888D01*
X1318Y2889D01*
X1317Y2889D01*
X1317Y2890D01*
X1317Y2891D01*
Y2891D01*
X1316Y2891D01*
X1316Y2892D01*
X1316Y2892D01*
X1316Y2892D01*
X1316Y2893D01*
X1316Y2894D01*
X1316Y2894D01*
X1315Y2895D01*
X1315Y2896D01*
X1315Y2897D01*
X1315Y2898D01*
X1315Y2899D01*
X1315Y2901D01*
Y2902D01*
Y2902D01*
Y2902D01*
X1315Y2902D01*
Y2903D01*
X1315Y2904D01*
X1315Y2904D01*
X1315Y2905D01*
X1315Y2906D01*
X1315Y2907D01*
X1316Y2908D01*
X1316Y2910D01*
X1316Y2911D01*
X1317Y2912D01*
X1317Y2912D01*
X1317Y2912D01*
X1317Y2912D01*
X1317Y2913D01*
X1317Y2913D01*
X1318Y2914D01*
X1318Y2914D01*
X1319Y2914D01*
X1319Y2916D01*
X1321Y2917D01*
X1322Y2918D01*
X1323Y2918D01*
X1323Y2919D01*
X1323Y2919D01*
X1324Y2919D01*
X1324Y2919D01*
X1324Y2919D01*
X1325Y2919D01*
X1325Y2920D01*
X1326Y2920D01*
X1326Y2920D01*
X1327Y2920D01*
X1328Y2920D01*
X1329Y2921D01*
X1331Y2921D01*
X1332Y2921D01*
X1333D01*
X1334Y2921D01*
D02*
G37*
G36*
X1292Y2920D02*
X1293D01*
X1294Y2920D01*
X1295Y2920D01*
X1296Y2920D01*
X1297Y2920D01*
X1297D01*
X1297Y2920D01*
X1298Y2920D01*
X1298Y2920D01*
X1298Y2920D01*
X1299Y2920D01*
X1299Y2919D01*
X1300Y2919D01*
X1301Y2918D01*
X1302Y2918D01*
X1303Y2917D01*
X1303Y2917D01*
X1303Y2917D01*
X1303Y2917D01*
X1303Y2917D01*
X1304Y2916D01*
X1304Y2916D01*
X1304Y2916D01*
X1305Y2915D01*
X1305Y2914D01*
X1306Y2913D01*
X1307Y2912D01*
X1308Y2911D01*
Y2911D01*
X1308Y2910D01*
X1308Y2910D01*
X1308Y2910D01*
X1308Y2909D01*
X1308Y2909D01*
X1308Y2908D01*
X1308Y2908D01*
X1308Y2907D01*
X1309Y2907D01*
X1309Y2906D01*
X1309Y2905D01*
X1309Y2903D01*
X1309Y2901D01*
Y2901D01*
Y2901D01*
Y2901D01*
Y2901D01*
X1309Y2900D01*
Y2900D01*
X1309Y2899D01*
X1309Y2899D01*
X1309Y2898D01*
X1309Y2896D01*
X1308Y2895D01*
X1308Y2894D01*
Y2894D01*
X1308Y2894D01*
X1308Y2893D01*
X1308Y2893D01*
X1308Y2893D01*
X1308Y2892D01*
X1307Y2892D01*
X1307Y2891D01*
X1307Y2890D01*
X1306Y2889D01*
X1305Y2888D01*
X1305Y2888D01*
X1305Y2888D01*
X1305Y2887D01*
X1304Y2887D01*
X1304Y2886D01*
X1303Y2886D01*
X1303Y2885D01*
X1302Y2885D01*
X1302Y2885D01*
X1302Y2884D01*
X1301Y2884D01*
X1301Y2884D01*
X1300Y2884D01*
X1299Y2883D01*
X1298Y2883D01*
X1297Y2883D01*
X1297D01*
X1297Y2883D01*
X1297D01*
X1297Y2883D01*
X1297Y2882D01*
X1296Y2882D01*
X1296Y2882D01*
X1295Y2882D01*
X1294Y2882D01*
X1292Y2882D01*
X1291Y2882D01*
X1277D01*
Y2920D01*
X1292D01*
X1292Y2920D01*
D02*
G37*
G36*
X1273Y2882D02*
X1267D01*
X1263Y2894D01*
X1247D01*
X1243Y2882D01*
X1237D01*
X1252Y2920D01*
X1257D01*
X1273Y2882D01*
D02*
G37*
G36*
X1693Y2011D02*
X1662D01*
Y2015D01*
X1693D01*
Y2011D01*
D02*
G37*
G36*
X1573Y1965D02*
X1568D01*
X1552Y2004D01*
X1558D01*
X1562Y1992D01*
X1578D01*
X1582Y2004D01*
X1588D01*
X1573Y1965D01*
D02*
G37*
G36*
X1711Y2005D02*
X1712Y2004D01*
X1712Y2004D01*
X1713Y2004D01*
X1714Y2004D01*
X1715Y2004D01*
X1717Y2004D01*
X1718Y2003D01*
X1719Y2003D01*
X1720Y2003D01*
X1720Y2002D01*
X1720Y2002D01*
X1721Y2002D01*
X1721Y2002D01*
X1721Y2002D01*
X1721Y2001D01*
X1722Y2001D01*
X1722Y2001D01*
X1723Y2000D01*
X1723Y2000D01*
X1724Y1999D01*
X1724Y1999D01*
X1725Y1998D01*
X1725Y1997D01*
X1725Y1996D01*
X1726Y1996D01*
X1726Y1995D01*
Y1995D01*
X1726Y1995D01*
X1727Y1994D01*
X1727Y1994D01*
X1727Y1993D01*
X1727Y1993D01*
X1727Y1992D01*
X1727Y1992D01*
X1728Y1991D01*
X1728Y1990D01*
X1728Y1989D01*
X1728Y1988D01*
X1728Y1986D01*
X1728Y1984D01*
Y1984D01*
Y1984D01*
Y1984D01*
X1728Y1983D01*
Y1983D01*
X1728Y1982D01*
X1728Y1982D01*
X1728Y1981D01*
X1728Y1980D01*
X1728Y1979D01*
X1727Y1977D01*
X1727Y1976D01*
X1726Y1975D01*
X1726Y1974D01*
X1726Y1974D01*
X1726Y1974D01*
X1726Y1974D01*
X1726Y1973D01*
X1725Y1973D01*
X1725Y1972D01*
X1725Y1972D01*
X1724Y1971D01*
X1723Y1970D01*
X1722Y1969D01*
X1721Y1968D01*
X1720Y1968D01*
X1720Y1967D01*
X1719Y1967D01*
X1719Y1967D01*
X1719Y1967D01*
X1719Y1967D01*
X1718Y1967D01*
X1718Y1966D01*
X1717Y1966D01*
X1717Y1966D01*
X1716Y1966D01*
X1715Y1966D01*
X1714Y1965D01*
X1712Y1965D01*
X1711Y1965D01*
X1710D01*
X1709Y1965D01*
X1709Y1965D01*
X1708Y1965D01*
X1707Y1965D01*
X1707Y1965D01*
X1705Y1966D01*
X1704Y1966D01*
X1704Y1966D01*
X1703Y1966D01*
X1702Y1967D01*
X1701Y1967D01*
X1700Y1968D01*
X1700Y1968D01*
X1700Y1968D01*
X1700Y1968D01*
X1700Y1968D01*
X1700Y1969D01*
X1699Y1969D01*
X1699Y1969D01*
X1698Y1970D01*
X1698Y1970D01*
X1697Y1971D01*
X1697Y1972D01*
X1696Y1972D01*
X1696Y1973D01*
X1696Y1974D01*
X1695Y1975D01*
X1695Y1976D01*
X1700Y1977D01*
Y1977D01*
X1700Y1977D01*
X1700Y1977D01*
X1700Y1977D01*
X1700Y1976D01*
X1700Y1976D01*
X1701Y1975D01*
X1701Y1974D01*
X1702Y1973D01*
X1703Y1972D01*
X1703Y1972D01*
X1704Y1971D01*
X1704D01*
X1704Y1971D01*
X1704Y1971D01*
X1704Y1971D01*
X1705Y1971D01*
X1705Y1971D01*
X1706Y1970D01*
X1707Y1970D01*
X1708Y1969D01*
X1709Y1969D01*
X1710Y1969D01*
X1711D01*
X1711Y1969D01*
X1711D01*
X1712Y1969D01*
X1712Y1969D01*
X1713Y1969D01*
X1714Y1970D01*
X1715Y1970D01*
X1717Y1971D01*
X1717Y1971D01*
X1718Y1971D01*
X1718D01*
X1718Y1971D01*
X1718Y1972D01*
X1718Y1972D01*
X1719Y1972D01*
X1719Y1973D01*
X1720Y1974D01*
X1721Y1975D01*
X1721Y1976D01*
X1722Y1977D01*
Y1977D01*
X1722Y1977D01*
X1722Y1977D01*
X1722Y1978D01*
X1722Y1978D01*
X1722Y1978D01*
X1722Y1979D01*
X1722Y1979D01*
X1723Y1980D01*
X1723Y1982D01*
X1723Y1983D01*
X1723Y1984D01*
Y1984D01*
Y1985D01*
Y1985D01*
Y1985D01*
X1723Y1986D01*
X1723Y1986D01*
Y1987D01*
X1723Y1987D01*
X1723Y1989D01*
X1722Y1990D01*
X1722Y1992D01*
X1722Y1993D01*
Y1993D01*
X1722Y1993D01*
X1722Y1993D01*
X1721Y1994D01*
X1721Y1994D01*
X1721Y1994D01*
X1721Y1995D01*
X1720Y1996D01*
X1719Y1997D01*
X1718Y1998D01*
X1717Y1998D01*
X1717D01*
X1717Y1999D01*
X1717Y1999D01*
X1717Y1999D01*
X1716Y1999D01*
X1716Y1999D01*
X1715Y1999D01*
X1714Y2000D01*
X1713Y2000D01*
X1712Y2000D01*
X1711Y2000D01*
X1710D01*
X1710Y2000D01*
X1710Y2000D01*
X1709Y2000D01*
X1709Y2000D01*
X1708Y2000D01*
X1707Y2000D01*
X1706Y1999D01*
X1705Y1999D01*
X1705Y1999D01*
X1704Y1998D01*
X1703Y1998D01*
X1703Y1998D01*
X1703Y1998D01*
X1703Y1998D01*
X1703Y1997D01*
X1703Y1997D01*
X1702Y1997D01*
X1702Y1996D01*
X1702Y1996D01*
X1701Y1995D01*
X1701Y1995D01*
X1701Y1994D01*
X1700Y1994D01*
X1700Y1993D01*
X1700Y1992D01*
X1700Y1991D01*
X1699Y1990D01*
X1694Y1992D01*
Y1992D01*
X1694Y1992D01*
X1694Y1992D01*
X1695Y1993D01*
X1695Y1993D01*
X1695Y1994D01*
X1695Y1995D01*
X1696Y1995D01*
X1696Y1996D01*
X1696Y1997D01*
X1697Y1998D01*
X1697Y1998D01*
X1698Y1999D01*
X1699Y2000D01*
X1699Y2001D01*
X1700Y2001D01*
X1700Y2001D01*
X1700Y2001D01*
X1700Y2002D01*
X1701Y2002D01*
X1701Y2002D01*
X1702Y2002D01*
X1702Y2003D01*
X1703Y2003D01*
X1704Y2003D01*
X1704Y2004D01*
X1705Y2004D01*
X1706Y2004D01*
X1707Y2004D01*
X1708Y2004D01*
X1709Y2005D01*
X1710Y2005D01*
X1711D01*
X1711Y2005D01*
D02*
G37*
G36*
X1607D02*
X1607Y2004D01*
X1608Y2004D01*
X1609Y2004D01*
X1609Y2004D01*
X1611Y2004D01*
X1613Y2004D01*
X1614Y2003D01*
X1614Y2003D01*
X1615Y2003D01*
X1616Y2002D01*
X1616Y2002D01*
X1616Y2002D01*
X1616Y2002D01*
X1617Y2002D01*
X1617Y2001D01*
X1617Y2001D01*
X1618Y2001D01*
X1618Y2000D01*
X1619Y2000D01*
X1619Y1999D01*
X1620Y1999D01*
X1620Y1998D01*
X1621Y1997D01*
X1621Y1996D01*
X1621Y1996D01*
X1622Y1995D01*
Y1995D01*
X1622Y1995D01*
X1622Y1994D01*
X1622Y1994D01*
X1622Y1993D01*
X1623Y1993D01*
X1623Y1992D01*
X1623Y1992D01*
X1623Y1991D01*
X1623Y1990D01*
X1623Y1989D01*
X1624Y1988D01*
X1624Y1986D01*
X1624Y1984D01*
Y1984D01*
Y1984D01*
Y1984D01*
X1624Y1983D01*
Y1983D01*
X1624Y1982D01*
X1624Y1982D01*
X1624Y1981D01*
X1623Y1980D01*
X1623Y1979D01*
X1623Y1977D01*
X1622Y1976D01*
X1622Y1975D01*
X1622Y1974D01*
X1622Y1974D01*
X1622Y1974D01*
X1621Y1974D01*
X1621Y1973D01*
X1621Y1973D01*
X1621Y1972D01*
X1620Y1972D01*
X1620Y1971D01*
X1619Y1970D01*
X1618Y1969D01*
X1617Y1968D01*
X1616Y1968D01*
X1615Y1967D01*
X1615Y1967D01*
X1615Y1967D01*
X1615Y1967D01*
X1614Y1967D01*
X1614Y1967D01*
X1613Y1966D01*
X1613Y1966D01*
X1612Y1966D01*
X1612Y1966D01*
X1611Y1966D01*
X1609Y1965D01*
X1608Y1965D01*
X1607Y1965D01*
X1605D01*
X1605Y1965D01*
X1604Y1965D01*
X1604Y1965D01*
X1603Y1965D01*
X1602Y1965D01*
X1601Y1966D01*
X1600Y1966D01*
X1599Y1966D01*
X1598Y1966D01*
X1598Y1967D01*
X1597Y1967D01*
X1596Y1968D01*
X1596Y1968D01*
X1596Y1968D01*
X1596Y1968D01*
X1595Y1968D01*
X1595Y1969D01*
X1595Y1969D01*
X1594Y1969D01*
X1594Y1970D01*
X1593Y1970D01*
X1593Y1971D01*
X1592Y1972D01*
X1592Y1972D01*
X1592Y1973D01*
X1591Y1974D01*
X1591Y1975D01*
X1590Y1976D01*
X1595Y1977D01*
Y1977D01*
X1596Y1977D01*
X1596Y1977D01*
X1596Y1977D01*
X1596Y1976D01*
X1596Y1976D01*
X1596Y1975D01*
X1597Y1974D01*
X1598Y1973D01*
X1598Y1972D01*
X1599Y1972D01*
X1599Y1971D01*
X1599D01*
X1599Y1971D01*
X1600Y1971D01*
X1600Y1971D01*
X1600Y1971D01*
X1600Y1971D01*
X1601Y1970D01*
X1602Y1970D01*
X1603Y1969D01*
X1604Y1969D01*
X1606Y1969D01*
X1606D01*
X1607Y1969D01*
X1607D01*
X1607Y1969D01*
X1608Y1969D01*
X1608Y1969D01*
X1610Y1970D01*
X1611Y1970D01*
X1612Y1971D01*
X1613Y1971D01*
X1613Y1971D01*
X1613D01*
X1613Y1971D01*
X1614Y1972D01*
X1614Y1972D01*
X1614Y1972D01*
X1615Y1973D01*
X1616Y1974D01*
X1616Y1975D01*
X1617Y1976D01*
X1617Y1977D01*
Y1977D01*
X1617Y1977D01*
X1618Y1977D01*
X1618Y1978D01*
X1618Y1978D01*
X1618Y1978D01*
X1618Y1979D01*
X1618Y1979D01*
X1618Y1980D01*
X1618Y1982D01*
X1619Y1983D01*
X1619Y1984D01*
Y1984D01*
Y1985D01*
Y1985D01*
Y1985D01*
X1619Y1986D01*
X1619Y1986D01*
Y1987D01*
X1618Y1987D01*
X1618Y1989D01*
X1618Y1990D01*
X1618Y1992D01*
X1617Y1993D01*
Y1993D01*
X1617Y1993D01*
X1617Y1993D01*
X1617Y1994D01*
X1617Y1994D01*
X1617Y1994D01*
X1616Y1995D01*
X1615Y1996D01*
X1615Y1997D01*
X1614Y1998D01*
X1613Y1998D01*
X1613D01*
X1613Y1999D01*
X1612Y1999D01*
X1612Y1999D01*
X1612Y1999D01*
X1612Y1999D01*
X1611Y1999D01*
X1610Y2000D01*
X1609Y2000D01*
X1608Y2000D01*
X1606Y2000D01*
X1606D01*
X1606Y2000D01*
X1605Y2000D01*
X1605Y2000D01*
X1604Y2000D01*
X1604Y2000D01*
X1603Y2000D01*
X1601Y1999D01*
X1601Y1999D01*
X1600Y1999D01*
X1600Y1998D01*
X1599Y1998D01*
X1599Y1998D01*
X1599Y1998D01*
X1599Y1998D01*
X1598Y1997D01*
X1598Y1997D01*
X1598Y1997D01*
X1598Y1996D01*
X1597Y1996D01*
X1597Y1995D01*
X1597Y1995D01*
X1596Y1994D01*
X1596Y1994D01*
X1596Y1993D01*
X1595Y1992D01*
X1595Y1991D01*
X1595Y1990D01*
X1590Y1992D01*
Y1992D01*
X1590Y1992D01*
X1590Y1992D01*
X1590Y1993D01*
X1590Y1993D01*
X1591Y1994D01*
X1591Y1995D01*
X1591Y1995D01*
X1592Y1996D01*
X1592Y1997D01*
X1592Y1998D01*
X1593Y1998D01*
X1594Y1999D01*
X1594Y2000D01*
X1595Y2001D01*
X1596Y2001D01*
X1596Y2001D01*
X1596Y2001D01*
X1596Y2002D01*
X1596Y2002D01*
X1597Y2002D01*
X1597Y2002D01*
X1598Y2003D01*
X1598Y2003D01*
X1599Y2003D01*
X1600Y2004D01*
X1601Y2004D01*
X1602Y2004D01*
X1603Y2004D01*
X1604Y2004D01*
X1605Y2005D01*
X1606Y2005D01*
X1606D01*
X1607Y2005D01*
D02*
G37*
G36*
X1662Y1965D02*
X1657D01*
X1647Y1993D01*
Y1993D01*
X1647Y1994D01*
X1646Y1994D01*
X1646Y1994D01*
X1646Y1994D01*
X1646Y1995D01*
X1646Y1995D01*
X1646Y1996D01*
X1645Y1997D01*
X1645Y1999D01*
X1645Y2000D01*
Y2000D01*
X1645Y2000D01*
X1644Y1999D01*
X1644Y1999D01*
X1644Y1999D01*
X1644Y1999D01*
X1644Y1998D01*
X1644Y1997D01*
X1643Y1996D01*
X1643Y1995D01*
X1642Y1993D01*
X1632Y1965D01*
X1627D01*
X1642Y2004D01*
X1647D01*
X1662Y1965D01*
D02*
G37*
G36*
X1548D02*
X1532D01*
X1531Y1966D01*
X1530Y1966D01*
X1529Y1966D01*
X1528Y1966D01*
X1527Y1966D01*
X1527D01*
X1527Y1966D01*
X1527Y1966D01*
X1526Y1966D01*
X1526Y1966D01*
X1525Y1967D01*
X1524Y1967D01*
X1524Y1967D01*
X1523Y1968D01*
X1523Y1968D01*
X1522Y1968D01*
X1522Y1968D01*
X1522Y1969D01*
X1521Y1969D01*
X1521Y1970D01*
X1520Y1971D01*
X1520Y1971D01*
Y1971D01*
X1520Y1971D01*
X1520Y1972D01*
X1519Y1972D01*
X1519Y1972D01*
X1519Y1973D01*
X1519Y1974D01*
X1519Y1975D01*
X1519Y1976D01*
X1518Y1977D01*
Y1977D01*
Y1977D01*
Y1977D01*
X1519Y1977D01*
X1519Y1978D01*
X1519Y1978D01*
X1519Y1979D01*
X1519Y1979D01*
X1519Y1981D01*
X1519Y1981D01*
X1520Y1982D01*
X1520Y1983D01*
X1521Y1984D01*
X1521Y1984D01*
X1522Y1985D01*
X1522Y1985D01*
X1522Y1985D01*
X1522Y1985D01*
X1522Y1985D01*
X1523Y1986D01*
X1523Y1986D01*
X1524Y1986D01*
X1524Y1987D01*
X1525Y1987D01*
X1526Y1987D01*
X1527Y1988D01*
X1528Y1988D01*
X1529Y1988D01*
X1530Y1988D01*
X1531Y1988D01*
X1533Y1988D01*
X1543D01*
Y2004D01*
X1548D01*
Y1965D01*
D02*
G37*
G36*
X1501Y1974D02*
X1501Y1974D01*
X1501Y1974D01*
X1502Y1974D01*
X1502Y1975D01*
X1503Y1975D01*
X1503Y1976D01*
X1504Y1977D01*
X1505Y1977D01*
X1505D01*
X1505Y1977D01*
X1506Y1977D01*
X1506Y1977D01*
X1506Y1978D01*
X1507Y1978D01*
X1508Y1978D01*
X1509Y1979D01*
X1509Y1979D01*
X1510Y1980D01*
Y1975D01*
X1510D01*
X1510Y1975D01*
X1510Y1975D01*
X1510Y1975D01*
X1509Y1974D01*
X1509Y1974D01*
X1508Y1974D01*
X1507Y1973D01*
X1506Y1972D01*
X1505Y1971D01*
X1503Y1970D01*
X1503Y1970D01*
X1503Y1970D01*
X1503Y1970D01*
X1503Y1970D01*
X1502Y1970D01*
X1502Y1969D01*
X1501Y1968D01*
X1500Y1967D01*
X1500Y1966D01*
X1499Y1965D01*
X1496D01*
Y2004D01*
X1501D01*
Y1974D01*
D02*
G37*
G36*
X2016Y2196D02*
X1985D01*
Y2200D01*
X2016D01*
Y2196D01*
D02*
G37*
G36*
X1825Y2190D02*
X1826Y2190D01*
X1826Y2189D01*
X1827Y2189D01*
X1827Y2189D01*
X1829Y2189D01*
X1829Y2189D01*
X1830Y2188D01*
X1831Y2188D01*
X1832Y2188D01*
X1832Y2187D01*
X1833Y2187D01*
X1833Y2187D01*
X1833Y2186D01*
X1833Y2186D01*
X1833Y2186D01*
X1834Y2186D01*
X1834Y2185D01*
X1834Y2185D01*
X1835Y2185D01*
X1835Y2184D01*
X1835Y2183D01*
X1836Y2183D01*
X1836Y2182D01*
X1836Y2181D01*
X1836Y2181D01*
X1837Y2180D01*
X1837Y2179D01*
X1832Y2178D01*
Y2178D01*
X1832Y2178D01*
X1832Y2179D01*
X1832Y2179D01*
X1832Y2179D01*
X1832Y2179D01*
X1831Y2180D01*
X1831Y2181D01*
X1831Y2182D01*
X1830Y2183D01*
X1830Y2184D01*
X1829Y2184D01*
X1829Y2184D01*
X1829Y2184D01*
X1829Y2185D01*
X1828Y2185D01*
X1827Y2185D01*
X1826Y2185D01*
X1826Y2186D01*
X1825Y2186D01*
X1824D01*
X1824Y2186D01*
X1824D01*
X1823Y2186D01*
X1823Y2185D01*
X1822Y2185D01*
X1821Y2185D01*
X1820Y2184D01*
X1819Y2184D01*
X1819Y2183D01*
X1819Y2183D01*
X1819Y2183D01*
X1819Y2183D01*
X1819Y2183D01*
X1818Y2183D01*
X1818Y2182D01*
X1817Y2181D01*
X1817Y2180D01*
X1817Y2179D01*
X1817Y2178D01*
Y2178D01*
Y2178D01*
Y2178D01*
Y2177D01*
X1817Y2177D01*
Y2177D01*
X1817Y2177D01*
X1817Y2176D01*
X1817Y2175D01*
X1817Y2174D01*
X1818Y2173D01*
X1818Y2173D01*
X1819Y2172D01*
X1819Y2172D01*
X1819Y2172D01*
X1820Y2172D01*
X1820Y2171D01*
X1821Y2171D01*
X1822Y2171D01*
X1823Y2170D01*
X1824Y2170D01*
X1825D01*
X1825Y2170D01*
X1826Y2170D01*
X1826Y2170D01*
X1827Y2171D01*
X1827Y2171D01*
X1827Y2167D01*
X1827D01*
X1827Y2167D01*
X1826Y2167D01*
X1826D01*
X1826Y2167D01*
X1825Y2167D01*
X1824Y2167D01*
X1824Y2166D01*
X1823Y2166D01*
X1822Y2166D01*
X1821Y2165D01*
X1821D01*
X1821Y2165D01*
X1820Y2165D01*
X1820Y2164D01*
X1820Y2164D01*
X1819Y2163D01*
X1819Y2162D01*
X1818Y2161D01*
X1818Y2161D01*
X1818Y2160D01*
Y2160D01*
Y2160D01*
X1818Y2160D01*
X1818Y2159D01*
X1819Y2159D01*
X1819Y2158D01*
X1819Y2157D01*
X1820Y2157D01*
X1820Y2156D01*
X1820Y2156D01*
X1820Y2156D01*
X1821Y2155D01*
X1821Y2155D01*
X1822Y2155D01*
X1823Y2155D01*
X1824Y2154D01*
X1825Y2154D01*
X1825D01*
X1825Y2154D01*
X1826Y2154D01*
X1826Y2154D01*
X1827Y2155D01*
X1828Y2155D01*
X1829Y2155D01*
X1829Y2156D01*
X1829Y2156D01*
X1830Y2156D01*
X1830Y2157D01*
X1830Y2157D01*
X1831Y2158D01*
X1831Y2159D01*
X1831Y2160D01*
X1832Y2161D01*
X1836Y2160D01*
Y2160D01*
X1836Y2160D01*
X1836Y2160D01*
X1836Y2160D01*
X1836Y2159D01*
X1836Y2159D01*
X1836Y2158D01*
X1835Y2158D01*
X1835Y2156D01*
X1834Y2155D01*
X1833Y2154D01*
X1833Y2154D01*
X1832Y2153D01*
X1832Y2153D01*
X1832Y2153D01*
X1832Y2153D01*
X1832Y2153D01*
X1832Y2152D01*
X1831Y2152D01*
X1831Y2152D01*
X1830Y2152D01*
X1830Y2151D01*
X1829Y2151D01*
X1828Y2151D01*
X1826Y2150D01*
X1826Y2150D01*
X1825Y2150D01*
X1824D01*
X1824Y2150D01*
X1824D01*
X1823Y2151D01*
X1822Y2151D01*
X1821Y2151D01*
X1820Y2151D01*
X1819Y2152D01*
X1819D01*
X1819Y2152D01*
X1819Y2152D01*
X1819Y2152D01*
X1818Y2152D01*
X1817Y2153D01*
X1817Y2153D01*
X1816Y2154D01*
X1815Y2155D01*
X1815Y2155D01*
Y2155D01*
X1815Y2156D01*
X1815Y2156D01*
X1814Y2156D01*
X1814Y2157D01*
X1814Y2158D01*
X1814Y2159D01*
X1814Y2159D01*
X1813Y2160D01*
Y2160D01*
Y2160D01*
Y2161D01*
X1814Y2161D01*
X1814Y2162D01*
X1814Y2163D01*
X1814Y2163D01*
X1814Y2164D01*
X1815Y2165D01*
X1815Y2165D01*
X1815Y2165D01*
X1815Y2166D01*
X1816Y2166D01*
X1816Y2167D01*
X1817Y2167D01*
X1818Y2168D01*
X1819Y2168D01*
X1819D01*
X1819Y2168D01*
X1818Y2168D01*
X1818Y2168D01*
X1818Y2168D01*
X1818Y2169D01*
X1817Y2169D01*
X1816Y2169D01*
X1815Y2170D01*
X1814Y2171D01*
X1813Y2171D01*
Y2172D01*
X1813Y2172D01*
X1813Y2172D01*
X1813Y2172D01*
X1813Y2172D01*
X1813Y2172D01*
X1813Y2173D01*
X1812Y2174D01*
X1812Y2175D01*
X1812Y2176D01*
X1812Y2178D01*
Y2178D01*
Y2178D01*
Y2178D01*
X1812Y2178D01*
X1812Y2179D01*
X1812Y2179D01*
X1812Y2180D01*
X1812Y2181D01*
X1812Y2181D01*
X1812Y2182D01*
X1813Y2183D01*
X1813Y2183D01*
X1814Y2184D01*
X1814Y2185D01*
X1815Y2186D01*
X1815Y2186D01*
X1815Y2186D01*
X1815Y2186D01*
X1816Y2186D01*
X1816Y2187D01*
X1816Y2187D01*
X1817Y2187D01*
X1817Y2188D01*
X1818Y2188D01*
X1818Y2188D01*
X1819Y2189D01*
X1820Y2189D01*
X1821Y2189D01*
X1822Y2189D01*
X1823Y2189D01*
X1823Y2190D01*
X1825Y2190D01*
X1825D01*
X1825Y2190D01*
D02*
G37*
G36*
X1896Y2151D02*
X1890D01*
X1875Y2189D01*
X1881D01*
X1885Y2177D01*
X1901D01*
X1905Y2189D01*
X1911D01*
X1896Y2151D01*
D02*
G37*
G36*
X2034Y2190D02*
X2035Y2190D01*
X2035Y2189D01*
X2036Y2189D01*
X2037Y2189D01*
X2038Y2189D01*
X2040Y2189D01*
X2041Y2188D01*
X2042Y2188D01*
X2042Y2188D01*
X2043Y2187D01*
X2043Y2187D01*
X2043Y2187D01*
X2044Y2187D01*
X2044Y2187D01*
X2044Y2186D01*
X2045Y2186D01*
X2045Y2186D01*
X2045Y2185D01*
X2046Y2185D01*
X2046Y2184D01*
X2047Y2184D01*
X2047Y2183D01*
X2048Y2182D01*
X2048Y2181D01*
X2049Y2181D01*
X2049Y2180D01*
Y2180D01*
X2049Y2180D01*
X2049Y2179D01*
X2049Y2179D01*
X2050Y2178D01*
X2050Y2178D01*
X2050Y2177D01*
X2050Y2177D01*
X2050Y2176D01*
X2051Y2175D01*
X2051Y2174D01*
X2051Y2173D01*
X2051Y2171D01*
X2051Y2169D01*
Y2169D01*
Y2169D01*
Y2169D01*
X2051Y2168D01*
Y2168D01*
X2051Y2167D01*
X2051Y2167D01*
X2051Y2166D01*
X2051Y2165D01*
X2051Y2164D01*
X2050Y2163D01*
X2050Y2161D01*
X2049Y2160D01*
X2049Y2159D01*
X2049Y2159D01*
X2049Y2159D01*
X2049Y2159D01*
X2048Y2158D01*
X2048Y2158D01*
X2048Y2157D01*
X2048Y2157D01*
X2047Y2156D01*
X2046Y2155D01*
X2045Y2154D01*
X2044Y2153D01*
X2043Y2153D01*
X2042Y2152D01*
X2042Y2152D01*
X2042Y2152D01*
X2042Y2152D01*
X2042Y2152D01*
X2041Y2152D01*
X2041Y2151D01*
X2040Y2151D01*
X2040Y2151D01*
X2039Y2151D01*
X2038Y2151D01*
X2037Y2150D01*
X2035Y2150D01*
X2034Y2150D01*
X2032D01*
X2032Y2150D01*
X2032Y2150D01*
X2031Y2150D01*
X2030Y2150D01*
X2030Y2150D01*
X2028Y2151D01*
X2027Y2151D01*
X2026Y2151D01*
X2026Y2151D01*
X2025Y2152D01*
X2024Y2152D01*
X2023Y2153D01*
X2023Y2153D01*
X2023Y2153D01*
X2023Y2153D01*
X2023Y2153D01*
X2022Y2154D01*
X2022Y2154D01*
X2022Y2154D01*
X2021Y2155D01*
X2021Y2156D01*
X2020Y2156D01*
X2020Y2157D01*
X2019Y2158D01*
X2019Y2158D01*
X2018Y2159D01*
X2018Y2160D01*
X2018Y2161D01*
X2023Y2162D01*
Y2162D01*
X2023Y2162D01*
X2023Y2162D01*
X2023Y2162D01*
X2023Y2161D01*
X2023Y2161D01*
X2024Y2160D01*
X2024Y2159D01*
X2025Y2158D01*
X2026Y2157D01*
X2026Y2157D01*
X2027Y2156D01*
X2027D01*
X2027Y2156D01*
X2027Y2156D01*
X2027Y2156D01*
X2027Y2156D01*
X2028Y2156D01*
X2028Y2155D01*
X2029Y2155D01*
X2030Y2155D01*
X2032Y2154D01*
X2033Y2154D01*
X2034D01*
X2034Y2154D01*
X2034D01*
X2035Y2154D01*
X2035Y2154D01*
X2036Y2154D01*
X2037Y2155D01*
X2038Y2155D01*
X2039Y2156D01*
X2040Y2156D01*
X2041Y2156D01*
X2041D01*
X2041Y2156D01*
X2041Y2157D01*
X2041Y2157D01*
X2042Y2157D01*
X2042Y2158D01*
X2043Y2159D01*
X2044Y2160D01*
X2044Y2161D01*
X2045Y2162D01*
Y2162D01*
X2045Y2162D01*
X2045Y2162D01*
X2045Y2163D01*
X2045Y2163D01*
X2045Y2163D01*
X2045Y2164D01*
X2045Y2164D01*
X2046Y2165D01*
X2046Y2167D01*
X2046Y2168D01*
X2046Y2169D01*
Y2170D01*
Y2170D01*
Y2170D01*
Y2170D01*
X2046Y2171D01*
X2046Y2171D01*
Y2172D01*
X2046Y2172D01*
X2046Y2174D01*
X2045Y2175D01*
X2045Y2177D01*
X2045Y2178D01*
Y2178D01*
X2044Y2178D01*
X2044Y2178D01*
X2044Y2179D01*
X2044Y2179D01*
X2044Y2179D01*
X2043Y2180D01*
X2043Y2181D01*
X2042Y2182D01*
X2041Y2183D01*
X2040Y2183D01*
X2040D01*
X2040Y2184D01*
X2040Y2184D01*
X2040Y2184D01*
X2039Y2184D01*
X2039Y2184D01*
X2038Y2184D01*
X2037Y2185D01*
X2036Y2185D01*
X2035Y2185D01*
X2034Y2185D01*
X2033D01*
X2033Y2185D01*
X2032Y2185D01*
X2032Y2185D01*
X2032Y2185D01*
X2031Y2185D01*
X2030Y2185D01*
X2029Y2184D01*
X2028Y2184D01*
X2027Y2184D01*
X2027Y2183D01*
X2026Y2183D01*
X2026Y2183D01*
X2026Y2183D01*
X2026Y2183D01*
X2026Y2182D01*
X2026Y2182D01*
X2025Y2182D01*
X2025Y2181D01*
X2025Y2181D01*
X2024Y2181D01*
X2024Y2180D01*
X2024Y2179D01*
X2023Y2179D01*
X2023Y2178D01*
X2023Y2177D01*
X2022Y2176D01*
X2022Y2176D01*
X2017Y2177D01*
Y2177D01*
X2017Y2177D01*
X2017Y2177D01*
X2017Y2178D01*
X2018Y2178D01*
X2018Y2179D01*
X2018Y2180D01*
X2018Y2180D01*
X2019Y2181D01*
X2019Y2182D01*
X2020Y2183D01*
X2020Y2183D01*
X2021Y2184D01*
X2021Y2185D01*
X2022Y2186D01*
X2023Y2186D01*
X2023Y2186D01*
X2023Y2187D01*
X2023Y2187D01*
X2024Y2187D01*
X2024Y2187D01*
X2025Y2187D01*
X2025Y2188D01*
X2026Y2188D01*
X2026Y2188D01*
X2027Y2189D01*
X2028Y2189D01*
X2029Y2189D01*
X2030Y2189D01*
X2031Y2189D01*
X2032Y2190D01*
X2033Y2190D01*
X2034D01*
X2034Y2190D01*
D02*
G37*
G36*
X1930D02*
X1930Y2190D01*
X1931Y2189D01*
X1931Y2189D01*
X1932Y2189D01*
X1934Y2189D01*
X1936Y2189D01*
X1936Y2188D01*
X1937Y2188D01*
X1938Y2188D01*
X1939Y2187D01*
X1939Y2187D01*
X1939Y2187D01*
X1939Y2187D01*
X1939Y2187D01*
X1940Y2186D01*
X1940Y2186D01*
X1941Y2186D01*
X1941Y2185D01*
X1941Y2185D01*
X1942Y2184D01*
X1942Y2184D01*
X1943Y2183D01*
X1943Y2182D01*
X1944Y2181D01*
X1944Y2181D01*
X1945Y2180D01*
Y2180D01*
X1945Y2180D01*
X1945Y2179D01*
X1945Y2179D01*
X1945Y2178D01*
X1945Y2178D01*
X1946Y2177D01*
X1946Y2177D01*
X1946Y2176D01*
X1946Y2175D01*
X1946Y2174D01*
X1946Y2173D01*
X1947Y2171D01*
X1947Y2169D01*
Y2169D01*
Y2169D01*
Y2169D01*
X1947Y2168D01*
Y2168D01*
X1947Y2167D01*
X1947Y2167D01*
X1946Y2166D01*
X1946Y2165D01*
X1946Y2164D01*
X1946Y2163D01*
X1945Y2161D01*
X1945Y2160D01*
X1944Y2159D01*
X1944Y2159D01*
X1944Y2159D01*
X1944Y2159D01*
X1944Y2158D01*
X1944Y2158D01*
X1944Y2157D01*
X1943Y2157D01*
X1943Y2156D01*
X1942Y2155D01*
X1941Y2154D01*
X1939Y2153D01*
X1939Y2153D01*
X1938Y2152D01*
X1938Y2152D01*
X1938Y2152D01*
X1937Y2152D01*
X1937Y2152D01*
X1937Y2152D01*
X1936Y2151D01*
X1936Y2151D01*
X1935Y2151D01*
X1934Y2151D01*
X1934Y2151D01*
X1932Y2150D01*
X1930Y2150D01*
X1930Y2150D01*
X1928D01*
X1928Y2150D01*
X1927Y2150D01*
X1927Y2150D01*
X1926Y2150D01*
X1925Y2150D01*
X1924Y2151D01*
X1923Y2151D01*
X1922Y2151D01*
X1921Y2151D01*
X1920Y2152D01*
X1920Y2152D01*
X1919Y2153D01*
X1919Y2153D01*
X1919Y2153D01*
X1918Y2153D01*
X1918Y2153D01*
X1918Y2154D01*
X1918Y2154D01*
X1917Y2154D01*
X1917Y2155D01*
X1916Y2156D01*
X1916Y2156D01*
X1915Y2157D01*
X1915Y2158D01*
X1914Y2158D01*
X1914Y2159D01*
X1914Y2160D01*
X1913Y2161D01*
X1918Y2162D01*
Y2162D01*
X1918Y2162D01*
X1918Y2162D01*
X1919Y2162D01*
X1919Y2161D01*
X1919Y2161D01*
X1919Y2160D01*
X1920Y2159D01*
X1921Y2158D01*
X1921Y2157D01*
X1922Y2157D01*
X1922Y2156D01*
X1922D01*
X1922Y2156D01*
X1922Y2156D01*
X1923Y2156D01*
X1923Y2156D01*
X1923Y2156D01*
X1924Y2155D01*
X1925Y2155D01*
X1926Y2155D01*
X1927Y2154D01*
X1929Y2154D01*
X1929D01*
X1929Y2154D01*
X1930D01*
X1930Y2154D01*
X1931Y2154D01*
X1931Y2154D01*
X1932Y2155D01*
X1934Y2155D01*
X1935Y2156D01*
X1936Y2156D01*
X1936Y2156D01*
X1936D01*
X1936Y2156D01*
X1936Y2157D01*
X1937Y2157D01*
X1937Y2157D01*
X1938Y2158D01*
X1938Y2159D01*
X1939Y2160D01*
X1940Y2161D01*
X1940Y2162D01*
Y2162D01*
X1940Y2162D01*
X1940Y2162D01*
X1940Y2163D01*
X1941Y2163D01*
X1941Y2163D01*
X1941Y2164D01*
X1941Y2164D01*
X1941Y2165D01*
X1941Y2167D01*
X1941Y2168D01*
X1941Y2169D01*
Y2170D01*
Y2170D01*
Y2170D01*
Y2170D01*
X1941Y2171D01*
X1941Y2171D01*
Y2172D01*
X1941Y2172D01*
X1941Y2174D01*
X1941Y2175D01*
X1941Y2177D01*
X1940Y2178D01*
Y2178D01*
X1940Y2178D01*
X1940Y2178D01*
X1940Y2179D01*
X1940Y2179D01*
X1939Y2179D01*
X1939Y2180D01*
X1938Y2181D01*
X1938Y2182D01*
X1937Y2183D01*
X1936Y2183D01*
X1936D01*
X1935Y2184D01*
X1935Y2184D01*
X1935Y2184D01*
X1935Y2184D01*
X1934Y2184D01*
X1934Y2184D01*
X1933Y2185D01*
X1932Y2185D01*
X1930Y2185D01*
X1929Y2185D01*
X1929D01*
X1928Y2185D01*
X1928Y2185D01*
X1928Y2185D01*
X1927Y2185D01*
X1927Y2185D01*
X1925Y2185D01*
X1924Y2184D01*
X1924Y2184D01*
X1923Y2184D01*
X1922Y2183D01*
X1922Y2183D01*
X1922Y2183D01*
X1922Y2183D01*
X1922Y2183D01*
X1921Y2182D01*
X1921Y2182D01*
X1921Y2182D01*
X1921Y2181D01*
X1920Y2181D01*
X1920Y2181D01*
X1920Y2180D01*
X1919Y2179D01*
X1919Y2179D01*
X1919Y2178D01*
X1918Y2177D01*
X1918Y2176D01*
X1918Y2176D01*
X1913Y2177D01*
Y2177D01*
X1913Y2177D01*
X1913Y2177D01*
X1913Y2178D01*
X1913Y2178D01*
X1913Y2179D01*
X1914Y2180D01*
X1914Y2180D01*
X1914Y2181D01*
X1915Y2182D01*
X1915Y2183D01*
X1916Y2183D01*
X1916Y2184D01*
X1917Y2185D01*
X1918Y2186D01*
X1918Y2186D01*
X1919Y2186D01*
X1919Y2187D01*
X1919Y2187D01*
X1919Y2187D01*
X1920Y2187D01*
X1920Y2187D01*
X1921Y2188D01*
X1921Y2188D01*
X1922Y2188D01*
X1923Y2189D01*
X1924Y2189D01*
X1925Y2189D01*
X1925Y2189D01*
X1926Y2189D01*
X1928Y2190D01*
X1929Y2190D01*
X1929D01*
X1930Y2190D01*
D02*
G37*
G36*
X1985Y2151D02*
X1979D01*
X1969Y2178D01*
Y2179D01*
X1969Y2179D01*
X1969Y2179D01*
X1969Y2179D01*
X1969Y2179D01*
X1969Y2180D01*
X1969Y2181D01*
X1968Y2181D01*
X1968Y2183D01*
X1968Y2184D01*
X1967Y2185D01*
Y2185D01*
X1967Y2185D01*
X1967Y2184D01*
X1967Y2184D01*
X1967Y2184D01*
X1967Y2184D01*
X1967Y2183D01*
X1967Y2182D01*
X1966Y2181D01*
X1966Y2180D01*
X1965Y2178D01*
X1955Y2151D01*
X1950D01*
X1965Y2189D01*
X1970D01*
X1985Y2151D01*
D02*
G37*
G36*
X1871D02*
X1855D01*
X1854Y2151D01*
X1853Y2151D01*
X1852Y2151D01*
X1851Y2151D01*
X1850Y2151D01*
X1850D01*
X1850Y2151D01*
X1850Y2151D01*
X1849Y2151D01*
X1849Y2151D01*
X1848Y2152D01*
X1847Y2152D01*
X1846Y2152D01*
X1846Y2153D01*
X1846Y2153D01*
X1845Y2153D01*
X1845Y2153D01*
X1845Y2154D01*
X1844Y2154D01*
X1843Y2155D01*
X1843Y2156D01*
X1843Y2156D01*
Y2156D01*
X1842Y2157D01*
X1842Y2157D01*
X1842Y2157D01*
X1842Y2157D01*
X1842Y2158D01*
X1842Y2159D01*
X1842Y2160D01*
X1841Y2161D01*
X1841Y2162D01*
Y2162D01*
Y2162D01*
Y2162D01*
X1841Y2162D01*
X1841Y2163D01*
X1841Y2163D01*
X1842Y2164D01*
X1842Y2165D01*
X1842Y2166D01*
X1842Y2167D01*
X1843Y2167D01*
X1843Y2168D01*
X1843Y2169D01*
X1844Y2169D01*
X1844Y2170D01*
X1845Y2170D01*
X1845Y2170D01*
X1845Y2170D01*
X1845Y2171D01*
X1845Y2171D01*
X1846Y2171D01*
X1846Y2171D01*
X1847Y2172D01*
X1848Y2172D01*
X1849Y2172D01*
X1850Y2173D01*
X1851Y2173D01*
X1852Y2173D01*
X1853Y2173D01*
X1854Y2173D01*
X1856Y2173D01*
X1866D01*
Y2189D01*
X1871D01*
Y2151D01*
D02*
G37*
G36*
X1794Y2159D02*
X1794Y2159D01*
X1794Y2159D01*
X1795Y2160D01*
X1795Y2160D01*
X1796Y2160D01*
X1796Y2161D01*
X1797Y2162D01*
X1798Y2162D01*
X1798D01*
X1798Y2162D01*
X1799Y2162D01*
X1799Y2162D01*
X1799Y2163D01*
X1800Y2163D01*
X1801Y2163D01*
X1802Y2164D01*
X1802Y2164D01*
X1803Y2165D01*
Y2160D01*
X1803D01*
X1803Y2160D01*
X1803Y2160D01*
X1803Y2160D01*
X1802Y2160D01*
X1802Y2159D01*
X1801Y2159D01*
X1800Y2158D01*
X1799Y2157D01*
X1798Y2156D01*
X1796Y2156D01*
X1796Y2155D01*
X1796Y2155D01*
X1796Y2155D01*
X1796Y2155D01*
X1795Y2155D01*
X1795Y2154D01*
X1794Y2153D01*
X1793Y2152D01*
X1793Y2151D01*
X1792Y2150D01*
X1789D01*
Y2189D01*
X1794D01*
Y2159D01*
D02*
G37*
G36*
X564Y1269D02*
Y1263D01*
X526Y1248D01*
Y1253D01*
X537Y1258D01*
Y1274D01*
X526Y1278D01*
Y1283D01*
X564Y1269D01*
D02*
G37*
G36*
Y1238D02*
X534Y1218D01*
X564D01*
Y1213D01*
X526D01*
Y1218D01*
X556Y1239D01*
X526D01*
Y1243D01*
X564D01*
Y1238D01*
D02*
G37*
G36*
Y1177D02*
X559D01*
Y1190D01*
X526D01*
Y1195D01*
X559D01*
Y1208D01*
X564D01*
Y1177D01*
D02*
G37*
G36*
Y1166D02*
X526D01*
Y1171D01*
X564D01*
Y1166D01*
D02*
G37*
G36*
X518Y1131D02*
X515D01*
Y1162D01*
X518D01*
Y1131D01*
D02*
G37*
G36*
X538Y1124D02*
X538D01*
X538D01*
X538Y1124D01*
X538D01*
X537Y1124D01*
X537Y1124D01*
X536Y1123D01*
X535Y1123D01*
X534Y1123D01*
X534Y1122D01*
X533Y1122D01*
X533Y1122D01*
X533Y1122D01*
X533Y1121D01*
X532Y1121D01*
X532Y1120D01*
X531Y1119D01*
X531Y1119D01*
Y1119D01*
X531Y1118D01*
X530Y1118D01*
X530Y1118D01*
X530Y1118D01*
X530Y1118D01*
X530Y1117D01*
X530Y1116D01*
X530Y1115D01*
X530Y1114D01*
X529Y1113D01*
Y1112D01*
X530Y1112D01*
X530Y1111D01*
X530Y1110D01*
X530Y1109D01*
X530Y1108D01*
X530Y1108D01*
Y1108D01*
X530Y1107D01*
X530Y1107D01*
X531Y1107D01*
X531Y1106D01*
X531Y1106D01*
X532Y1105D01*
X532Y1105D01*
X533Y1104D01*
X533Y1104D01*
X533Y1104D01*
X533Y1104D01*
X534Y1104D01*
X534Y1103D01*
X535Y1103D01*
X535Y1103D01*
X536Y1103D01*
X536D01*
X536D01*
X537Y1103D01*
X537Y1103D01*
X538Y1103D01*
X538Y1104D01*
X539Y1104D01*
X539Y1104D01*
X539Y1104D01*
X539Y1104D01*
X540Y1105D01*
X540Y1105D01*
X540Y1106D01*
X541Y1106D01*
X541Y1107D01*
X541Y1108D01*
X541Y1108D01*
X541Y1108D01*
X542Y1108D01*
X542Y1108D01*
X542Y1109D01*
X542Y1109D01*
X542Y1110D01*
X542Y1110D01*
X542Y1111D01*
X542Y1111D01*
X543Y1112D01*
X543Y1113D01*
X543Y1114D01*
X543Y1115D01*
Y1115D01*
X543Y1115D01*
X543Y1115D01*
X543Y1115D01*
X544Y1116D01*
X544Y1116D01*
X544Y1117D01*
X544Y1119D01*
X545Y1120D01*
X545Y1121D01*
X545Y1121D01*
X546Y1122D01*
Y1122D01*
X546Y1122D01*
X546Y1122D01*
X546Y1122D01*
X546Y1123D01*
X547Y1123D01*
X547Y1124D01*
X548Y1125D01*
X548Y1125D01*
X549Y1126D01*
X549D01*
X549Y1126D01*
X550Y1126D01*
X550Y1126D01*
X551Y1127D01*
X551Y1127D01*
X552Y1127D01*
X553Y1127D01*
X554Y1127D01*
X554D01*
X554D01*
X554D01*
X555Y1127D01*
X555Y1127D01*
X556Y1127D01*
X557Y1127D01*
X558Y1127D01*
X559Y1126D01*
X559Y1126D01*
X560D01*
X560Y1126D01*
X560Y1125D01*
X560Y1125D01*
X561Y1124D01*
X562Y1124D01*
X562Y1123D01*
X563Y1122D01*
X563Y1121D01*
Y1121D01*
X563Y1121D01*
X563Y1121D01*
X564Y1120D01*
X564Y1120D01*
X564Y1120D01*
X564Y1119D01*
X564Y1119D01*
X564Y1118D01*
X564Y1117D01*
X565Y1115D01*
X565Y1114D01*
Y1113D01*
X565Y1113D01*
Y1112D01*
X565Y1112D01*
X565Y1111D01*
X564Y1110D01*
X564Y1109D01*
X564Y1108D01*
X563Y1106D01*
Y1106D01*
X563Y1106D01*
X563Y1106D01*
X563Y1106D01*
X563Y1105D01*
X562Y1104D01*
X562Y1104D01*
X561Y1103D01*
X560Y1102D01*
X559Y1101D01*
X559D01*
X559Y1101D01*
X559Y1101D01*
X559Y1101D01*
X558Y1101D01*
X558Y1101D01*
X557Y1100D01*
X557Y1100D01*
X556Y1100D01*
X554Y1099D01*
X553Y1099D01*
X553Y1104D01*
X553D01*
X553D01*
X553Y1104D01*
X553Y1104D01*
X554Y1104D01*
X554Y1105D01*
X555Y1105D01*
X556Y1105D01*
X557Y1106D01*
X558Y1106D01*
X558Y1107D01*
X558Y1107D01*
X558Y1107D01*
X559Y1107D01*
X559Y1108D01*
X559Y1108D01*
X559Y1108D01*
X559Y1109D01*
X559Y1109D01*
X560Y1110D01*
X560Y1110D01*
X560Y1111D01*
X560Y1111D01*
X560Y1112D01*
X560Y1113D01*
Y1114D01*
X560Y1115D01*
X560Y1115D01*
X560Y1116D01*
X560Y1117D01*
X559Y1118D01*
X559Y1119D01*
X559Y1120D01*
X558Y1120D01*
X558Y1120D01*
X558Y1121D01*
X558Y1121D01*
X557Y1121D01*
X557Y1122D01*
X556Y1122D01*
X555Y1122D01*
X554Y1122D01*
X554D01*
X554D01*
X554Y1122D01*
X553Y1122D01*
X553Y1122D01*
X552Y1122D01*
X551Y1121D01*
X551Y1121D01*
X551Y1121D01*
X551Y1121D01*
X551Y1121D01*
X551Y1120D01*
X550Y1120D01*
X550Y1120D01*
X550Y1119D01*
X550Y1119D01*
X550Y1118D01*
X549Y1118D01*
X549Y1117D01*
X549Y1116D01*
X549Y1115D01*
X548Y1114D01*
X548Y1113D01*
Y1113D01*
X548Y1113D01*
X548Y1113D01*
X548Y1112D01*
X548Y1112D01*
X548Y1111D01*
X548Y1111D01*
X547Y1110D01*
X547Y1109D01*
X547Y1107D01*
X546Y1106D01*
X546Y1106D01*
X546Y1105D01*
X546Y1105D01*
Y1105D01*
X546Y1105D01*
X546Y1105D01*
X545Y1104D01*
X545Y1104D01*
X545Y1103D01*
X544Y1102D01*
X543Y1101D01*
X543Y1101D01*
X542Y1100D01*
X542D01*
X542Y1100D01*
X542Y1100D01*
X541Y1100D01*
X541Y1099D01*
X540Y1099D01*
X539Y1099D01*
X539Y1098D01*
X538Y1098D01*
X536Y1098D01*
X536D01*
X536D01*
X536D01*
X536Y1098D01*
X536D01*
X535Y1098D01*
X535Y1098D01*
X534Y1099D01*
X533Y1099D01*
X532Y1099D01*
X531Y1100D01*
X531D01*
X531Y1100D01*
X530Y1100D01*
X530Y1100D01*
X530Y1101D01*
X529Y1101D01*
X528Y1102D01*
X528Y1103D01*
X527Y1104D01*
X526Y1105D01*
Y1105D01*
X526Y1105D01*
X526Y1105D01*
X526Y1106D01*
X526Y1106D01*
X526Y1106D01*
X526Y1107D01*
X526Y1107D01*
X525Y1108D01*
X525Y1110D01*
X525Y1111D01*
X525Y1112D01*
Y1113D01*
X525Y1113D01*
Y1114D01*
X525Y1114D01*
X525Y1115D01*
X525Y1115D01*
X525Y1117D01*
X526Y1118D01*
X526Y1120D01*
X526Y1121D01*
Y1121D01*
X526Y1121D01*
X527Y1122D01*
X527Y1122D01*
X527Y1122D01*
X527Y1122D01*
X528Y1123D01*
X528Y1124D01*
X529Y1125D01*
X530Y1126D01*
X531Y1127D01*
X531D01*
X531Y1127D01*
X531Y1127D01*
X532Y1127D01*
X532Y1127D01*
X532Y1127D01*
X533Y1127D01*
X533Y1128D01*
X534Y1128D01*
X535Y1128D01*
X537Y1129D01*
X538Y1129D01*
X538Y1124D01*
D02*
G37*
G36*
X564Y1064D02*
X559D01*
Y1076D01*
X526D01*
Y1082D01*
X559D01*
Y1094D01*
X564D01*
Y1064D01*
D02*
G37*
G36*
Y1048D02*
Y1042D01*
X526Y1027D01*
Y1033D01*
X537Y1037D01*
Y1053D01*
X526Y1057D01*
Y1063D01*
X564Y1048D01*
D02*
G37*
G36*
Y995D02*
X559D01*
Y1008D01*
X526D01*
Y1013D01*
X559D01*
Y1026D01*
X564D01*
Y995D01*
D02*
G37*
G36*
X555Y988D02*
X555Y988D01*
X555Y988D01*
X555Y988D01*
X555Y987D01*
X555Y987D01*
X556Y986D01*
X556Y985D01*
X557Y984D01*
X558Y982D01*
X559Y981D01*
X559Y981D01*
X559Y981D01*
X559Y981D01*
X559Y981D01*
X560Y980D01*
X561Y980D01*
X561Y979D01*
X562Y978D01*
X563Y978D01*
X564Y977D01*
Y974D01*
X526D01*
Y979D01*
X556D01*
X556Y979D01*
X555Y979D01*
X555Y979D01*
X555Y980D01*
X554Y981D01*
X554Y981D01*
X553Y982D01*
X552Y983D01*
Y983D01*
X552Y983D01*
X552Y983D01*
X552Y984D01*
X552Y984D01*
X551Y985D01*
X551Y986D01*
X551Y986D01*
X550Y987D01*
X550Y988D01*
X555D01*
Y988D01*
D02*
G37*
G36*
X1275Y3067D02*
X1276Y3067D01*
X1276Y3067D01*
X1277Y3066D01*
X1277Y3066D01*
X1279Y3066D01*
X1280Y3066D01*
X1281Y3065D01*
X1281Y3065D01*
X1282Y3065D01*
X1283Y3064D01*
X1284Y3064D01*
X1284Y3064D01*
X1284Y3064D01*
X1284Y3063D01*
X1284Y3063D01*
X1285Y3063D01*
X1285Y3063D01*
X1286Y3062D01*
X1286Y3062D01*
X1286Y3061D01*
X1287Y3060D01*
X1287Y3060D01*
X1288Y3059D01*
X1288Y3058D01*
X1289Y3057D01*
X1289Y3056D01*
X1289Y3055D01*
X1284Y3054D01*
Y3054D01*
X1284Y3054D01*
X1284Y3055D01*
X1284Y3055D01*
X1284Y3055D01*
X1284Y3056D01*
X1283Y3057D01*
X1283Y3058D01*
X1282Y3059D01*
X1281Y3060D01*
X1281Y3060D01*
X1280Y3060D01*
X1280D01*
X1280Y3060D01*
X1280Y3061D01*
X1280Y3061D01*
X1280Y3061D01*
X1279Y3061D01*
X1279Y3061D01*
X1278Y3062D01*
X1277Y3062D01*
X1275Y3062D01*
X1274Y3062D01*
X1274D01*
X1273Y3062D01*
X1273D01*
X1272Y3062D01*
X1272Y3062D01*
X1271Y3062D01*
X1270Y3062D01*
X1269Y3061D01*
X1268Y3061D01*
X1267Y3061D01*
X1267Y3060D01*
X1266D01*
X1266Y3060D01*
X1266Y3060D01*
X1266Y3060D01*
X1266Y3059D01*
X1265Y3059D01*
X1264Y3058D01*
X1264Y3057D01*
X1263Y3056D01*
X1262Y3054D01*
Y3054D01*
X1262Y3054D01*
X1262Y3054D01*
X1262Y3054D01*
X1262Y3054D01*
X1262Y3053D01*
X1262Y3053D01*
X1262Y3052D01*
X1262Y3051D01*
X1261Y3050D01*
X1261Y3048D01*
X1261Y3047D01*
Y3047D01*
Y3047D01*
Y3047D01*
Y3046D01*
X1261Y3046D01*
X1261Y3045D01*
Y3045D01*
X1261Y3044D01*
X1262Y3043D01*
X1262Y3041D01*
X1262Y3040D01*
X1263Y3039D01*
Y3038D01*
X1263Y3038D01*
X1263Y3038D01*
X1263Y3038D01*
X1263Y3038D01*
X1263Y3037D01*
X1264Y3036D01*
X1264Y3036D01*
X1265Y3035D01*
X1266Y3034D01*
X1267Y3033D01*
X1267D01*
X1267Y3033D01*
X1267Y3033D01*
X1268Y3033D01*
X1268Y3033D01*
X1268Y3033D01*
X1269Y3032D01*
X1270Y3032D01*
X1271Y3032D01*
X1272Y3031D01*
X1274Y3031D01*
X1274D01*
X1274Y3031D01*
X1275Y3031D01*
X1275Y3031D01*
X1276Y3031D01*
X1276Y3032D01*
X1277Y3032D01*
X1278Y3032D01*
X1279Y3033D01*
X1280Y3033D01*
X1280Y3033D01*
X1281Y3034D01*
X1281Y3034D01*
X1281Y3034D01*
X1281Y3034D01*
X1281Y3034D01*
X1282Y3034D01*
X1282Y3035D01*
X1282Y3035D01*
X1282Y3036D01*
X1283Y3036D01*
X1283Y3037D01*
X1283Y3037D01*
X1284Y3038D01*
X1284Y3039D01*
X1284Y3039D01*
X1285Y3040D01*
X1285Y3041D01*
X1290Y3040D01*
Y3040D01*
X1290Y3039D01*
X1290Y3039D01*
X1290Y3039D01*
X1289Y3038D01*
X1289Y3038D01*
X1289Y3037D01*
X1289Y3036D01*
X1288Y3035D01*
X1288Y3035D01*
X1287Y3034D01*
X1287Y3033D01*
X1286Y3032D01*
X1286Y3032D01*
X1285Y3031D01*
X1284Y3030D01*
X1284Y3030D01*
X1284Y3030D01*
X1284Y3030D01*
X1283Y3030D01*
X1283Y3029D01*
X1283Y3029D01*
X1282Y3029D01*
X1281Y3029D01*
X1281Y3028D01*
X1280Y3028D01*
X1279Y3028D01*
X1278Y3027D01*
X1277Y3027D01*
X1276Y3027D01*
X1275Y3027D01*
X1274Y3027D01*
X1273D01*
X1273Y3027D01*
X1272Y3027D01*
X1272Y3027D01*
X1271Y3027D01*
X1270Y3027D01*
X1269Y3028D01*
X1267Y3028D01*
X1266Y3028D01*
X1265Y3029D01*
X1265Y3029D01*
X1264Y3029D01*
X1264Y3029D01*
X1264Y3030D01*
X1264Y3030D01*
X1263Y3030D01*
X1263Y3030D01*
X1263Y3030D01*
X1262Y3031D01*
X1262Y3031D01*
X1261Y3032D01*
X1261Y3032D01*
X1260Y3033D01*
X1260Y3034D01*
X1259Y3034D01*
X1259Y3035D01*
X1258Y3036D01*
X1258Y3037D01*
Y3037D01*
X1258Y3037D01*
X1258Y3037D01*
X1258Y3038D01*
X1257Y3038D01*
X1257Y3039D01*
X1257Y3039D01*
X1257Y3040D01*
X1257Y3041D01*
X1257Y3041D01*
X1256Y3042D01*
X1256Y3043D01*
X1256Y3045D01*
X1256Y3047D01*
Y3047D01*
Y3047D01*
Y3048D01*
X1256Y3048D01*
Y3049D01*
X1256Y3049D01*
X1256Y3050D01*
X1256Y3051D01*
X1256Y3051D01*
X1256Y3052D01*
X1257Y3054D01*
X1257Y3056D01*
X1258Y3057D01*
X1258Y3058D01*
X1258Y3058D01*
X1258Y3058D01*
X1258Y3058D01*
X1259Y3058D01*
X1259Y3059D01*
X1259Y3059D01*
X1259Y3060D01*
X1260Y3060D01*
X1261Y3061D01*
X1262Y3062D01*
X1263Y3063D01*
X1264Y3064D01*
X1265Y3064D01*
X1265Y3064D01*
X1265Y3064D01*
X1265Y3065D01*
X1265Y3065D01*
X1266Y3065D01*
X1266Y3065D01*
X1267Y3065D01*
X1267Y3066D01*
X1268Y3066D01*
X1269Y3066D01*
X1270Y3066D01*
X1272Y3067D01*
X1273Y3067D01*
X1275D01*
X1275Y3067D01*
D02*
G37*
G36*
X1378Y3028D02*
X1373D01*
X1358Y3066D01*
X1363D01*
X1373Y3038D01*
Y3038D01*
X1374Y3038D01*
X1374Y3038D01*
X1374Y3038D01*
X1374Y3037D01*
X1374Y3037D01*
X1374Y3036D01*
X1374Y3035D01*
X1375Y3034D01*
X1375Y3033D01*
X1375Y3032D01*
Y3032D01*
X1376Y3032D01*
X1376Y3032D01*
X1376Y3032D01*
X1376Y3033D01*
X1376Y3033D01*
X1376Y3034D01*
X1376Y3035D01*
X1377Y3036D01*
X1377Y3037D01*
X1378Y3038D01*
X1388Y3066D01*
X1393D01*
X1378Y3028D01*
D02*
G37*
G36*
X1491D02*
X1486D01*
Y3058D01*
X1486Y3058D01*
X1486Y3057D01*
X1486Y3057D01*
X1485Y3057D01*
X1485Y3056D01*
X1484Y3056D01*
X1483Y3055D01*
X1482Y3054D01*
X1482D01*
X1482Y3054D01*
X1482Y3054D01*
X1481Y3054D01*
X1481Y3054D01*
X1480Y3053D01*
X1480Y3053D01*
X1479Y3053D01*
X1478Y3052D01*
X1477Y3052D01*
Y3057D01*
X1477D01*
X1477Y3057D01*
X1477Y3057D01*
X1478Y3057D01*
X1478Y3057D01*
X1478Y3057D01*
X1479Y3058D01*
X1480Y3058D01*
X1482Y3059D01*
X1483Y3060D01*
X1484Y3061D01*
X1484Y3061D01*
X1484Y3061D01*
X1484Y3061D01*
X1484Y3061D01*
X1485Y3062D01*
X1486Y3063D01*
X1486Y3063D01*
X1487Y3064D01*
X1488Y3065D01*
X1488Y3066D01*
X1491D01*
Y3028D01*
D02*
G37*
G36*
X1451Y3066D02*
X1452D01*
X1453Y3066D01*
X1454Y3066D01*
X1456Y3066D01*
X1457Y3065D01*
X1457D01*
X1457Y3065D01*
X1457Y3065D01*
X1457Y3065D01*
X1457Y3065D01*
X1458Y3065D01*
X1458Y3065D01*
X1459Y3064D01*
X1460Y3064D01*
X1461Y3063D01*
X1462Y3063D01*
X1462Y3063D01*
X1462Y3063D01*
X1462Y3062D01*
X1463Y3062D01*
X1463Y3062D01*
X1463Y3062D01*
X1464Y3061D01*
X1464Y3061D01*
X1465Y3060D01*
X1465Y3059D01*
X1466Y3058D01*
X1467Y3056D01*
Y3056D01*
X1467Y3056D01*
X1467Y3056D01*
X1467Y3055D01*
X1467Y3055D01*
X1467Y3055D01*
X1467Y3054D01*
X1468Y3053D01*
X1468Y3053D01*
X1468Y3052D01*
X1468Y3051D01*
X1468Y3051D01*
X1468Y3049D01*
X1468Y3047D01*
Y3047D01*
Y3047D01*
Y3047D01*
Y3046D01*
X1468Y3046D01*
Y3045D01*
X1468Y3045D01*
X1468Y3044D01*
X1468Y3043D01*
X1468Y3042D01*
X1468Y3041D01*
X1467Y3039D01*
Y3039D01*
X1467Y3039D01*
X1467Y3039D01*
X1467Y3039D01*
X1467Y3038D01*
X1467Y3038D01*
X1467Y3037D01*
X1466Y3036D01*
X1466Y3035D01*
X1465Y3034D01*
X1465Y3034D01*
X1465Y3034D01*
X1464Y3033D01*
X1464Y3033D01*
X1464Y3032D01*
X1463Y3032D01*
X1462Y3031D01*
X1462Y3031D01*
X1461Y3030D01*
X1461Y3030D01*
X1461Y3030D01*
X1460Y3030D01*
X1460Y3029D01*
X1459Y3029D01*
X1458Y3029D01*
X1457Y3028D01*
X1456Y3028D01*
X1456D01*
X1456Y3028D01*
X1456D01*
X1456Y3028D01*
X1456Y3028D01*
X1455Y3028D01*
X1455Y3028D01*
X1454Y3028D01*
X1453Y3028D01*
X1452Y3028D01*
X1450Y3028D01*
X1436D01*
Y3066D01*
X1451D01*
X1451Y3066D01*
D02*
G37*
G36*
X1412D02*
X1413D01*
X1415Y3066D01*
X1416Y3066D01*
X1417Y3066D01*
X1418Y3065D01*
X1418D01*
X1418Y3065D01*
X1418Y3065D01*
X1418Y3065D01*
X1419Y3065D01*
X1419Y3065D01*
X1420Y3065D01*
X1421Y3064D01*
X1422Y3064D01*
X1422Y3063D01*
X1423Y3063D01*
X1423Y3063D01*
X1424Y3063D01*
X1424Y3062D01*
X1424Y3062D01*
X1424Y3062D01*
X1424Y3062D01*
X1425Y3061D01*
X1425Y3061D01*
X1426Y3060D01*
X1427Y3059D01*
X1427Y3058D01*
X1428Y3056D01*
Y3056D01*
X1428Y3056D01*
X1428Y3056D01*
X1428Y3055D01*
X1428Y3055D01*
X1428Y3055D01*
X1429Y3054D01*
X1429Y3053D01*
X1429Y3053D01*
X1429Y3052D01*
X1429Y3051D01*
X1429Y3051D01*
X1429Y3049D01*
X1429Y3047D01*
Y3047D01*
Y3047D01*
Y3047D01*
Y3046D01*
X1429Y3046D01*
Y3045D01*
X1429Y3045D01*
X1429Y3044D01*
X1429Y3043D01*
X1429Y3042D01*
X1429Y3041D01*
X1428Y3039D01*
Y3039D01*
X1428Y3039D01*
X1428Y3039D01*
X1428Y3039D01*
X1428Y3038D01*
X1428Y3038D01*
X1428Y3037D01*
X1427Y3036D01*
X1427Y3035D01*
X1426Y3034D01*
X1426Y3034D01*
X1426Y3034D01*
X1426Y3033D01*
X1425Y3033D01*
X1425Y3032D01*
X1424Y3032D01*
X1424Y3031D01*
X1423Y3031D01*
X1422Y3030D01*
X1422Y3030D01*
X1422Y3030D01*
X1422Y3030D01*
X1421Y3029D01*
X1420Y3029D01*
X1420Y3029D01*
X1419Y3028D01*
X1418Y3028D01*
X1418D01*
X1418Y3028D01*
X1417D01*
X1417Y3028D01*
X1417Y3028D01*
X1417Y3028D01*
X1416Y3028D01*
X1415Y3028D01*
X1414Y3028D01*
X1413Y3028D01*
X1412Y3028D01*
X1398D01*
Y3066D01*
X1412D01*
X1412Y3066D01*
D02*
G37*
G36*
X1358Y3028D02*
X1352D01*
X1348Y3039D01*
X1331D01*
X1327Y3028D01*
X1322D01*
X1337Y3066D01*
X1342D01*
X1358Y3028D01*
D02*
G37*
G36*
X1323Y3017D02*
X1291D01*
Y3020D01*
X1323D01*
Y3017D01*
D02*
G37*
G36*
X1539Y3067D02*
X1539Y3067D01*
X1540Y3067D01*
X1541Y3066D01*
X1541Y3066D01*
X1543Y3066D01*
X1544Y3066D01*
X1544Y3065D01*
X1545Y3065D01*
X1546Y3065D01*
X1547Y3064D01*
X1548Y3064D01*
X1548Y3064D01*
X1548Y3064D01*
X1548Y3063D01*
X1548Y3063D01*
X1548Y3063D01*
X1549Y3063D01*
X1549Y3062D01*
X1550Y3062D01*
X1550Y3061D01*
X1551Y3060D01*
X1551Y3060D01*
X1552Y3059D01*
X1552Y3058D01*
X1552Y3057D01*
X1553Y3056D01*
X1553Y3055D01*
X1548Y3054D01*
Y3054D01*
X1548Y3054D01*
X1548Y3055D01*
X1548Y3055D01*
X1548Y3055D01*
X1548Y3056D01*
X1547Y3057D01*
X1547Y3058D01*
X1546Y3059D01*
X1545Y3060D01*
X1545Y3060D01*
X1544Y3060D01*
X1544D01*
X1544Y3060D01*
X1544Y3061D01*
X1544Y3061D01*
X1543Y3061D01*
X1543Y3061D01*
X1542Y3061D01*
X1541Y3062D01*
X1540Y3062D01*
X1539Y3062D01*
X1538Y3062D01*
X1537D01*
X1537Y3062D01*
X1537D01*
X1536Y3062D01*
X1536Y3062D01*
X1535Y3062D01*
X1534Y3062D01*
X1533Y3061D01*
X1531Y3061D01*
X1531Y3061D01*
X1530Y3060D01*
X1530D01*
X1530Y3060D01*
X1530Y3060D01*
X1530Y3060D01*
X1529Y3059D01*
X1529Y3059D01*
X1528Y3058D01*
X1527Y3057D01*
X1527Y3056D01*
X1526Y3054D01*
Y3054D01*
X1526Y3054D01*
X1526Y3054D01*
X1526Y3054D01*
X1526Y3054D01*
X1526Y3053D01*
X1526Y3053D01*
X1526Y3052D01*
X1525Y3051D01*
X1525Y3050D01*
X1525Y3048D01*
X1525Y3047D01*
Y3047D01*
Y3047D01*
Y3047D01*
Y3046D01*
X1525Y3046D01*
X1525Y3045D01*
Y3045D01*
X1525Y3044D01*
X1525Y3043D01*
X1526Y3041D01*
X1526Y3040D01*
X1526Y3039D01*
Y3038D01*
X1526Y3038D01*
X1526Y3038D01*
X1527Y3038D01*
X1527Y3038D01*
X1527Y3037D01*
X1527Y3036D01*
X1528Y3036D01*
X1529Y3035D01*
X1530Y3034D01*
X1531Y3033D01*
X1531D01*
X1531Y3033D01*
X1531Y3033D01*
X1531Y3033D01*
X1532Y3033D01*
X1532Y3033D01*
X1533Y3032D01*
X1534Y3032D01*
X1535Y3032D01*
X1536Y3031D01*
X1537Y3031D01*
X1538D01*
X1538Y3031D01*
X1538Y3031D01*
X1539Y3031D01*
X1539Y3031D01*
X1540Y3032D01*
X1541Y3032D01*
X1542Y3032D01*
X1543Y3033D01*
X1543Y3033D01*
X1544Y3033D01*
X1545Y3034D01*
X1545Y3034D01*
X1545Y3034D01*
X1545Y3034D01*
X1545Y3034D01*
X1545Y3034D01*
X1546Y3035D01*
X1546Y3035D01*
X1546Y3036D01*
X1547Y3036D01*
X1547Y3037D01*
X1547Y3037D01*
X1548Y3038D01*
X1548Y3039D01*
X1548Y3039D01*
X1548Y3040D01*
X1549Y3041D01*
X1554Y3040D01*
Y3040D01*
X1554Y3039D01*
X1554Y3039D01*
X1553Y3039D01*
X1553Y3038D01*
X1553Y3038D01*
X1553Y3037D01*
X1552Y3036D01*
X1552Y3035D01*
X1552Y3035D01*
X1551Y3034D01*
X1551Y3033D01*
X1550Y3032D01*
X1549Y3032D01*
X1549Y3031D01*
X1548Y3030D01*
X1548Y3030D01*
X1548Y3030D01*
X1548Y3030D01*
X1547Y3030D01*
X1547Y3029D01*
X1546Y3029D01*
X1546Y3029D01*
X1545Y3029D01*
X1544Y3028D01*
X1544Y3028D01*
X1543Y3028D01*
X1542Y3027D01*
X1541Y3027D01*
X1540Y3027D01*
X1539Y3027D01*
X1538Y3027D01*
X1537D01*
X1537Y3027D01*
X1536Y3027D01*
X1536Y3027D01*
X1535Y3027D01*
X1534Y3027D01*
X1533Y3028D01*
X1531Y3028D01*
X1530Y3028D01*
X1529Y3029D01*
X1528Y3029D01*
X1528Y3029D01*
X1528Y3029D01*
X1527Y3030D01*
X1527Y3030D01*
X1527Y3030D01*
X1527Y3030D01*
X1526Y3030D01*
X1526Y3031D01*
X1525Y3031D01*
X1525Y3032D01*
X1524Y3032D01*
X1524Y3033D01*
X1523Y3034D01*
X1523Y3034D01*
X1523Y3035D01*
X1522Y3036D01*
X1522Y3037D01*
Y3037D01*
X1522Y3037D01*
X1521Y3037D01*
X1521Y3038D01*
X1521Y3038D01*
X1521Y3039D01*
X1521Y3039D01*
X1521Y3040D01*
X1520Y3041D01*
X1520Y3041D01*
X1520Y3042D01*
X1520Y3043D01*
X1520Y3045D01*
X1520Y3047D01*
Y3047D01*
Y3047D01*
Y3048D01*
X1520Y3048D01*
Y3049D01*
X1520Y3049D01*
X1520Y3050D01*
X1520Y3051D01*
X1520Y3051D01*
X1520Y3052D01*
X1521Y3054D01*
X1521Y3056D01*
X1522Y3057D01*
X1522Y3058D01*
X1522Y3058D01*
X1522Y3058D01*
X1522Y3058D01*
X1522Y3058D01*
X1523Y3059D01*
X1523Y3059D01*
X1523Y3060D01*
X1524Y3060D01*
X1525Y3061D01*
X1526Y3062D01*
X1527Y3063D01*
X1528Y3064D01*
X1528Y3064D01*
X1529Y3064D01*
X1529Y3064D01*
X1529Y3065D01*
X1529Y3065D01*
X1530Y3065D01*
X1530Y3065D01*
X1531Y3065D01*
X1531Y3066D01*
X1532Y3066D01*
X1533Y3066D01*
X1534Y3066D01*
X1536Y3067D01*
X1537Y3067D01*
X1538D01*
X1539Y3067D01*
D02*
G37*
G36*
X1642Y3028D02*
X1637D01*
X1622Y3066D01*
X1627D01*
X1637Y3038D01*
Y3038D01*
X1637Y3038D01*
X1637Y3038D01*
X1637Y3038D01*
X1638Y3037D01*
X1638Y3037D01*
X1638Y3036D01*
X1638Y3035D01*
X1639Y3034D01*
X1639Y3033D01*
X1639Y3032D01*
Y3032D01*
X1639Y3032D01*
X1639Y3032D01*
X1639Y3032D01*
X1639Y3033D01*
X1640Y3033D01*
X1640Y3034D01*
X1640Y3035D01*
X1640Y3036D01*
X1641Y3037D01*
X1641Y3038D01*
X1652Y3066D01*
X1657D01*
X1642Y3028D01*
D02*
G37*
G36*
X1751Y3066D02*
X1751Y3066D01*
X1752Y3066D01*
X1752Y3066D01*
X1753Y3066D01*
X1754Y3065D01*
X1755Y3065D01*
X1756Y3065D01*
X1757Y3065D01*
X1757Y3064D01*
X1758Y3064D01*
X1759Y3063D01*
X1759Y3063D01*
X1759Y3063D01*
X1759Y3063D01*
X1759Y3063D01*
X1759Y3062D01*
X1760Y3062D01*
X1760Y3061D01*
X1760Y3061D01*
X1761Y3060D01*
X1761Y3060D01*
X1761Y3059D01*
X1762Y3058D01*
X1762Y3057D01*
X1762Y3056D01*
X1762Y3055D01*
Y3055D01*
Y3055D01*
X1762Y3055D01*
X1762Y3054D01*
X1762Y3053D01*
X1761Y3053D01*
X1761Y3052D01*
X1761Y3051D01*
X1761Y3051D01*
X1761Y3051D01*
X1760Y3050D01*
X1760Y3050D01*
X1760Y3049D01*
X1759Y3048D01*
X1758Y3047D01*
X1758Y3046D01*
Y3046D01*
X1758Y3046D01*
X1757Y3046D01*
X1757Y3046D01*
X1757Y3046D01*
X1757Y3045D01*
X1756Y3045D01*
X1756Y3044D01*
X1756Y3044D01*
X1755Y3044D01*
X1754Y3043D01*
X1754Y3042D01*
X1753Y3042D01*
X1752Y3041D01*
X1751Y3040D01*
X1750Y3039D01*
X1750Y3039D01*
X1750Y3039D01*
X1750Y3039D01*
X1750Y3039D01*
X1749Y3039D01*
X1749Y3038D01*
X1748Y3038D01*
X1747Y3037D01*
X1746Y3036D01*
X1746Y3036D01*
X1746Y3035D01*
X1745Y3035D01*
X1745Y3035D01*
X1745Y3035D01*
X1745Y3034D01*
X1745Y3034D01*
X1744Y3034D01*
X1744Y3033D01*
X1744Y3033D01*
X1743Y3032D01*
X1762D01*
Y3028D01*
X1736D01*
Y3028D01*
Y3028D01*
Y3028D01*
X1736Y3029D01*
X1737Y3029D01*
X1737Y3030D01*
X1737Y3030D01*
X1737Y3031D01*
Y3031D01*
X1737Y3031D01*
X1737Y3031D01*
X1737Y3031D01*
X1737Y3032D01*
X1738Y3032D01*
X1738Y3033D01*
X1739Y3034D01*
X1739Y3035D01*
X1740Y3036D01*
X1740Y3036D01*
X1740Y3036D01*
X1740Y3036D01*
X1740Y3036D01*
X1741Y3037D01*
X1742Y3038D01*
X1743Y3038D01*
X1744Y3039D01*
X1745Y3041D01*
X1746Y3042D01*
X1746Y3042D01*
X1747Y3042D01*
X1747Y3042D01*
X1747Y3043D01*
X1748Y3043D01*
X1748Y3044D01*
X1749Y3044D01*
X1750Y3045D01*
X1751Y3046D01*
X1752Y3047D01*
X1753Y3048D01*
X1754Y3049D01*
X1754Y3049D01*
X1755Y3050D01*
X1755Y3050D01*
X1755Y3050D01*
X1755Y3050D01*
X1755Y3050D01*
X1755Y3051D01*
X1755Y3051D01*
X1756Y3052D01*
X1756Y3053D01*
X1757Y3054D01*
X1757Y3055D01*
X1757Y3055D01*
Y3056D01*
Y3056D01*
Y3056D01*
Y3056D01*
X1757Y3056D01*
X1757Y3057D01*
X1757Y3057D01*
X1756Y3058D01*
X1756Y3059D01*
X1756Y3060D01*
X1755Y3060D01*
X1755Y3060D01*
X1755Y3061D01*
X1754Y3061D01*
X1754Y3061D01*
X1753Y3062D01*
X1752Y3062D01*
X1751Y3062D01*
X1750Y3062D01*
X1749D01*
X1749Y3062D01*
X1749D01*
X1748Y3062D01*
X1748Y3062D01*
X1747Y3062D01*
X1746Y3061D01*
X1745Y3061D01*
X1744Y3060D01*
X1744Y3060D01*
X1744Y3060D01*
X1744Y3059D01*
X1743Y3059D01*
X1743Y3058D01*
X1742Y3057D01*
X1742Y3056D01*
X1742Y3055D01*
X1737Y3055D01*
Y3055D01*
X1737Y3055D01*
Y3056D01*
X1737Y3056D01*
X1738Y3056D01*
X1738Y3057D01*
X1738Y3058D01*
X1738Y3058D01*
X1738Y3059D01*
X1739Y3060D01*
X1739Y3061D01*
X1739Y3062D01*
X1740Y3062D01*
X1740Y3063D01*
X1741Y3063D01*
X1741Y3063D01*
X1741Y3063D01*
X1741Y3064D01*
X1742Y3064D01*
X1742Y3064D01*
X1742Y3064D01*
X1743Y3064D01*
X1743Y3065D01*
X1744Y3065D01*
X1745Y3065D01*
X1745Y3066D01*
X1746Y3066D01*
X1747Y3066D01*
X1748Y3066D01*
X1749Y3066D01*
X1750Y3066D01*
X1750D01*
X1751Y3066D01*
D02*
G37*
G36*
X1715Y3066D02*
X1716D01*
X1717Y3066D01*
X1718Y3066D01*
X1719Y3066D01*
X1720Y3065D01*
X1720D01*
X1720Y3065D01*
X1721Y3065D01*
X1721Y3065D01*
X1721Y3065D01*
X1721Y3065D01*
X1722Y3065D01*
X1723Y3064D01*
X1724Y3064D01*
X1725Y3063D01*
X1726Y3063D01*
X1726Y3063D01*
X1726Y3063D01*
X1726Y3062D01*
X1726Y3062D01*
X1727Y3062D01*
X1727Y3062D01*
X1727Y3061D01*
X1728Y3061D01*
X1728Y3060D01*
X1729Y3059D01*
X1730Y3058D01*
X1730Y3056D01*
Y3056D01*
X1731Y3056D01*
X1731Y3056D01*
X1731Y3055D01*
X1731Y3055D01*
X1731Y3055D01*
X1731Y3054D01*
X1731Y3053D01*
X1731Y3053D01*
X1732Y3052D01*
X1732Y3051D01*
X1732Y3051D01*
X1732Y3049D01*
X1732Y3047D01*
Y3047D01*
Y3047D01*
Y3047D01*
Y3046D01*
X1732Y3046D01*
Y3045D01*
X1732Y3045D01*
X1732Y3044D01*
X1732Y3043D01*
X1732Y3042D01*
X1731Y3041D01*
X1731Y3039D01*
Y3039D01*
X1731Y3039D01*
X1731Y3039D01*
X1731Y3039D01*
X1731Y3038D01*
X1731Y3038D01*
X1730Y3037D01*
X1730Y3036D01*
X1729Y3035D01*
X1729Y3034D01*
X1728Y3034D01*
X1728Y3034D01*
X1728Y3033D01*
X1728Y3033D01*
X1727Y3032D01*
X1727Y3032D01*
X1726Y3031D01*
X1726Y3031D01*
X1725Y3030D01*
X1725Y3030D01*
X1724Y3030D01*
X1724Y3030D01*
X1724Y3029D01*
X1723Y3029D01*
X1722Y3029D01*
X1721Y3028D01*
X1720Y3028D01*
X1720D01*
X1720Y3028D01*
X1720D01*
X1720Y3028D01*
X1720Y3028D01*
X1719Y3028D01*
X1718Y3028D01*
X1718Y3028D01*
X1717Y3028D01*
X1715Y3028D01*
X1714Y3028D01*
X1700D01*
Y3066D01*
X1715D01*
X1715Y3066D01*
D02*
G37*
G36*
X1676D02*
X1677D01*
X1678Y3066D01*
X1679Y3066D01*
X1681Y3066D01*
X1681Y3065D01*
X1682D01*
X1682Y3065D01*
X1682Y3065D01*
X1682Y3065D01*
X1682Y3065D01*
X1683Y3065D01*
X1683Y3065D01*
X1684Y3064D01*
X1685Y3064D01*
X1686Y3063D01*
X1687Y3063D01*
X1687Y3063D01*
X1687Y3063D01*
X1687Y3062D01*
X1688Y3062D01*
X1688Y3062D01*
X1688Y3062D01*
X1688Y3061D01*
X1689Y3061D01*
X1690Y3060D01*
X1690Y3059D01*
X1691Y3058D01*
X1692Y3056D01*
Y3056D01*
X1692Y3056D01*
X1692Y3056D01*
X1692Y3055D01*
X1692Y3055D01*
X1692Y3055D01*
X1692Y3054D01*
X1692Y3053D01*
X1693Y3053D01*
X1693Y3052D01*
X1693Y3051D01*
X1693Y3051D01*
X1693Y3049D01*
X1693Y3047D01*
Y3047D01*
Y3047D01*
Y3047D01*
Y3046D01*
X1693Y3046D01*
Y3045D01*
X1693Y3045D01*
X1693Y3044D01*
X1693Y3043D01*
X1693Y3042D01*
X1693Y3041D01*
X1692Y3039D01*
Y3039D01*
X1692Y3039D01*
X1692Y3039D01*
X1692Y3039D01*
X1692Y3038D01*
X1692Y3038D01*
X1691Y3037D01*
X1691Y3036D01*
X1691Y3035D01*
X1690Y3034D01*
X1690Y3034D01*
X1690Y3034D01*
X1689Y3033D01*
X1689Y3033D01*
X1689Y3032D01*
X1688Y3032D01*
X1687Y3031D01*
X1687Y3031D01*
X1686Y3030D01*
X1686Y3030D01*
X1686Y3030D01*
X1685Y3030D01*
X1685Y3029D01*
X1684Y3029D01*
X1683Y3029D01*
X1682Y3028D01*
X1681Y3028D01*
X1681D01*
X1681Y3028D01*
X1681D01*
X1681Y3028D01*
X1681Y3028D01*
X1680Y3028D01*
X1680Y3028D01*
X1679Y3028D01*
X1678Y3028D01*
X1677Y3028D01*
X1675Y3028D01*
X1661D01*
Y3066D01*
X1676D01*
X1676Y3066D01*
D02*
G37*
G36*
X1621Y3028D02*
X1616D01*
X1611Y3039D01*
X1595D01*
X1591Y3028D01*
X1586D01*
X1600Y3066D01*
X1606D01*
X1621Y3028D01*
D02*
G37*
G36*
X1586Y3017D02*
X1555D01*
Y3020D01*
X1586D01*
Y3017D01*
D02*
G37*
G36*
X1665Y2921D02*
X1665Y2921D01*
X1666Y2921D01*
X1667Y2921D01*
X1667Y2921D01*
X1669Y2920D01*
X1670Y2920D01*
X1670Y2920D01*
X1671Y2919D01*
X1672Y2919D01*
X1673Y2919D01*
X1674Y2918D01*
X1674Y2918D01*
X1674Y2918D01*
X1674Y2918D01*
X1674Y2917D01*
X1674Y2917D01*
X1675Y2917D01*
X1675Y2916D01*
X1676Y2916D01*
X1676Y2915D01*
X1677Y2915D01*
X1677Y2914D01*
X1678Y2913D01*
X1678Y2913D01*
X1678Y2912D01*
X1679Y2911D01*
X1679Y2910D01*
X1674Y2909D01*
Y2909D01*
X1674Y2909D01*
X1674Y2909D01*
X1674Y2909D01*
X1674Y2910D01*
X1674Y2910D01*
X1673Y2911D01*
X1673Y2912D01*
X1672Y2913D01*
X1671Y2914D01*
X1671Y2914D01*
X1670Y2915D01*
X1670D01*
X1670Y2915D01*
X1670Y2915D01*
X1670Y2915D01*
X1669Y2915D01*
X1669Y2915D01*
X1668Y2916D01*
X1667Y2916D01*
X1666Y2916D01*
X1665Y2917D01*
X1664Y2917D01*
X1663D01*
X1663Y2917D01*
X1663D01*
X1662Y2917D01*
X1662Y2916D01*
X1661Y2916D01*
X1660Y2916D01*
X1659Y2916D01*
X1657Y2915D01*
X1657Y2915D01*
X1656Y2914D01*
X1656D01*
X1656Y2914D01*
X1656Y2914D01*
X1656Y2914D01*
X1655Y2914D01*
X1655Y2913D01*
X1654Y2912D01*
X1653Y2911D01*
X1653Y2910D01*
X1652Y2909D01*
Y2909D01*
X1652Y2909D01*
X1652Y2908D01*
X1652Y2908D01*
X1652Y2908D01*
X1652Y2907D01*
X1652Y2907D01*
X1652Y2907D01*
X1651Y2905D01*
X1651Y2904D01*
X1651Y2903D01*
X1651Y2901D01*
Y2901D01*
Y2901D01*
Y2901D01*
Y2901D01*
X1651Y2900D01*
X1651Y2900D01*
Y2899D01*
X1651Y2898D01*
X1651Y2897D01*
X1652Y2896D01*
X1652Y2894D01*
X1652Y2893D01*
Y2893D01*
X1652Y2893D01*
X1652Y2892D01*
X1653Y2892D01*
X1653Y2892D01*
X1653Y2892D01*
X1653Y2891D01*
X1654Y2890D01*
X1655Y2889D01*
X1656Y2888D01*
X1657Y2887D01*
X1657D01*
X1657Y2887D01*
X1657Y2887D01*
X1657Y2887D01*
X1658Y2887D01*
X1658Y2887D01*
X1659Y2886D01*
X1660Y2886D01*
X1661Y2886D01*
X1662Y2886D01*
X1663Y2886D01*
X1664D01*
X1664Y2886D01*
X1664Y2886D01*
X1665Y2886D01*
X1665Y2886D01*
X1666Y2886D01*
X1667Y2886D01*
X1668Y2887D01*
X1669Y2887D01*
X1669Y2887D01*
X1670Y2888D01*
X1671Y2888D01*
X1671Y2888D01*
X1671Y2888D01*
X1671Y2888D01*
X1671Y2888D01*
X1671Y2889D01*
X1672Y2889D01*
X1672Y2889D01*
X1672Y2890D01*
X1673Y2890D01*
X1673Y2891D01*
X1673Y2891D01*
X1674Y2892D01*
X1674Y2893D01*
X1674Y2894D01*
X1674Y2894D01*
X1675Y2895D01*
X1680Y2894D01*
Y2894D01*
X1680Y2894D01*
X1680Y2893D01*
X1679Y2893D01*
X1679Y2892D01*
X1679Y2892D01*
X1679Y2891D01*
X1678Y2890D01*
X1678Y2890D01*
X1678Y2889D01*
X1677Y2888D01*
X1677Y2887D01*
X1676Y2887D01*
X1675Y2886D01*
X1675Y2885D01*
X1674Y2884D01*
X1674Y2884D01*
X1674Y2884D01*
X1674Y2884D01*
X1673Y2884D01*
X1673Y2884D01*
X1672Y2883D01*
X1672Y2883D01*
X1671Y2883D01*
X1670Y2883D01*
X1670Y2882D01*
X1669Y2882D01*
X1668Y2882D01*
X1667Y2882D01*
X1666Y2881D01*
X1665Y2881D01*
X1664Y2881D01*
X1663D01*
X1663Y2881D01*
X1662Y2881D01*
X1662Y2881D01*
X1661Y2881D01*
X1660Y2882D01*
X1659Y2882D01*
X1657Y2882D01*
X1656Y2883D01*
X1655Y2883D01*
X1654Y2883D01*
X1654Y2884D01*
X1654Y2884D01*
X1653Y2884D01*
X1653Y2884D01*
X1653Y2884D01*
X1653Y2884D01*
X1652Y2885D01*
X1652Y2885D01*
X1651Y2886D01*
X1651Y2886D01*
X1650Y2887D01*
X1650Y2887D01*
X1649Y2888D01*
X1649Y2889D01*
X1649Y2889D01*
X1648Y2890D01*
X1648Y2891D01*
Y2891D01*
X1648Y2891D01*
X1647Y2892D01*
X1647Y2892D01*
X1647Y2892D01*
X1647Y2893D01*
X1647Y2893D01*
X1647Y2894D01*
X1646Y2895D01*
X1646Y2896D01*
X1646Y2897D01*
X1646Y2897D01*
X1646Y2899D01*
X1646Y2901D01*
Y2901D01*
Y2902D01*
Y2902D01*
X1646Y2902D01*
Y2903D01*
X1646Y2904D01*
X1646Y2904D01*
X1646Y2905D01*
X1646Y2906D01*
X1646Y2907D01*
X1647Y2908D01*
X1647Y2910D01*
X1648Y2911D01*
X1648Y2912D01*
X1648Y2912D01*
X1648Y2912D01*
X1648Y2912D01*
X1648Y2913D01*
X1649Y2913D01*
X1649Y2913D01*
X1649Y2914D01*
X1650Y2914D01*
X1651Y2915D01*
X1652Y2917D01*
X1653Y2918D01*
X1654Y2918D01*
X1654Y2919D01*
X1655Y2919D01*
X1655Y2919D01*
X1655Y2919D01*
X1655Y2919D01*
X1656Y2919D01*
X1656Y2919D01*
X1657Y2920D01*
X1657Y2920D01*
X1658Y2920D01*
X1659Y2920D01*
X1660Y2921D01*
X1662Y2921D01*
X1663Y2921D01*
X1664D01*
X1665Y2921D01*
D02*
G37*
G36*
X1771Y2882D02*
X1766D01*
X1751Y2920D01*
X1756D01*
X1766Y2892D01*
Y2892D01*
X1766Y2892D01*
X1766Y2892D01*
X1766Y2892D01*
X1767Y2892D01*
X1767Y2891D01*
X1767Y2890D01*
X1767Y2889D01*
X1768Y2888D01*
X1768Y2887D01*
X1768Y2886D01*
Y2886D01*
X1768Y2886D01*
X1768Y2886D01*
X1768Y2887D01*
X1768Y2887D01*
X1769Y2887D01*
X1769Y2888D01*
X1769Y2889D01*
X1769Y2890D01*
X1770Y2891D01*
X1770Y2892D01*
X1781Y2920D01*
X1786D01*
X1771Y2882D01*
D02*
G37*
G36*
X1844Y2920D02*
X1845D01*
X1846Y2920D01*
X1847Y2920D01*
X1848Y2920D01*
X1849Y2920D01*
X1849D01*
X1849Y2920D01*
X1850Y2920D01*
X1850Y2920D01*
X1850Y2919D01*
X1850Y2919D01*
X1851Y2919D01*
X1852Y2919D01*
X1853Y2918D01*
X1854Y2918D01*
X1855Y2917D01*
X1855Y2917D01*
X1855Y2917D01*
X1855Y2917D01*
X1855Y2917D01*
X1856Y2916D01*
X1856Y2916D01*
X1856Y2916D01*
X1857Y2915D01*
X1857Y2914D01*
X1858Y2913D01*
X1859Y2912D01*
X1859Y2910D01*
Y2910D01*
X1860Y2910D01*
X1860Y2910D01*
X1860Y2910D01*
X1860Y2909D01*
X1860Y2909D01*
X1860Y2908D01*
X1860Y2908D01*
X1860Y2907D01*
X1861Y2906D01*
X1861Y2906D01*
X1861Y2905D01*
X1861Y2903D01*
X1861Y2901D01*
Y2901D01*
Y2901D01*
Y2901D01*
Y2901D01*
X1861Y2900D01*
Y2900D01*
X1861Y2899D01*
X1861Y2899D01*
X1861Y2897D01*
X1861Y2896D01*
X1860Y2895D01*
X1860Y2894D01*
Y2893D01*
X1860Y2893D01*
X1860Y2893D01*
X1860Y2893D01*
X1860Y2893D01*
X1860Y2892D01*
X1859Y2892D01*
X1859Y2891D01*
X1858Y2890D01*
X1858Y2889D01*
X1857Y2888D01*
X1857Y2888D01*
X1857Y2888D01*
X1857Y2887D01*
X1856Y2887D01*
X1856Y2886D01*
X1855Y2886D01*
X1855Y2885D01*
X1854Y2884D01*
X1854Y2884D01*
X1853Y2884D01*
X1853Y2884D01*
X1853Y2884D01*
X1852Y2883D01*
X1851Y2883D01*
X1850Y2883D01*
X1849Y2883D01*
X1849D01*
X1849Y2882D01*
X1849D01*
X1849Y2882D01*
X1849Y2882D01*
X1848Y2882D01*
X1847Y2882D01*
X1847Y2882D01*
X1846Y2882D01*
X1844Y2882D01*
X1843Y2882D01*
X1829D01*
Y2920D01*
X1844D01*
X1844Y2920D01*
D02*
G37*
G36*
X1805D02*
X1806D01*
X1807Y2920D01*
X1808Y2920D01*
X1810Y2920D01*
X1810Y2920D01*
X1811D01*
X1811Y2920D01*
X1811Y2920D01*
X1811Y2920D01*
X1811Y2919D01*
X1812Y2919D01*
X1812Y2919D01*
X1813Y2919D01*
X1814Y2918D01*
X1815Y2918D01*
X1816Y2917D01*
X1816Y2917D01*
X1816Y2917D01*
X1816Y2917D01*
X1817Y2917D01*
X1817Y2916D01*
X1817Y2916D01*
X1817Y2916D01*
X1818Y2915D01*
X1819Y2914D01*
X1819Y2913D01*
X1820Y2912D01*
X1821Y2910D01*
Y2910D01*
X1821Y2910D01*
X1821Y2910D01*
X1821Y2910D01*
X1821Y2909D01*
X1821Y2909D01*
X1821Y2908D01*
X1821Y2908D01*
X1822Y2907D01*
X1822Y2906D01*
X1822Y2906D01*
X1822Y2905D01*
X1822Y2903D01*
X1822Y2901D01*
Y2901D01*
Y2901D01*
Y2901D01*
Y2901D01*
X1822Y2900D01*
Y2900D01*
X1822Y2899D01*
X1822Y2899D01*
X1822Y2897D01*
X1822Y2896D01*
X1822Y2895D01*
X1821Y2894D01*
Y2893D01*
X1821Y2893D01*
X1821Y2893D01*
X1821Y2893D01*
X1821Y2893D01*
X1821Y2892D01*
X1820Y2892D01*
X1820Y2891D01*
X1820Y2890D01*
X1819Y2889D01*
X1819Y2888D01*
X1819Y2888D01*
X1818Y2888D01*
X1818Y2887D01*
X1818Y2887D01*
X1817Y2886D01*
X1816Y2886D01*
X1816Y2885D01*
X1815Y2884D01*
X1815Y2884D01*
X1815Y2884D01*
X1814Y2884D01*
X1814Y2884D01*
X1813Y2883D01*
X1812Y2883D01*
X1811Y2883D01*
X1810Y2883D01*
X1810D01*
X1810Y2882D01*
X1810D01*
X1810Y2882D01*
X1810Y2882D01*
X1809Y2882D01*
X1809Y2882D01*
X1808Y2882D01*
X1807Y2882D01*
X1806Y2882D01*
X1804Y2882D01*
X1790D01*
Y2920D01*
X1805D01*
X1805Y2920D01*
D02*
G37*
G36*
X1731D02*
X1732D01*
X1733Y2920D01*
X1734Y2920D01*
X1735Y2920D01*
X1736Y2920D01*
X1736D01*
X1736Y2920D01*
X1736Y2920D01*
X1736Y2920D01*
X1737Y2919D01*
X1737Y2919D01*
X1738Y2919D01*
X1739Y2919D01*
X1740Y2918D01*
X1741Y2918D01*
X1742Y2917D01*
X1742Y2917D01*
X1742Y2917D01*
X1742Y2917D01*
X1742Y2917D01*
X1742Y2916D01*
X1743Y2916D01*
X1743Y2916D01*
X1743Y2915D01*
X1744Y2914D01*
X1745Y2913D01*
X1745Y2912D01*
X1746Y2910D01*
Y2910D01*
X1746Y2910D01*
X1746Y2910D01*
X1746Y2910D01*
X1746Y2909D01*
X1747Y2909D01*
X1747Y2908D01*
X1747Y2908D01*
X1747Y2907D01*
X1747Y2906D01*
X1747Y2906D01*
X1747Y2905D01*
X1748Y2903D01*
X1748Y2901D01*
Y2901D01*
Y2901D01*
Y2901D01*
Y2901D01*
X1748Y2900D01*
Y2900D01*
X1748Y2899D01*
X1747Y2899D01*
X1747Y2897D01*
X1747Y2896D01*
X1747Y2895D01*
X1747Y2894D01*
Y2893D01*
X1747Y2893D01*
X1746Y2893D01*
X1746Y2893D01*
X1746Y2893D01*
X1746Y2892D01*
X1746Y2892D01*
X1746Y2891D01*
X1745Y2890D01*
X1745Y2889D01*
X1744Y2888D01*
X1744Y2888D01*
X1744Y2888D01*
X1743Y2887D01*
X1743Y2887D01*
X1742Y2886D01*
X1742Y2886D01*
X1741Y2885D01*
X1740Y2884D01*
X1740Y2884D01*
X1740Y2884D01*
X1740Y2884D01*
X1739Y2884D01*
X1738Y2883D01*
X1738Y2883D01*
X1737Y2883D01*
X1736Y2883D01*
X1736D01*
X1736Y2882D01*
X1736D01*
X1735Y2882D01*
X1735Y2882D01*
X1735Y2882D01*
X1734Y2882D01*
X1733Y2882D01*
X1732Y2882D01*
X1731Y2882D01*
X1730Y2882D01*
X1716D01*
Y2920D01*
X1730D01*
X1731Y2920D01*
D02*
G37*
G36*
X1712Y2871D02*
X1681D01*
Y2875D01*
X1712D01*
Y2871D01*
D02*
G37*
G36*
X1907Y2405D02*
X1908Y2405D01*
X1908Y2405D01*
X1909Y2405D01*
X1909Y2405D01*
X1911Y2405D01*
X1912Y2404D01*
X1913Y2404D01*
X1913Y2404D01*
X1914Y2403D01*
X1915Y2403D01*
X1916Y2402D01*
X1916Y2402D01*
X1916Y2402D01*
X1916Y2402D01*
X1916Y2402D01*
X1917Y2401D01*
X1917Y2401D01*
X1918Y2401D01*
X1918Y2400D01*
X1918Y2400D01*
X1919Y2399D01*
X1919Y2398D01*
X1920Y2398D01*
X1920Y2397D01*
X1921Y2396D01*
X1921Y2395D01*
X1921Y2394D01*
X1916Y2393D01*
Y2393D01*
X1916Y2393D01*
X1916Y2393D01*
X1916Y2394D01*
X1916Y2394D01*
X1916Y2394D01*
X1915Y2395D01*
X1915Y2396D01*
X1914Y2397D01*
X1913Y2398D01*
X1913Y2399D01*
X1912Y2399D01*
X1912D01*
X1912Y2399D01*
X1912Y2399D01*
X1912Y2399D01*
X1912Y2399D01*
X1911Y2400D01*
X1911Y2400D01*
X1910Y2400D01*
X1909Y2401D01*
X1907Y2401D01*
X1906Y2401D01*
X1906D01*
X1905Y2401D01*
X1905D01*
X1904Y2401D01*
X1904Y2401D01*
X1903Y2401D01*
X1902Y2400D01*
X1901Y2400D01*
X1900Y2399D01*
X1899Y2399D01*
X1899Y2399D01*
X1898D01*
X1898Y2399D01*
X1898Y2399D01*
X1898Y2398D01*
X1898Y2398D01*
X1897Y2397D01*
X1896Y2396D01*
X1896Y2395D01*
X1895Y2394D01*
X1894Y2393D01*
Y2393D01*
X1894Y2393D01*
X1894Y2393D01*
X1894Y2392D01*
X1894Y2392D01*
X1894Y2392D01*
X1894Y2391D01*
X1894Y2391D01*
X1894Y2390D01*
X1893Y2388D01*
X1893Y2387D01*
X1893Y2386D01*
Y2386D01*
Y2385D01*
Y2385D01*
Y2385D01*
X1893Y2384D01*
X1893Y2384D01*
Y2383D01*
X1893Y2383D01*
X1894Y2381D01*
X1894Y2380D01*
X1894Y2378D01*
X1895Y2377D01*
Y2377D01*
X1895Y2377D01*
X1895Y2377D01*
X1895Y2376D01*
X1895Y2376D01*
X1895Y2376D01*
X1896Y2375D01*
X1896Y2374D01*
X1897Y2373D01*
X1898Y2372D01*
X1899Y2372D01*
X1899D01*
X1899Y2372D01*
X1899Y2371D01*
X1900Y2371D01*
X1900Y2371D01*
X1900Y2371D01*
X1901Y2371D01*
X1902Y2370D01*
X1903Y2370D01*
X1904Y2370D01*
X1906Y2370D01*
X1906D01*
X1906Y2370D01*
X1907Y2370D01*
X1907Y2370D01*
X1908Y2370D01*
X1908Y2370D01*
X1909Y2370D01*
X1910Y2371D01*
X1911Y2371D01*
X1912Y2371D01*
X1912Y2372D01*
X1913Y2372D01*
X1913Y2372D01*
X1913Y2372D01*
X1913Y2373D01*
X1913Y2373D01*
X1914Y2373D01*
X1914Y2373D01*
X1914Y2374D01*
X1914Y2374D01*
X1915Y2375D01*
X1915Y2375D01*
X1915Y2376D01*
X1916Y2376D01*
X1916Y2377D01*
X1916Y2378D01*
X1917Y2379D01*
X1917Y2380D01*
X1922Y2378D01*
Y2378D01*
X1922Y2378D01*
X1922Y2378D01*
X1922Y2377D01*
X1921Y2377D01*
X1921Y2376D01*
X1921Y2375D01*
X1921Y2375D01*
X1920Y2374D01*
X1920Y2373D01*
X1919Y2372D01*
X1919Y2372D01*
X1918Y2371D01*
X1918Y2370D01*
X1917Y2369D01*
X1916Y2369D01*
X1916Y2369D01*
X1916Y2369D01*
X1916Y2368D01*
X1915Y2368D01*
X1915Y2368D01*
X1915Y2368D01*
X1914Y2367D01*
X1913Y2367D01*
X1913Y2367D01*
X1912Y2367D01*
X1911Y2366D01*
X1910Y2366D01*
X1909Y2366D01*
X1908Y2366D01*
X1907Y2366D01*
X1906Y2365D01*
X1905D01*
X1905Y2366D01*
X1904Y2366D01*
X1904Y2366D01*
X1903Y2366D01*
X1902Y2366D01*
X1901Y2366D01*
X1899Y2367D01*
X1898Y2367D01*
X1897Y2367D01*
X1897Y2368D01*
X1896Y2368D01*
X1896Y2368D01*
X1896Y2368D01*
X1896Y2368D01*
X1895Y2368D01*
X1895Y2369D01*
X1895Y2369D01*
X1894Y2369D01*
X1894Y2370D01*
X1893Y2370D01*
X1893Y2371D01*
X1892Y2371D01*
X1892Y2372D01*
X1891Y2373D01*
X1891Y2374D01*
X1890Y2374D01*
X1890Y2375D01*
Y2375D01*
X1890Y2376D01*
X1890Y2376D01*
X1890Y2376D01*
X1889Y2377D01*
X1889Y2377D01*
X1889Y2378D01*
X1889Y2378D01*
X1889Y2379D01*
X1889Y2380D01*
X1888Y2381D01*
X1888Y2382D01*
X1888Y2384D01*
X1888Y2386D01*
Y2386D01*
Y2386D01*
Y2386D01*
X1888Y2387D01*
Y2387D01*
X1888Y2388D01*
X1888Y2388D01*
X1888Y2389D01*
X1888Y2390D01*
X1888Y2391D01*
X1889Y2393D01*
X1889Y2394D01*
X1890Y2395D01*
X1890Y2396D01*
X1890Y2396D01*
X1890Y2396D01*
X1890Y2397D01*
X1891Y2397D01*
X1891Y2397D01*
X1891Y2398D01*
X1891Y2398D01*
X1892Y2399D01*
X1893Y2400D01*
X1894Y2401D01*
X1895Y2402D01*
X1896Y2402D01*
X1897Y2403D01*
X1897Y2403D01*
X1897Y2403D01*
X1897Y2403D01*
X1897Y2403D01*
X1898Y2403D01*
X1898Y2404D01*
X1899Y2404D01*
X1899Y2404D01*
X1900Y2404D01*
X1901Y2404D01*
X1902Y2405D01*
X1904Y2405D01*
X1905Y2405D01*
X1907D01*
X1907Y2405D01*
D02*
G37*
G36*
X1803D02*
X1803Y2405D01*
X1804Y2405D01*
X1804Y2405D01*
X1805Y2405D01*
X1807Y2405D01*
X1807Y2404D01*
X1808Y2404D01*
X1809Y2404D01*
X1810Y2403D01*
X1811Y2403D01*
X1811Y2402D01*
X1811Y2402D01*
X1811Y2402D01*
X1812Y2402D01*
X1812Y2402D01*
X1812Y2401D01*
X1813Y2401D01*
X1813Y2401D01*
X1814Y2400D01*
X1814Y2400D01*
X1814Y2399D01*
X1815Y2398D01*
X1815Y2398D01*
X1816Y2397D01*
X1816Y2396D01*
X1817Y2395D01*
X1817Y2394D01*
X1812Y2393D01*
Y2393D01*
X1812Y2393D01*
X1812Y2393D01*
X1812Y2394D01*
X1811Y2394D01*
X1811Y2394D01*
X1811Y2395D01*
X1810Y2396D01*
X1810Y2397D01*
X1809Y2398D01*
X1808Y2399D01*
X1808Y2399D01*
X1808D01*
X1808Y2399D01*
X1808Y2399D01*
X1808Y2399D01*
X1807Y2399D01*
X1807Y2400D01*
X1806Y2400D01*
X1805Y2400D01*
X1804Y2401D01*
X1803Y2401D01*
X1802Y2401D01*
X1801D01*
X1801Y2401D01*
X1800D01*
X1800Y2401D01*
X1799Y2401D01*
X1799Y2401D01*
X1798Y2400D01*
X1797Y2400D01*
X1795Y2399D01*
X1795Y2399D01*
X1794Y2399D01*
X1794D01*
X1794Y2399D01*
X1794Y2399D01*
X1794Y2398D01*
X1793Y2398D01*
X1792Y2397D01*
X1792Y2396D01*
X1791Y2395D01*
X1790Y2394D01*
X1790Y2393D01*
Y2393D01*
X1790Y2393D01*
X1790Y2393D01*
X1790Y2392D01*
X1790Y2392D01*
X1790Y2392D01*
X1789Y2391D01*
X1789Y2391D01*
X1789Y2390D01*
X1789Y2388D01*
X1789Y2387D01*
X1789Y2386D01*
Y2386D01*
Y2385D01*
Y2385D01*
Y2385D01*
X1789Y2384D01*
X1789Y2384D01*
Y2383D01*
X1789Y2383D01*
X1789Y2381D01*
X1789Y2380D01*
X1790Y2378D01*
X1790Y2377D01*
Y2377D01*
X1790Y2377D01*
X1790Y2377D01*
X1790Y2376D01*
X1791Y2376D01*
X1791Y2376D01*
X1791Y2375D01*
X1792Y2374D01*
X1793Y2373D01*
X1794Y2372D01*
X1795Y2372D01*
X1795D01*
X1795Y2372D01*
X1795Y2371D01*
X1795Y2371D01*
X1795Y2371D01*
X1796Y2371D01*
X1797Y2371D01*
X1798Y2370D01*
X1799Y2370D01*
X1800Y2370D01*
X1801Y2370D01*
X1802D01*
X1802Y2370D01*
X1802Y2370D01*
X1803Y2370D01*
X1803Y2370D01*
X1804Y2370D01*
X1805Y2370D01*
X1806Y2371D01*
X1807Y2371D01*
X1807Y2371D01*
X1808Y2372D01*
X1808Y2372D01*
X1808Y2372D01*
X1809Y2372D01*
X1809Y2373D01*
X1809Y2373D01*
X1809Y2373D01*
X1809Y2373D01*
X1810Y2374D01*
X1810Y2374D01*
X1810Y2375D01*
X1811Y2375D01*
X1811Y2376D01*
X1811Y2376D01*
X1812Y2377D01*
X1812Y2378D01*
X1812Y2379D01*
X1812Y2380D01*
X1818Y2378D01*
Y2378D01*
X1817Y2378D01*
X1817Y2378D01*
X1817Y2377D01*
X1817Y2377D01*
X1817Y2376D01*
X1817Y2375D01*
X1816Y2375D01*
X1816Y2374D01*
X1815Y2373D01*
X1815Y2372D01*
X1814Y2372D01*
X1814Y2371D01*
X1813Y2370D01*
X1812Y2369D01*
X1812Y2369D01*
X1812Y2369D01*
X1812Y2369D01*
X1811Y2368D01*
X1811Y2368D01*
X1811Y2368D01*
X1810Y2368D01*
X1810Y2367D01*
X1809Y2367D01*
X1808Y2367D01*
X1807Y2367D01*
X1807Y2366D01*
X1806Y2366D01*
X1805Y2366D01*
X1804Y2366D01*
X1803Y2366D01*
X1802Y2365D01*
X1801D01*
X1801Y2366D01*
X1800Y2366D01*
X1799Y2366D01*
X1799Y2366D01*
X1798Y2366D01*
X1796Y2366D01*
X1795Y2367D01*
X1794Y2367D01*
X1793Y2367D01*
X1792Y2368D01*
X1791Y2368D01*
X1791Y2368D01*
X1791Y2368D01*
X1791Y2368D01*
X1791Y2368D01*
X1790Y2369D01*
X1790Y2369D01*
X1790Y2369D01*
X1789Y2370D01*
X1789Y2370D01*
X1788Y2371D01*
X1788Y2371D01*
X1787Y2372D01*
X1787Y2373D01*
X1786Y2374D01*
X1786Y2374D01*
X1785Y2375D01*
Y2375D01*
X1785Y2376D01*
X1785Y2376D01*
X1785Y2376D01*
X1785Y2377D01*
X1785Y2377D01*
X1785Y2378D01*
X1784Y2378D01*
X1784Y2379D01*
X1784Y2380D01*
X1784Y2381D01*
X1784Y2382D01*
X1784Y2384D01*
X1783Y2386D01*
Y2386D01*
Y2386D01*
Y2386D01*
X1784Y2387D01*
Y2387D01*
X1784Y2388D01*
X1784Y2388D01*
X1784Y2389D01*
X1784Y2390D01*
X1784Y2391D01*
X1784Y2393D01*
X1785Y2394D01*
X1785Y2395D01*
X1786Y2396D01*
X1786Y2396D01*
X1786Y2396D01*
X1786Y2397D01*
X1786Y2397D01*
X1786Y2397D01*
X1787Y2398D01*
X1787Y2398D01*
X1787Y2399D01*
X1788Y2400D01*
X1789Y2401D01*
X1791Y2402D01*
X1792Y2402D01*
X1792Y2403D01*
X1792Y2403D01*
X1792Y2403D01*
X1793Y2403D01*
X1793Y2403D01*
X1793Y2403D01*
X1794Y2404D01*
X1794Y2404D01*
X1795Y2404D01*
X1796Y2404D01*
X1796Y2404D01*
X1798Y2405D01*
X1800Y2405D01*
X1801Y2405D01*
X1802D01*
X1803Y2405D01*
D02*
G37*
G36*
X1870Y2366D02*
X1865D01*
X1850Y2405D01*
X1855D01*
X1865Y2377D01*
Y2377D01*
X1865Y2376D01*
X1865Y2376D01*
X1865Y2376D01*
X1866Y2376D01*
X1866Y2375D01*
X1866Y2375D01*
X1866Y2374D01*
X1867Y2373D01*
X1867Y2371D01*
X1867Y2370D01*
Y2370D01*
X1867Y2370D01*
X1867Y2371D01*
X1867Y2371D01*
X1867Y2371D01*
X1868Y2371D01*
X1868Y2372D01*
X1868Y2373D01*
X1868Y2374D01*
X1869Y2375D01*
X1869Y2377D01*
X1880Y2405D01*
X1885D01*
X1870Y2366D01*
D02*
G37*
G36*
X2011Y2405D02*
X2012Y2405D01*
X2013Y2405D01*
X2013Y2404D01*
X2014Y2404D01*
X2015Y2404D01*
X2016Y2404D01*
X2017Y2403D01*
X2017Y2403D01*
X2018Y2403D01*
X2019Y2402D01*
X2019Y2402D01*
X2019Y2402D01*
X2020Y2401D01*
X2020Y2401D01*
X2020Y2401D01*
X2020Y2401D01*
X2020Y2400D01*
X2021Y2400D01*
X2021Y2400D01*
X2021Y2399D01*
X2022Y2398D01*
X2022Y2397D01*
X2022Y2396D01*
X2022Y2396D01*
X2023Y2395D01*
X2023Y2394D01*
Y2394D01*
Y2394D01*
X2023Y2393D01*
X2023Y2393D01*
X2022Y2392D01*
X2022Y2391D01*
X2022Y2390D01*
X2022Y2389D01*
X2022Y2389D01*
X2021Y2389D01*
X2021Y2389D01*
X2021Y2388D01*
X2020Y2387D01*
X2020Y2387D01*
X2019Y2386D01*
X2019Y2385D01*
Y2385D01*
X2018Y2385D01*
X2018Y2385D01*
X2018Y2384D01*
X2018Y2384D01*
X2018Y2384D01*
X2017Y2383D01*
X2017Y2383D01*
X2016Y2383D01*
X2016Y2382D01*
X2015Y2381D01*
X2015Y2381D01*
X2014Y2380D01*
X2013Y2380D01*
X2012Y2379D01*
X2011Y2378D01*
X2011Y2378D01*
X2011Y2378D01*
X2011Y2378D01*
X2011Y2377D01*
X2010Y2377D01*
X2010Y2377D01*
X2009Y2376D01*
X2008Y2375D01*
X2007Y2374D01*
X2007Y2374D01*
X2006Y2374D01*
X2006Y2373D01*
X2006Y2373D01*
X2006Y2373D01*
X2006Y2373D01*
X2005Y2373D01*
X2005Y2372D01*
X2005Y2372D01*
X2004Y2372D01*
X2004Y2371D01*
X2023D01*
Y2366D01*
X1997D01*
Y2366D01*
Y2366D01*
Y2367D01*
X1997Y2367D01*
X1997Y2368D01*
X1997Y2368D01*
X1998Y2369D01*
X1998Y2369D01*
Y2369D01*
X1998Y2369D01*
X1998Y2370D01*
X1998Y2370D01*
X1998Y2370D01*
X1999Y2371D01*
X1999Y2372D01*
X1999Y2373D01*
X2000Y2374D01*
X2001Y2374D01*
X2001Y2375D01*
X2001Y2375D01*
X2001Y2375D01*
X2001Y2375D01*
X2002Y2375D01*
X2002Y2376D01*
X2003Y2377D01*
X2004Y2378D01*
X2006Y2379D01*
X2007Y2380D01*
X2007Y2380D01*
X2007Y2381D01*
X2008Y2381D01*
X2008Y2381D01*
X2009Y2382D01*
X2009Y2382D01*
X2010Y2383D01*
X2010Y2383D01*
X2012Y2385D01*
X2013Y2386D01*
X2014Y2387D01*
X2015Y2387D01*
X2015Y2388D01*
X2016Y2388D01*
X2016Y2389D01*
X2016Y2389D01*
X2016Y2389D01*
X2016Y2389D01*
X2016Y2389D01*
X2016Y2390D01*
X2017Y2390D01*
X2017Y2391D01*
X2017Y2392D01*
X2018Y2393D01*
X2018Y2394D01*
Y2394D01*
Y2394D01*
Y2394D01*
Y2394D01*
X2018Y2395D01*
X2018Y2395D01*
X2018Y2396D01*
X2017Y2397D01*
X2017Y2397D01*
X2016Y2398D01*
X2016Y2399D01*
X2016Y2399D01*
X2015Y2399D01*
X2015Y2399D01*
X2014Y2400D01*
X2014Y2400D01*
X2013Y2401D01*
X2012Y2401D01*
X2010Y2401D01*
X2010D01*
X2010Y2401D01*
X2010D01*
X2009Y2401D01*
X2009Y2401D01*
X2008Y2400D01*
X2007Y2400D01*
X2006Y2399D01*
X2005Y2399D01*
X2005Y2399D01*
X2005Y2398D01*
X2004Y2398D01*
X2004Y2397D01*
X2004Y2396D01*
X2003Y2396D01*
X2003Y2394D01*
X2003Y2393D01*
X1998Y2394D01*
Y2394D01*
X1998Y2394D01*
Y2394D01*
X1998Y2395D01*
X1998Y2395D01*
X1998Y2395D01*
X1999Y2396D01*
X1999Y2397D01*
X1999Y2398D01*
X2000Y2399D01*
X2000Y2399D01*
X2000Y2400D01*
X2001Y2401D01*
X2001Y2401D01*
X2002Y2402D01*
X2002Y2402D01*
X2002Y2402D01*
X2002Y2402D01*
X2002Y2402D01*
X2003Y2403D01*
X2003Y2403D01*
X2004Y2403D01*
X2004Y2403D01*
X2005Y2404D01*
X2005Y2404D01*
X2006Y2404D01*
X2007Y2404D01*
X2008Y2404D01*
X2009Y2405D01*
X2010Y2405D01*
X2011Y2405D01*
X2011D01*
X2011Y2405D01*
D02*
G37*
G36*
X1981Y2405D02*
X1982Y2404D01*
X1983Y2404D01*
X1984Y2404D01*
X1984Y2404D01*
X1984D01*
X1985Y2404D01*
X1985Y2404D01*
X1985Y2404D01*
X1986Y2404D01*
X1987Y2404D01*
X1987Y2403D01*
X1988Y2403D01*
X1989Y2402D01*
X1989Y2402D01*
X1989Y2402D01*
X1990Y2402D01*
X1990Y2401D01*
X1991Y2401D01*
X1991Y2400D01*
X1992Y2400D01*
X1992Y2399D01*
Y2399D01*
X1992Y2399D01*
X1992Y2398D01*
X1992Y2398D01*
X1993Y2398D01*
X1993Y2397D01*
X1993Y2396D01*
X1993Y2395D01*
X1993Y2394D01*
X1993Y2393D01*
Y2393D01*
Y2393D01*
Y2393D01*
X1993Y2393D01*
X1993Y2392D01*
X1993Y2392D01*
X1993Y2391D01*
X1993Y2391D01*
X1993Y2389D01*
X1992Y2389D01*
X1992Y2388D01*
X1992Y2387D01*
X1991Y2386D01*
X1991Y2386D01*
X1990Y2385D01*
X1990Y2385D01*
X1990Y2385D01*
X1990Y2385D01*
X1990Y2385D01*
X1989Y2384D01*
X1989Y2384D01*
X1988Y2384D01*
X1988Y2383D01*
X1987Y2383D01*
X1986Y2383D01*
X1985Y2383D01*
X1984Y2382D01*
X1983Y2382D01*
X1982Y2382D01*
X1980Y2382D01*
X1979Y2382D01*
X1969D01*
Y2366D01*
X1964D01*
Y2405D01*
X1980D01*
X1981Y2405D01*
D02*
G37*
G36*
X1960Y2366D02*
X1954D01*
X1950Y2378D01*
X1934D01*
X1929Y2366D01*
X1924D01*
X1939Y2405D01*
X1944D01*
X1960Y2366D01*
D02*
G37*
G36*
X1850Y2355D02*
X1819D01*
Y2359D01*
X1850D01*
Y2355D01*
D02*
G37*
G36*
X1154Y2488D02*
X1155D01*
X1156Y2488D01*
X1156Y2488D01*
X1157Y2488D01*
X1158Y2488D01*
X1159Y2488D01*
X1160Y2487D01*
X1162Y2487D01*
X1163Y2486D01*
X1164Y2486D01*
X1164Y2486D01*
X1164Y2486D01*
X1164Y2486D01*
X1165Y2485D01*
X1165Y2485D01*
X1165Y2485D01*
X1166Y2485D01*
X1166Y2484D01*
X1167Y2483D01*
X1169Y2482D01*
X1170Y2481D01*
X1170Y2480D01*
X1171Y2479D01*
X1171Y2479D01*
X1171Y2479D01*
X1171Y2479D01*
X1171Y2479D01*
X1171Y2478D01*
X1171Y2478D01*
X1172Y2477D01*
X1172Y2477D01*
X1172Y2476D01*
X1172Y2475D01*
X1173Y2474D01*
X1173Y2472D01*
X1173Y2471D01*
Y2469D01*
X1173Y2469D01*
X1173Y2469D01*
X1173Y2468D01*
X1173Y2467D01*
X1173Y2467D01*
X1172Y2465D01*
X1172Y2464D01*
X1172Y2463D01*
X1171Y2463D01*
X1171Y2462D01*
X1171Y2461D01*
X1170Y2460D01*
X1170Y2460D01*
X1170Y2460D01*
X1170Y2460D01*
X1169Y2460D01*
X1169Y2459D01*
X1169Y2459D01*
X1168Y2459D01*
X1168Y2458D01*
X1167Y2458D01*
X1167Y2457D01*
X1166Y2457D01*
X1165Y2456D01*
X1165Y2456D01*
X1164Y2455D01*
X1163Y2455D01*
X1162Y2455D01*
X1161Y2460D01*
X1161D01*
X1161Y2460D01*
X1161Y2460D01*
X1161Y2460D01*
X1162Y2460D01*
X1162Y2460D01*
X1163Y2461D01*
X1164Y2461D01*
X1165Y2462D01*
X1166Y2463D01*
X1166Y2463D01*
X1167Y2464D01*
Y2464D01*
X1167Y2464D01*
X1167Y2464D01*
X1167Y2464D01*
X1167Y2464D01*
X1167Y2465D01*
X1168Y2465D01*
X1168Y2466D01*
X1168Y2467D01*
X1169Y2469D01*
X1169Y2470D01*
Y2471D01*
X1169Y2471D01*
Y2471D01*
X1169Y2472D01*
X1168Y2472D01*
X1168Y2473D01*
X1168Y2474D01*
X1168Y2475D01*
X1167Y2476D01*
X1167Y2477D01*
X1166Y2478D01*
Y2478D01*
X1166Y2478D01*
X1166Y2478D01*
X1166Y2478D01*
X1166Y2479D01*
X1165Y2479D01*
X1164Y2480D01*
X1163Y2481D01*
X1162Y2481D01*
X1161Y2482D01*
X1161D01*
X1161Y2482D01*
X1160Y2482D01*
X1160Y2482D01*
X1160Y2482D01*
X1159Y2482D01*
X1159Y2482D01*
X1159Y2482D01*
X1157Y2483D01*
X1156Y2483D01*
X1155Y2483D01*
X1153Y2483D01*
X1153D01*
X1153D01*
X1153D01*
X1153D01*
X1152Y2483D01*
X1152Y2483D01*
X1151D01*
X1150Y2483D01*
X1149Y2483D01*
X1148Y2482D01*
X1146Y2482D01*
X1145Y2482D01*
X1145D01*
X1145Y2481D01*
X1144Y2481D01*
X1144Y2481D01*
X1144Y2481D01*
X1144Y2481D01*
X1143Y2480D01*
X1142Y2480D01*
X1141Y2479D01*
X1140Y2478D01*
X1139Y2477D01*
Y2477D01*
X1139Y2477D01*
X1139Y2477D01*
X1139Y2477D01*
X1139Y2476D01*
X1139Y2476D01*
X1138Y2475D01*
X1138Y2474D01*
X1138Y2473D01*
X1138Y2472D01*
X1138Y2471D01*
Y2470D01*
X1138Y2470D01*
X1138Y2469D01*
X1138Y2469D01*
X1138Y2469D01*
X1138Y2468D01*
X1138Y2467D01*
X1139Y2466D01*
X1139Y2465D01*
X1139Y2464D01*
X1140Y2464D01*
X1140Y2463D01*
X1140Y2463D01*
X1140Y2463D01*
X1140Y2463D01*
X1140Y2463D01*
X1141Y2463D01*
X1141Y2462D01*
X1141Y2462D01*
X1142Y2462D01*
X1142Y2461D01*
X1143Y2461D01*
X1143Y2461D01*
X1144Y2460D01*
X1145Y2460D01*
X1146Y2460D01*
X1146Y2459D01*
X1147Y2459D01*
X1146Y2454D01*
X1146D01*
X1146Y2454D01*
X1145Y2454D01*
X1145Y2454D01*
X1144Y2455D01*
X1144Y2455D01*
X1143Y2455D01*
X1142Y2455D01*
X1142Y2456D01*
X1141Y2456D01*
X1140Y2457D01*
X1139Y2457D01*
X1139Y2458D01*
X1138Y2458D01*
X1137Y2459D01*
X1136Y2460D01*
X1136Y2460D01*
X1136Y2460D01*
X1136Y2460D01*
X1136Y2461D01*
X1136Y2461D01*
X1135Y2462D01*
X1135Y2462D01*
X1135Y2463D01*
X1135Y2463D01*
X1134Y2464D01*
X1134Y2465D01*
X1134Y2466D01*
X1134Y2467D01*
X1133Y2468D01*
X1133Y2469D01*
X1133Y2470D01*
Y2471D01*
X1133Y2471D01*
X1133Y2472D01*
X1133Y2472D01*
X1133Y2473D01*
X1134Y2474D01*
X1134Y2475D01*
X1134Y2477D01*
X1135Y2478D01*
X1135Y2479D01*
X1135Y2479D01*
X1136Y2480D01*
X1136Y2480D01*
X1136Y2480D01*
X1136Y2481D01*
X1136Y2481D01*
X1136Y2481D01*
X1137Y2482D01*
X1137Y2482D01*
X1138Y2482D01*
X1138Y2483D01*
X1139Y2483D01*
X1139Y2484D01*
X1140Y2484D01*
X1141Y2485D01*
X1141Y2485D01*
X1142Y2486D01*
X1143Y2486D01*
X1143D01*
X1143Y2486D01*
X1144Y2486D01*
X1144Y2486D01*
X1144Y2487D01*
X1145Y2487D01*
X1145Y2487D01*
X1146Y2487D01*
X1147Y2487D01*
X1148Y2488D01*
X1149Y2488D01*
X1149Y2488D01*
X1151Y2488D01*
X1153Y2488D01*
X1153D01*
X1154D01*
X1154D01*
X1154Y2488D01*
D02*
G37*
G36*
X1162Y2447D02*
X1165D01*
X1165D01*
X1165D01*
X1165D01*
X1165D01*
X1166Y2447D01*
X1166D01*
X1167Y2447D01*
X1168Y2447D01*
X1168Y2447D01*
X1169Y2447D01*
X1169Y2447D01*
X1169Y2447D01*
X1169Y2447D01*
X1170Y2446D01*
X1170Y2446D01*
X1171Y2446D01*
X1171Y2445D01*
X1172Y2445D01*
X1172Y2444D01*
X1172Y2444D01*
X1172Y2444D01*
X1172Y2443D01*
X1173Y2443D01*
X1173Y2442D01*
X1173Y2441D01*
X1173Y2440D01*
Y2439D01*
X1173Y2438D01*
X1173Y2438D01*
X1173Y2437D01*
X1173Y2436D01*
X1172Y2435D01*
X1168Y2436D01*
Y2436D01*
X1168Y2436D01*
X1168Y2437D01*
X1168Y2437D01*
X1169Y2437D01*
X1169Y2438D01*
X1169Y2439D01*
Y2439D01*
X1169Y2439D01*
X1169Y2440D01*
X1168Y2440D01*
X1168Y2441D01*
X1168Y2441D01*
X1168Y2442D01*
X1168Y2442D01*
X1167Y2442D01*
X1167Y2442D01*
X1167Y2442D01*
X1166Y2442D01*
X1166Y2443D01*
X1165Y2443D01*
X1164Y2443D01*
X1162D01*
Y2437D01*
X1158D01*
Y2443D01*
X1134D01*
Y2447D01*
X1158D01*
Y2452D01*
X1162D01*
Y2447D01*
D02*
G37*
G36*
X1155Y2435D02*
X1155Y2435D01*
X1156D01*
X1157Y2435D01*
X1158Y2435D01*
X1160Y2434D01*
X1162Y2434D01*
X1163Y2434D01*
X1164Y2433D01*
X1164D01*
X1164Y2433D01*
X1164Y2433D01*
X1164Y2433D01*
X1165Y2433D01*
X1165Y2433D01*
X1166Y2432D01*
X1167Y2432D01*
X1168Y2431D01*
X1169Y2430D01*
X1170Y2429D01*
X1170Y2429D01*
X1170Y2429D01*
X1170Y2429D01*
X1171Y2429D01*
X1171Y2429D01*
X1171Y2428D01*
X1171Y2428D01*
X1171Y2427D01*
X1172Y2426D01*
X1172Y2425D01*
X1172Y2424D01*
X1172Y2423D01*
Y2422D01*
X1172Y2422D01*
Y2421D01*
X1172Y2421D01*
X1172Y2420D01*
X1172Y2419D01*
X1172Y2418D01*
X1171Y2417D01*
Y2417D01*
X1171Y2417D01*
X1171Y2417D01*
X1171Y2416D01*
X1170Y2416D01*
X1170Y2415D01*
X1169Y2414D01*
X1168Y2414D01*
X1168Y2413D01*
X1168D01*
X1168Y2413D01*
X1167Y2413D01*
X1167Y2413D01*
X1167Y2413D01*
X1166Y2412D01*
X1165Y2412D01*
X1164Y2411D01*
X1163Y2411D01*
X1162Y2411D01*
X1162D01*
X1162Y2411D01*
X1162Y2411D01*
X1161Y2411D01*
X1161Y2411D01*
X1161Y2410D01*
X1160Y2410D01*
X1159Y2410D01*
X1159Y2410D01*
X1158Y2410D01*
X1157Y2410D01*
X1157Y2410D01*
X1156Y2410D01*
X1155Y2410D01*
X1154Y2410D01*
X1153D01*
X1153D01*
X1153D01*
X1152D01*
X1152D01*
X1151Y2410D01*
X1150D01*
X1150Y2410D01*
X1149Y2410D01*
X1147Y2410D01*
X1145Y2410D01*
X1144Y2411D01*
X1143Y2411D01*
X1142Y2411D01*
X1142D01*
X1142Y2411D01*
X1141Y2411D01*
X1141Y2411D01*
X1141Y2412D01*
X1140Y2412D01*
X1140Y2412D01*
X1138Y2413D01*
X1137Y2414D01*
X1136Y2414D01*
X1135Y2415D01*
Y2415D01*
X1135Y2416D01*
X1135Y2416D01*
X1135Y2416D01*
X1135Y2416D01*
X1135Y2417D01*
X1135Y2417D01*
X1134Y2417D01*
X1134Y2418D01*
X1134Y2420D01*
X1133Y2421D01*
X1133Y2422D01*
X1133Y2422D01*
Y2423D01*
X1133Y2423D01*
Y2423D01*
X1133Y2424D01*
X1133Y2424D01*
X1134Y2425D01*
X1134Y2426D01*
X1134Y2426D01*
X1134Y2427D01*
X1135Y2428D01*
X1135Y2428D01*
X1135Y2429D01*
X1136Y2430D01*
X1136Y2430D01*
X1137Y2431D01*
X1137Y2431D01*
X1137Y2431D01*
X1138Y2431D01*
X1138Y2432D01*
X1139Y2432D01*
X1139Y2432D01*
X1140Y2433D01*
X1141Y2433D01*
X1142Y2433D01*
X1143Y2434D01*
X1144Y2434D01*
X1146Y2434D01*
X1147Y2435D01*
X1149Y2435D01*
X1151Y2435D01*
X1153Y2435D01*
X1153D01*
X1153D01*
X1153D01*
X1154D01*
X1155Y2435D01*
D02*
G37*
G36*
X1127Y2377D02*
X1123D01*
Y2408D01*
X1127D01*
Y2377D01*
D02*
G37*
G36*
X1135Y2376D02*
X1135Y2376D01*
X1136Y2376D01*
X1137Y2376D01*
X1137Y2375D01*
X1137D01*
X1137Y2375D01*
X1137Y2375D01*
X1138Y2375D01*
X1138Y2375D01*
X1139Y2375D01*
X1140Y2374D01*
X1140Y2374D01*
X1141Y2373D01*
X1142Y2372D01*
X1142Y2372D01*
X1142Y2372D01*
X1142Y2372D01*
X1143Y2372D01*
X1143Y2371D01*
X1144Y2371D01*
X1145Y2370D01*
X1146Y2369D01*
X1147Y2367D01*
X1148Y2366D01*
X1148Y2366D01*
X1148Y2366D01*
X1149Y2365D01*
X1149Y2365D01*
X1149Y2365D01*
X1150Y2364D01*
X1150Y2363D01*
X1151Y2363D01*
X1152Y2361D01*
X1154Y2360D01*
X1154Y2359D01*
X1155Y2359D01*
X1156Y2358D01*
X1156Y2358D01*
X1156Y2358D01*
X1156Y2357D01*
X1157Y2357D01*
X1157Y2357D01*
X1157Y2357D01*
X1157Y2357D01*
X1158Y2356D01*
X1159Y2356D01*
X1160Y2356D01*
X1161Y2355D01*
X1161Y2355D01*
X1162D01*
X1162D01*
X1162D01*
X1162D01*
X1162Y2355D01*
X1163Y2355D01*
X1164Y2356D01*
X1164Y2356D01*
X1165Y2356D01*
X1166Y2357D01*
X1167Y2357D01*
X1167Y2357D01*
X1167Y2358D01*
X1167Y2358D01*
X1168Y2359D01*
X1168Y2360D01*
X1168Y2360D01*
X1168Y2361D01*
X1169Y2363D01*
Y2363D01*
X1169Y2363D01*
Y2363D01*
X1168Y2364D01*
X1168Y2365D01*
X1168Y2365D01*
X1168Y2366D01*
X1167Y2367D01*
X1167Y2368D01*
X1166Y2368D01*
X1166Y2368D01*
X1166Y2369D01*
X1165Y2369D01*
X1164Y2369D01*
X1163Y2370D01*
X1162Y2370D01*
X1161Y2370D01*
X1161Y2375D01*
X1161D01*
X1162Y2375D01*
X1162D01*
X1162Y2375D01*
X1163Y2375D01*
X1163Y2375D01*
X1164Y2375D01*
X1164Y2374D01*
X1166Y2374D01*
X1166Y2374D01*
X1167Y2373D01*
X1168Y2373D01*
X1168Y2372D01*
X1169Y2372D01*
X1170Y2371D01*
X1170Y2371D01*
X1170Y2371D01*
X1170Y2371D01*
X1170Y2371D01*
X1170Y2370D01*
X1171Y2370D01*
X1171Y2369D01*
X1171Y2369D01*
X1171Y2368D01*
X1172Y2368D01*
X1172Y2367D01*
X1172Y2366D01*
X1172Y2365D01*
X1172Y2364D01*
X1172Y2364D01*
X1172Y2363D01*
Y2362D01*
X1172Y2362D01*
X1172Y2361D01*
X1172Y2361D01*
X1172Y2360D01*
X1172Y2359D01*
X1172Y2358D01*
X1171Y2357D01*
X1171Y2356D01*
X1171Y2356D01*
X1170Y2355D01*
X1170Y2354D01*
X1169Y2354D01*
X1169Y2354D01*
X1169Y2354D01*
X1169Y2353D01*
X1169Y2353D01*
X1169Y2353D01*
X1168Y2353D01*
X1168Y2352D01*
X1167Y2352D01*
X1167Y2352D01*
X1166Y2352D01*
X1165Y2351D01*
X1164Y2351D01*
X1163Y2351D01*
X1163Y2351D01*
X1162Y2350D01*
X1162D01*
X1161D01*
X1161Y2351D01*
X1160Y2351D01*
X1160Y2351D01*
X1159Y2351D01*
X1158Y2351D01*
X1157Y2351D01*
X1157Y2351D01*
X1157Y2352D01*
X1156Y2352D01*
X1156Y2352D01*
X1155Y2353D01*
X1154Y2353D01*
X1153Y2354D01*
X1153Y2355D01*
X1152D01*
X1152Y2355D01*
X1152Y2355D01*
X1152Y2355D01*
X1152Y2355D01*
X1152Y2356D01*
X1151Y2356D01*
X1151Y2356D01*
X1150Y2357D01*
X1150Y2357D01*
X1149Y2358D01*
X1149Y2359D01*
X1148Y2359D01*
X1147Y2360D01*
X1147Y2361D01*
X1146Y2362D01*
X1146Y2362D01*
X1146Y2362D01*
X1145Y2362D01*
X1145Y2363D01*
X1145Y2363D01*
X1145Y2363D01*
X1144Y2364D01*
X1143Y2365D01*
X1142Y2366D01*
X1142Y2366D01*
X1142Y2367D01*
X1141Y2367D01*
X1141Y2367D01*
X1141Y2367D01*
X1141Y2368D01*
X1140Y2368D01*
X1140Y2368D01*
X1140Y2368D01*
X1139Y2369D01*
X1138Y2369D01*
Y2350D01*
X1134D01*
Y2376D01*
X1134D01*
X1134D01*
X1134D01*
X1135Y2376D01*
D02*
G37*
G36*
X1153Y2688D02*
X1153D01*
X1154Y2688D01*
X1154Y2688D01*
X1155Y2688D01*
X1156Y2688D01*
X1157Y2688D01*
X1159Y2688D01*
X1160Y2687D01*
X1161Y2687D01*
X1162Y2686D01*
X1162Y2686D01*
X1162Y2686D01*
X1163Y2686D01*
X1163Y2686D01*
X1163Y2686D01*
X1164Y2685D01*
X1164Y2685D01*
X1165Y2685D01*
X1166Y2684D01*
X1167Y2683D01*
X1168Y2681D01*
X1168Y2680D01*
X1169Y2680D01*
X1169Y2680D01*
X1169Y2680D01*
X1169Y2679D01*
X1169Y2679D01*
X1169Y2679D01*
X1170Y2678D01*
X1170Y2678D01*
X1170Y2677D01*
X1170Y2676D01*
X1170Y2676D01*
X1171Y2674D01*
X1171Y2672D01*
X1171Y2671D01*
Y2670D01*
X1171Y2669D01*
X1171Y2669D01*
X1171Y2668D01*
X1171Y2668D01*
X1171Y2667D01*
X1171Y2665D01*
X1170Y2665D01*
X1170Y2664D01*
X1170Y2663D01*
X1169Y2662D01*
X1169Y2661D01*
X1168Y2661D01*
X1168Y2661D01*
X1168Y2661D01*
X1168Y2660D01*
X1168Y2660D01*
X1167Y2660D01*
X1167Y2659D01*
X1167Y2659D01*
X1166Y2658D01*
X1166Y2658D01*
X1165Y2658D01*
X1164Y2657D01*
X1164Y2657D01*
X1163Y2656D01*
X1162Y2656D01*
X1161Y2655D01*
X1160Y2655D01*
X1159Y2660D01*
X1159D01*
X1159Y2660D01*
X1159Y2660D01*
X1160Y2660D01*
X1160Y2661D01*
X1160Y2661D01*
X1161Y2661D01*
X1162Y2662D01*
X1163Y2662D01*
X1164Y2663D01*
X1165Y2664D01*
X1165Y2664D01*
Y2664D01*
X1165Y2664D01*
X1165Y2664D01*
X1165Y2664D01*
X1165Y2665D01*
X1166Y2665D01*
X1166Y2666D01*
X1166Y2667D01*
X1167Y2668D01*
X1167Y2669D01*
X1167Y2670D01*
Y2671D01*
X1167Y2671D01*
Y2672D01*
X1167Y2672D01*
X1167Y2673D01*
X1167Y2673D01*
X1166Y2674D01*
X1166Y2675D01*
X1165Y2677D01*
X1165Y2677D01*
X1165Y2678D01*
Y2678D01*
X1165Y2678D01*
X1165Y2678D01*
X1164Y2678D01*
X1164Y2679D01*
X1163Y2680D01*
X1162Y2680D01*
X1161Y2681D01*
X1160Y2682D01*
X1159Y2682D01*
X1159D01*
X1159Y2682D01*
X1159Y2682D01*
X1158Y2682D01*
X1158Y2682D01*
X1158Y2682D01*
X1157Y2683D01*
X1157Y2683D01*
X1156Y2683D01*
X1154Y2683D01*
X1153Y2683D01*
X1152Y2683D01*
X1152D01*
X1151D01*
X1151D01*
X1151D01*
X1150Y2683D01*
X1150Y2683D01*
X1149D01*
X1149Y2683D01*
X1147Y2683D01*
X1146Y2683D01*
X1144Y2682D01*
X1143Y2682D01*
X1143D01*
X1143Y2682D01*
X1143Y2682D01*
X1142Y2682D01*
X1142Y2681D01*
X1142Y2681D01*
X1141Y2681D01*
X1140Y2680D01*
X1139Y2679D01*
X1138Y2678D01*
X1138Y2677D01*
Y2677D01*
X1138Y2677D01*
X1137Y2677D01*
X1137Y2677D01*
X1137Y2677D01*
X1137Y2676D01*
X1137Y2675D01*
X1136Y2674D01*
X1136Y2673D01*
X1136Y2672D01*
X1136Y2671D01*
Y2670D01*
X1136Y2670D01*
X1136Y2670D01*
X1136Y2669D01*
X1136Y2669D01*
X1136Y2668D01*
X1136Y2667D01*
X1137Y2666D01*
X1137Y2665D01*
X1137Y2665D01*
X1138Y2664D01*
X1138Y2664D01*
X1138Y2664D01*
X1138Y2663D01*
X1139Y2663D01*
X1139Y2663D01*
X1139Y2663D01*
X1139Y2663D01*
X1140Y2662D01*
X1140Y2662D01*
X1141Y2662D01*
X1141Y2661D01*
X1142Y2661D01*
X1142Y2661D01*
X1143Y2660D01*
X1144Y2660D01*
X1145Y2660D01*
X1146Y2660D01*
X1144Y2654D01*
X1144D01*
X1144Y2655D01*
X1144Y2655D01*
X1143Y2655D01*
X1143Y2655D01*
X1142Y2655D01*
X1141Y2655D01*
X1141Y2656D01*
X1140Y2656D01*
X1139Y2657D01*
X1138Y2657D01*
X1138Y2658D01*
X1137Y2658D01*
X1136Y2659D01*
X1135Y2660D01*
X1135Y2660D01*
X1135Y2660D01*
X1135Y2660D01*
X1134Y2661D01*
X1134Y2661D01*
X1134Y2661D01*
X1134Y2662D01*
X1133Y2662D01*
X1133Y2663D01*
X1133Y2664D01*
X1133Y2665D01*
X1132Y2665D01*
X1132Y2666D01*
X1132Y2667D01*
X1132Y2668D01*
X1132Y2669D01*
X1131Y2670D01*
Y2671D01*
X1132Y2671D01*
X1132Y2672D01*
X1132Y2673D01*
X1132Y2673D01*
X1132Y2674D01*
X1132Y2676D01*
X1133Y2677D01*
X1133Y2678D01*
X1133Y2679D01*
X1134Y2680D01*
X1134Y2681D01*
X1134Y2681D01*
X1134Y2681D01*
X1134Y2681D01*
X1134Y2681D01*
X1135Y2682D01*
X1135Y2682D01*
X1135Y2682D01*
X1136Y2683D01*
X1136Y2683D01*
X1137Y2684D01*
X1137Y2684D01*
X1138Y2685D01*
X1139Y2685D01*
X1140Y2686D01*
X1140Y2686D01*
X1141Y2687D01*
X1141D01*
X1142Y2687D01*
X1142Y2687D01*
X1142Y2687D01*
X1143Y2687D01*
X1143Y2687D01*
X1144Y2687D01*
X1144Y2688D01*
X1145Y2688D01*
X1146Y2688D01*
X1147Y2688D01*
X1148Y2688D01*
X1150Y2688D01*
X1152Y2689D01*
X1152D01*
X1152D01*
X1152D01*
X1153Y2688D01*
D02*
G37*
G36*
X1160Y2648D02*
X1163D01*
X1163D01*
X1163D01*
X1163D01*
X1163D01*
X1164Y2648D01*
X1164D01*
X1165Y2648D01*
X1166Y2648D01*
X1167Y2647D01*
X1167Y2647D01*
X1167Y2647D01*
X1167Y2647D01*
X1168Y2647D01*
X1168Y2647D01*
X1169Y2646D01*
X1169Y2646D01*
X1170Y2645D01*
X1170Y2645D01*
X1170Y2645D01*
X1170Y2645D01*
X1170Y2644D01*
X1171Y2644D01*
X1171Y2643D01*
X1171Y2642D01*
X1171Y2641D01*
X1171Y2640D01*
Y2639D01*
X1171Y2639D01*
X1171Y2638D01*
X1171Y2637D01*
X1171Y2637D01*
X1171Y2636D01*
X1167Y2636D01*
Y2636D01*
X1167Y2637D01*
X1167Y2637D01*
X1167Y2637D01*
X1167Y2638D01*
X1167Y2638D01*
X1167Y2639D01*
Y2639D01*
X1167Y2640D01*
X1167Y2640D01*
X1167Y2641D01*
X1166Y2641D01*
X1166Y2642D01*
X1166Y2642D01*
X1166Y2642D01*
X1166Y2642D01*
X1166Y2642D01*
X1165Y2643D01*
X1165Y2643D01*
X1164Y2643D01*
X1163Y2643D01*
X1163Y2643D01*
X1160D01*
Y2638D01*
X1156D01*
Y2643D01*
X1132D01*
Y2648D01*
X1156D01*
Y2652D01*
X1160D01*
Y2648D01*
D02*
G37*
G36*
X1161Y2632D02*
X1161Y2631D01*
X1161Y2631D01*
X1161Y2631D01*
X1162Y2631D01*
X1162Y2630D01*
X1162Y2629D01*
X1163Y2628D01*
X1164Y2627D01*
X1165Y2626D01*
X1166Y2625D01*
X1166Y2625D01*
X1166Y2625D01*
X1166Y2624D01*
X1166Y2624D01*
X1167Y2624D01*
X1167Y2623D01*
X1168Y2622D01*
X1169Y2622D01*
X1170Y2621D01*
X1171Y2621D01*
Y2617D01*
X1132D01*
Y2622D01*
X1162D01*
X1162Y2622D01*
X1162Y2622D01*
X1162Y2623D01*
X1161Y2623D01*
X1161Y2624D01*
X1160Y2625D01*
X1160Y2626D01*
X1159Y2627D01*
Y2627D01*
X1159Y2627D01*
X1159Y2627D01*
X1159Y2627D01*
X1158Y2628D01*
X1158Y2628D01*
X1158Y2629D01*
X1157Y2630D01*
X1157Y2631D01*
X1156Y2632D01*
X1161D01*
Y2632D01*
D02*
G37*
G36*
X1125Y2577D02*
X1121D01*
Y2608D01*
X1125D01*
Y2577D01*
D02*
G37*
G36*
X1133Y2576D02*
X1134Y2576D01*
X1134Y2576D01*
X1135Y2576D01*
X1135Y2576D01*
X1135D01*
X1135Y2576D01*
X1136Y2576D01*
X1136Y2575D01*
X1136Y2575D01*
X1137Y2575D01*
X1138Y2574D01*
X1139Y2574D01*
X1140Y2573D01*
X1140Y2573D01*
X1141Y2573D01*
X1141Y2572D01*
X1141Y2572D01*
X1141Y2572D01*
X1141Y2572D01*
X1142Y2571D01*
X1143Y2570D01*
X1144Y2569D01*
X1145Y2568D01*
X1146Y2566D01*
X1146Y2566D01*
X1147Y2566D01*
X1147Y2566D01*
X1147Y2565D01*
X1148Y2565D01*
X1148Y2564D01*
X1149Y2564D01*
X1149Y2563D01*
X1151Y2562D01*
X1152Y2560D01*
X1153Y2560D01*
X1153Y2559D01*
X1154Y2558D01*
X1154Y2558D01*
X1155Y2558D01*
X1155Y2558D01*
X1155Y2558D01*
X1155Y2558D01*
X1155Y2557D01*
X1156Y2557D01*
X1156Y2557D01*
X1157Y2556D01*
X1158Y2556D01*
X1159Y2556D01*
X1160Y2556D01*
X1160D01*
X1160D01*
X1160D01*
X1160D01*
X1161Y2556D01*
X1161Y2556D01*
X1162Y2556D01*
X1163Y2556D01*
X1163Y2557D01*
X1164Y2557D01*
X1165Y2558D01*
X1165Y2558D01*
X1165Y2558D01*
X1165Y2559D01*
X1166Y2559D01*
X1166Y2560D01*
X1167Y2561D01*
X1167Y2562D01*
X1167Y2563D01*
Y2563D01*
X1167Y2564D01*
Y2564D01*
X1167Y2564D01*
X1167Y2565D01*
X1166Y2566D01*
X1166Y2567D01*
X1165Y2568D01*
X1165Y2568D01*
X1165Y2569D01*
X1164Y2569D01*
X1164Y2569D01*
X1163Y2569D01*
X1162Y2570D01*
X1162Y2570D01*
X1160Y2570D01*
X1159Y2570D01*
X1160Y2575D01*
X1160D01*
X1160Y2575D01*
X1160D01*
X1161Y2575D01*
X1161Y2575D01*
X1161Y2575D01*
X1162Y2575D01*
X1163Y2575D01*
X1164Y2574D01*
X1165Y2574D01*
X1165Y2574D01*
X1166Y2573D01*
X1167Y2573D01*
X1167Y2572D01*
X1168Y2572D01*
X1168Y2572D01*
X1168Y2571D01*
X1168Y2571D01*
X1168Y2571D01*
X1169Y2571D01*
X1169Y2570D01*
X1169Y2570D01*
X1169Y2569D01*
X1170Y2569D01*
X1170Y2568D01*
X1170Y2567D01*
X1170Y2567D01*
X1170Y2566D01*
X1171Y2565D01*
X1171Y2564D01*
X1171Y2563D01*
Y2562D01*
X1171Y2562D01*
X1171Y2561D01*
X1171Y2561D01*
X1170Y2560D01*
X1170Y2560D01*
X1170Y2558D01*
X1170Y2558D01*
X1169Y2557D01*
X1169Y2556D01*
X1169Y2555D01*
X1168Y2555D01*
X1168Y2554D01*
X1168Y2554D01*
X1167Y2554D01*
X1167Y2554D01*
X1167Y2554D01*
X1167Y2553D01*
X1166Y2553D01*
X1166Y2553D01*
X1166Y2552D01*
X1165Y2552D01*
X1164Y2552D01*
X1163Y2551D01*
X1162Y2551D01*
X1162Y2551D01*
X1161Y2551D01*
X1160Y2551D01*
X1160D01*
X1160D01*
X1159Y2551D01*
X1159Y2551D01*
X1158Y2551D01*
X1157Y2551D01*
X1156Y2551D01*
X1155Y2552D01*
X1155Y2552D01*
X1155Y2552D01*
X1155Y2552D01*
X1154Y2553D01*
X1153Y2553D01*
X1153Y2554D01*
X1152Y2554D01*
X1151Y2555D01*
X1151D01*
X1151Y2555D01*
X1151Y2555D01*
X1150Y2555D01*
X1150Y2556D01*
X1150Y2556D01*
X1149Y2556D01*
X1149Y2557D01*
X1149Y2557D01*
X1148Y2558D01*
X1147Y2558D01*
X1147Y2559D01*
X1146Y2560D01*
X1146Y2560D01*
X1145Y2561D01*
X1144Y2562D01*
X1144Y2562D01*
X1144Y2562D01*
X1144Y2563D01*
X1143Y2563D01*
X1143Y2563D01*
X1143Y2564D01*
X1142Y2564D01*
X1141Y2565D01*
X1140Y2566D01*
X1140Y2567D01*
X1140Y2567D01*
X1139Y2567D01*
X1139Y2568D01*
X1139Y2568D01*
X1139Y2568D01*
X1139Y2568D01*
X1138Y2568D01*
X1138Y2569D01*
X1138Y2569D01*
X1137Y2570D01*
Y2551D01*
X1132D01*
Y2576D01*
X1132D01*
X1132D01*
X1133D01*
X1133Y2576D01*
D02*
G37*
G36*
X839Y2813D02*
X838D01*
X838D01*
X838D01*
X838Y2813D01*
X837Y2813D01*
X836Y2813D01*
X836Y2813D01*
X835Y2814D01*
X835D01*
X835Y2814D01*
X835Y2814D01*
X835Y2814D01*
X834Y2814D01*
X834Y2814D01*
X833Y2815D01*
X832Y2815D01*
X831Y2816D01*
X830Y2817D01*
X830Y2817D01*
X830Y2817D01*
X830Y2817D01*
X830Y2817D01*
X829Y2818D01*
X829Y2818D01*
X828Y2819D01*
X827Y2820D01*
X826Y2821D01*
X824Y2823D01*
X824Y2823D01*
X824Y2823D01*
X824Y2824D01*
X824Y2824D01*
X823Y2824D01*
X823Y2825D01*
X822Y2826D01*
X821Y2826D01*
X820Y2828D01*
X819Y2829D01*
X818Y2830D01*
X817Y2830D01*
X817Y2831D01*
X816Y2831D01*
X816Y2831D01*
X816Y2831D01*
X816Y2832D01*
X816Y2832D01*
X815Y2832D01*
X815Y2832D01*
X814Y2833D01*
X814Y2833D01*
X813Y2833D01*
X812Y2834D01*
X811Y2834D01*
X811D01*
X810D01*
X810D01*
X810D01*
X810Y2834D01*
X810Y2834D01*
X809Y2833D01*
X808Y2833D01*
X807Y2833D01*
X807Y2832D01*
X806Y2832D01*
X806Y2831D01*
X806Y2831D01*
X805Y2831D01*
X805Y2830D01*
X804Y2829D01*
X804Y2829D01*
X804Y2827D01*
X804Y2826D01*
Y2826D01*
X804Y2826D01*
Y2825D01*
X804Y2825D01*
X804Y2824D01*
X804Y2824D01*
X805Y2823D01*
X805Y2822D01*
X806Y2821D01*
X806Y2821D01*
X806Y2821D01*
X807Y2820D01*
X807Y2820D01*
X808Y2819D01*
X809Y2819D01*
X810Y2819D01*
X812Y2819D01*
X811Y2814D01*
X811D01*
X811Y2814D01*
X811D01*
X810Y2814D01*
X810Y2814D01*
X809Y2814D01*
X809Y2814D01*
X808Y2815D01*
X807Y2815D01*
X806Y2815D01*
X805Y2816D01*
X805Y2816D01*
X804Y2817D01*
X803Y2817D01*
X803Y2818D01*
X803Y2818D01*
X803Y2818D01*
X803Y2818D01*
X802Y2818D01*
X802Y2819D01*
X802Y2819D01*
X802Y2819D01*
X801Y2820D01*
X801Y2821D01*
X801Y2821D01*
X801Y2822D01*
X800Y2823D01*
X800Y2824D01*
X800Y2824D01*
X800Y2825D01*
X800Y2826D01*
Y2827D01*
X800Y2827D01*
X800Y2828D01*
X800Y2828D01*
X800Y2829D01*
X800Y2830D01*
X801Y2831D01*
X801Y2832D01*
X801Y2832D01*
X802Y2833D01*
X802Y2834D01*
X803Y2835D01*
X803Y2835D01*
X803Y2835D01*
X803Y2835D01*
X803Y2836D01*
X804Y2836D01*
X804Y2836D01*
X804Y2836D01*
X805Y2837D01*
X805Y2837D01*
X806Y2837D01*
X806Y2837D01*
X808Y2838D01*
X808Y2838D01*
X809Y2838D01*
X810Y2838D01*
X811Y2838D01*
X811D01*
X811D01*
X812Y2838D01*
X812Y2838D01*
X813Y2838D01*
X814Y2838D01*
X814Y2838D01*
X815Y2838D01*
X815Y2837D01*
X816Y2837D01*
X816Y2837D01*
X817Y2837D01*
X817Y2836D01*
X818Y2836D01*
X819Y2835D01*
X820Y2834D01*
X820D01*
X820Y2834D01*
X820Y2834D01*
X820Y2834D01*
X821Y2834D01*
X821Y2833D01*
X821Y2833D01*
X822Y2833D01*
X822Y2832D01*
X823Y2832D01*
X823Y2831D01*
X824Y2830D01*
X824Y2830D01*
X825Y2829D01*
X826Y2828D01*
X827Y2827D01*
X827Y2827D01*
X827Y2827D01*
X827Y2827D01*
X827Y2826D01*
X828Y2826D01*
X828Y2826D01*
X829Y2825D01*
X829Y2824D01*
X830Y2823D01*
X831Y2823D01*
X831Y2822D01*
X831Y2822D01*
X832Y2822D01*
X832Y2822D01*
X832Y2821D01*
X832Y2821D01*
X832Y2821D01*
X833Y2821D01*
X833Y2820D01*
X834Y2820D01*
Y2839D01*
X839D01*
Y2813D01*
D02*
G37*
G36*
X849Y2781D02*
X846D01*
Y2812D01*
X849D01*
Y2781D01*
D02*
G37*
G36*
X839Y2753D02*
X838D01*
X838D01*
X838D01*
X838Y2753D01*
X837Y2753D01*
X836Y2754D01*
X836Y2754D01*
X835Y2754D01*
X835D01*
X835Y2754D01*
X835Y2754D01*
X835Y2754D01*
X834Y2754D01*
X834Y2755D01*
X833Y2755D01*
X832Y2756D01*
X831Y2756D01*
X830Y2757D01*
X830Y2757D01*
X830Y2757D01*
X830Y2757D01*
X830Y2757D01*
X829Y2758D01*
X829Y2759D01*
X828Y2759D01*
X827Y2761D01*
X826Y2762D01*
X824Y2763D01*
X824Y2763D01*
X824Y2763D01*
X824Y2764D01*
X824Y2764D01*
X823Y2765D01*
X823Y2765D01*
X822Y2766D01*
X821Y2767D01*
X820Y2768D01*
X819Y2769D01*
X818Y2770D01*
X817Y2771D01*
X817Y2771D01*
X816Y2772D01*
X816Y2772D01*
X816Y2772D01*
X816Y2772D01*
X816Y2772D01*
X815Y2772D01*
X815Y2772D01*
X814Y2773D01*
X814Y2773D01*
X813Y2774D01*
X812Y2774D01*
X811Y2774D01*
X811D01*
X810D01*
X810D01*
X810D01*
X810Y2774D01*
X810Y2774D01*
X809Y2774D01*
X808Y2773D01*
X807Y2773D01*
X807Y2773D01*
X806Y2772D01*
X806Y2772D01*
X806Y2772D01*
X805Y2771D01*
X805Y2770D01*
X804Y2770D01*
X804Y2769D01*
X804Y2768D01*
X804Y2767D01*
Y2766D01*
X804Y2766D01*
Y2766D01*
X804Y2765D01*
X804Y2765D01*
X804Y2764D01*
X805Y2763D01*
X805Y2762D01*
X806Y2761D01*
X806Y2761D01*
X806Y2761D01*
X807Y2761D01*
X807Y2760D01*
X808Y2760D01*
X809Y2759D01*
X810Y2759D01*
X812Y2759D01*
X811Y2754D01*
X811D01*
X811Y2754D01*
X811D01*
X810Y2754D01*
X810Y2754D01*
X809Y2755D01*
X809Y2755D01*
X808Y2755D01*
X807Y2755D01*
X806Y2756D01*
X805Y2756D01*
X805Y2756D01*
X804Y2757D01*
X803Y2757D01*
X803Y2758D01*
X803Y2758D01*
X803Y2758D01*
X803Y2758D01*
X802Y2759D01*
X802Y2759D01*
X802Y2759D01*
X802Y2760D01*
X801Y2760D01*
X801Y2761D01*
X801Y2762D01*
X801Y2762D01*
X800Y2763D01*
X800Y2764D01*
X800Y2765D01*
X800Y2766D01*
X800Y2767D01*
Y2767D01*
X800Y2768D01*
X800Y2768D01*
X800Y2769D01*
X800Y2769D01*
X800Y2770D01*
X801Y2771D01*
X801Y2772D01*
X801Y2773D01*
X802Y2774D01*
X802Y2774D01*
X803Y2775D01*
X803Y2776D01*
X803Y2776D01*
X803Y2776D01*
X803Y2776D01*
X804Y2776D01*
X804Y2776D01*
X804Y2777D01*
X805Y2777D01*
X805Y2777D01*
X806Y2777D01*
X806Y2778D01*
X808Y2778D01*
X808Y2778D01*
X809Y2779D01*
X810Y2779D01*
X811Y2779D01*
X811D01*
X811D01*
X812Y2779D01*
X812Y2779D01*
X813Y2779D01*
X814Y2778D01*
X814Y2778D01*
X815Y2778D01*
X815Y2778D01*
X816Y2778D01*
X816Y2777D01*
X817Y2777D01*
X817Y2777D01*
X818Y2776D01*
X819Y2775D01*
X820Y2775D01*
X820D01*
X820Y2775D01*
X820Y2774D01*
X820Y2774D01*
X821Y2774D01*
X821Y2774D01*
X821Y2773D01*
X822Y2773D01*
X822Y2772D01*
X823Y2772D01*
X823Y2771D01*
X824Y2771D01*
X824Y2770D01*
X825Y2769D01*
X826Y2768D01*
X827Y2767D01*
X827Y2767D01*
X827Y2767D01*
X827Y2767D01*
X827Y2767D01*
X828Y2766D01*
X828Y2766D01*
X829Y2765D01*
X829Y2764D01*
X830Y2763D01*
X831Y2763D01*
X831Y2763D01*
X831Y2762D01*
X832Y2762D01*
X832Y2762D01*
X832Y2762D01*
X832Y2762D01*
X832Y2761D01*
X833Y2761D01*
X833Y2761D01*
X834Y2760D01*
Y2779D01*
X839D01*
Y2753D01*
D02*
G37*
G36*
X804Y2753D02*
Y2753D01*
X804Y2753D01*
X804Y2752D01*
X804Y2752D01*
X804Y2752D01*
X804Y2751D01*
X804Y2750D01*
Y2750D01*
X804Y2749D01*
X804Y2749D01*
X804Y2749D01*
X804Y2748D01*
X804Y2748D01*
X805Y2747D01*
X805Y2747D01*
X805Y2747D01*
X805Y2747D01*
X806Y2747D01*
X806Y2747D01*
X807Y2746D01*
X807Y2746D01*
X808Y2746D01*
X811D01*
Y2752D01*
X814D01*
Y2746D01*
X839D01*
Y2742D01*
X814D01*
Y2737D01*
X811D01*
Y2742D01*
X808D01*
X808D01*
X808D01*
X808D01*
X807D01*
X807Y2742D01*
X806D01*
X806Y2742D01*
X805Y2742D01*
X804Y2742D01*
X804Y2742D01*
X804Y2742D01*
X803Y2742D01*
X803Y2742D01*
X803Y2743D01*
X802Y2743D01*
X802Y2743D01*
X801Y2744D01*
X801Y2744D01*
X801Y2745D01*
X800Y2745D01*
X800Y2745D01*
X800Y2746D01*
X800Y2746D01*
X800Y2747D01*
X800Y2748D01*
X799Y2749D01*
Y2750D01*
X800Y2751D01*
X800Y2751D01*
X800Y2752D01*
X800Y2753D01*
X800Y2754D01*
X804Y2753D01*
D02*
G37*
G36*
X827Y2735D02*
X827Y2735D01*
X827Y2735D01*
X828Y2734D01*
X829Y2734D01*
X829Y2734D01*
X830Y2733D01*
X831Y2733D01*
X832Y2733D01*
X832Y2732D01*
X833Y2732D01*
X834Y2731D01*
X835Y2730D01*
X835Y2730D01*
X836Y2729D01*
X836Y2729D01*
X836Y2729D01*
X836Y2729D01*
X836Y2728D01*
X837Y2728D01*
X837Y2727D01*
X837Y2727D01*
X838Y2726D01*
X838Y2725D01*
X838Y2725D01*
X838Y2724D01*
X839Y2723D01*
X839Y2722D01*
X839Y2721D01*
X839Y2720D01*
X839Y2719D01*
Y2718D01*
X839Y2718D01*
X839Y2717D01*
X839Y2717D01*
X839Y2716D01*
X839Y2715D01*
X839Y2714D01*
X838Y2712D01*
X838Y2711D01*
X838Y2710D01*
X837Y2709D01*
X837Y2709D01*
X837Y2709D01*
X837Y2709D01*
X836Y2708D01*
X836Y2708D01*
X836Y2708D01*
X836Y2707D01*
X835Y2707D01*
X835Y2707D01*
X834Y2706D01*
X834Y2706D01*
X833Y2705D01*
X833Y2705D01*
X832Y2704D01*
X831Y2704D01*
X830Y2703D01*
X829Y2703D01*
X829D01*
X829Y2703D01*
X829Y2703D01*
X829Y2702D01*
X828Y2702D01*
X828Y2702D01*
X827Y2702D01*
X826Y2702D01*
X826Y2702D01*
X825Y2701D01*
X824Y2701D01*
X823Y2701D01*
X821Y2701D01*
X819Y2701D01*
X819D01*
X819D01*
X818D01*
X818Y2701D01*
X818D01*
X817Y2701D01*
X816Y2701D01*
X816Y2701D01*
X815Y2701D01*
X814Y2701D01*
X812Y2702D01*
X810Y2702D01*
X809Y2703D01*
X809Y2703D01*
X809Y2703D01*
X808Y2703D01*
X808Y2703D01*
X808Y2703D01*
X808Y2704D01*
X807Y2704D01*
X807Y2704D01*
X806Y2705D01*
X805Y2706D01*
X804Y2707D01*
X803Y2708D01*
X802Y2709D01*
X802Y2710D01*
X802Y2710D01*
X802Y2710D01*
X802Y2710D01*
X801Y2710D01*
X801Y2711D01*
X801Y2711D01*
X801Y2712D01*
X801Y2712D01*
X800Y2713D01*
X800Y2714D01*
X800Y2715D01*
X800Y2717D01*
X799Y2718D01*
Y2719D01*
X800Y2720D01*
X800Y2720D01*
X800Y2721D01*
X800Y2722D01*
X800Y2722D01*
X800Y2724D01*
X800Y2725D01*
X801Y2725D01*
X801Y2726D01*
X801Y2727D01*
X802Y2728D01*
X802Y2729D01*
X802Y2729D01*
X803Y2729D01*
X803Y2729D01*
X803Y2729D01*
X803Y2730D01*
X804Y2730D01*
X804Y2730D01*
X805Y2731D01*
X805Y2731D01*
X806Y2732D01*
X806Y2732D01*
X807Y2733D01*
X808Y2733D01*
X809Y2733D01*
X810Y2734D01*
X811Y2734D01*
X812Y2729D01*
X812D01*
X812Y2729D01*
X811Y2729D01*
X811Y2729D01*
X811Y2729D01*
X810Y2729D01*
X810Y2728D01*
X809Y2728D01*
X808Y2727D01*
X807Y2726D01*
X806Y2726D01*
X806Y2725D01*
Y2725D01*
X806Y2725D01*
X806Y2725D01*
X805Y2725D01*
X805Y2725D01*
X805Y2724D01*
X805Y2724D01*
X804Y2723D01*
X804Y2721D01*
X804Y2720D01*
X804Y2719D01*
Y2718D01*
X804Y2718D01*
Y2718D01*
X804Y2717D01*
X804Y2717D01*
X804Y2716D01*
X804Y2715D01*
X805Y2714D01*
X805Y2713D01*
X806Y2712D01*
X806Y2711D01*
Y2711D01*
X806Y2711D01*
X806Y2711D01*
X806Y2711D01*
X807Y2710D01*
X807Y2710D01*
X808Y2709D01*
X809Y2708D01*
X810Y2708D01*
X812Y2707D01*
X812D01*
X812Y2707D01*
X812Y2707D01*
X812Y2707D01*
X813Y2707D01*
X813Y2707D01*
X813Y2707D01*
X814Y2707D01*
X815Y2706D01*
X816Y2706D01*
X818Y2706D01*
X819Y2706D01*
X819D01*
X819D01*
X820D01*
X820D01*
X820Y2706D01*
X821Y2706D01*
X821D01*
X822Y2706D01*
X823Y2706D01*
X825Y2707D01*
X826Y2707D01*
X828Y2707D01*
X828D01*
X828Y2707D01*
X828Y2708D01*
X828Y2708D01*
X829Y2708D01*
X829Y2708D01*
X830Y2709D01*
X831Y2709D01*
X831Y2710D01*
X832Y2711D01*
X833Y2712D01*
Y2712D01*
X833Y2712D01*
X833Y2712D01*
X833Y2712D01*
X833Y2713D01*
X834Y2713D01*
X834Y2714D01*
X834Y2715D01*
X835Y2716D01*
X835Y2717D01*
X835Y2718D01*
Y2719D01*
X835Y2719D01*
X835Y2720D01*
X835Y2720D01*
X835Y2720D01*
X835Y2721D01*
X834Y2722D01*
X834Y2723D01*
X834Y2724D01*
X833Y2725D01*
X833Y2725D01*
X832Y2726D01*
X832Y2726D01*
X832Y2726D01*
X832Y2726D01*
X832Y2726D01*
X832Y2726D01*
X831Y2727D01*
X831Y2727D01*
X831Y2727D01*
X830Y2728D01*
X830Y2728D01*
X829Y2728D01*
X828Y2729D01*
X828Y2729D01*
X827Y2729D01*
X826Y2729D01*
X825Y2730D01*
X826Y2735D01*
X826D01*
X827Y2735D01*
D02*
G37*
G36*
X225Y2140D02*
X226D01*
X226Y2140D01*
X227Y2140D01*
X228Y2140D01*
X229Y2140D01*
X229Y2140D01*
X231Y2139D01*
X233Y2139D01*
X234Y2138D01*
X235Y2138D01*
X235Y2138D01*
X235Y2138D01*
X235Y2138D01*
X235Y2137D01*
X236Y2137D01*
X236Y2137D01*
X237Y2137D01*
X237Y2136D01*
X238Y2135D01*
X239Y2134D01*
X241Y2133D01*
X241Y2132D01*
X241Y2131D01*
X242Y2131D01*
X242Y2131D01*
X242Y2131D01*
X242Y2131D01*
X242Y2130D01*
X242Y2130D01*
X242Y2129D01*
X243Y2129D01*
X243Y2128D01*
X243Y2127D01*
X243Y2126D01*
X244Y2124D01*
X244Y2123D01*
Y2121D01*
X244Y2121D01*
X244Y2121D01*
X244Y2120D01*
X244Y2119D01*
X243Y2119D01*
X243Y2117D01*
X243Y2116D01*
X243Y2115D01*
X242Y2115D01*
X242Y2114D01*
X241Y2113D01*
X241Y2112D01*
X241Y2112D01*
X241Y2112D01*
X241Y2112D01*
X240Y2112D01*
X240Y2111D01*
X240Y2111D01*
X239Y2111D01*
X239Y2110D01*
X238Y2110D01*
X238Y2109D01*
X237Y2109D01*
X236Y2108D01*
X235Y2108D01*
X235Y2107D01*
X234Y2107D01*
X233Y2107D01*
X231Y2112D01*
X231D01*
X232Y2112D01*
X232Y2112D01*
X232Y2112D01*
X232Y2112D01*
X233Y2112D01*
X234Y2113D01*
X235Y2113D01*
X236Y2114D01*
X237Y2115D01*
X237Y2115D01*
X238Y2116D01*
Y2116D01*
X238Y2116D01*
X238Y2116D01*
X238Y2116D01*
X238Y2116D01*
X238Y2117D01*
X239Y2117D01*
X239Y2118D01*
X239Y2119D01*
X239Y2121D01*
X239Y2122D01*
Y2123D01*
X239Y2123D01*
Y2123D01*
X239Y2124D01*
X239Y2124D01*
X239Y2125D01*
X239Y2126D01*
X239Y2127D01*
X238Y2128D01*
X238Y2129D01*
X237Y2130D01*
Y2130D01*
X237Y2130D01*
X237Y2130D01*
X237Y2130D01*
X236Y2131D01*
X236Y2131D01*
X235Y2132D01*
X234Y2133D01*
X233Y2133D01*
X232Y2134D01*
X232D01*
X231Y2134D01*
X231Y2134D01*
X231Y2134D01*
X231Y2134D01*
X230Y2134D01*
X230Y2134D01*
X229Y2134D01*
X228Y2135D01*
X227Y2135D01*
X226Y2135D01*
X224Y2135D01*
X224D01*
X224D01*
X224D01*
X223D01*
X223Y2135D01*
X222Y2135D01*
X222D01*
X221Y2135D01*
X220Y2135D01*
X219Y2134D01*
X217Y2134D01*
X216Y2134D01*
X216D01*
X216Y2133D01*
X215Y2133D01*
X215Y2133D01*
X215Y2133D01*
X214Y2133D01*
X214Y2132D01*
X213Y2132D01*
X212Y2131D01*
X211Y2130D01*
X210Y2129D01*
Y2129D01*
X210Y2129D01*
X210Y2129D01*
X210Y2129D01*
X210Y2128D01*
X210Y2128D01*
X209Y2127D01*
X209Y2126D01*
X209Y2125D01*
X209Y2124D01*
X208Y2123D01*
Y2122D01*
X208Y2122D01*
X209Y2121D01*
X209Y2121D01*
X209Y2121D01*
X209Y2120D01*
X209Y2119D01*
X209Y2118D01*
X210Y2117D01*
X210Y2116D01*
X210Y2116D01*
X211Y2115D01*
X211Y2115D01*
X211Y2115D01*
X211Y2115D01*
X211Y2115D01*
X212Y2115D01*
X212Y2114D01*
X212Y2114D01*
X213Y2114D01*
X213Y2113D01*
X214Y2113D01*
X214Y2113D01*
X215Y2112D01*
X216Y2112D01*
X216Y2112D01*
X217Y2111D01*
X218Y2111D01*
X217Y2106D01*
X217D01*
X217Y2106D01*
X216Y2106D01*
X216Y2106D01*
X215Y2107D01*
X215Y2107D01*
X214Y2107D01*
X213Y2107D01*
X213Y2108D01*
X212Y2108D01*
X211Y2109D01*
X210Y2109D01*
X209Y2110D01*
X209Y2110D01*
X208Y2111D01*
X207Y2112D01*
X207Y2112D01*
X207Y2112D01*
X207Y2112D01*
X207Y2113D01*
X207Y2113D01*
X206Y2114D01*
X206Y2114D01*
X206Y2115D01*
X205Y2115D01*
X205Y2116D01*
X205Y2117D01*
X205Y2118D01*
X204Y2119D01*
X204Y2120D01*
X204Y2121D01*
X204Y2122D01*
Y2123D01*
X204Y2123D01*
X204Y2124D01*
X204Y2124D01*
X204Y2125D01*
X204Y2126D01*
X205Y2127D01*
X205Y2129D01*
X205Y2130D01*
X206Y2131D01*
X206Y2131D01*
X207Y2132D01*
X207Y2132D01*
X207Y2132D01*
X207Y2133D01*
X207Y2133D01*
X207Y2133D01*
X208Y2134D01*
X208Y2134D01*
X208Y2134D01*
X209Y2135D01*
X209Y2135D01*
X210Y2136D01*
X211Y2136D01*
X211Y2137D01*
X212Y2137D01*
X213Y2138D01*
X214Y2138D01*
X214D01*
X214Y2138D01*
X214Y2138D01*
X215Y2138D01*
X215Y2139D01*
X216Y2139D01*
X216Y2139D01*
X217Y2139D01*
X218Y2139D01*
X219Y2140D01*
X219Y2140D01*
X220Y2140D01*
X222Y2140D01*
X224Y2140D01*
X224D01*
X224D01*
X225D01*
X225Y2140D01*
D02*
G37*
G36*
X243Y2095D02*
X227D01*
Y2075D01*
X243D01*
Y2070D01*
X205D01*
Y2075D01*
X223D01*
Y2095D01*
X205D01*
Y2100D01*
X243D01*
Y2095D01*
D02*
G37*
G36*
X197Y2035D02*
X194D01*
Y2066D01*
X197D01*
Y2035D01*
D02*
G37*
G36*
X243Y2025D02*
X205D01*
Y2030D01*
X243D01*
Y2025D01*
D02*
G37*
G36*
X233Y2013D02*
X229D01*
X229Y2013D01*
X229Y2013D01*
X229Y2012D01*
X229Y2012D01*
X230Y2012D01*
X230Y2011D01*
X230Y2011D01*
X231Y2010D01*
X231Y2010D01*
X232Y2009D01*
X232Y2008D01*
X232Y2008D01*
X233Y2007D01*
X233Y2006D01*
X233Y2005D01*
X233Y2004D01*
Y2003D01*
X233Y2003D01*
X233Y2002D01*
X233Y2002D01*
X233Y2001D01*
X233Y2000D01*
X232Y1999D01*
X232Y1999D01*
X232Y1999D01*
X232Y1999D01*
X232Y1998D01*
X231Y1998D01*
X231Y1997D01*
X230Y1997D01*
X230Y1996D01*
X230Y1996D01*
X230Y1996D01*
X229Y1996D01*
X229Y1995D01*
X228Y1995D01*
X228Y1995D01*
X227Y1995D01*
X226Y1995D01*
X226D01*
X226Y1995D01*
X226Y1995D01*
X225Y1994D01*
X225Y1994D01*
X224Y1994D01*
X223Y1994D01*
X222D01*
X205D01*
Y1999D01*
X222D01*
X222D01*
X222D01*
X222D01*
X222D01*
X223Y1999D01*
X223D01*
X224Y1999D01*
X225Y1999D01*
X225Y1999D01*
X226Y2000D01*
X226D01*
X226Y2000D01*
X226Y2000D01*
X227Y2000D01*
X227Y2000D01*
X227Y2001D01*
X228Y2001D01*
X228Y2002D01*
X228Y2002D01*
X228Y2002D01*
X228Y2002D01*
X229Y2003D01*
X229Y2003D01*
X229Y2004D01*
X229Y2004D01*
X229Y2005D01*
Y2005D01*
X229Y2005D01*
X229Y2006D01*
X229Y2007D01*
X229Y2007D01*
X228Y2008D01*
X228Y2009D01*
X227Y2010D01*
X227Y2010D01*
X227Y2010D01*
X227Y2010D01*
X227Y2011D01*
X226Y2011D01*
X226Y2011D01*
X226Y2011D01*
X225Y2011D01*
X225Y2012D01*
X224Y2012D01*
X223Y2012D01*
X223Y2012D01*
X222Y2012D01*
X221Y2012D01*
X220Y2012D01*
X205D01*
Y2017D01*
X233D01*
Y2013D01*
D02*
G37*
G36*
Y1983D02*
X229D01*
X229Y1983D01*
X229Y1983D01*
X230Y1982D01*
X230Y1982D01*
X231Y1981D01*
X231Y1981D01*
X232Y1980D01*
X232Y1979D01*
X232Y1979D01*
X232Y1979D01*
X232Y1979D01*
X233Y1978D01*
X233Y1977D01*
X233Y1977D01*
X233Y1976D01*
X233Y1975D01*
Y1974D01*
X233Y1974D01*
Y1974D01*
X233Y1973D01*
X233Y1973D01*
X233Y1972D01*
X232Y1971D01*
X232Y1969D01*
X231Y1968D01*
Y1968D01*
X231Y1968D01*
X231Y1968D01*
X231Y1968D01*
X231Y1967D01*
X230Y1967D01*
X229Y1966D01*
X228Y1966D01*
X227Y1965D01*
X226Y1964D01*
X226D01*
X226Y1964D01*
X226Y1964D01*
X226Y1964D01*
X225Y1964D01*
X225Y1964D01*
X224Y1964D01*
X224Y1964D01*
X223Y1963D01*
X222Y1963D01*
X220Y1963D01*
X219Y1963D01*
X219D01*
X219D01*
X218D01*
X218D01*
X218Y1963D01*
X217Y1963D01*
X217Y1963D01*
X216Y1963D01*
X215Y1963D01*
X214Y1964D01*
X212Y1964D01*
X211Y1964D01*
X211D01*
X211Y1964D01*
X211Y1965D01*
X211Y1965D01*
X210Y1965D01*
X210Y1965D01*
X209Y1966D01*
X208Y1966D01*
X207Y1967D01*
X207Y1968D01*
X206Y1969D01*
Y1969D01*
X206Y1969D01*
X206Y1969D01*
X206Y1969D01*
X206Y1970D01*
X205Y1970D01*
X205Y1971D01*
X205Y1972D01*
X204Y1973D01*
X204Y1974D01*
X204Y1975D01*
Y1975D01*
X204Y1976D01*
X204Y1976D01*
X204Y1977D01*
X205Y1978D01*
X205Y1979D01*
X205Y1979D01*
X205Y1979D01*
X205Y1980D01*
X206Y1980D01*
X206Y1980D01*
X206Y1981D01*
X207Y1981D01*
X207Y1982D01*
X208Y1982D01*
X194D01*
Y1987D01*
X233D01*
Y1983D01*
D02*
G37*
G36*
Y1953D02*
X217D01*
X217D01*
X217D01*
X217D01*
X217D01*
X216D01*
X216D01*
X215Y1953D01*
X214D01*
X213Y1953D01*
X213Y1952D01*
X212Y1952D01*
X212Y1952D01*
X212D01*
X212Y1952D01*
X211Y1952D01*
X211Y1952D01*
X211Y1952D01*
X210Y1951D01*
X210Y1951D01*
X209Y1950D01*
X209Y1950D01*
X209Y1950D01*
X209Y1950D01*
X209Y1949D01*
X209Y1949D01*
X208Y1948D01*
X208Y1948D01*
X208Y1947D01*
Y1947D01*
X208Y1946D01*
X208Y1946D01*
X208Y1945D01*
X209Y1944D01*
X209Y1944D01*
X209Y1943D01*
X209Y1943D01*
X209Y1943D01*
X210Y1942D01*
X210Y1942D01*
X210Y1941D01*
X211Y1941D01*
X212Y1941D01*
X212Y1940D01*
X212Y1940D01*
X213Y1940D01*
X213Y1940D01*
X214Y1940D01*
X214Y1940D01*
X215Y1940D01*
X216Y1940D01*
X218Y1939D01*
X233D01*
Y1935D01*
X205D01*
Y1939D01*
X209D01*
X209Y1939D01*
X209Y1939D01*
X208Y1939D01*
X208Y1940D01*
X208Y1940D01*
X207Y1940D01*
X207Y1941D01*
X206Y1941D01*
X206Y1942D01*
X206Y1943D01*
X205Y1943D01*
X205Y1944D01*
X205Y1945D01*
X204Y1946D01*
X204Y1947D01*
X204Y1948D01*
Y1948D01*
X204Y1949D01*
X204Y1949D01*
X204Y1950D01*
X205Y1951D01*
X205Y1952D01*
X205Y1952D01*
X205Y1953D01*
X205Y1953D01*
X205Y1953D01*
X206Y1954D01*
X206Y1954D01*
X206Y1955D01*
X207Y1955D01*
X207Y1956D01*
X207Y1956D01*
X208Y1956D01*
X208Y1956D01*
X208Y1956D01*
X209Y1956D01*
X209Y1957D01*
X210Y1957D01*
X211Y1957D01*
X211D01*
X211Y1957D01*
X212Y1957D01*
X212D01*
X213Y1957D01*
X213Y1957D01*
X214Y1957D01*
X215D01*
X233D01*
Y1953D01*
D02*
G37*
G36*
Y1927D02*
X239D01*
X242Y1922D01*
X233D01*
Y1917D01*
X229D01*
Y1922D01*
X213D01*
X213D01*
X212D01*
X212D01*
X212Y1922D01*
X211D01*
X211Y1922D01*
X210Y1922D01*
X210Y1922D01*
X210Y1922D01*
X210Y1921D01*
X209Y1921D01*
X209Y1921D01*
Y1921D01*
X209Y1921D01*
X209Y1921D01*
X209Y1920D01*
X209Y1920D01*
X209Y1919D01*
Y1919D01*
X209Y1918D01*
Y1918D01*
X209Y1918D01*
X209Y1917D01*
X205Y1916D01*
Y1917D01*
X205Y1917D01*
X205Y1917D01*
X205Y1918D01*
X205Y1918D01*
X204Y1919D01*
X204Y1920D01*
Y1920D01*
X204Y1921D01*
X204Y1922D01*
X205Y1922D01*
X205Y1923D01*
X205Y1923D01*
X205Y1924D01*
X205Y1924D01*
X205Y1924D01*
X205Y1924D01*
X206Y1925D01*
X206Y1925D01*
X206Y1925D01*
X207Y1926D01*
X207Y1926D01*
X207D01*
X208Y1926D01*
X208Y1926D01*
X208Y1926D01*
X209Y1926D01*
X209Y1926D01*
X210Y1926D01*
X210Y1926D01*
X211Y1927D01*
X211D01*
X212Y1927D01*
X213D01*
X229D01*
Y1930D01*
X233D01*
Y1927D01*
D02*
G37*
G36*
X835Y2347D02*
X835D01*
X834D01*
X834D01*
X834Y2347D01*
X833Y2347D01*
X833Y2347D01*
X832Y2347D01*
X831Y2348D01*
X831D01*
X831Y2348D01*
X831Y2348D01*
X831Y2348D01*
X830Y2348D01*
X830Y2348D01*
X829Y2349D01*
X828Y2349D01*
X827Y2350D01*
X826Y2351D01*
X826Y2351D01*
X826Y2351D01*
X826Y2351D01*
X826Y2351D01*
X825Y2352D01*
X825Y2352D01*
X824Y2353D01*
X823Y2354D01*
X822Y2355D01*
X820Y2357D01*
X820Y2357D01*
X820Y2357D01*
X820Y2357D01*
X820Y2358D01*
X819Y2358D01*
X819Y2359D01*
X818Y2360D01*
X817Y2360D01*
X816Y2362D01*
X815Y2363D01*
X814Y2364D01*
X813Y2364D01*
X813Y2365D01*
X812Y2365D01*
X812Y2365D01*
X812Y2365D01*
X812Y2365D01*
X812Y2366D01*
X811Y2366D01*
X811Y2366D01*
X810Y2366D01*
X810Y2367D01*
X809Y2367D01*
X808Y2367D01*
X807Y2368D01*
X807D01*
X807D01*
X806D01*
X806D01*
X806Y2367D01*
X806Y2367D01*
X805Y2367D01*
X804Y2367D01*
X803Y2367D01*
X803Y2366D01*
X802Y2365D01*
X802Y2365D01*
X802Y2365D01*
X801Y2365D01*
X801Y2364D01*
X801Y2363D01*
X800Y2362D01*
X800Y2361D01*
X800Y2360D01*
Y2360D01*
X800Y2360D01*
Y2359D01*
X800Y2359D01*
X800Y2358D01*
X800Y2357D01*
X801Y2356D01*
X801Y2356D01*
X802Y2355D01*
X802Y2355D01*
X802Y2354D01*
X803Y2354D01*
X803Y2354D01*
X804Y2353D01*
X805Y2353D01*
X806Y2353D01*
X808Y2353D01*
X807Y2348D01*
X807D01*
X807Y2348D01*
X807D01*
X806Y2348D01*
X806Y2348D01*
X805Y2348D01*
X805Y2348D01*
X804Y2349D01*
X803Y2349D01*
X802Y2349D01*
X801Y2350D01*
X801Y2350D01*
X800Y2350D01*
X799Y2351D01*
X799Y2352D01*
X799Y2352D01*
X799Y2352D01*
X799Y2352D01*
X798Y2352D01*
X798Y2353D01*
X798Y2353D01*
X798Y2353D01*
X797Y2354D01*
X797Y2355D01*
X797Y2355D01*
X797Y2356D01*
X796Y2357D01*
X796Y2357D01*
X796Y2358D01*
X796Y2359D01*
X796Y2360D01*
Y2361D01*
X796Y2361D01*
X796Y2362D01*
X796Y2362D01*
X796Y2363D01*
X796Y2364D01*
X797Y2365D01*
X797Y2366D01*
X797Y2366D01*
X798Y2367D01*
X798Y2368D01*
X799Y2368D01*
X799Y2369D01*
X799Y2369D01*
X799Y2369D01*
X799Y2369D01*
X800Y2370D01*
X800Y2370D01*
X800Y2370D01*
X801Y2370D01*
X801Y2371D01*
X802Y2371D01*
X802Y2371D01*
X804Y2372D01*
X804Y2372D01*
X805Y2372D01*
X806Y2372D01*
X807Y2372D01*
X807D01*
X807D01*
X808Y2372D01*
X808Y2372D01*
X809Y2372D01*
X810Y2372D01*
X810Y2372D01*
X811Y2371D01*
X811Y2371D01*
X812Y2371D01*
X812Y2371D01*
X813Y2371D01*
X813Y2370D01*
X814Y2370D01*
X815Y2369D01*
X816Y2368D01*
X816D01*
X816Y2368D01*
X816Y2368D01*
X816Y2368D01*
X817Y2368D01*
X817Y2367D01*
X817Y2367D01*
X818Y2367D01*
X818Y2366D01*
X819Y2366D01*
X819Y2365D01*
X820Y2364D01*
X821Y2364D01*
X821Y2363D01*
X822Y2362D01*
X823Y2361D01*
X823Y2361D01*
X823Y2361D01*
X823Y2361D01*
X823Y2360D01*
X824Y2360D01*
X824Y2360D01*
X825Y2359D01*
X825Y2358D01*
X826Y2357D01*
X827Y2356D01*
X827Y2356D01*
X827Y2356D01*
X828Y2356D01*
X828Y2355D01*
X828Y2355D01*
X828Y2355D01*
X828Y2355D01*
X829Y2355D01*
X829Y2354D01*
X830Y2354D01*
Y2372D01*
X835D01*
Y2347D01*
D02*
G37*
G36*
X845Y2315D02*
X842D01*
Y2346D01*
X845D01*
Y2315D01*
D02*
G37*
G36*
X817Y2313D02*
X818D01*
X819Y2313D01*
X820Y2313D01*
X821Y2313D01*
X823Y2312D01*
X825Y2312D01*
X826Y2312D01*
X827Y2312D01*
X827D01*
X827Y2312D01*
X827Y2311D01*
X827Y2311D01*
X828Y2311D01*
X828Y2311D01*
X829Y2311D01*
X830Y2310D01*
X831Y2309D01*
X832Y2308D01*
X833Y2307D01*
Y2307D01*
X833Y2307D01*
X833Y2307D01*
X833Y2307D01*
X834Y2307D01*
X834Y2306D01*
X834Y2306D01*
X834Y2306D01*
X835Y2305D01*
X835Y2303D01*
X835Y2302D01*
X835Y2301D01*
X835Y2300D01*
Y2300D01*
X835Y2300D01*
Y2300D01*
X835Y2299D01*
X835Y2299D01*
X835Y2298D01*
X835Y2297D01*
X835Y2297D01*
X834Y2296D01*
X834Y2295D01*
X834Y2294D01*
X833Y2294D01*
X833Y2293D01*
X832Y2292D01*
X831Y2292D01*
X831Y2292D01*
X831Y2292D01*
X831Y2291D01*
X830Y2291D01*
X830Y2291D01*
X829Y2291D01*
X828Y2290D01*
X828Y2290D01*
X827Y2290D01*
X825Y2289D01*
X824Y2289D01*
X823Y2289D01*
X821Y2288D01*
X819Y2288D01*
X818Y2288D01*
X816Y2288D01*
X816D01*
X815D01*
X815D01*
X815D01*
X814Y2288D01*
X813Y2288D01*
X813D01*
X812Y2288D01*
X810Y2288D01*
X808Y2289D01*
X806Y2289D01*
X806Y2289D01*
X805Y2289D01*
X805D01*
X805Y2289D01*
X804Y2290D01*
X804Y2290D01*
X804Y2290D01*
X803Y2290D01*
X802Y2290D01*
X801Y2291D01*
X800Y2292D01*
X799Y2293D01*
X798Y2294D01*
X798Y2294D01*
X798Y2294D01*
X798Y2294D01*
X798Y2294D01*
X798Y2294D01*
X798Y2295D01*
X797Y2295D01*
X797Y2295D01*
X797Y2296D01*
X796Y2298D01*
X796Y2299D01*
X796Y2300D01*
Y2301D01*
X796Y2301D01*
Y2302D01*
X796Y2302D01*
X796Y2303D01*
X797Y2304D01*
X797Y2305D01*
X797Y2306D01*
Y2306D01*
X797Y2306D01*
X798Y2306D01*
X798Y2307D01*
X798Y2307D01*
X799Y2308D01*
X799Y2309D01*
X800Y2309D01*
X801Y2310D01*
X801D01*
X801Y2310D01*
X801Y2310D01*
X801Y2310D01*
X802Y2310D01*
X802Y2311D01*
X803Y2311D01*
X804Y2311D01*
X805Y2312D01*
X807Y2312D01*
X807D01*
X807Y2312D01*
X807Y2312D01*
X807Y2312D01*
X808Y2312D01*
X808Y2312D01*
X808Y2312D01*
X809Y2313D01*
X810Y2313D01*
X810Y2313D01*
X811Y2313D01*
X812Y2313D01*
X813Y2313D01*
X814Y2313D01*
X815Y2313D01*
X816D01*
X816D01*
X816D01*
X816D01*
X817D01*
X817Y2313D01*
D02*
G37*
G36*
X800Y2287D02*
Y2287D01*
X800Y2287D01*
X800Y2286D01*
X800Y2286D01*
X800Y2286D01*
X800Y2285D01*
X800Y2284D01*
Y2284D01*
X800Y2283D01*
X800Y2283D01*
X800Y2282D01*
X800Y2282D01*
X801Y2281D01*
X801Y2281D01*
X801Y2281D01*
X801Y2281D01*
X801Y2281D01*
X802Y2281D01*
X802Y2280D01*
X803Y2280D01*
X803Y2280D01*
X804Y2280D01*
X807D01*
Y2286D01*
X810D01*
Y2280D01*
X835D01*
Y2275D01*
X810D01*
Y2271D01*
X807D01*
Y2275D01*
X804D01*
X804D01*
X804D01*
X804D01*
X803D01*
X803Y2276D01*
X802D01*
X802Y2276D01*
X801Y2276D01*
X800Y2276D01*
X800Y2276D01*
X800Y2276D01*
X799Y2276D01*
X799Y2276D01*
X799Y2277D01*
X798Y2277D01*
X798Y2277D01*
X797Y2278D01*
X797Y2278D01*
X797Y2278D01*
X796Y2279D01*
X796Y2279D01*
X796Y2280D01*
X796Y2280D01*
X796Y2281D01*
X796Y2282D01*
X796Y2283D01*
Y2284D01*
X796Y2284D01*
X796Y2285D01*
X796Y2286D01*
X796Y2287D01*
X796Y2288D01*
X800Y2287D01*
D02*
G37*
G36*
X835Y2264D02*
X827Y2259D01*
X827D01*
X827Y2259D01*
X826Y2258D01*
X826Y2258D01*
X826Y2258D01*
X825Y2258D01*
X825Y2257D01*
X824Y2257D01*
X823Y2256D01*
X822Y2256D01*
X821Y2255D01*
X821Y2255D01*
X821Y2255D01*
X821Y2254D01*
X820Y2254D01*
X820Y2254D01*
X820Y2253D01*
X819Y2253D01*
X819Y2252D01*
X819Y2252D01*
X819Y2252D01*
X819Y2252D01*
X818Y2252D01*
X818Y2251D01*
X818Y2251D01*
X818Y2250D01*
Y2250D01*
X818Y2250D01*
Y2250D01*
X818Y2249D01*
X818Y2249D01*
Y2248D01*
X818Y2248D01*
Y2241D01*
X835D01*
Y2236D01*
X796D01*
Y2254D01*
X796Y2255D01*
Y2255D01*
X796Y2256D01*
X796Y2256D01*
X796Y2257D01*
X797Y2259D01*
X797Y2260D01*
X797Y2261D01*
X797Y2261D01*
Y2261D01*
X797Y2261D01*
X797Y2261D01*
X797Y2262D01*
X798Y2262D01*
X798Y2263D01*
X799Y2263D01*
X799Y2264D01*
X800Y2265D01*
X801Y2265D01*
X801D01*
X801Y2265D01*
X801Y2266D01*
X801Y2266D01*
X802Y2266D01*
X803Y2266D01*
X803Y2266D01*
X804Y2267D01*
X806Y2267D01*
X807Y2267D01*
X807D01*
X807D01*
X807D01*
X807Y2267D01*
X808Y2267D01*
X808Y2267D01*
X809Y2267D01*
X810Y2266D01*
X811Y2266D01*
X812Y2266D01*
X813Y2265D01*
X813Y2265D01*
X814Y2264D01*
X814Y2264D01*
X814Y2264D01*
X814Y2264D01*
X814Y2264D01*
X814Y2264D01*
X815Y2263D01*
X815Y2263D01*
X815Y2262D01*
X815Y2262D01*
X816Y2261D01*
X816Y2260D01*
X816Y2260D01*
X817Y2259D01*
X817Y2258D01*
X817Y2257D01*
X817Y2256D01*
X817Y2256D01*
X817Y2256D01*
X818Y2257D01*
X818Y2257D01*
X818Y2258D01*
X819Y2259D01*
X819Y2259D01*
Y2259D01*
X819Y2259D01*
X819Y2260D01*
X820Y2260D01*
X821Y2261D01*
X821Y2261D01*
X822Y2262D01*
X823Y2263D01*
X824Y2263D01*
X835Y2270D01*
Y2264D01*
D02*
G37*
G36*
Y2603D02*
X835D01*
X834D01*
X834D01*
X834Y2603D01*
X833Y2603D01*
X833Y2603D01*
X832Y2603D01*
X831Y2603D01*
X831D01*
X831Y2603D01*
X831Y2604D01*
X831Y2604D01*
X830Y2604D01*
X830Y2604D01*
X829Y2605D01*
X828Y2605D01*
X827Y2606D01*
X826Y2607D01*
X826Y2607D01*
X826Y2607D01*
X826Y2607D01*
X826Y2607D01*
X825Y2607D01*
X825Y2608D01*
X824Y2609D01*
X823Y2610D01*
X822Y2611D01*
X820Y2613D01*
X820Y2613D01*
X820Y2613D01*
X820Y2613D01*
X820Y2614D01*
X819Y2614D01*
X819Y2615D01*
X818Y2615D01*
X817Y2616D01*
X816Y2618D01*
X815Y2619D01*
X814Y2620D01*
X813Y2620D01*
X813Y2621D01*
X812Y2621D01*
X812Y2621D01*
X812Y2621D01*
X812Y2621D01*
X812Y2622D01*
X811Y2622D01*
X811Y2622D01*
X810Y2622D01*
X810Y2623D01*
X809Y2623D01*
X808Y2623D01*
X807Y2623D01*
X807D01*
X807D01*
X806D01*
X806D01*
X806Y2623D01*
X806Y2623D01*
X805Y2623D01*
X804Y2623D01*
X803Y2623D01*
X803Y2622D01*
X802Y2621D01*
X802Y2621D01*
X802Y2621D01*
X801Y2621D01*
X801Y2620D01*
X801Y2619D01*
X800Y2618D01*
X800Y2617D01*
X800Y2616D01*
Y2616D01*
X800Y2616D01*
Y2615D01*
X800Y2615D01*
X800Y2614D01*
X800Y2613D01*
X801Y2612D01*
X801Y2611D01*
X802Y2611D01*
X802Y2611D01*
X802Y2610D01*
X803Y2610D01*
X803Y2610D01*
X804Y2609D01*
X805Y2609D01*
X806Y2609D01*
X808Y2609D01*
X807Y2604D01*
X807D01*
X807Y2604D01*
X807D01*
X806Y2604D01*
X806Y2604D01*
X805Y2604D01*
X805Y2604D01*
X804Y2604D01*
X803Y2605D01*
X802Y2605D01*
X801Y2606D01*
X801Y2606D01*
X800Y2606D01*
X799Y2607D01*
X799Y2607D01*
X799Y2608D01*
X799Y2608D01*
X799Y2608D01*
X798Y2608D01*
X798Y2608D01*
X798Y2609D01*
X798Y2609D01*
X797Y2610D01*
X797Y2610D01*
X797Y2611D01*
X797Y2612D01*
X796Y2613D01*
X796Y2613D01*
X796Y2614D01*
X796Y2615D01*
X796Y2616D01*
Y2617D01*
X796Y2617D01*
X796Y2618D01*
X796Y2618D01*
X796Y2619D01*
X796Y2619D01*
X797Y2621D01*
X797Y2622D01*
X797Y2622D01*
X798Y2623D01*
X798Y2624D01*
X799Y2624D01*
X799Y2625D01*
X799Y2625D01*
X799Y2625D01*
X799Y2625D01*
X800Y2626D01*
X800Y2626D01*
X800Y2626D01*
X801Y2626D01*
X801Y2627D01*
X802Y2627D01*
X802Y2627D01*
X804Y2628D01*
X804Y2628D01*
X805Y2628D01*
X806Y2628D01*
X807Y2628D01*
X807D01*
X807D01*
X808Y2628D01*
X808Y2628D01*
X809Y2628D01*
X810Y2628D01*
X810Y2628D01*
X811Y2627D01*
X811Y2627D01*
X812Y2627D01*
X812Y2627D01*
X813Y2627D01*
X813Y2626D01*
X814Y2626D01*
X815Y2625D01*
X816Y2624D01*
X816D01*
X816Y2624D01*
X816Y2624D01*
X816Y2624D01*
X817Y2624D01*
X817Y2623D01*
X817Y2623D01*
X818Y2622D01*
X818Y2622D01*
X819Y2621D01*
X819Y2621D01*
X820Y2620D01*
X821Y2619D01*
X821Y2619D01*
X822Y2618D01*
X823Y2617D01*
X823Y2617D01*
X823Y2617D01*
X823Y2616D01*
X823Y2616D01*
X824Y2616D01*
X824Y2615D01*
X825Y2615D01*
X825Y2614D01*
X826Y2613D01*
X827Y2612D01*
X827Y2612D01*
X827Y2612D01*
X828Y2611D01*
X828Y2611D01*
X828Y2611D01*
X828Y2611D01*
X828Y2611D01*
X829Y2610D01*
X829Y2610D01*
X830Y2609D01*
Y2628D01*
X835D01*
Y2603D01*
D02*
G37*
G36*
X845Y2571D02*
X842D01*
Y2602D01*
X845D01*
Y2571D01*
D02*
G37*
G36*
X835Y2557D02*
X805D01*
X805Y2557D01*
X805Y2557D01*
X805Y2556D01*
X806Y2556D01*
X806Y2555D01*
X807Y2554D01*
X807Y2553D01*
X808Y2552D01*
Y2552D01*
X808Y2552D01*
X808Y2552D01*
X808Y2552D01*
X808Y2551D01*
X809Y2551D01*
X809Y2550D01*
X810Y2549D01*
X810Y2548D01*
X810Y2547D01*
X806D01*
Y2548D01*
X806Y2548D01*
X805Y2548D01*
X805Y2548D01*
X805Y2548D01*
X805Y2549D01*
X804Y2550D01*
X804Y2551D01*
X803Y2552D01*
X802Y2553D01*
X801Y2554D01*
X801Y2554D01*
X801Y2555D01*
X801Y2555D01*
X801Y2555D01*
X800Y2555D01*
X800Y2556D01*
X799Y2557D01*
X798Y2557D01*
X797Y2558D01*
X796Y2559D01*
Y2562D01*
X835D01*
Y2557D01*
D02*
G37*
G36*
X800Y2543D02*
Y2543D01*
X800Y2543D01*
X800Y2542D01*
X800Y2542D01*
X800Y2541D01*
X800Y2541D01*
X800Y2540D01*
Y2540D01*
X800Y2539D01*
X800Y2539D01*
X800Y2538D01*
X800Y2538D01*
X801Y2537D01*
X801Y2537D01*
X801Y2537D01*
X801Y2537D01*
X801Y2537D01*
X802Y2537D01*
X802Y2536D01*
X803Y2536D01*
X803Y2536D01*
X804Y2536D01*
X807D01*
Y2541D01*
X810D01*
Y2536D01*
X835D01*
Y2531D01*
X810D01*
Y2527D01*
X807D01*
Y2531D01*
X804D01*
X804D01*
X804D01*
X804D01*
X803D01*
X803Y2531D01*
X802D01*
X802Y2531D01*
X801Y2532D01*
X800Y2532D01*
X800Y2532D01*
X800Y2532D01*
X799Y2532D01*
X799Y2532D01*
X799Y2532D01*
X798Y2533D01*
X798Y2533D01*
X797Y2534D01*
X797Y2534D01*
X797Y2534D01*
X796Y2535D01*
X796Y2535D01*
X796Y2535D01*
X796Y2536D01*
X796Y2537D01*
X796Y2538D01*
X796Y2539D01*
Y2540D01*
X796Y2540D01*
X796Y2541D01*
X796Y2542D01*
X796Y2543D01*
X796Y2543D01*
X800Y2543D01*
D02*
G37*
G36*
X835Y2520D02*
X827Y2515D01*
X827D01*
X827Y2514D01*
X826Y2514D01*
X826Y2514D01*
X826Y2514D01*
X825Y2514D01*
X825Y2513D01*
X824Y2513D01*
X823Y2512D01*
X822Y2511D01*
X821Y2511D01*
X821Y2511D01*
X821Y2511D01*
X821Y2510D01*
X820Y2510D01*
X820Y2510D01*
X820Y2509D01*
X819Y2509D01*
X819Y2508D01*
X819Y2508D01*
X819Y2508D01*
X819Y2508D01*
X818Y2508D01*
X818Y2507D01*
X818Y2507D01*
X818Y2506D01*
Y2506D01*
X818Y2506D01*
Y2506D01*
X818Y2505D01*
X818Y2505D01*
Y2504D01*
X818Y2504D01*
Y2497D01*
X835D01*
Y2492D01*
X796D01*
Y2510D01*
X796Y2510D01*
Y2511D01*
X796Y2511D01*
X796Y2512D01*
X796Y2513D01*
X797Y2515D01*
X797Y2516D01*
X797Y2516D01*
X797Y2517D01*
Y2517D01*
X797Y2517D01*
X797Y2517D01*
X797Y2517D01*
X798Y2518D01*
X798Y2519D01*
X799Y2519D01*
X799Y2520D01*
X800Y2521D01*
X801Y2521D01*
X801D01*
X801Y2521D01*
X801Y2521D01*
X801Y2522D01*
X802Y2522D01*
X803Y2522D01*
X803Y2522D01*
X804Y2523D01*
X806Y2523D01*
X807Y2523D01*
X807D01*
X807D01*
X807D01*
X807Y2523D01*
X808Y2523D01*
X808Y2523D01*
X809Y2523D01*
X810Y2522D01*
X811Y2522D01*
X812Y2521D01*
X813Y2521D01*
X813Y2521D01*
X814Y2520D01*
X814Y2520D01*
X814Y2520D01*
X814Y2520D01*
X814Y2520D01*
X814Y2519D01*
X815Y2519D01*
X815Y2519D01*
X815Y2518D01*
X815Y2518D01*
X816Y2517D01*
X816Y2516D01*
X816Y2516D01*
X817Y2515D01*
X817Y2514D01*
X817Y2513D01*
X817Y2512D01*
X817Y2512D01*
X817Y2512D01*
X818Y2513D01*
X818Y2513D01*
X818Y2514D01*
X819Y2515D01*
X819Y2515D01*
Y2515D01*
X819Y2515D01*
X819Y2515D01*
X820Y2516D01*
X821Y2516D01*
X821Y2517D01*
X822Y2518D01*
X823Y2519D01*
X824Y2519D01*
X835Y2526D01*
Y2520D01*
D02*
G37*
G36*
X966Y2980D02*
X966Y2980D01*
X967Y2980D01*
X968Y2980D01*
X969Y2980D01*
X968Y2975D01*
X968D01*
X968Y2975D01*
X967Y2975D01*
X967Y2976D01*
X967Y2976D01*
X966Y2976D01*
X965Y2976D01*
X965D01*
X964Y2976D01*
X964Y2976D01*
X964Y2975D01*
X963Y2975D01*
X963Y2975D01*
X962Y2975D01*
X962Y2975D01*
X962Y2975D01*
X962Y2974D01*
X962Y2974D01*
X962Y2974D01*
X961Y2973D01*
X961Y2972D01*
X961Y2971D01*
Y2969D01*
X967D01*
Y2965D01*
X961D01*
Y2941D01*
X957D01*
Y2965D01*
X952D01*
Y2969D01*
X957D01*
Y2972D01*
Y2972D01*
Y2972D01*
Y2972D01*
Y2972D01*
X957Y2973D01*
Y2973D01*
X957Y2974D01*
X957Y2975D01*
X957Y2975D01*
X957Y2976D01*
X957Y2976D01*
X957Y2976D01*
X957Y2977D01*
X958Y2977D01*
X958Y2977D01*
X958Y2978D01*
X959Y2978D01*
X959Y2979D01*
X960Y2979D01*
X960Y2979D01*
X960Y2979D01*
X961Y2979D01*
X961Y2980D01*
X962Y2980D01*
X963Y2980D01*
X964Y2980D01*
X965D01*
X966Y2980D01*
D02*
G37*
G36*
X1042Y2979D02*
X1043Y2979D01*
X1043Y2979D01*
X1044Y2979D01*
X1045Y2979D01*
X1046Y2979D01*
X1047Y2979D01*
X1047Y2978D01*
X1048Y2978D01*
X1049Y2977D01*
X1050Y2977D01*
X1050Y2976D01*
X1050Y2976D01*
X1050Y2976D01*
X1051Y2976D01*
X1051Y2976D01*
X1051Y2976D01*
X1051Y2975D01*
X1052Y2975D01*
X1052Y2974D01*
X1052Y2974D01*
X1052Y2973D01*
X1053Y2972D01*
X1053Y2971D01*
X1053Y2970D01*
X1053Y2970D01*
X1053Y2969D01*
Y2969D01*
Y2968D01*
X1053Y2968D01*
X1053Y2967D01*
X1053Y2967D01*
X1053Y2966D01*
X1053Y2965D01*
X1053Y2964D01*
X1052Y2964D01*
X1052Y2964D01*
X1052Y2963D01*
X1052Y2963D01*
X1051Y2962D01*
X1051Y2961D01*
X1050Y2960D01*
X1049Y2960D01*
Y2960D01*
X1049Y2959D01*
X1049Y2959D01*
X1049Y2959D01*
X1049Y2959D01*
X1048Y2959D01*
X1048Y2958D01*
X1048Y2958D01*
X1047Y2957D01*
X1047Y2957D01*
X1046Y2956D01*
X1045Y2956D01*
X1045Y2955D01*
X1044Y2954D01*
X1043Y2954D01*
X1042Y2953D01*
X1042Y2953D01*
X1042Y2953D01*
X1042Y2952D01*
X1041Y2952D01*
X1041Y2952D01*
X1041Y2952D01*
X1040Y2951D01*
X1039Y2950D01*
X1038Y2949D01*
X1038Y2949D01*
X1037Y2949D01*
X1037Y2948D01*
X1037Y2948D01*
X1037Y2948D01*
X1036Y2948D01*
X1036Y2948D01*
X1036Y2947D01*
X1036Y2947D01*
X1035Y2946D01*
X1035Y2945D01*
X1054D01*
Y2941D01*
X1028D01*
Y2941D01*
Y2941D01*
Y2942D01*
X1028Y2942D01*
X1028Y2942D01*
X1028Y2943D01*
X1028Y2944D01*
X1029Y2944D01*
Y2944D01*
X1029Y2944D01*
X1029Y2944D01*
X1029Y2945D01*
X1029Y2945D01*
X1029Y2946D01*
X1030Y2947D01*
X1030Y2947D01*
X1031Y2948D01*
X1032Y2949D01*
X1032Y2949D01*
X1032Y2949D01*
X1032Y2950D01*
X1032Y2950D01*
X1033Y2950D01*
X1033Y2951D01*
X1034Y2952D01*
X1035Y2953D01*
X1036Y2954D01*
X1038Y2955D01*
X1038Y2955D01*
X1038Y2955D01*
X1039Y2956D01*
X1039Y2956D01*
X1039Y2956D01*
X1040Y2957D01*
X1041Y2957D01*
X1041Y2958D01*
X1043Y2959D01*
X1044Y2961D01*
X1045Y2961D01*
X1045Y2962D01*
X1046Y2963D01*
X1046Y2963D01*
X1046Y2963D01*
X1046Y2963D01*
X1047Y2964D01*
X1047Y2964D01*
X1047Y2964D01*
X1047Y2964D01*
X1048Y2965D01*
X1048Y2966D01*
X1048Y2967D01*
X1049Y2968D01*
X1049Y2968D01*
Y2969D01*
Y2969D01*
Y2969D01*
Y2969D01*
X1049Y2969D01*
X1049Y2970D01*
X1048Y2971D01*
X1048Y2971D01*
X1048Y2972D01*
X1047Y2973D01*
X1047Y2974D01*
X1046Y2974D01*
X1046Y2974D01*
X1046Y2974D01*
X1045Y2975D01*
X1044Y2975D01*
X1044Y2975D01*
X1042Y2976D01*
X1041Y2976D01*
X1041D01*
X1041Y2976D01*
X1040D01*
X1040Y2976D01*
X1039Y2975D01*
X1039Y2975D01*
X1038Y2975D01*
X1037Y2974D01*
X1036Y2974D01*
X1036Y2973D01*
X1036Y2973D01*
X1035Y2973D01*
X1035Y2972D01*
X1034Y2971D01*
X1034Y2970D01*
X1034Y2969D01*
X1034Y2968D01*
X1029Y2968D01*
Y2968D01*
X1029Y2969D01*
Y2969D01*
X1029Y2969D01*
X1029Y2970D01*
X1029Y2970D01*
X1029Y2971D01*
X1030Y2971D01*
X1030Y2973D01*
X1030Y2974D01*
X1031Y2974D01*
X1031Y2975D01*
X1032Y2976D01*
X1032Y2976D01*
X1033Y2977D01*
X1033Y2977D01*
X1033Y2977D01*
X1033Y2977D01*
X1033Y2977D01*
X1034Y2977D01*
X1034Y2978D01*
X1034Y2978D01*
X1035Y2978D01*
X1036Y2978D01*
X1036Y2979D01*
X1037Y2979D01*
X1038Y2979D01*
X1039Y2979D01*
X1039Y2979D01*
X1040Y2979D01*
X1041Y2980D01*
X1042D01*
X1042Y2979D01*
D02*
G37*
G36*
X983D02*
X983Y2979D01*
X984Y2979D01*
X984Y2979D01*
X985Y2979D01*
X986Y2979D01*
X987Y2979D01*
X988Y2978D01*
X989Y2978D01*
X989Y2977D01*
X990Y2977D01*
X991Y2976D01*
X991Y2976D01*
X991Y2976D01*
X991Y2976D01*
X991Y2976D01*
X991Y2976D01*
X992Y2975D01*
X992Y2975D01*
X992Y2974D01*
X992Y2974D01*
X993Y2973D01*
X993Y2972D01*
X993Y2971D01*
X994Y2970D01*
X994Y2970D01*
X994Y2969D01*
Y2969D01*
Y2968D01*
X994Y2968D01*
X994Y2967D01*
X994Y2967D01*
X993Y2966D01*
X993Y2965D01*
X993Y2964D01*
X993Y2964D01*
X993Y2964D01*
X992Y2963D01*
X992Y2963D01*
X992Y2962D01*
X991Y2961D01*
X990Y2960D01*
X990Y2960D01*
Y2960D01*
X990Y2959D01*
X989Y2959D01*
X989Y2959D01*
X989Y2959D01*
X989Y2959D01*
X988Y2958D01*
X988Y2958D01*
X987Y2957D01*
X987Y2957D01*
X986Y2956D01*
X986Y2956D01*
X985Y2955D01*
X984Y2954D01*
X983Y2954D01*
X982Y2953D01*
X982Y2953D01*
X982Y2953D01*
X982Y2952D01*
X982Y2952D01*
X981Y2952D01*
X981Y2952D01*
X980Y2951D01*
X979Y2950D01*
X978Y2949D01*
X978Y2949D01*
X978Y2949D01*
X977Y2948D01*
X977Y2948D01*
X977Y2948D01*
X977Y2948D01*
X977Y2948D01*
X976Y2947D01*
X976Y2947D01*
X976Y2946D01*
X975Y2945D01*
X994D01*
Y2941D01*
X968D01*
Y2941D01*
Y2941D01*
Y2942D01*
X968Y2942D01*
X968Y2942D01*
X969Y2943D01*
X969Y2944D01*
X969Y2944D01*
Y2944D01*
X969Y2944D01*
X969Y2944D01*
X969Y2945D01*
X969Y2945D01*
X970Y2946D01*
X970Y2947D01*
X971Y2947D01*
X971Y2948D01*
X972Y2949D01*
X972Y2949D01*
X972Y2949D01*
X972Y2950D01*
X972Y2950D01*
X973Y2950D01*
X974Y2951D01*
X974Y2952D01*
X976Y2953D01*
X977Y2954D01*
X978Y2955D01*
X978Y2955D01*
X978Y2955D01*
X979Y2956D01*
X979Y2956D01*
X980Y2956D01*
X980Y2957D01*
X981Y2957D01*
X982Y2958D01*
X983Y2959D01*
X984Y2961D01*
X985Y2961D01*
X986Y2962D01*
X986Y2963D01*
X987Y2963D01*
X987Y2963D01*
X987Y2963D01*
X987Y2964D01*
X987Y2964D01*
X987Y2964D01*
X987Y2964D01*
X988Y2965D01*
X988Y2966D01*
X989Y2967D01*
X989Y2968D01*
X989Y2968D01*
Y2969D01*
Y2969D01*
Y2969D01*
Y2969D01*
X989Y2969D01*
X989Y2970D01*
X989Y2971D01*
X988Y2971D01*
X988Y2972D01*
X988Y2973D01*
X987Y2974D01*
X987Y2974D01*
X987Y2974D01*
X986Y2974D01*
X985Y2975D01*
X985Y2975D01*
X984Y2975D01*
X983Y2976D01*
X982Y2976D01*
X981D01*
X981Y2976D01*
X981D01*
X980Y2976D01*
X980Y2975D01*
X979Y2975D01*
X978Y2975D01*
X977Y2974D01*
X976Y2974D01*
X976Y2973D01*
X976Y2973D01*
X976Y2973D01*
X975Y2972D01*
X975Y2971D01*
X974Y2970D01*
X974Y2969D01*
X974Y2968D01*
X969Y2968D01*
Y2968D01*
X969Y2969D01*
Y2969D01*
X969Y2969D01*
X969Y2970D01*
X970Y2970D01*
X970Y2971D01*
X970Y2971D01*
X970Y2973D01*
X971Y2974D01*
X971Y2974D01*
X971Y2975D01*
X972Y2976D01*
X972Y2976D01*
X973Y2977D01*
X973Y2977D01*
X973Y2977D01*
X973Y2977D01*
X974Y2977D01*
X974Y2977D01*
X974Y2978D01*
X975Y2978D01*
X975Y2978D01*
X976Y2978D01*
X977Y2979D01*
X977Y2979D01*
X978Y2979D01*
X979Y2979D01*
X980Y2979D01*
X981Y2979D01*
X982Y2980D01*
X982D01*
X983Y2979D01*
D02*
G37*
G36*
X936Y2979D02*
X936D01*
X937Y2979D01*
X937Y2979D01*
X939Y2979D01*
X940Y2979D01*
X941Y2979D01*
X942Y2979D01*
X942Y2978D01*
X942D01*
X942Y2978D01*
X942Y2978D01*
X943Y2978D01*
X943Y2978D01*
X944Y2977D01*
X944Y2977D01*
X945Y2976D01*
X946Y2976D01*
X946Y2975D01*
Y2975D01*
X947Y2975D01*
X947Y2974D01*
X947Y2974D01*
X947Y2974D01*
X947Y2973D01*
X948Y2972D01*
X948Y2971D01*
X948Y2970D01*
X948Y2969D01*
Y2969D01*
Y2969D01*
Y2968D01*
X948Y2968D01*
X948Y2968D01*
X948Y2967D01*
X948Y2966D01*
X947Y2965D01*
X947Y2964D01*
X947Y2964D01*
X946Y2963D01*
X946Y2962D01*
X945Y2962D01*
X945Y2962D01*
X945Y2962D01*
X945Y2962D01*
X945Y2961D01*
X945Y2961D01*
X944Y2961D01*
X944Y2961D01*
X943Y2960D01*
X943Y2960D01*
X942Y2960D01*
X942Y2960D01*
X941Y2959D01*
X940Y2959D01*
X939Y2959D01*
X938Y2959D01*
X937Y2958D01*
X937Y2958D01*
X938Y2958D01*
X938Y2958D01*
X938Y2958D01*
X939Y2957D01*
X940Y2957D01*
X940Y2956D01*
X940D01*
X940Y2956D01*
X941Y2956D01*
X941Y2956D01*
X942Y2955D01*
X942Y2954D01*
X943Y2953D01*
X944Y2952D01*
X945Y2951D01*
X951Y2941D01*
X945D01*
X940Y2949D01*
Y2949D01*
X940Y2949D01*
X940Y2949D01*
X939Y2949D01*
X939Y2950D01*
X939Y2950D01*
X938Y2951D01*
X938Y2952D01*
X937Y2953D01*
X937Y2953D01*
X936Y2954D01*
X936Y2954D01*
X936Y2954D01*
X936Y2955D01*
X935Y2955D01*
X935Y2956D01*
X934Y2956D01*
X934Y2956D01*
X933Y2957D01*
X933Y2957D01*
X933Y2957D01*
X933Y2957D01*
X933Y2957D01*
X932Y2957D01*
X932Y2957D01*
X931Y2958D01*
X931D01*
X931Y2958D01*
X931D01*
X930Y2958D01*
X930Y2958D01*
X930D01*
X929Y2958D01*
X922D01*
Y2941D01*
X917D01*
Y2979D01*
X935D01*
X936Y2979D01*
D02*
G37*
G36*
X1027Y2930D02*
X996D01*
Y2934D01*
X1027D01*
Y2930D01*
D02*
G37*
%LPC*%
G36*
X541Y1654D02*
Y1641D01*
X552Y1645D01*
X552D01*
X552Y1645D01*
X552Y1645D01*
X553Y1646D01*
X553Y1646D01*
X554Y1646D01*
X554Y1646D01*
X555Y1646D01*
X556Y1647D01*
X557Y1647D01*
X559Y1648D01*
X560Y1648D01*
X560D01*
X560Y1648D01*
X560Y1648D01*
X559Y1648D01*
X559Y1648D01*
X559Y1648D01*
X558Y1648D01*
X558Y1649D01*
X557Y1649D01*
X555Y1649D01*
X554Y1650D01*
X553Y1650D01*
X541Y1654D01*
D02*
G37*
G36*
Y1434D02*
Y1420D01*
X552Y1424D01*
X552D01*
X552Y1425D01*
X552Y1425D01*
X553Y1425D01*
X553Y1425D01*
X554Y1425D01*
X554Y1425D01*
X555Y1426D01*
X556Y1426D01*
X557Y1426D01*
X559Y1427D01*
X560Y1427D01*
X560D01*
X560Y1427D01*
X560Y1427D01*
X559Y1427D01*
X559Y1427D01*
X559Y1428D01*
X558Y1428D01*
X558Y1428D01*
X557Y1428D01*
X555Y1428D01*
X554Y1429D01*
X553Y1429D01*
X541Y1434D01*
D02*
G37*
G36*
X1291Y2916D02*
X1282D01*
Y2887D01*
X1292D01*
X1292Y2887D01*
X1293Y2887D01*
X1294Y2887D01*
X1295Y2887D01*
X1296Y2887D01*
X1297Y2887D01*
X1297D01*
X1297Y2887D01*
X1297Y2887D01*
X1297Y2888D01*
X1298Y2888D01*
X1298Y2888D01*
X1299Y2888D01*
X1299Y2889D01*
X1300Y2889D01*
X1300Y2889D01*
X1300Y2890D01*
X1301Y2890D01*
X1301Y2891D01*
X1301Y2891D01*
X1302Y2892D01*
X1302Y2893D01*
X1303Y2894D01*
Y2894D01*
X1303Y2894D01*
X1303Y2894D01*
X1303Y2895D01*
X1303Y2895D01*
X1303Y2895D01*
X1303Y2896D01*
X1303Y2896D01*
X1303Y2897D01*
X1303Y2897D01*
X1304Y2898D01*
X1304Y2900D01*
X1304Y2901D01*
Y2902D01*
Y2902D01*
Y2902D01*
X1304Y2902D01*
Y2903D01*
X1304Y2904D01*
X1304Y2904D01*
X1304Y2905D01*
X1303Y2906D01*
X1303Y2908D01*
X1302Y2909D01*
X1302Y2910D01*
X1302Y2911D01*
Y2911D01*
X1302Y2911D01*
X1302Y2911D01*
X1301Y2911D01*
X1301Y2912D01*
X1300Y2912D01*
X1300Y2913D01*
X1299Y2914D01*
X1298Y2915D01*
X1298Y2915D01*
X1297Y2915D01*
X1297Y2915D01*
X1297Y2915D01*
X1297Y2915D01*
X1296Y2915D01*
X1296Y2915D01*
X1296Y2915D01*
X1295Y2915D01*
X1295Y2916D01*
X1295Y2916D01*
X1294Y2916D01*
X1293Y2916D01*
X1293Y2916D01*
X1292D01*
X1291Y2916D01*
D02*
G37*
G36*
X1255Y2916D02*
Y2916D01*
X1255Y2916D01*
X1254Y2916D01*
X1254Y2916D01*
X1254Y2915D01*
X1254Y2915D01*
X1254Y2915D01*
X1254Y2914D01*
X1254Y2913D01*
X1253Y2912D01*
X1253Y2910D01*
X1252Y2909D01*
X1248Y2898D01*
X1261D01*
X1257Y2908D01*
Y2908D01*
X1257Y2909D01*
X1257Y2909D01*
X1257Y2909D01*
X1257Y2910D01*
X1257Y2910D01*
X1256Y2911D01*
X1256Y2911D01*
X1256Y2912D01*
X1255Y2914D01*
X1255Y2915D01*
X1255Y2916D01*
D02*
G37*
G36*
X1577Y1988D02*
X1564D01*
X1568Y1978D01*
Y1977D01*
X1568Y1977D01*
X1568Y1977D01*
X1568Y1977D01*
X1568Y1976D01*
X1568Y1976D01*
X1569Y1975D01*
X1569Y1975D01*
X1569Y1973D01*
X1570Y1972D01*
X1570Y1971D01*
X1570Y1969D01*
Y1970D01*
X1571Y1970D01*
X1571Y1970D01*
X1571Y1970D01*
X1571Y1970D01*
X1571Y1971D01*
X1571Y1971D01*
X1571Y1972D01*
X1571Y1973D01*
X1572Y1974D01*
X1572Y1976D01*
X1573Y1977D01*
X1577Y1988D01*
D02*
G37*
G36*
X1543Y1984D02*
X1532D01*
X1532Y1984D01*
X1532D01*
X1531Y1984D01*
X1530Y1984D01*
X1529Y1983D01*
X1528Y1983D01*
X1527Y1983D01*
X1526Y1982D01*
X1526Y1982D01*
X1526Y1982D01*
X1525Y1982D01*
X1525Y1981D01*
X1525Y1981D01*
X1524Y1980D01*
X1524Y1979D01*
X1524Y1978D01*
X1524Y1977D01*
Y1977D01*
Y1977D01*
Y1976D01*
X1524Y1976D01*
X1524Y1975D01*
X1524Y1975D01*
X1524Y1974D01*
X1525Y1973D01*
X1525Y1973D01*
X1525Y1973D01*
X1525Y1972D01*
X1525Y1972D01*
X1526Y1972D01*
X1526Y1971D01*
X1527Y1971D01*
X1527Y1971D01*
X1528Y1970D01*
X1528D01*
X1528Y1970D01*
X1529Y1970D01*
X1529Y1970D01*
X1530Y1970D01*
X1531Y1970D01*
X1532Y1970D01*
X1543D01*
Y1984D01*
D02*
G37*
G36*
X1900Y2173D02*
X1887D01*
X1891Y2163D01*
Y2163D01*
X1891Y2162D01*
X1891Y2162D01*
X1891Y2162D01*
X1891Y2161D01*
X1891Y2161D01*
X1891Y2160D01*
X1892Y2160D01*
X1892Y2158D01*
X1893Y2157D01*
X1893Y2156D01*
X1893Y2155D01*
Y2155D01*
X1893Y2155D01*
X1893Y2155D01*
X1893Y2155D01*
X1894Y2156D01*
X1894Y2156D01*
X1894Y2156D01*
X1894Y2157D01*
X1894Y2158D01*
X1895Y2159D01*
X1895Y2161D01*
X1895Y2162D01*
X1900Y2173D01*
D02*
G37*
G36*
X1866Y2169D02*
X1855D01*
X1855Y2169D01*
X1854D01*
X1854Y2169D01*
X1853Y2169D01*
X1852Y2168D01*
X1851Y2168D01*
X1850Y2168D01*
X1849Y2167D01*
X1849Y2167D01*
X1849Y2167D01*
X1848Y2167D01*
X1848Y2166D01*
X1848Y2166D01*
X1847Y2165D01*
X1847Y2164D01*
X1847Y2163D01*
X1847Y2162D01*
Y2162D01*
Y2162D01*
Y2161D01*
X1847Y2161D01*
X1847Y2160D01*
X1847Y2160D01*
X1847Y2159D01*
X1847Y2158D01*
X1848Y2158D01*
X1848Y2158D01*
X1848Y2157D01*
X1848Y2157D01*
X1849Y2157D01*
X1849Y2156D01*
X1850Y2156D01*
X1850Y2156D01*
X1851Y2155D01*
X1851D01*
X1851Y2155D01*
X1852Y2155D01*
X1852Y2155D01*
X1853Y2155D01*
X1854Y2155D01*
X1855Y2155D01*
X1866D01*
Y2169D01*
D02*
G37*
G36*
X541Y1272D02*
Y1259D01*
X552Y1263D01*
X552D01*
X552Y1263D01*
X552Y1264D01*
X553Y1264D01*
X553Y1264D01*
X554Y1264D01*
X554Y1264D01*
X555Y1264D01*
X556Y1265D01*
X557Y1265D01*
X559Y1266D01*
X560Y1266D01*
X560D01*
X560Y1266D01*
X560Y1266D01*
X559Y1266D01*
X559Y1266D01*
X559Y1266D01*
X558Y1267D01*
X558Y1267D01*
X557Y1267D01*
X555Y1267D01*
X554Y1268D01*
X553Y1268D01*
X541Y1272D01*
D02*
G37*
G36*
Y1052D02*
Y1039D01*
X552Y1043D01*
X552D01*
X552Y1043D01*
X552Y1043D01*
X553Y1043D01*
X553Y1043D01*
X554Y1043D01*
X554Y1043D01*
X555Y1044D01*
X556Y1044D01*
X557Y1045D01*
X559Y1045D01*
X560Y1045D01*
X560D01*
X560Y1045D01*
X560Y1045D01*
X559Y1046D01*
X559Y1046D01*
X559Y1046D01*
X558Y1046D01*
X558Y1046D01*
X557Y1046D01*
X555Y1047D01*
X554Y1047D01*
X553Y1047D01*
X541Y1052D01*
D02*
G37*
G36*
X1450Y3061D02*
X1442D01*
Y3032D01*
X1451D01*
X1451Y3032D01*
X1452Y3032D01*
X1453Y3032D01*
X1454Y3032D01*
X1455Y3033D01*
X1456Y3033D01*
X1456D01*
X1456Y3033D01*
X1456Y3033D01*
X1456Y3033D01*
X1457Y3033D01*
X1458Y3034D01*
X1458Y3034D01*
X1459Y3034D01*
X1459Y3035D01*
X1459Y3035D01*
X1459Y3035D01*
X1460Y3036D01*
X1460Y3036D01*
X1461Y3037D01*
X1461Y3038D01*
X1462Y3039D01*
X1462Y3040D01*
Y3040D01*
X1462Y3040D01*
X1462Y3040D01*
X1462Y3040D01*
X1462Y3041D01*
X1462Y3041D01*
X1462Y3041D01*
X1463Y3042D01*
X1463Y3042D01*
X1463Y3043D01*
X1463Y3044D01*
X1463Y3046D01*
X1463Y3047D01*
Y3047D01*
Y3047D01*
Y3048D01*
X1463Y3048D01*
Y3049D01*
X1463Y3049D01*
X1463Y3050D01*
X1463Y3050D01*
X1463Y3052D01*
X1462Y3054D01*
X1462Y3055D01*
X1461Y3056D01*
X1461Y3056D01*
Y3056D01*
X1461Y3056D01*
X1461Y3057D01*
X1461Y3057D01*
X1460Y3057D01*
X1460Y3058D01*
X1459Y3059D01*
X1458Y3060D01*
X1457Y3060D01*
X1457Y3060D01*
X1456Y3061D01*
X1456Y3061D01*
X1456Y3061D01*
X1456Y3061D01*
X1456Y3061D01*
X1455Y3061D01*
X1455Y3061D01*
X1455Y3061D01*
X1454Y3061D01*
X1454Y3061D01*
X1453Y3061D01*
X1453Y3061D01*
X1452Y3061D01*
X1451D01*
X1450Y3061D01*
D02*
G37*
G36*
X1412D02*
X1403D01*
Y3032D01*
X1412D01*
X1412Y3032D01*
X1413Y3032D01*
X1414Y3032D01*
X1415Y3032D01*
X1416Y3033D01*
X1417Y3033D01*
X1417D01*
X1417Y3033D01*
X1417Y3033D01*
X1418Y3033D01*
X1418Y3033D01*
X1419Y3034D01*
X1419Y3034D01*
X1420Y3034D01*
X1420Y3035D01*
X1420Y3035D01*
X1421Y3035D01*
X1421Y3036D01*
X1421Y3036D01*
X1422Y3037D01*
X1422Y3038D01*
X1423Y3039D01*
X1423Y3040D01*
Y3040D01*
X1423Y3040D01*
X1423Y3040D01*
X1423Y3040D01*
X1423Y3041D01*
X1424Y3041D01*
X1424Y3041D01*
X1424Y3042D01*
X1424Y3042D01*
X1424Y3043D01*
X1424Y3044D01*
X1424Y3046D01*
X1424Y3047D01*
Y3047D01*
Y3047D01*
Y3048D01*
X1424Y3048D01*
Y3049D01*
X1424Y3049D01*
X1424Y3050D01*
X1424Y3050D01*
X1424Y3052D01*
X1423Y3054D01*
X1423Y3055D01*
X1423Y3056D01*
X1422Y3056D01*
Y3056D01*
X1422Y3056D01*
X1422Y3057D01*
X1422Y3057D01*
X1421Y3057D01*
X1421Y3058D01*
X1420Y3059D01*
X1419Y3060D01*
X1418Y3060D01*
X1418Y3060D01*
X1417Y3061D01*
X1417Y3061D01*
X1417Y3061D01*
X1417Y3061D01*
X1417Y3061D01*
X1417Y3061D01*
X1416Y3061D01*
X1416Y3061D01*
X1415Y3061D01*
X1415Y3061D01*
X1414Y3061D01*
X1414Y3061D01*
X1413Y3061D01*
X1412D01*
X1412Y3061D01*
D02*
G37*
G36*
X1339Y3062D02*
Y3062D01*
X1339Y3062D01*
X1339Y3062D01*
X1339Y3061D01*
X1339Y3061D01*
X1339Y3061D01*
X1339Y3060D01*
X1339Y3060D01*
X1338Y3059D01*
X1338Y3057D01*
X1338Y3056D01*
X1337Y3055D01*
X1333Y3043D01*
X1346D01*
X1342Y3054D01*
Y3054D01*
X1342Y3054D01*
X1342Y3054D01*
X1342Y3055D01*
X1341Y3055D01*
X1341Y3056D01*
X1341Y3056D01*
X1341Y3057D01*
X1340Y3058D01*
X1340Y3059D01*
X1340Y3061D01*
X1339Y3062D01*
D02*
G37*
G36*
X1714Y3061D02*
X1705D01*
Y3032D01*
X1714D01*
X1715Y3032D01*
X1716Y3032D01*
X1717Y3032D01*
X1718Y3032D01*
X1719Y3033D01*
X1719Y3033D01*
X1720D01*
X1720Y3033D01*
X1720Y3033D01*
X1720Y3033D01*
X1721Y3033D01*
X1721Y3034D01*
X1722Y3034D01*
X1722Y3034D01*
X1723Y3035D01*
X1723Y3035D01*
X1723Y3035D01*
X1724Y3036D01*
X1724Y3036D01*
X1724Y3037D01*
X1725Y3038D01*
X1725Y3039D01*
X1726Y3040D01*
Y3040D01*
X1726Y3040D01*
X1726Y3040D01*
X1726Y3040D01*
X1726Y3041D01*
X1726Y3041D01*
X1726Y3041D01*
X1726Y3042D01*
X1726Y3042D01*
X1726Y3043D01*
X1727Y3044D01*
X1727Y3046D01*
X1727Y3047D01*
Y3047D01*
Y3047D01*
Y3048D01*
X1727Y3048D01*
Y3049D01*
X1727Y3049D01*
X1727Y3050D01*
X1727Y3050D01*
X1726Y3052D01*
X1726Y3054D01*
X1725Y3055D01*
X1725Y3056D01*
X1725Y3056D01*
Y3056D01*
X1725Y3056D01*
X1725Y3057D01*
X1724Y3057D01*
X1724Y3057D01*
X1723Y3058D01*
X1723Y3059D01*
X1722Y3060D01*
X1721Y3060D01*
X1720Y3060D01*
X1720Y3061D01*
X1720Y3061D01*
X1720Y3061D01*
X1720Y3061D01*
X1719Y3061D01*
X1719Y3061D01*
X1719Y3061D01*
X1718Y3061D01*
X1718Y3061D01*
X1717Y3061D01*
X1717Y3061D01*
X1716Y3061D01*
X1716Y3061D01*
X1715D01*
X1714Y3061D01*
D02*
G37*
G36*
X1675D02*
X1667D01*
Y3032D01*
X1676D01*
X1676Y3032D01*
X1677Y3032D01*
X1678Y3032D01*
X1679Y3032D01*
X1680Y3033D01*
X1681Y3033D01*
X1681D01*
X1681Y3033D01*
X1681Y3033D01*
X1681Y3033D01*
X1682Y3033D01*
X1682Y3034D01*
X1683Y3034D01*
X1684Y3034D01*
X1684Y3035D01*
X1684Y3035D01*
X1684Y3035D01*
X1685Y3036D01*
X1685Y3036D01*
X1686Y3037D01*
X1686Y3038D01*
X1687Y3039D01*
X1687Y3040D01*
Y3040D01*
X1687Y3040D01*
X1687Y3040D01*
X1687Y3040D01*
X1687Y3041D01*
X1687Y3041D01*
X1687Y3041D01*
X1687Y3042D01*
X1688Y3042D01*
X1688Y3043D01*
X1688Y3044D01*
X1688Y3046D01*
X1688Y3047D01*
Y3047D01*
Y3047D01*
Y3048D01*
X1688Y3048D01*
Y3049D01*
X1688Y3049D01*
X1688Y3050D01*
X1688Y3050D01*
X1687Y3052D01*
X1687Y3054D01*
X1687Y3055D01*
X1686Y3056D01*
X1686Y3056D01*
Y3056D01*
X1686Y3056D01*
X1686Y3057D01*
X1686Y3057D01*
X1685Y3057D01*
X1685Y3058D01*
X1684Y3059D01*
X1683Y3060D01*
X1682Y3060D01*
X1682Y3060D01*
X1681Y3061D01*
X1681Y3061D01*
X1681Y3061D01*
X1681Y3061D01*
X1681Y3061D01*
X1680Y3061D01*
X1680Y3061D01*
X1680Y3061D01*
X1679Y3061D01*
X1679Y3061D01*
X1678Y3061D01*
X1678Y3061D01*
X1677Y3061D01*
X1676D01*
X1675Y3061D01*
D02*
G37*
G36*
X1603Y3062D02*
Y3062D01*
X1603Y3062D01*
X1603Y3062D01*
X1603Y3061D01*
X1603Y3061D01*
X1603Y3061D01*
X1603Y3060D01*
X1602Y3060D01*
X1602Y3059D01*
X1602Y3057D01*
X1601Y3056D01*
X1601Y3055D01*
X1597Y3043D01*
X1610D01*
X1606Y3054D01*
Y3054D01*
X1606Y3054D01*
X1605Y3054D01*
X1605Y3055D01*
X1605Y3055D01*
X1605Y3056D01*
X1605Y3056D01*
X1605Y3057D01*
X1604Y3058D01*
X1604Y3059D01*
X1603Y3061D01*
X1603Y3062D01*
D02*
G37*
G36*
X1843Y2916D02*
X1834D01*
Y2886D01*
X1843D01*
X1844Y2886D01*
X1845Y2887D01*
X1846Y2887D01*
X1847Y2887D01*
X1848Y2887D01*
X1848Y2887D01*
X1849D01*
X1849Y2887D01*
X1849Y2887D01*
X1849Y2887D01*
X1850Y2888D01*
X1850Y2888D01*
X1851Y2888D01*
X1851Y2889D01*
X1852Y2889D01*
X1852Y2889D01*
X1852Y2889D01*
X1853Y2890D01*
X1853Y2890D01*
X1853Y2891D01*
X1854Y2892D01*
X1854Y2893D01*
X1855Y2894D01*
Y2894D01*
X1855Y2894D01*
X1855Y2894D01*
X1855Y2895D01*
X1855Y2895D01*
X1855Y2895D01*
X1855Y2896D01*
X1855Y2896D01*
X1855Y2897D01*
X1855Y2897D01*
X1856Y2898D01*
X1856Y2900D01*
X1856Y2901D01*
Y2901D01*
Y2902D01*
Y2902D01*
X1856Y2902D01*
Y2903D01*
X1856Y2903D01*
X1856Y2904D01*
X1856Y2905D01*
X1855Y2906D01*
X1855Y2908D01*
X1854Y2909D01*
X1854Y2910D01*
X1854Y2911D01*
Y2911D01*
X1854Y2911D01*
X1854Y2911D01*
X1853Y2911D01*
X1853Y2912D01*
X1852Y2912D01*
X1852Y2913D01*
X1851Y2914D01*
X1850Y2914D01*
X1849Y2915D01*
X1849Y2915D01*
X1849Y2915D01*
X1849Y2915D01*
X1849Y2915D01*
X1848Y2915D01*
X1848Y2915D01*
X1848Y2915D01*
X1847Y2915D01*
X1847Y2915D01*
X1846Y2916D01*
X1846Y2916D01*
X1845Y2916D01*
X1845Y2916D01*
X1844D01*
X1843Y2916D01*
D02*
G37*
G36*
X1804D02*
X1796D01*
Y2886D01*
X1805D01*
X1805Y2886D01*
X1806Y2887D01*
X1807Y2887D01*
X1808Y2887D01*
X1809Y2887D01*
X1810Y2887D01*
X1810D01*
X1810Y2887D01*
X1810Y2887D01*
X1810Y2887D01*
X1811Y2888D01*
X1811Y2888D01*
X1812Y2888D01*
X1813Y2889D01*
X1813Y2889D01*
X1813Y2889D01*
X1813Y2889D01*
X1814Y2890D01*
X1814Y2890D01*
X1815Y2891D01*
X1815Y2892D01*
X1816Y2893D01*
X1816Y2894D01*
Y2894D01*
X1816Y2894D01*
X1816Y2894D01*
X1816Y2895D01*
X1816Y2895D01*
X1816Y2895D01*
X1816Y2896D01*
X1816Y2896D01*
X1817Y2897D01*
X1817Y2897D01*
X1817Y2898D01*
X1817Y2900D01*
X1817Y2901D01*
Y2901D01*
Y2902D01*
Y2902D01*
X1817Y2902D01*
Y2903D01*
X1817Y2903D01*
X1817Y2904D01*
X1817Y2905D01*
X1816Y2906D01*
X1816Y2908D01*
X1816Y2909D01*
X1815Y2910D01*
X1815Y2911D01*
Y2911D01*
X1815Y2911D01*
X1815Y2911D01*
X1815Y2911D01*
X1814Y2912D01*
X1814Y2912D01*
X1813Y2913D01*
X1812Y2914D01*
X1811Y2914D01*
X1811Y2915D01*
X1810Y2915D01*
X1810Y2915D01*
X1810Y2915D01*
X1810Y2915D01*
X1810Y2915D01*
X1809Y2915D01*
X1809Y2915D01*
X1809Y2915D01*
X1808Y2915D01*
X1808Y2916D01*
X1807Y2916D01*
X1807Y2916D01*
X1806Y2916D01*
X1805D01*
X1804Y2916D01*
D02*
G37*
G36*
X1730D02*
X1721D01*
Y2886D01*
X1730D01*
X1730Y2886D01*
X1731Y2887D01*
X1732Y2887D01*
X1733Y2887D01*
X1734Y2887D01*
X1735Y2887D01*
X1735D01*
X1735Y2887D01*
X1735Y2887D01*
X1736Y2887D01*
X1736Y2888D01*
X1737Y2888D01*
X1737Y2888D01*
X1738Y2889D01*
X1739Y2889D01*
X1739Y2889D01*
X1739Y2889D01*
X1739Y2890D01*
X1740Y2890D01*
X1740Y2891D01*
X1740Y2892D01*
X1741Y2893D01*
X1741Y2894D01*
Y2894D01*
X1741Y2894D01*
X1741Y2894D01*
X1741Y2895D01*
X1742Y2895D01*
X1742Y2895D01*
X1742Y2896D01*
X1742Y2896D01*
X1742Y2897D01*
X1742Y2897D01*
X1742Y2898D01*
X1742Y2900D01*
X1742Y2901D01*
Y2901D01*
Y2902D01*
Y2902D01*
X1742Y2902D01*
Y2903D01*
X1742Y2903D01*
X1742Y2904D01*
X1742Y2905D01*
X1742Y2906D01*
X1742Y2908D01*
X1741Y2909D01*
X1741Y2910D01*
X1740Y2911D01*
Y2911D01*
X1740Y2911D01*
X1740Y2911D01*
X1740Y2911D01*
X1740Y2912D01*
X1739Y2912D01*
X1738Y2913D01*
X1738Y2914D01*
X1737Y2914D01*
X1736Y2915D01*
X1736Y2915D01*
X1735Y2915D01*
X1735Y2915D01*
X1735Y2915D01*
X1735Y2915D01*
X1735Y2915D01*
X1734Y2915D01*
X1734Y2915D01*
X1734Y2915D01*
X1733Y2916D01*
X1733Y2916D01*
X1732Y2916D01*
X1731Y2916D01*
X1731D01*
X1730Y2916D01*
D02*
G37*
G36*
X1980Y2400D02*
X1969D01*
Y2386D01*
X1979D01*
X1980Y2386D01*
X1980D01*
X1981Y2386D01*
X1982Y2387D01*
X1983Y2387D01*
X1984Y2387D01*
X1985Y2387D01*
X1986Y2388D01*
X1986Y2388D01*
X1986Y2388D01*
X1986Y2388D01*
X1987Y2389D01*
X1987Y2389D01*
X1987Y2390D01*
X1988Y2391D01*
X1988Y2392D01*
X1988Y2393D01*
Y2393D01*
Y2393D01*
Y2394D01*
X1988Y2394D01*
X1988Y2395D01*
X1988Y2395D01*
X1988Y2396D01*
X1987Y2397D01*
X1987Y2397D01*
X1987Y2397D01*
X1987Y2398D01*
X1986Y2398D01*
X1986Y2398D01*
X1986Y2399D01*
X1985Y2399D01*
X1984Y2399D01*
X1984Y2400D01*
X1984D01*
X1983Y2400D01*
X1983Y2400D01*
X1983Y2400D01*
X1982Y2400D01*
X1981Y2400D01*
X1980Y2400D01*
D02*
G37*
G36*
X1941Y2401D02*
Y2401D01*
X1941Y2400D01*
X1941Y2400D01*
X1941Y2400D01*
X1941Y2400D01*
X1941Y2399D01*
X1941Y2399D01*
X1941Y2398D01*
X1940Y2397D01*
X1940Y2396D01*
X1940Y2395D01*
X1939Y2393D01*
X1935Y2382D01*
X1948D01*
X1944Y2393D01*
Y2393D01*
X1944Y2393D01*
X1944Y2393D01*
X1944Y2393D01*
X1944Y2394D01*
X1943Y2394D01*
X1943Y2395D01*
X1943Y2395D01*
X1943Y2397D01*
X1942Y2398D01*
X1942Y2399D01*
X1941Y2401D01*
D02*
G37*
G36*
X1153Y2430D02*
X1153D01*
X1153D01*
X1152D01*
X1152D01*
X1151Y2430D01*
X1151D01*
X1150Y2430D01*
X1149Y2430D01*
X1148Y2430D01*
X1146Y2429D01*
X1145Y2429D01*
X1144Y2429D01*
X1143Y2429D01*
X1142Y2429D01*
X1141Y2428D01*
X1140Y2428D01*
X1140Y2428D01*
X1140Y2428D01*
X1140Y2428D01*
X1140Y2427D01*
X1139Y2427D01*
X1139Y2426D01*
X1138Y2426D01*
X1138Y2425D01*
X1137Y2424D01*
X1137Y2424D01*
X1137Y2423D01*
X1137Y2422D01*
Y2422D01*
X1137Y2422D01*
X1137Y2422D01*
X1137Y2421D01*
X1138Y2420D01*
X1138Y2420D01*
X1138Y2419D01*
X1138Y2419D01*
X1139Y2418D01*
X1139Y2418D01*
X1140Y2417D01*
X1140Y2417D01*
X1140Y2417D01*
X1140Y2417D01*
X1141Y2417D01*
X1141Y2417D01*
X1141Y2416D01*
X1142Y2416D01*
X1142Y2416D01*
X1143Y2416D01*
X1144Y2416D01*
X1145Y2415D01*
X1146Y2415D01*
X1147Y2415D01*
X1148Y2415D01*
X1150Y2415D01*
X1151Y2415D01*
X1153D01*
X1153D01*
X1153D01*
X1153D01*
X1154D01*
X1154Y2415D01*
X1155D01*
X1156Y2415D01*
X1157Y2415D01*
X1158Y2415D01*
X1160Y2415D01*
X1161Y2415D01*
X1162Y2416D01*
X1163Y2416D01*
X1164Y2416D01*
X1165Y2417D01*
X1165Y2417D01*
X1165D01*
X1166Y2417D01*
X1166Y2417D01*
X1166Y2417D01*
X1166Y2418D01*
X1167Y2418D01*
X1168Y2419D01*
X1168Y2420D01*
X1168Y2421D01*
X1168Y2421D01*
X1169Y2422D01*
X1169Y2422D01*
Y2423D01*
X1169Y2423D01*
X1168Y2424D01*
X1168Y2424D01*
X1168Y2425D01*
X1167Y2426D01*
X1167Y2426D01*
X1167Y2427D01*
X1166Y2427D01*
X1166Y2428D01*
X1166Y2428D01*
X1166Y2428D01*
X1165Y2428D01*
X1165Y2428D01*
X1165Y2428D01*
X1164Y2428D01*
X1164Y2429D01*
X1163Y2429D01*
X1162Y2429D01*
X1161Y2429D01*
X1160Y2429D01*
X1159Y2430D01*
X1158Y2430D01*
X1156Y2430D01*
X1155Y2430D01*
X1153Y2430D01*
D02*
G37*
G36*
X218Y1983D02*
X218D01*
X218D01*
X218D01*
X218Y1983D01*
X217D01*
X217Y1983D01*
X216Y1983D01*
X215Y1983D01*
X214Y1982D01*
X213Y1982D01*
X212Y1981D01*
X211Y1981D01*
X211Y1981D01*
X211Y1981D01*
X210Y1981D01*
X210Y1980D01*
X210Y1980D01*
X209Y1979D01*
X209Y1978D01*
X208Y1978D01*
X208Y1976D01*
X208Y1976D01*
X208Y1975D01*
Y1975D01*
X208Y1975D01*
X208Y1975D01*
X208Y1974D01*
X208Y1974D01*
X209Y1973D01*
X209Y1972D01*
X209Y1971D01*
X210Y1971D01*
X210Y1970D01*
X211Y1970D01*
X211Y1970D01*
X211Y1970D01*
X211Y1970D01*
X211Y1970D01*
X211Y1969D01*
X212Y1969D01*
X212Y1969D01*
X213Y1969D01*
X213Y1969D01*
X214Y1968D01*
X215Y1968D01*
X215Y1968D01*
X216Y1968D01*
X217Y1968D01*
X218Y1968D01*
X219D01*
X219D01*
X219D01*
X219D01*
X220Y1968D01*
X220D01*
X221Y1968D01*
X221Y1968D01*
X222Y1968D01*
X223Y1968D01*
X224Y1969D01*
X226Y1969D01*
X226Y1970D01*
X227Y1970D01*
X227D01*
X227Y1970D01*
X227Y1970D01*
X228Y1971D01*
X228Y1971D01*
X229Y1972D01*
X229Y1973D01*
X229Y1974D01*
X229Y1975D01*
X229Y1975D01*
Y1975D01*
X229Y1976D01*
X229Y1976D01*
X229Y1977D01*
X229Y1978D01*
X229Y1978D01*
X228Y1979D01*
X228Y1979D01*
X228Y1980D01*
X227Y1980D01*
X227Y1981D01*
X227D01*
X226Y1981D01*
X226Y1981D01*
X226Y1981D01*
X226Y1981D01*
X225Y1981D01*
X225Y1981D01*
X225Y1982D01*
X224Y1982D01*
X223Y1982D01*
X223Y1982D01*
X222Y1982D01*
X221Y1983D01*
X220Y1983D01*
X219Y1983D01*
X218Y1983D01*
D02*
G37*
G36*
X817Y2308D02*
X816D01*
X816D01*
X816D01*
X815D01*
X815D01*
X814Y2308D01*
X813D01*
X813Y2308D01*
X812Y2308D01*
X811Y2308D01*
X808Y2308D01*
X807Y2307D01*
X806Y2307D01*
X805Y2307D01*
X805Y2307D01*
X804Y2306D01*
X803Y2306D01*
X803D01*
X803Y2306D01*
X803Y2306D01*
X803Y2306D01*
X802Y2305D01*
X801Y2304D01*
X801Y2304D01*
X800Y2303D01*
X800Y2302D01*
X800Y2302D01*
X800Y2301D01*
X800Y2300D01*
Y2300D01*
X800Y2300D01*
X800Y2299D01*
X800Y2299D01*
X801Y2298D01*
X801Y2297D01*
X801Y2296D01*
X802Y2296D01*
X802Y2296D01*
X803Y2295D01*
X803Y2295D01*
X803Y2295D01*
X803Y2295D01*
X803Y2295D01*
X804Y2295D01*
X804Y2294D01*
X805Y2294D01*
X806Y2294D01*
X806Y2294D01*
X807Y2294D01*
X808Y2293D01*
X810Y2293D01*
X811Y2293D01*
X812Y2293D01*
X814Y2293D01*
X816Y2293D01*
X816D01*
X816D01*
X816D01*
X817D01*
X817Y2293D01*
X818D01*
X819Y2293D01*
X820Y2293D01*
X821Y2293D01*
X823Y2293D01*
X824Y2294D01*
X825Y2294D01*
X826Y2294D01*
X827Y2294D01*
X828Y2295D01*
X828Y2295D01*
X828Y2295D01*
X828Y2295D01*
X829Y2295D01*
X829Y2295D01*
X829Y2296D01*
X830Y2297D01*
X830Y2297D01*
X831Y2298D01*
X831Y2299D01*
X831Y2299D01*
X831Y2300D01*
X831Y2300D01*
Y2301D01*
X831Y2301D01*
X831Y2301D01*
X831Y2302D01*
X831Y2302D01*
X831Y2303D01*
X830Y2304D01*
X830Y2304D01*
X830Y2305D01*
X829Y2305D01*
X829Y2306D01*
X828Y2306D01*
X828Y2306D01*
X828Y2306D01*
X828Y2306D01*
X828Y2306D01*
X827Y2306D01*
X827Y2307D01*
X826Y2307D01*
X826Y2307D01*
X825Y2307D01*
X824Y2307D01*
X823Y2308D01*
X822Y2308D01*
X820Y2308D01*
X819Y2308D01*
X817Y2308D01*
D02*
G37*
G36*
X807Y2262D02*
X807D01*
X807D01*
X806D01*
X806Y2262D01*
X806Y2262D01*
X805Y2261D01*
X804Y2261D01*
X804Y2261D01*
X803Y2260D01*
X802Y2260D01*
X802Y2260D01*
X802Y2259D01*
X802Y2259D01*
X801Y2258D01*
X801Y2258D01*
X801Y2257D01*
X801Y2257D01*
X801Y2256D01*
X801Y2256D01*
X801Y2255D01*
X800Y2254D01*
Y2241D01*
X813D01*
Y2253D01*
X813Y2253D01*
X813Y2254D01*
X813Y2255D01*
X813Y2256D01*
X813Y2257D01*
X812Y2258D01*
X812Y2258D01*
X812Y2258D01*
X812Y2258D01*
X812Y2259D01*
X812Y2259D01*
X811Y2260D01*
X811Y2260D01*
X810Y2261D01*
X810Y2261D01*
X810Y2261D01*
X810Y2261D01*
X809Y2261D01*
X809Y2261D01*
X808Y2262D01*
X807Y2262D01*
X807Y2262D01*
D02*
G37*
G36*
Y2518D02*
X807D01*
X807D01*
X806D01*
X806Y2518D01*
X806Y2518D01*
X805Y2517D01*
X804Y2517D01*
X804Y2517D01*
X803Y2516D01*
X802Y2516D01*
X802Y2516D01*
X802Y2515D01*
X802Y2515D01*
X801Y2514D01*
X801Y2514D01*
X801Y2513D01*
X801Y2513D01*
X801Y2512D01*
X801Y2512D01*
X801Y2511D01*
X800Y2510D01*
Y2497D01*
X813D01*
Y2509D01*
X813Y2509D01*
X813Y2510D01*
X813Y2511D01*
X813Y2512D01*
X813Y2513D01*
X812Y2514D01*
X812Y2514D01*
X812Y2514D01*
X812Y2514D01*
X812Y2515D01*
X812Y2515D01*
X811Y2516D01*
X811Y2516D01*
X810Y2517D01*
X810Y2517D01*
X810Y2517D01*
X810Y2517D01*
X809Y2517D01*
X809Y2517D01*
X808Y2517D01*
X807Y2518D01*
X807Y2518D01*
D02*
G37*
G36*
X935Y2975D02*
X922D01*
Y2962D01*
X934D01*
X935Y2962D01*
X935Y2962D01*
X936Y2963D01*
X937Y2963D01*
X938Y2963D01*
X939Y2963D01*
X939Y2963D01*
X939Y2963D01*
X939Y2963D01*
X940Y2964D01*
X940Y2964D01*
X941Y2964D01*
X941Y2965D01*
X942Y2965D01*
X942Y2965D01*
X942Y2966D01*
X942Y2966D01*
X942Y2966D01*
X942Y2967D01*
X943Y2968D01*
X943Y2968D01*
X943Y2969D01*
Y2969D01*
Y2969D01*
Y2969D01*
X943Y2969D01*
X943Y2970D01*
X943Y2970D01*
X942Y2971D01*
X942Y2972D01*
X941Y2973D01*
X941Y2973D01*
X941Y2973D01*
X940Y2974D01*
X940Y2974D01*
X939Y2974D01*
X939Y2974D01*
X938Y2975D01*
X938Y2975D01*
X937Y2975D01*
X937Y2975D01*
X936Y2975D01*
X935Y2975D01*
D02*
G37*
%LPD*%
D10*
X2537Y1256D02*
G03*
X2537Y1256I-12J0D01*
G01*
X1376Y1697D02*
G03*
X1376Y1697I-12J0D01*
G01*
X1388Y772D02*
G03*
X1388Y772I-12J0D01*
G01*
D11*
X2445Y1296D02*
G03*
X2445Y1296I-5J0D01*
G01*
X4063Y2551D02*
G03*
X4063Y2551I-5J0D01*
G01*
X1284Y1737D02*
G03*
X1284Y1737I-5J0D01*
G01*
X1296Y811D02*
G03*
X1296Y811I-5J0D01*
G01*
D12*
X2566Y1295D02*
G03*
X2616Y1295I25J0D01*
G01*
X1404Y1736D02*
G03*
X1454Y1736I25J0D01*
G01*
X1416Y811D02*
G03*
X1466Y811I25J0D01*
G01*
X2486Y894D02*
X2695D01*
X2616Y1295D02*
X2695D01*
X2486D02*
X2566D01*
X2695Y894D02*
Y1295D01*
X2486Y894D02*
Y1295D01*
X3704Y1279D02*
Y1479D01*
X4604D01*
X3704Y1279D02*
X4604D01*
Y1479D01*
X2150Y3411D02*
X3075D01*
X2150Y3611D02*
X3075D01*
X2075D02*
X2150D01*
X2075Y3411D02*
Y3611D01*
Y3411D02*
X2150D01*
X3075D02*
Y3611D01*
X5104Y730D02*
X5204D01*
X5104Y130D02*
X5204D01*
X5104D02*
Y730D01*
X5204Y130D02*
Y730D01*
X3244Y2008D02*
X3315Y2079D01*
X3669Y1725D01*
X3244Y2008D02*
X3598Y1654D01*
X3669Y1725D01*
X1678Y3462D02*
Y3562D01*
X478Y3462D02*
X1678D01*
X478D02*
Y3562D01*
X553D01*
X1678D01*
X1667Y2031D02*
Y2116D01*
X1467Y2031D02*
X1667D01*
X1467D02*
Y2151D01*
X1667D01*
Y2116D02*
Y2151D01*
X2728Y1366D02*
Y1406D01*
X2476Y1366D02*
X2728D01*
X2476D02*
Y1445D01*
X2728D01*
Y1406D02*
Y1445D01*
X2138Y1193D02*
X2177D01*
X2138D02*
Y1445D01*
X2217D01*
Y1193D02*
Y1445D01*
X2177Y1193D02*
X2217D01*
X1930Y2216D02*
Y2336D01*
X2000D01*
Y2216D02*
Y2336D01*
X1930Y2216D02*
X2000D01*
X1361Y3004D02*
X1481D01*
Y2934D02*
Y3004D01*
X1361Y2934D02*
X1481D01*
X1361D02*
Y3004D01*
X1523D02*
X1643D01*
Y2934D02*
Y3004D01*
X1523Y2934D02*
X1643D01*
X1523D02*
Y3004D01*
X1316Y2934D02*
Y3004D01*
X1196D02*
X1316D01*
X1196Y2934D02*
Y3004D01*
Y2934D02*
X1316D01*
X1680D02*
X1800D01*
X1680D02*
Y3004D01*
X1800D01*
Y2934D02*
Y3004D01*
X1437Y2236D02*
Y2276D01*
X1689D01*
Y2197D02*
Y2276D01*
X1437Y2197D02*
X1689D01*
X1437D02*
Y2236D01*
X1835Y2216D02*
Y2336D01*
X1905D01*
Y2216D02*
Y2336D01*
X1835Y2216D02*
X1905D01*
X2075Y2142D02*
X2114D01*
X2075D02*
Y2394D01*
X2154D01*
Y2142D02*
Y2394D01*
X2114Y2142D02*
X2154D01*
X862Y2382D02*
Y2421D01*
Y2382D02*
X1114D01*
Y2461D01*
X862D02*
X1114D01*
X862Y2421D02*
Y2461D01*
X1012Y1642D02*
X1051D01*
Y1894D01*
X972D02*
X1051D01*
X972Y1642D02*
Y1894D01*
Y1642D02*
X1012D01*
Y1217D02*
X1051D01*
Y1469D01*
X972D02*
X1051D01*
X972Y1217D02*
Y1469D01*
Y1217D02*
X1012D01*
X862Y2618D02*
Y2657D01*
Y2618D02*
X1114D01*
Y2697D01*
X862D02*
X1114D01*
X862Y2657D02*
Y2697D01*
X1020Y394D02*
X1059D01*
Y646D01*
X980D02*
X1059D01*
X980Y394D02*
Y646D01*
Y394D02*
X1020D01*
X862Y2728D02*
Y2768D01*
Y2728D02*
X1114D01*
Y2807D01*
X862D02*
X1114D01*
X862Y2768D02*
Y2807D01*
X1020Y803D02*
X1059D01*
Y1055D01*
X980D02*
X1059D01*
X980Y803D02*
Y1055D01*
Y803D02*
X1020D01*
X80Y1792D02*
X180D01*
X80D02*
Y2292D01*
X180Y1792D02*
Y2292D01*
X80D02*
X180D01*
X1325Y1335D02*
Y1736D01*
X1533Y1335D02*
Y1736D01*
X1325D02*
X1404D01*
X1454D02*
X1533D01*
X1325Y1335D02*
X1533D01*
X1337Y409D02*
Y811D01*
X1545Y409D02*
Y811D01*
X1337D02*
X1416D01*
X1466D02*
X1545D01*
X1337Y409D02*
X1545D01*
X1551Y1850D02*
Y1890D01*
X1299D02*
X1551D01*
X1299Y1811D02*
Y1890D01*
Y1811D02*
X1551D01*
Y1850D01*
X386Y2378D02*
Y2417D01*
X134D02*
X386D01*
X134Y2339D02*
Y2417D01*
Y2339D02*
X386D01*
Y2378D01*
Y2602D02*
Y2642D01*
X134D02*
X386D01*
X134Y2563D02*
Y2642D01*
Y2563D02*
X386D01*
Y2602D01*
Y2827D02*
Y2866D01*
X134D02*
X386D01*
X134Y2787D02*
Y2866D01*
Y2787D02*
X386D01*
Y2827D01*
X1114Y2315D02*
Y2354D01*
X862D02*
X1114D01*
X862Y2276D02*
Y2354D01*
Y2276D02*
X1114D01*
Y2315D01*
X728Y1642D02*
X768D01*
Y1894D01*
X689D02*
X768D01*
X689Y1642D02*
Y1894D01*
Y1642D02*
X728D01*
Y1217D02*
X768D01*
Y1469D01*
X689D02*
X768D01*
X689Y1217D02*
Y1469D01*
Y1217D02*
X728D01*
X1114Y2539D02*
Y2579D01*
X862D02*
X1114D01*
X862Y2500D02*
Y2579D01*
Y2500D02*
X1114D01*
Y2539D01*
X724Y394D02*
X764D01*
Y646D01*
X685D02*
X764D01*
X685Y394D02*
Y646D01*
Y394D02*
X724D01*
X1114Y2874D02*
Y2913D01*
X862D02*
X1114D01*
X862Y2835D02*
Y2913D01*
Y2835D02*
X1114D01*
Y2874D01*
X1874Y783D02*
X1913D01*
Y1035D01*
X1835D02*
X1913D01*
X1835Y783D02*
Y1035D01*
Y783D02*
X1874D01*
X724Y803D02*
X764D01*
Y1055D01*
X685D02*
X764D01*
X685Y803D02*
Y1055D01*
Y803D02*
X724D01*
X1870Y1193D02*
X1909D01*
Y1445D01*
X1831D02*
X1909D01*
X1831Y1193D02*
Y1445D01*
Y1193D02*
X1870D01*
X1567Y902D02*
Y941D01*
X1315D02*
X1567D01*
X1315Y862D02*
Y941D01*
Y862D02*
X1567D01*
Y902D01*
X4570Y3411D02*
Y3611D01*
X3670Y3411D02*
X4570D01*
X3670Y3611D02*
X4570D01*
X3670Y3411D02*
Y3611D01*
X3210Y2192D02*
X3310D01*
X3210D02*
Y2692D01*
X3310Y2192D02*
Y2692D01*
X3210D02*
X3310D01*
X3237Y2894D02*
X3308Y2824D01*
X3237Y2894D02*
X3591Y3248D01*
X3308Y2824D02*
X3661Y3177D01*
X3591Y3248D02*
X3661Y3177D01*
X4958Y2192D02*
X5058D01*
X4958D02*
Y2692D01*
X5058Y2192D02*
Y2692D01*
X4958D02*
X5058D01*
X4936Y2824D02*
X5007Y2894D01*
X4583Y3177D02*
X4936Y2824D01*
X4654Y3248D02*
X5007Y2894D01*
X4583Y3177D02*
X4654Y3248D01*
X4607Y1725D02*
X4678Y1654D01*
X4607Y1725D02*
X4961Y2079D01*
X4678Y1654D02*
X5031Y2008D01*
X4961Y2079D02*
X5031Y2008D01*
X2142Y783D02*
X2181D01*
X2142D02*
Y1035D01*
X2220D01*
Y783D02*
Y1035D01*
X2181Y783D02*
X2220D01*
D13*
X1276Y2776D02*
G03*
X1276Y2776I-6J0D01*
G01*
D14*
X1656Y2803D02*
X1689D01*
Y2770D02*
Y2803D01*
Y2409D02*
Y2441D01*
X1656Y2409D02*
X1689D01*
X1295D02*
X1329D01*
X1295D02*
Y2443D01*
Y2803D02*
X1329D01*
X1295Y2770D02*
Y2803D01*
D15*
X1860Y1745D02*
Y1824D01*
X1887Y1797D01*
X1913Y1824D01*
Y1745D01*
X1939D02*
X1965D01*
X1952D01*
Y1797D01*
X1939D01*
X2057D02*
X2018D01*
X2005Y1784D01*
Y1758D01*
X2018Y1745D01*
X2057D01*
X2083D02*
X2123D01*
X2136Y1758D01*
X2123Y1771D01*
X2097D01*
X2083Y1784D01*
X2097Y1797D01*
X2136D01*
X2175D02*
X2201D01*
X2215Y1784D01*
Y1745D01*
X2175D01*
X2162Y1758D01*
X2175Y1771D01*
X2215D01*
X2320Y1745D02*
Y1797D01*
X2346Y1824D01*
X2372Y1797D01*
Y1745D01*
Y1784D01*
X2320D01*
X2398Y1745D02*
X2425D01*
X2411D01*
Y1824D01*
X2398D01*
X2464Y1719D02*
Y1797D01*
X2503D01*
X2516Y1784D01*
Y1758D01*
X2503Y1745D01*
X2464D01*
X2543Y1824D02*
Y1745D01*
Y1784D01*
X2556Y1797D01*
X2582D01*
X2595Y1784D01*
Y1745D01*
X2634Y1797D02*
X2661D01*
X2674Y1784D01*
Y1745D01*
X2634D01*
X2621Y1758D01*
X2634Y1771D01*
X2674D01*
X2518Y847D02*
X2498D01*
X2488Y837D01*
Y797D01*
X2498Y787D01*
X2518D01*
X2528Y797D01*
Y837D01*
X2518Y847D01*
X2548Y787D02*
Y847D01*
X2578D01*
X2588Y837D01*
Y817D01*
X2578Y807D01*
X2548D01*
X2608Y837D02*
X2618Y847D01*
X2638D01*
X2648Y837D01*
Y827D01*
X2638Y817D01*
X2628D01*
X2638D01*
X2648Y807D01*
Y797D01*
X2638Y787D01*
X2618D01*
X2608Y797D01*
X4058Y2591D02*
Y2651D01*
X4078Y2631D01*
X4098Y2651D01*
Y2591D01*
X4158Y2641D02*
X4148Y2651D01*
X4128D01*
X4118Y2641D01*
Y2601D01*
X4128Y2591D01*
X4148D01*
X4158Y2601D01*
X4178Y2651D02*
Y2601D01*
X4188Y2591D01*
X4208D01*
X4218Y2601D01*
Y2651D01*
X3656Y1573D02*
X3636D01*
X3646D01*
Y1523D01*
X3636Y1513D01*
X3626D01*
X3616Y1523D01*
X3676Y1513D02*
X3716Y1553D01*
X3736Y1573D02*
Y1513D01*
Y1543D01*
X3776D01*
Y1573D01*
Y1513D01*
X2311Y3693D02*
X2301Y3703D01*
X2281D01*
X2271Y3693D01*
Y3683D01*
X2281Y3673D01*
X2301D01*
X2311Y3663D01*
Y3653D01*
X2301Y3643D01*
X2281D01*
X2271Y3653D01*
X2331Y3703D02*
X2371D01*
X2351D01*
Y3643D01*
X2391Y3673D02*
X2431D01*
X2451Y3703D02*
Y3643D01*
X2491D01*
X2511D02*
X2531D01*
X2521D01*
Y3683D01*
X2511D01*
X2561Y3643D02*
Y3683D01*
X2591D01*
X2601Y3673D01*
Y3643D01*
X2621D02*
Y3703D01*
Y3663D02*
X2651Y3683D01*
X2621Y3663D02*
X2651Y3643D01*
X2681D02*
X2721Y3683D01*
X2741Y3703D02*
Y3663D01*
X2761Y3643D01*
X2781Y3663D01*
Y3703D01*
X2841Y3643D02*
X2801D01*
X2841Y3683D01*
Y3693D01*
X2831Y3703D01*
X2811D01*
X2801Y3693D01*
X5000Y768D02*
Y828D01*
X5030D01*
X5040Y818D01*
Y798D01*
X5030Y788D01*
X5000D01*
X5090Y828D02*
X5070D01*
X5060Y818D01*
Y778D01*
X5070Y768D01*
X5090D01*
X5100Y778D01*
Y818D01*
X5090Y828D01*
X5120D02*
Y768D01*
X5140Y788D01*
X5160Y768D01*
Y828D01*
X5220D02*
X5180D01*
Y768D01*
X5220D01*
X5180Y798D02*
X5200D01*
X5240Y768D02*
Y828D01*
X5270D01*
X5280Y818D01*
Y798D01*
X5270Y788D01*
X5240D01*
X5260D02*
X5280Y768D01*
X3291Y2162D02*
X3281Y2172D01*
X3261D01*
X3251Y2162D01*
Y2122D01*
X3261Y2112D01*
X3281D01*
X3291Y2122D01*
X3351Y2162D02*
X3341Y2172D01*
X3321D01*
X3311Y2162D01*
Y2122D01*
X3321Y2112D01*
X3341D01*
X3351Y2122D01*
Y2142D01*
X3331D01*
X3371Y2162D02*
X3381Y2172D01*
X3401D01*
X3411Y2162D01*
Y2152D01*
X3401Y2142D01*
X3391D01*
X3401D01*
X3411Y2132D01*
Y2122D01*
X3401Y2112D01*
X3381D01*
X3371Y2122D01*
X808Y3606D02*
Y3646D01*
X828Y3666D01*
X848Y3646D01*
Y3606D01*
Y3636D01*
X808D01*
X868Y3666D02*
Y3606D01*
X898D01*
X908Y3616D01*
Y3656D01*
X898Y3666D01*
X868D01*
X968Y3656D02*
X958Y3666D01*
X938D01*
X928Y3656D01*
Y3646D01*
X938Y3636D01*
X958D01*
X968Y3626D01*
Y3616D01*
X958Y3606D01*
X938D01*
X928Y3616D01*
X988Y3606D02*
X1028Y3646D01*
X1048Y3666D02*
X1068D01*
X1058D01*
Y3606D01*
X1048D01*
X1068D01*
X1098D02*
Y3666D01*
X1138Y3606D01*
Y3666D01*
X1158Y3606D02*
X1198Y3646D01*
X1248Y3666D02*
X1228D01*
X1218Y3656D01*
Y3616D01*
X1228Y3606D01*
X1248D01*
X1258Y3616D01*
Y3656D01*
X1248Y3666D01*
X1278D02*
Y3616D01*
X1288Y3606D01*
X1308D01*
X1318Y3616D01*
Y3666D01*
X1338D02*
X1378D01*
X1358D01*
Y3606D01*
X2482Y1479D02*
Y1539D01*
X2512D01*
X2522Y1529D01*
Y1509D01*
X2512Y1499D01*
X2482D01*
X2502D02*
X2522Y1479D01*
X2582Y1529D02*
X2572Y1539D01*
X2552D01*
X2542Y1529D01*
Y1489D01*
X2552Y1479D01*
X2572D01*
X2582Y1489D01*
Y1509D01*
X2562D01*
X2602Y1529D02*
X2612Y1539D01*
X2632D01*
X2642Y1529D01*
Y1519D01*
X2632Y1509D01*
X2622D01*
X2632D01*
X2642Y1499D01*
Y1489D01*
X2632Y1479D01*
X2612D01*
X2602Y1489D01*
X2184Y1528D02*
X2174Y1538D01*
X2154D01*
X2144Y1528D01*
Y1488D01*
X2154Y1478D01*
X2174D01*
X2184Y1488D01*
X2214Y1478D02*
Y1528D01*
Y1508D01*
X2204D01*
X2224D01*
X2214D01*
Y1528D01*
X2224Y1538D01*
X2294Y1478D02*
X2254D01*
X2294Y1518D01*
Y1528D01*
X2284Y1538D01*
X2264D01*
X2254Y1528D01*
X2354Y1478D02*
X2314D01*
X2354Y1518D01*
Y1528D01*
X2344Y1538D01*
X2324D01*
X2314Y1528D01*
X1121Y3060D02*
X1114Y3067D01*
X1101D01*
X1094Y3060D01*
Y3034D01*
X1101Y3028D01*
X1114D01*
X1121Y3034D01*
X1134Y3021D02*
X1160D01*
X1173Y3067D02*
Y3028D01*
X1193D01*
X1199Y3034D01*
Y3041D01*
X1193Y3047D01*
X1173D01*
X1193D01*
X1199Y3054D01*
Y3060D01*
X1193Y3067D01*
X1173D01*
X1213D02*
X1226D01*
X1219D01*
Y3028D01*
X1213D01*
X1226D01*
X1479Y2332D02*
X1472Y2339D01*
X1459D01*
X1453Y2332D01*
Y2306D01*
X1459Y2299D01*
X1472D01*
X1479Y2306D01*
X1492Y2293D02*
X1518D01*
X1558Y2339D02*
X1531D01*
Y2319D01*
X1545D01*
X1531D01*
Y2299D01*
X1571D02*
Y2339D01*
X1591D01*
X1597Y2332D01*
Y2319D01*
X1591Y2312D01*
X1571D01*
X1636Y2339D02*
X1610D01*
Y2319D01*
X1623D01*
X1610D01*
Y2299D01*
X1650D02*
Y2339D01*
X1676Y2299D01*
Y2339D01*
X2222Y2382D02*
X2228Y2388D01*
Y2400D01*
X2222Y2406D01*
X2199D01*
X2193Y2400D01*
Y2388D01*
X2199Y2382D01*
X2187Y2370D02*
Y2346D01*
X2228Y2335D02*
X2205D01*
X2193Y2323D01*
X2205Y2311D01*
X2228D01*
X2222Y2276D02*
X2228Y2282D01*
Y2293D01*
X2222Y2299D01*
X2199D01*
X2193Y2293D01*
Y2282D01*
X2199Y2276D01*
X2193Y2264D02*
X2217D01*
X2228Y2252D01*
X2217Y2240D01*
X2193D01*
X2211D01*
Y2264D01*
X2193Y2228D02*
X2228D01*
Y2211D01*
X2222Y2205D01*
X2211D01*
X2205Y2211D01*
Y2228D01*
X2222Y2193D02*
X2228Y2187D01*
Y2175D01*
X2222Y2169D01*
X2217D01*
X2211Y2175D01*
Y2181D01*
Y2175D01*
X2205Y2169D01*
X2199D01*
X2193Y2175D01*
Y2187D01*
X2199Y2193D01*
X2193Y2134D02*
Y2158D01*
X2217Y2134D01*
X2222D01*
X2228Y2140D01*
Y2152D01*
X2222Y2158D01*
X1018Y1977D02*
X1008Y1987D01*
X988D01*
X978Y1977D01*
Y1937D01*
X988Y1927D01*
X1008D01*
X1018Y1937D01*
X1048Y1927D02*
Y1977D01*
Y1957D01*
X1038D01*
X1058D01*
X1048D01*
Y1977D01*
X1058Y1987D01*
X1088Y1977D02*
X1098Y1987D01*
X1118D01*
X1128Y1977D01*
Y1937D01*
X1118Y1927D01*
X1098D01*
X1088Y1937D01*
Y1977D01*
X1018Y1552D02*
X1008Y1562D01*
X988D01*
X978Y1552D01*
Y1512D01*
X988Y1502D01*
X1008D01*
X1018Y1512D01*
X1048Y1502D02*
Y1552D01*
Y1532D01*
X1038D01*
X1058D01*
X1048D01*
Y1552D01*
X1058Y1562D01*
X1088Y1552D02*
X1098Y1562D01*
X1118D01*
X1128Y1552D01*
Y1512D01*
X1118Y1502D01*
X1098D01*
X1088Y1512D01*
Y1552D01*
X1148D02*
X1158Y1562D01*
X1178D01*
X1188Y1552D01*
Y1512D01*
X1178Y1502D01*
X1158D01*
X1148Y1512D01*
Y1552D01*
X1026Y729D02*
X1016Y739D01*
X996D01*
X986Y729D01*
Y689D01*
X996Y679D01*
X1016D01*
X1026Y689D01*
X1056Y679D02*
Y729D01*
Y709D01*
X1046D01*
X1066D01*
X1056D01*
Y729D01*
X1066Y739D01*
X1096Y679D02*
X1116D01*
X1106D01*
Y739D01*
X1096Y729D01*
X1026Y1139D02*
X1016Y1149D01*
X996D01*
X986Y1139D01*
Y1099D01*
X996Y1089D01*
X1016D01*
X1026Y1099D01*
X1056Y1089D02*
Y1139D01*
Y1119D01*
X1046D01*
X1066D01*
X1056D01*
Y1139D01*
X1066Y1149D01*
X1096Y1089D02*
X1116D01*
X1106D01*
Y1149D01*
X1096Y1139D01*
X1146Y1089D02*
X1166D01*
X1156D01*
Y1149D01*
X1146Y1139D01*
X1384Y1304D02*
X1364D01*
X1354Y1294D01*
Y1254D01*
X1364Y1244D01*
X1384D01*
X1394Y1254D01*
Y1294D01*
X1384Y1304D01*
X1414Y1244D02*
Y1304D01*
X1444D01*
X1454Y1294D01*
Y1274D01*
X1444Y1264D01*
X1414D01*
X1474Y1244D02*
X1494D01*
X1484D01*
Y1304D01*
X1474Y1294D01*
X1380Y375D02*
X1360D01*
X1350Y365D01*
Y325D01*
X1360Y315D01*
X1380D01*
X1390Y325D01*
Y365D01*
X1380Y375D01*
X1410Y315D02*
Y375D01*
X1440D01*
X1450Y365D01*
Y345D01*
X1440Y335D01*
X1410D01*
X1510Y315D02*
X1470D01*
X1510Y355D01*
Y365D01*
X1500Y375D01*
X1480D01*
X1470Y365D01*
X1378Y1925D02*
Y1985D01*
X1408D01*
X1418Y1975D01*
Y1955D01*
X1408Y1945D01*
X1378D01*
X1398D02*
X1418Y1925D01*
X1438D02*
X1458D01*
X1448D01*
Y1985D01*
X1438Y1975D01*
X140Y2461D02*
Y2521D01*
X170D01*
X180Y2511D01*
Y2491D01*
X170Y2481D01*
X140D01*
X160D02*
X180Y2461D01*
X200Y2451D02*
X240D01*
X300Y2511D02*
X290Y2521D01*
X270D01*
X260Y2511D01*
Y2471D01*
X270Y2461D01*
X290D01*
X300Y2471D01*
Y2491D01*
X280D01*
X320Y2461D02*
Y2521D01*
X350D01*
X360Y2511D01*
Y2491D01*
X350Y2481D01*
X320D01*
X380Y2521D02*
X400D01*
X390D01*
Y2461D01*
X380D01*
X400D01*
X460Y2521D02*
X440D01*
X430Y2511D01*
Y2471D01*
X440Y2461D01*
X460D01*
X470Y2471D01*
Y2511D01*
X460Y2521D01*
X140Y2685D02*
Y2745D01*
X170D01*
X180Y2735D01*
Y2715D01*
X170Y2705D01*
X140D01*
X160D02*
X180Y2685D01*
X200Y2745D02*
Y2685D01*
X230D01*
X240Y2695D01*
Y2705D01*
X230Y2715D01*
X200D01*
X230D01*
X240Y2725D01*
Y2735D01*
X230Y2745D01*
X200D01*
X260D02*
X280D01*
X270D01*
Y2685D01*
X260D01*
X280D01*
X310Y2675D02*
X350D01*
X400Y2745D02*
X380D01*
X370Y2735D01*
Y2695D01*
X380Y2685D01*
X400D01*
X410Y2695D01*
Y2735D01*
X400Y2745D01*
X430D02*
Y2695D01*
X440Y2685D01*
X460D01*
X470Y2695D01*
Y2745D01*
X490D02*
X530D01*
X510D01*
Y2685D01*
X140Y2910D02*
Y2970D01*
X170D01*
X180Y2960D01*
Y2940D01*
X170Y2930D01*
X140D01*
X160D02*
X180Y2910D01*
X200Y2970D02*
Y2910D01*
X230D01*
X240Y2920D01*
Y2930D01*
X230Y2940D01*
X200D01*
X230D01*
X240Y2950D01*
Y2960D01*
X230Y2970D01*
X200D01*
X260D02*
X280D01*
X270D01*
Y2910D01*
X260D01*
X280D01*
X310Y2900D02*
X350D01*
X370Y2910D02*
Y2970D01*
X400D01*
X410Y2960D01*
Y2940D01*
X400Y2930D01*
X370D01*
X430Y2910D02*
Y2970D01*
X460D01*
X470Y2960D01*
Y2940D01*
X460Y2930D01*
X430D01*
X450D02*
X470Y2910D01*
X520Y2970D02*
X500D01*
X490Y2960D01*
Y2920D01*
X500Y2910D01*
X520D01*
X530Y2920D01*
Y2960D01*
X520Y2970D01*
X550D02*
X590D01*
X570D01*
Y2910D01*
X695Y1927D02*
Y1987D01*
X725D01*
X735Y1977D01*
Y1957D01*
X725Y1947D01*
X695D01*
X715D02*
X735Y1927D01*
X765D02*
Y1977D01*
Y1957D01*
X755D01*
X775D01*
X765D01*
Y1977D01*
X775Y1987D01*
X805Y1977D02*
X815Y1987D01*
X835D01*
X845Y1977D01*
Y1937D01*
X835Y1927D01*
X815D01*
X805Y1937D01*
Y1977D01*
X695Y1502D02*
Y1562D01*
X725D01*
X735Y1552D01*
Y1532D01*
X725Y1522D01*
X695D01*
X715D02*
X735Y1502D01*
X765D02*
Y1552D01*
Y1532D01*
X755D01*
X775D01*
X765D01*
Y1552D01*
X775Y1562D01*
X805Y1552D02*
X815Y1562D01*
X835D01*
X845Y1552D01*
Y1512D01*
X835Y1502D01*
X815D01*
X805Y1512D01*
Y1552D01*
X865D02*
X875Y1562D01*
X895D01*
X905Y1552D01*
Y1512D01*
X895Y1502D01*
X875D01*
X865Y1512D01*
Y1552D01*
X691Y679D02*
Y739D01*
X721D01*
X731Y729D01*
Y709D01*
X721Y699D01*
X691D01*
X711D02*
X731Y679D01*
X761D02*
Y729D01*
Y709D01*
X751D01*
X771D01*
X761D01*
Y729D01*
X771Y739D01*
X801Y679D02*
X821D01*
X811D01*
Y739D01*
X801Y729D01*
X1841Y1069D02*
Y1129D01*
X1871D01*
X1881Y1119D01*
Y1099D01*
X1871Y1089D01*
X1841D01*
X1861D02*
X1881Y1069D01*
X1910D02*
Y1119D01*
Y1099D01*
X1900D01*
X1920D01*
X1910D01*
Y1119D01*
X1920Y1129D01*
X1990Y1069D02*
X1950D01*
X1990Y1109D01*
Y1119D01*
X1980Y1129D01*
X1960D01*
X1950Y1119D01*
X691Y1089D02*
Y1149D01*
X721D01*
X731Y1139D01*
Y1119D01*
X721Y1109D01*
X691D01*
X711D02*
X731Y1089D01*
X761D02*
Y1139D01*
Y1119D01*
X751D01*
X771D01*
X761D01*
Y1139D01*
X771Y1149D01*
X801Y1089D02*
X821D01*
X811D01*
Y1149D01*
X801Y1139D01*
X851Y1089D02*
X871D01*
X861D01*
Y1149D01*
X851Y1139D01*
X1837Y1478D02*
Y1538D01*
X1867D01*
X1877Y1528D01*
Y1508D01*
X1867Y1498D01*
X1837D01*
X1857D02*
X1877Y1478D01*
X1907D02*
Y1528D01*
Y1508D01*
X1897D01*
X1917D01*
X1907D01*
Y1528D01*
X1917Y1538D01*
X1987Y1478D02*
X1947D01*
X1987Y1518D01*
Y1528D01*
X1977Y1538D01*
X1957D01*
X1947Y1528D01*
X2047Y1478D02*
X2007D01*
X2047Y1518D01*
Y1528D01*
X2037Y1538D01*
X2017D01*
X2007Y1528D01*
X1321Y975D02*
Y1035D01*
X1351D01*
X1361Y1025D01*
Y1005D01*
X1351Y995D01*
X1321D01*
X1341D02*
X1361Y975D01*
X1421Y1025D02*
X1411Y1035D01*
X1391D01*
X1381Y1025D01*
Y985D01*
X1391Y975D01*
X1411D01*
X1421Y985D01*
Y1005D01*
X1401D01*
X1481Y975D02*
X1441D01*
X1481Y1015D01*
Y1025D01*
X1471Y1035D01*
X1451D01*
X1441Y1025D01*
X3582Y3645D02*
Y3685D01*
X3602Y3705D01*
X3622Y3685D01*
Y3645D01*
Y3675D01*
X3582D01*
X3642Y3645D02*
X3682Y3685D01*
X3702Y3705D02*
Y3645D01*
X3732D01*
X3742Y3655D01*
Y3665D01*
X3732Y3675D01*
X3702D01*
X3732D01*
X3742Y3685D01*
Y3695D01*
X3732Y3705D01*
X3702D01*
X3256Y2775D02*
X3246Y2785D01*
X3226D01*
X3216Y2775D01*
Y2735D01*
X3226Y2725D01*
X3246D01*
X3256Y2735D01*
X3316Y2775D02*
X3306Y2785D01*
X3286D01*
X3276Y2775D01*
Y2735D01*
X3286Y2725D01*
X3306D01*
X3316Y2735D01*
Y2755D01*
X3296D01*
X3336Y2725D02*
X3356D01*
X3346D01*
Y2785D01*
X3336Y2775D01*
X3283Y3331D02*
X3273Y3341D01*
X3253D01*
X3243Y3331D01*
Y3291D01*
X3253Y3281D01*
X3273D01*
X3283Y3291D01*
X3343Y3331D02*
X3333Y3341D01*
X3313D01*
X3303Y3331D01*
Y3291D01*
X3313Y3281D01*
X3333D01*
X3343Y3291D01*
Y3311D01*
X3323D01*
X3403Y3281D02*
X3363D01*
X3403Y3321D01*
Y3331D01*
X3393Y3341D01*
X3373D01*
X3363Y3331D01*
X5004Y2775D02*
X4994Y2785D01*
X4974D01*
X4964Y2775D01*
Y2735D01*
X4974Y2725D01*
X4994D01*
X5004Y2735D01*
X5064Y2775D02*
X5054Y2785D01*
X5034D01*
X5024Y2775D01*
Y2735D01*
X5034Y2725D01*
X5054D01*
X5064Y2735D01*
Y2755D01*
X5044D01*
X5084Y2785D02*
X5124D01*
Y2775D01*
X5084Y2735D01*
Y2725D01*
X4629Y3331D02*
X4619Y3341D01*
X4599D01*
X4589Y3331D01*
Y3291D01*
X4599Y3281D01*
X4619D01*
X4629Y3291D01*
X4689Y3331D02*
X4679Y3341D01*
X4659D01*
X4649Y3331D01*
Y3291D01*
X4659Y3281D01*
X4679D01*
X4689Y3291D01*
Y3311D01*
X4669D01*
X4709Y3331D02*
X4719Y3341D01*
X4739D01*
X4749Y3331D01*
Y3321D01*
X4739Y3311D01*
X4749Y3301D01*
Y3291D01*
X4739Y3281D01*
X4719D01*
X4709Y3291D01*
Y3301D01*
X4719Y3311D01*
X4709Y3321D01*
Y3331D01*
X4719Y3311D02*
X4739D01*
X4653Y2163D02*
X4643Y2173D01*
X4623D01*
X4613Y2163D01*
Y2123D01*
X4623Y2113D01*
X4643D01*
X4653Y2123D01*
X4713Y2163D02*
X4703Y2173D01*
X4683D01*
X4673Y2163D01*
Y2123D01*
X4683Y2113D01*
X4703D01*
X4713Y2123D01*
Y2143D01*
X4693D01*
X4733Y2123D02*
X4743Y2113D01*
X4763D01*
X4773Y2123D01*
Y2163D01*
X4763Y2173D01*
X4743D01*
X4733Y2163D01*
Y2153D01*
X4743Y2143D01*
X4773D01*
X2188Y1119D02*
X2178Y1129D01*
X2158D01*
X2148Y1119D01*
Y1079D01*
X2158Y1069D01*
X2178D01*
X2188Y1079D01*
X2218Y1069D02*
Y1119D01*
Y1099D01*
X2208D01*
X2228D01*
X2218D01*
Y1119D01*
X2228Y1129D01*
X2298Y1069D02*
X2258D01*
X2298Y1109D01*
Y1119D01*
X2288Y1129D01*
X2268D01*
X2258Y1119D01*
X4016Y142D02*
Y182D01*
X4036Y202D01*
X4056Y182D01*
Y142D01*
Y172D01*
X4016D01*
X4076Y142D02*
X4096D01*
X4086D01*
Y202D01*
X4076D01*
X4136Y192D02*
Y182D01*
X4126D01*
X4146D01*
X4136D01*
Y152D01*
X4146Y142D01*
X4176D02*
X4196D01*
X4186D01*
Y182D01*
X4176D01*
X4226D02*
Y152D01*
X4236Y142D01*
X4266D01*
Y182D01*
X4286Y142D02*
Y182D01*
X4296D01*
X4306Y172D01*
Y142D01*
Y172D01*
X4316Y182D01*
X4326Y172D01*
Y142D01*
D16*
X3614Y1409D02*
X3631D01*
X3623D01*
Y1459D01*
X3614Y1451D01*
X3656D02*
X3664Y1459D01*
X3681D01*
X3689Y1451D01*
Y1417D01*
X3681Y1409D01*
X3664D01*
X3656Y1417D01*
Y1451D01*
X3634Y1309D02*
X3651D01*
X3643D01*
Y1359D01*
X3634Y1351D01*
X4634Y1317D02*
X4643Y1309D01*
X4659D01*
X4668Y1317D01*
Y1351D01*
X4659Y1359D01*
X4643D01*
X4634Y1351D01*
Y1342D01*
X4643Y1334D01*
X4668D01*
X4634Y1409D02*
X4651D01*
X4643D01*
Y1459D01*
X4634Y1451D01*
X4676D02*
X4684Y1459D01*
X4701D01*
X4709Y1451D01*
Y1442D01*
X4701Y1434D01*
X4709Y1426D01*
Y1417D01*
X4701Y1409D01*
X4684D01*
X4676Y1417D01*
Y1426D01*
X4684Y1434D01*
X4676Y1442D01*
Y1451D01*
X4684Y1434D02*
X4701D01*
X2059Y3541D02*
X2025D01*
X2059Y3574D01*
Y3582D01*
X2050Y3591D01*
X2034D01*
X2025Y3582D01*
Y3441D02*
X2042D01*
X2034D01*
Y3491D01*
X2025Y3482D01*
X3085Y3441D02*
X3102D01*
X3094D01*
Y3491D01*
X3085Y3482D01*
X3127Y3449D02*
X3135Y3441D01*
X3152D01*
X3160Y3449D01*
Y3482D01*
X3152Y3491D01*
X3135D01*
X3127Y3482D01*
Y3474D01*
X3135Y3466D01*
X3160D01*
X3119Y3541D02*
X3085D01*
X3119Y3574D01*
Y3582D01*
X3110Y3591D01*
X3094D01*
X3085Y3582D01*
X3135D02*
X3144Y3591D01*
X3160D01*
X3169Y3582D01*
Y3549D01*
X3160Y3541D01*
X3144D01*
X3135Y3549D01*
Y3582D01*
X4600Y3541D02*
X4616D01*
X4608D01*
Y3591D01*
X4600Y3582D01*
X4641D02*
X4650Y3591D01*
X4666D01*
X4675Y3582D01*
Y3574D01*
X4666Y3566D01*
X4675Y3557D01*
Y3549D01*
X4666Y3541D01*
X4650D01*
X4641Y3549D01*
Y3557D01*
X4650Y3566D01*
X4641Y3574D01*
Y3582D01*
X4650Y3566D02*
X4666D01*
X4600Y3449D02*
X4608Y3441D01*
X4625D01*
X4633Y3449D01*
Y3482D01*
X4625Y3491D01*
X4608D01*
X4600Y3482D01*
Y3474D01*
X4608Y3466D01*
X4633D01*
X3600Y3441D02*
X3616D01*
X3608D01*
Y3491D01*
X3600Y3482D01*
X3580Y3541D02*
X3596D01*
X3588D01*
Y3591D01*
X3580Y3582D01*
X3621D02*
X3630Y3591D01*
X3646D01*
X3655Y3582D01*
Y3549D01*
X3646Y3541D01*
X3630D01*
X3621Y3549D01*
Y3582D01*
M02*
