M48
;Layer_Color=9474304
;FILE_FORMAT=2:3
INCH,TZ
;TYPE=PLATED
T1F00S00C0.007
%
T01
X827Y1008
X917Y1382
X1122Y1291
X1279Y1585
X1783Y1339
X594Y2480
X1384Y2423
X1500Y2323
X1598
X1626Y2520
X1579Y2579
X1606Y2689
X1528Y2736
X1520Y2772
X1441Y2768
X1402Y2886
X1299Y2846
X1228Y2886
X1681Y2917
X1972Y2949
X1965Y2606
X1894Y2630
X1941Y2528
X2012Y2382
X4075Y2417
X4091Y2417
X4106Y2417
X4122Y2417
X4138Y2417
X4154Y2417
X4169Y2417
X4185Y2417
Y2433
Y2449
Y2465
Y2480
X4185Y2496
X4185Y2512
X4169
X4154
X4138Y2512
X4122Y2512
X4106Y2512
X4091Y2512
X4091Y2496
X4091Y2480
X4091Y2465
Y2449
Y2433
M30
