M48
;Layer_Color=9474304
;FILE_FORMAT=2:5
INCH,LZ
;TYPE=PLATED
T1F00S00C0.00709
%
T01
X0082677Y0100787
X0091732Y0138189
X0112205Y0129134
X0127913Y0158543
X0178347Y0133858
X0059449Y0248031
X0138386Y0242323
X015Y0232283
X0159843
X0162598Y0251969
X0157874Y0257874
X016063Y0268898
X0152756Y0273622
X0151969Y0277165
X0144095Y0276772
X0140157Y0288583
X0129921Y0284646
X0122835Y0288583
X016811Y0291732
X0197244Y0294882
X0196457Y026063
X018937Y0262992
X0194095Y0252756
X0201181Y0238189
X040748Y0241732
X0409055Y0241732
X041063Y0241732
X0412205Y0241732
X0413779Y0241732
X0415354Y0241732
X0416929Y0241732
X0418504Y0241732
Y0243307
Y0244882
Y0246457
Y0248031
X0418503Y0249606
X0418504Y0251181
X0416929
X0415354
X041378Y0251181
X0412205Y0251181
X041063Y0251181
X0409055Y0251181
X0409054Y0249606
X0409055Y0248031
X0409054Y0246456
Y0244881
Y0243307
M30
