M48
;Layer_Color=9474304
;FILE_FORMAT=2:5
INCH,LZ
;TYPE=PLATED
T1F00S00C0.00709
T2F00S00C0.03543
%
T01
X0522677Y0058031
X0052361Y0109054
X0051574Y0149211
X0127047Y0278228
X0142126Y0287795
T02
X0129095Y0046024
Y0056024
X0159095
Y0046024
X0515354Y0048031
Y0038032
Y0028032
Y0018032
Y0058031
Y0068032
X0455433Y0132913
Y0142913
X0445433
X0435433
X0425433
X0415433
X0405433
X0395433
X0385433
X0375433
Y0132913
X0385433
X0395433
X0405433
X0415433
X0425433
X0435433
X0445433
X0467779Y0172503
X047485Y0179574
X0481921Y0186645
X0488992Y0193716
X0496063Y0200787
X035978Y0172503
X0352709Y0179574
X0345638Y0186645
X0338567Y0193716
X0331496Y0200787
X0274055Y0124449
Y0114449
Y0104449
Y0094449
X0244055
Y0104449
Y0114449
Y0124449
X0157913Y0138543
Y0148543
Y0158543
Y0168543
X0127913
Y0158543
Y0148543
Y0138543
X0129095Y0076024
Y0066024
X0159095
Y0076024
X0012992Y0184173
Y0194173
Y0204173
Y0214173
Y0224173
X0052835Y0351181
X0062835
X0072835
X0082835
X0092835
X0102835
X0112835
X0122835
X0132835
X0142835
X0152835
X0162835
X021252Y0356063
Y0346063
X022252
X023252
X024252
X025252
X026252
X027252
X028252
X029252
X030252
Y0356063
X029252
X028252
X027252
X026252
X025252
X024252
X023252
X022252
X0371969
Y0346063
X0359055Y0317717
X0351984Y0310645
X0344913Y0303574
X0337842Y0296503
X0330771Y0289432
X0325984Y0264173
Y0254173
Y0244173
Y0234173
Y0224173
X0500787
Y0234173
Y0244173
Y0254173
Y0264173
X0493639Y0289432
X0486568Y0296503
X0479496Y0303574
X0472425Y0310646
X0465354Y0317717
X0451969Y0346063
X0441969
X0431969
X0421969
X0411969
X0401969
X0391969
X0381969
Y0356063
X0391969
X0401969
X0411969
X0421969
X0431969
X0441969
X0451969
M30
