M48
;Layer_Color=9474304
;FILE_FORMAT=2:3
INCH,TZ
;TYPE=PLATED
T1F00S00C0.007
T2F00S00C0.035
%
T01
X5227Y580
X524Y1091
X516Y1492
X1270Y2782
X1421Y2878
T02
X1291Y460
Y560
X1591
Y460
X5154Y480
Y380
Y280
Y180
Y580
Y680
X4554Y1329
Y1429
X4454
X4354
X4254
X4154
X4054
X3954
X3854
X3754
Y1329
X3854
X3954
X4054
X4154
X4254
X4354
X4454
X4678Y1725
X4748Y1796
X4819Y1866
X4890Y1937
X4961Y2008
X3598Y1725
X3527Y1796
X3456Y1866
X3386Y1937
X3315Y2008
X2741Y1244
Y1144
Y1044
Y944
X2441
Y1044
Y1144
Y1244
X1579Y1385
Y1485
Y1585
Y1685
X1279
Y1585
Y1485
Y1385
X1291Y760
Y660
X1591
Y760
X130Y1842
Y1942
Y2042
Y2142
Y2242
X528Y3512
X628
X728
X828
X928
X1028
X1128
X1228
X1328
X1428
X1528
X1628
X2125Y3561
Y3461
X2225
X2325
X2425
X2525
X2625
X2725
X2825
X2925
X3025
Y3561
X2925
X2825
X2725
X2625
X2525
X2425
X2325
X2225
X3720
Y3461
X3591Y3177
X3520Y3106
X3449Y3036
X3378Y2965
X3308Y2894
X3260Y2642
Y2542
Y2442
Y2342
Y2242
X5008
Y2342
Y2442
Y2542
Y2642
X4936Y2894
X4866Y2965
X4795Y3036
X4724Y3106
X4654Y3177
X4520Y3461
X4420
X4320
X4220
X4120
X4020
X3920
X3820
Y3561
X3920
X4020
X4120
X4220
X4320
X4420
X4520
M30
