G04*
G04 #@! TF.GenerationSoftware,Altium Limited,Altium Designer,18.0.12 (696)*
G04*
G04 Layer_Physical_Order=1*
G04 Layer_Color=255*
%FSLAX23Y23*%
%MOIN*%
G70*
G01*
G75*
%ADD17C,0.008*%
%ADD18R,0.016X0.035*%
%ADD19R,0.050X0.012*%
%ADD20R,0.012X0.050*%
%ADD21R,0.043X0.098*%
%ADD22R,0.063X0.047*%
%ADD23R,0.047X0.063*%
%ADD24R,0.035X0.024*%
%ADD25R,0.024X0.035*%
%ADD41C,0.006*%
%ADD42C,0.059*%
%ADD43R,0.059X0.059*%
%ADD44R,0.059X0.059*%
%ADD45P,0.084X4X360.0*%
%ADD46P,0.084X4X270.0*%
%ADD47C,0.010*%
G36*
X5324Y11D02*
X11D01*
Y3812D01*
X5324D01*
Y11D01*
D02*
G37*
%LPC*%
G36*
X3715Y3600D02*
X3709Y3599D01*
X3700Y3595D01*
X3691Y3589D01*
X3685Y3581D01*
X3681Y3571D01*
X3680Y3566D01*
X3715D01*
Y3600D01*
D02*
G37*
G36*
X3030D02*
Y3566D01*
X3064D01*
X3064Y3571D01*
X3060Y3581D01*
X3053Y3589D01*
X3045Y3595D01*
X3036Y3599D01*
X3030Y3600D01*
D02*
G37*
G36*
X3020D02*
X3015Y3599D01*
X3005Y3595D01*
X2997Y3589D01*
X2991Y3581D01*
X2987Y3571D01*
X2986Y3566D01*
X3020D01*
Y3600D01*
D02*
G37*
G36*
X2930D02*
Y3566D01*
X2964D01*
X2964Y3571D01*
X2960Y3581D01*
X2953Y3589D01*
X2945Y3595D01*
X2936Y3599D01*
X2930Y3600D01*
D02*
G37*
G36*
X2920D02*
X2915Y3599D01*
X2905Y3595D01*
X2897Y3589D01*
X2891Y3581D01*
X2887Y3571D01*
X2886Y3566D01*
X2920D01*
Y3600D01*
D02*
G37*
G36*
X2730D02*
Y3566D01*
X2764D01*
X2764Y3571D01*
X2760Y3581D01*
X2753Y3589D01*
X2745Y3595D01*
X2736Y3599D01*
X2730Y3600D01*
D02*
G37*
G36*
X2720D02*
X2715Y3599D01*
X2705Y3595D01*
X2697Y3589D01*
X2691Y3581D01*
X2687Y3571D01*
X2686Y3566D01*
X2720D01*
Y3600D01*
D02*
G37*
G36*
X2630D02*
Y3566D01*
X2664D01*
X2664Y3571D01*
X2660Y3581D01*
X2653Y3589D01*
X2645Y3595D01*
X2636Y3599D01*
X2630Y3600D01*
D02*
G37*
G36*
X2620D02*
X2615Y3599D01*
X2605Y3595D01*
X2597Y3589D01*
X2591Y3581D01*
X2587Y3571D01*
X2586Y3566D01*
X2620D01*
Y3600D01*
D02*
G37*
G36*
X2530D02*
Y3566D01*
X2564D01*
X2564Y3571D01*
X2560Y3581D01*
X2553Y3589D01*
X2545Y3595D01*
X2536Y3599D01*
X2530Y3600D01*
D02*
G37*
G36*
X2520D02*
X2515Y3599D01*
X2505Y3595D01*
X2497Y3589D01*
X2491Y3581D01*
X2487Y3571D01*
X2486Y3566D01*
X2520D01*
Y3600D01*
D02*
G37*
G36*
X2430D02*
Y3566D01*
X2464D01*
X2464Y3571D01*
X2460Y3581D01*
X2453Y3589D01*
X2445Y3595D01*
X2436Y3599D01*
X2430Y3600D01*
D02*
G37*
G36*
X2420D02*
X2415Y3599D01*
X2405Y3595D01*
X2397Y3589D01*
X2391Y3581D01*
X2387Y3571D01*
X2386Y3566D01*
X2420D01*
Y3600D01*
D02*
G37*
G36*
X2330D02*
Y3566D01*
X2364D01*
X2364Y3571D01*
X2360Y3581D01*
X2353Y3589D01*
X2345Y3595D01*
X2336Y3599D01*
X2330Y3600D01*
D02*
G37*
G36*
X2320D02*
X2315Y3599D01*
X2305Y3595D01*
X2297Y3589D01*
X2291Y3581D01*
X2287Y3571D01*
X2286Y3566D01*
X2320D01*
Y3600D01*
D02*
G37*
G36*
X2230D02*
Y3566D01*
X2264D01*
X2264Y3571D01*
X2260Y3581D01*
X2253Y3589D01*
X2245Y3595D01*
X2236Y3599D01*
X2230Y3600D01*
D02*
G37*
G36*
X2220D02*
X2215Y3599D01*
X2205Y3595D01*
X2197Y3589D01*
X2191Y3581D01*
X2187Y3571D01*
X2186Y3566D01*
X2220D01*
Y3600D01*
D02*
G37*
G36*
X4320Y3596D02*
X4310Y3595D01*
X4302Y3592D01*
X4294Y3586D01*
X4289Y3578D01*
X4285Y3570D01*
X4284Y3561D01*
X4285Y3551D01*
X4289Y3543D01*
X4294Y3535D01*
X4302Y3530D01*
X4310Y3526D01*
X4320Y3525D01*
X4329Y3526D01*
X4338Y3530D01*
X4345Y3535D01*
X4351Y3543D01*
X4354Y3551D01*
X4355Y3561D01*
X4354Y3570D01*
X4351Y3578D01*
X4345Y3586D01*
X4338Y3592D01*
X4329Y3595D01*
X4320Y3596D01*
D02*
G37*
G36*
X4220D02*
X4210Y3595D01*
X4202Y3592D01*
X4194Y3586D01*
X4189Y3578D01*
X4185Y3570D01*
X4184Y3561D01*
X4185Y3551D01*
X4189Y3543D01*
X4194Y3535D01*
X4202Y3530D01*
X4210Y3526D01*
X4220Y3525D01*
X4229Y3526D01*
X4238Y3530D01*
X4245Y3535D01*
X4251Y3543D01*
X4254Y3551D01*
X4255Y3561D01*
X4254Y3570D01*
X4251Y3578D01*
X4245Y3586D01*
X4238Y3592D01*
X4229Y3595D01*
X4220Y3596D01*
D02*
G37*
G36*
X4120D02*
X4110Y3595D01*
X4102Y3592D01*
X4094Y3586D01*
X4089Y3578D01*
X4085Y3570D01*
X4084Y3561D01*
X4085Y3551D01*
X4089Y3543D01*
X4094Y3535D01*
X4102Y3530D01*
X4110Y3526D01*
X4120Y3525D01*
X4129Y3526D01*
X4138Y3530D01*
X4145Y3535D01*
X4151Y3543D01*
X4154Y3551D01*
X4155Y3561D01*
X4154Y3570D01*
X4151Y3578D01*
X4145Y3586D01*
X4138Y3592D01*
X4129Y3595D01*
X4120Y3596D01*
D02*
G37*
G36*
X3920D02*
X3910Y3595D01*
X3902Y3592D01*
X3894Y3586D01*
X3889Y3578D01*
X3885Y3570D01*
X3884Y3561D01*
X3885Y3551D01*
X3889Y3543D01*
X3894Y3535D01*
X3902Y3530D01*
X3910Y3526D01*
X3920Y3525D01*
X3929Y3526D01*
X3938Y3530D01*
X3945Y3535D01*
X3951Y3543D01*
X3954Y3551D01*
X3955Y3561D01*
X3954Y3570D01*
X3951Y3578D01*
X3945Y3586D01*
X3938Y3592D01*
X3929Y3595D01*
X3920Y3596D01*
D02*
G37*
G36*
X2125D02*
X2116Y3595D01*
X2107Y3592D01*
X2100Y3586D01*
X2094Y3578D01*
X2091Y3570D01*
X2089Y3561D01*
X2091Y3551D01*
X2094Y3543D01*
X2100Y3535D01*
X2107Y3530D01*
X2116Y3526D01*
X2125Y3525D01*
X2134Y3526D01*
X2143Y3530D01*
X2150Y3535D01*
X2156Y3543D01*
X2160Y3551D01*
X2161Y3561D01*
X2160Y3570D01*
X2156Y3578D01*
X2150Y3586D01*
X2143Y3592D01*
X2134Y3595D01*
X2125Y3596D01*
D02*
G37*
G36*
X3064Y3556D02*
X3030D01*
Y3521D01*
X3036Y3522D01*
X3045Y3526D01*
X3053Y3532D01*
X3060Y3541D01*
X3064Y3550D01*
X3064Y3556D01*
D02*
G37*
G36*
X3020D02*
X2986D01*
X2987Y3550D01*
X2991Y3541D01*
X2997Y3532D01*
X3005Y3526D01*
X3015Y3522D01*
X3020Y3521D01*
Y3556D01*
D02*
G37*
G36*
X2964D02*
X2930D01*
Y3521D01*
X2936Y3522D01*
X2945Y3526D01*
X2953Y3532D01*
X2960Y3541D01*
X2964Y3550D01*
X2964Y3556D01*
D02*
G37*
G36*
X2920D02*
X2886D01*
X2887Y3550D01*
X2891Y3541D01*
X2897Y3532D01*
X2905Y3526D01*
X2915Y3522D01*
X2920Y3521D01*
Y3556D01*
D02*
G37*
G36*
X2864D02*
X2830D01*
Y3521D01*
X2836Y3522D01*
X2845Y3526D01*
X2853Y3532D01*
X2860Y3541D01*
X2864Y3550D01*
X2864Y3556D01*
D02*
G37*
G36*
X2764D02*
X2730D01*
Y3521D01*
X2736Y3522D01*
X2745Y3526D01*
X2753Y3532D01*
X2760Y3541D01*
X2764Y3550D01*
X2764Y3556D01*
D02*
G37*
G36*
X2720D02*
X2686D01*
X2687Y3550D01*
X2691Y3541D01*
X2697Y3532D01*
X2705Y3526D01*
X2715Y3522D01*
X2720Y3521D01*
Y3556D01*
D02*
G37*
G36*
X2364D02*
X2330D01*
Y3521D01*
X2336Y3522D01*
X2345Y3526D01*
X2353Y3532D01*
X2360Y3541D01*
X2364Y3550D01*
X2364Y3556D01*
D02*
G37*
G36*
X2320D02*
X2286D01*
X2287Y3550D01*
X2291Y3541D01*
X2297Y3532D01*
X2305Y3526D01*
X2315Y3522D01*
X2320Y3521D01*
Y3556D01*
D02*
G37*
G36*
X2264D02*
X2230D01*
Y3521D01*
X2236Y3522D01*
X2245Y3526D01*
X2253Y3532D01*
X2260Y3541D01*
X2264Y3550D01*
X2264Y3556D01*
D02*
G37*
G36*
X2220D02*
X2186D01*
X2187Y3550D01*
X2191Y3541D01*
X2197Y3532D01*
X2205Y3526D01*
X2215Y3522D01*
X2220Y3521D01*
Y3556D01*
D02*
G37*
G36*
X564Y3547D02*
X493D01*
Y3476D01*
X564D01*
Y3547D01*
D02*
G37*
G36*
X1628Y3548D02*
X1619Y3546D01*
X1610Y3543D01*
X1603Y3537D01*
X1597Y3530D01*
X1594Y3521D01*
X1593Y3512D01*
X1594Y3503D01*
X1597Y3494D01*
X1603Y3487D01*
X1610Y3481D01*
X1619Y3477D01*
X1628Y3476D01*
X1638Y3477D01*
X1646Y3481D01*
X1654Y3487D01*
X1659Y3494D01*
X1663Y3503D01*
X1664Y3512D01*
X1663Y3521D01*
X1659Y3530D01*
X1654Y3537D01*
X1646Y3543D01*
X1638Y3546D01*
X1628Y3548D01*
D02*
G37*
G36*
X1528D02*
X1519Y3546D01*
X1510Y3543D01*
X1503Y3537D01*
X1497Y3530D01*
X1494Y3521D01*
X1493Y3512D01*
X1494Y3503D01*
X1497Y3494D01*
X1503Y3487D01*
X1510Y3481D01*
X1519Y3477D01*
X1528Y3476D01*
X1538Y3477D01*
X1546Y3481D01*
X1554Y3487D01*
X1559Y3494D01*
X1563Y3503D01*
X1564Y3512D01*
X1563Y3521D01*
X1559Y3530D01*
X1554Y3537D01*
X1546Y3543D01*
X1538Y3546D01*
X1528Y3548D01*
D02*
G37*
G36*
X1428D02*
X1419Y3546D01*
X1410Y3543D01*
X1403Y3537D01*
X1397Y3530D01*
X1394Y3521D01*
X1393Y3512D01*
X1394Y3503D01*
X1397Y3494D01*
X1403Y3487D01*
X1410Y3481D01*
X1419Y3477D01*
X1428Y3476D01*
X1438Y3477D01*
X1446Y3481D01*
X1454Y3487D01*
X1459Y3494D01*
X1463Y3503D01*
X1464Y3512D01*
X1463Y3521D01*
X1459Y3530D01*
X1454Y3537D01*
X1446Y3543D01*
X1438Y3546D01*
X1428Y3548D01*
D02*
G37*
G36*
X1328D02*
X1319Y3546D01*
X1310Y3543D01*
X1303Y3537D01*
X1297Y3530D01*
X1294Y3521D01*
X1293Y3512D01*
X1294Y3503D01*
X1297Y3494D01*
X1303Y3487D01*
X1310Y3481D01*
X1319Y3477D01*
X1328Y3476D01*
X1338Y3477D01*
X1346Y3481D01*
X1354Y3487D01*
X1359Y3494D01*
X1363Y3503D01*
X1364Y3512D01*
X1363Y3521D01*
X1359Y3530D01*
X1354Y3537D01*
X1346Y3543D01*
X1338Y3546D01*
X1328Y3548D01*
D02*
G37*
G36*
X1128D02*
X1119Y3546D01*
X1110Y3543D01*
X1103Y3537D01*
X1097Y3530D01*
X1094Y3521D01*
X1093Y3512D01*
X1094Y3503D01*
X1097Y3494D01*
X1103Y3487D01*
X1110Y3481D01*
X1119Y3477D01*
X1128Y3476D01*
X1138Y3477D01*
X1146Y3481D01*
X1154Y3487D01*
X1159Y3494D01*
X1163Y3503D01*
X1164Y3512D01*
X1163Y3521D01*
X1159Y3530D01*
X1154Y3537D01*
X1146Y3543D01*
X1138Y3546D01*
X1128Y3548D01*
D02*
G37*
G36*
X1028D02*
X1019Y3546D01*
X1010Y3543D01*
X1003Y3537D01*
X997Y3530D01*
X994Y3521D01*
X993Y3512D01*
X994Y3503D01*
X997Y3494D01*
X1003Y3487D01*
X1010Y3481D01*
X1019Y3477D01*
X1028Y3476D01*
X1038Y3477D01*
X1046Y3481D01*
X1054Y3487D01*
X1059Y3494D01*
X1063Y3503D01*
X1064Y3512D01*
X1063Y3521D01*
X1059Y3530D01*
X1054Y3537D01*
X1046Y3543D01*
X1038Y3546D01*
X1028Y3548D01*
D02*
G37*
G36*
X928D02*
X919Y3546D01*
X910Y3543D01*
X903Y3537D01*
X897Y3530D01*
X894Y3521D01*
X893Y3512D01*
X894Y3503D01*
X897Y3494D01*
X903Y3487D01*
X910Y3481D01*
X919Y3477D01*
X928Y3476D01*
X938Y3477D01*
X946Y3481D01*
X954Y3487D01*
X959Y3494D01*
X963Y3503D01*
X964Y3512D01*
X963Y3521D01*
X959Y3530D01*
X954Y3537D01*
X946Y3543D01*
X938Y3546D01*
X928Y3548D01*
D02*
G37*
G36*
X828D02*
X819Y3546D01*
X810Y3543D01*
X803Y3537D01*
X797Y3530D01*
X794Y3521D01*
X793Y3512D01*
X794Y3503D01*
X797Y3494D01*
X803Y3487D01*
X810Y3481D01*
X819Y3477D01*
X828Y3476D01*
X838Y3477D01*
X846Y3481D01*
X854Y3487D01*
X859Y3494D01*
X863Y3503D01*
X864Y3512D01*
X863Y3521D01*
X859Y3530D01*
X854Y3537D01*
X846Y3543D01*
X838Y3546D01*
X828Y3548D01*
D02*
G37*
G36*
X728D02*
X719Y3546D01*
X710Y3543D01*
X703Y3537D01*
X697Y3530D01*
X694Y3521D01*
X693Y3512D01*
X694Y3503D01*
X697Y3494D01*
X703Y3487D01*
X710Y3481D01*
X719Y3477D01*
X728Y3476D01*
X738Y3477D01*
X746Y3481D01*
X754Y3487D01*
X759Y3494D01*
X763Y3503D01*
X764Y3512D01*
X763Y3521D01*
X759Y3530D01*
X754Y3537D01*
X746Y3543D01*
X738Y3546D01*
X728Y3548D01*
D02*
G37*
G36*
X628D02*
X619Y3546D01*
X610Y3543D01*
X603Y3537D01*
X597Y3530D01*
X594Y3521D01*
X593Y3512D01*
X594Y3503D01*
X597Y3494D01*
X603Y3487D01*
X610Y3481D01*
X619Y3477D01*
X628Y3476D01*
X638Y3477D01*
X646Y3481D01*
X654Y3487D01*
X659Y3494D01*
X663Y3503D01*
X664Y3512D01*
X663Y3521D01*
X659Y3530D01*
X654Y3537D01*
X646Y3543D01*
X638Y3546D01*
X628Y3548D01*
D02*
G37*
G36*
X3025Y3496D02*
X3016Y3495D01*
X3007Y3492D01*
X3000Y3486D01*
X2994Y3478D01*
X2991Y3470D01*
X2989Y3461D01*
X2991Y3451D01*
X2994Y3443D01*
X3000Y3435D01*
X3007Y3430D01*
X3016Y3426D01*
X3025Y3425D01*
X3034Y3426D01*
X3043Y3430D01*
X3050Y3435D01*
X3056Y3443D01*
X3060Y3451D01*
X3061Y3461D01*
X3060Y3470D01*
X3056Y3478D01*
X3050Y3486D01*
X3043Y3492D01*
X3034Y3495D01*
X3025Y3496D01*
D02*
G37*
G36*
X2925D02*
X2916Y3495D01*
X2907Y3492D01*
X2900Y3486D01*
X2894Y3478D01*
X2891Y3470D01*
X2889Y3461D01*
X2891Y3451D01*
X2894Y3443D01*
X2900Y3435D01*
X2907Y3430D01*
X2916Y3426D01*
X2925Y3425D01*
X2934Y3426D01*
X2943Y3430D01*
X2950Y3435D01*
X2956Y3443D01*
X2960Y3451D01*
X2961Y3461D01*
X2960Y3470D01*
X2956Y3478D01*
X2950Y3486D01*
X2943Y3492D01*
X2934Y3495D01*
X2925Y3496D01*
D02*
G37*
G36*
X2825D02*
X2816Y3495D01*
X2807Y3492D01*
X2800Y3486D01*
X2794Y3478D01*
X2791Y3470D01*
X2789Y3461D01*
X2791Y3451D01*
X2794Y3443D01*
X2800Y3435D01*
X2807Y3430D01*
X2816Y3426D01*
X2825Y3425D01*
X2834Y3426D01*
X2843Y3430D01*
X2850Y3435D01*
X2856Y3443D01*
X2860Y3451D01*
X2861Y3461D01*
X2860Y3470D01*
X2856Y3478D01*
X2850Y3486D01*
X2843Y3492D01*
X2834Y3495D01*
X2825Y3496D01*
D02*
G37*
G36*
X2225D02*
X2216Y3495D01*
X2207Y3492D01*
X2200Y3486D01*
X2194Y3478D01*
X2191Y3470D01*
X2189Y3461D01*
X2191Y3451D01*
X2194Y3443D01*
X2200Y3435D01*
X2207Y3430D01*
X2216Y3426D01*
X2225Y3425D01*
X2234Y3426D01*
X2243Y3430D01*
X2250Y3435D01*
X2256Y3443D01*
X2260Y3451D01*
X2261Y3461D01*
X2260Y3470D01*
X2256Y3478D01*
X2250Y3486D01*
X2243Y3492D01*
X2234Y3495D01*
X2225Y3496D01*
D02*
G37*
G36*
X3906Y3686D02*
X2887D01*
X2884Y3686D01*
X2881Y3684D01*
X2780Y3583D01*
X2778Y3580D01*
X2778Y3577D01*
Y3526D01*
X2743Y3491D01*
X2743Y3492D01*
X2734Y3495D01*
X2725Y3496D01*
X2716Y3495D01*
X2707Y3492D01*
X2700Y3486D01*
X2694Y3478D01*
X2691Y3470D01*
X2689Y3461D01*
X2691Y3451D01*
X2694Y3443D01*
X2700Y3435D01*
X2707Y3430D01*
X2716Y3426D01*
X2725Y3425D01*
X2734Y3426D01*
X2743Y3430D01*
X2750Y3435D01*
X2756Y3443D01*
X2760Y3451D01*
X2761Y3461D01*
X2760Y3470D01*
X2756Y3478D01*
X2756Y3479D01*
X2793Y3516D01*
X2795Y3519D01*
X2796Y3522D01*
Y3527D01*
X2801Y3529D01*
X2805Y3526D01*
X2815Y3522D01*
X2820Y3521D01*
Y3561D01*
X2825D01*
Y3566D01*
X2864D01*
X2864Y3571D01*
X2860Y3581D01*
X2853Y3589D01*
X2845Y3595D01*
X2836Y3599D01*
X2830Y3600D01*
X2828Y3605D01*
X2891Y3668D01*
X3902D01*
X3972Y3598D01*
Y3545D01*
X3973Y3541D01*
X3975Y3538D01*
X4011Y3503D01*
Y3495D01*
X4010Y3495D01*
X4002Y3492D01*
X3994Y3486D01*
X3989Y3478D01*
X3985Y3470D01*
X3984Y3461D01*
X3985Y3451D01*
X3989Y3443D01*
X3994Y3435D01*
X4002Y3430D01*
X4010Y3426D01*
X4020Y3425D01*
X4029Y3426D01*
X4038Y3430D01*
X4038Y3430D01*
X4113Y3355D01*
Y3287D01*
X4108Y3285D01*
X3951Y3443D01*
X3951Y3443D01*
X3954Y3451D01*
X3955Y3461D01*
X3954Y3470D01*
X3951Y3478D01*
X3945Y3486D01*
X3938Y3492D01*
X3929Y3495D01*
X3920Y3496D01*
X3910Y3495D01*
X3902Y3492D01*
X3894Y3486D01*
X3889Y3478D01*
X3885Y3470D01*
X3884Y3461D01*
X3885Y3451D01*
X3889Y3443D01*
X3894Y3435D01*
X3902Y3430D01*
X3910Y3426D01*
X3920Y3425D01*
X3929Y3426D01*
X3938Y3430D01*
X3938Y3430D01*
X4097Y3270D01*
Y3203D01*
X4092Y3201D01*
X3851Y3443D01*
X3851Y3443D01*
X3854Y3451D01*
X3855Y3461D01*
X3854Y3470D01*
X3851Y3478D01*
X3851Y3479D01*
X3864Y3493D01*
X3864Y3493D01*
X3866Y3496D01*
X3867Y3499D01*
X3867Y3499D01*
Y3579D01*
X3866Y3582D01*
X3864Y3585D01*
X3844Y3605D01*
X3841Y3607D01*
X3838Y3608D01*
X3784D01*
X3781Y3607D01*
X3778Y3605D01*
X3756Y3584D01*
X3751Y3584D01*
X3748Y3589D01*
X3740Y3595D01*
X3730Y3599D01*
X3725Y3600D01*
Y3561D01*
X3720D01*
Y3556D01*
X3680D01*
X3681Y3550D01*
X3685Y3541D01*
X3689Y3536D01*
X3687Y3533D01*
X3686Y3531D01*
X3683Y3531D01*
X3680Y3529D01*
X3680Y3529D01*
X3558Y3407D01*
X2693D01*
X2673Y3427D01*
Y3477D01*
X2673Y3477D01*
X2672Y3480D01*
X2670Y3483D01*
X2635Y3518D01*
X2637Y3523D01*
X2645Y3526D01*
X2653Y3532D01*
X2660Y3541D01*
X2664Y3550D01*
X2664Y3556D01*
X2586D01*
X2587Y3550D01*
X2591Y3541D01*
X2597Y3532D01*
X2600Y3530D01*
X2599Y3525D01*
X2552D01*
X2550Y3530D01*
X2553Y3532D01*
X2560Y3541D01*
X2564Y3550D01*
X2564Y3556D01*
X2486D01*
X2487Y3550D01*
X2491Y3541D01*
X2497Y3532D01*
X2500Y3530D01*
X2499Y3525D01*
X2452D01*
X2450Y3530D01*
X2453Y3532D01*
X2460Y3541D01*
X2464Y3550D01*
X2464Y3556D01*
X2386D01*
X2387Y3550D01*
X2391Y3541D01*
X2397Y3532D01*
X2400Y3530D01*
X2399Y3525D01*
X2380D01*
X2377Y3524D01*
X2374Y3522D01*
X2343Y3491D01*
X2343Y3492D01*
X2334Y3495D01*
X2325Y3496D01*
X2316Y3495D01*
X2307Y3492D01*
X2300Y3486D01*
X2294Y3478D01*
X2291Y3470D01*
X2289Y3461D01*
X2291Y3451D01*
X2294Y3443D01*
X2300Y3435D01*
X2307Y3430D01*
X2316Y3426D01*
X2325Y3425D01*
X2334Y3426D01*
X2343Y3430D01*
X2350Y3435D01*
X2356Y3443D01*
X2360Y3451D01*
X2361Y3461D01*
X2360Y3470D01*
X2356Y3478D01*
X2356Y3479D01*
X2384Y3507D01*
X2452D01*
X2454Y3502D01*
X2443Y3491D01*
X2443Y3492D01*
X2434Y3495D01*
X2425Y3496D01*
X2416Y3495D01*
X2407Y3492D01*
X2400Y3486D01*
X2394Y3478D01*
X2391Y3470D01*
X2389Y3461D01*
X2391Y3451D01*
X2394Y3443D01*
X2400Y3435D01*
X2407Y3430D01*
X2416Y3426D01*
X2425Y3425D01*
X2434Y3426D01*
X2443Y3430D01*
X2450Y3435D01*
X2456Y3443D01*
X2460Y3451D01*
X2461Y3461D01*
X2460Y3470D01*
X2456Y3478D01*
X2456Y3479D01*
X2472Y3495D01*
X2503D01*
X2505Y3490D01*
X2500Y3486D01*
X2494Y3478D01*
X2491Y3470D01*
X2489Y3461D01*
X2491Y3451D01*
X2494Y3443D01*
X2500Y3435D01*
X2507Y3430D01*
X2516Y3426D01*
X2525Y3425D01*
X2534Y3426D01*
X2543Y3430D01*
X2543Y3430D01*
X2605Y3368D01*
X2608Y3366D01*
X2612Y3365D01*
X3633D01*
X3637Y3366D01*
X3639Y3368D01*
X3697Y3425D01*
X3742D01*
X4066Y3102D01*
Y2537D01*
X4065Y2536D01*
X4065Y2531D01*
X4065Y2528D01*
X4066Y2524D01*
X4065Y2522D01*
X4065Y2522D01*
X4062Y2517D01*
X4062Y2517D01*
X4075D01*
Y2507D01*
X4058D01*
X4057Y2505D01*
X3409D01*
X3295Y2619D01*
Y2677D01*
X3224D01*
Y2606D01*
X3283D01*
X3394Y2494D01*
X3392Y2489D01*
X3325D01*
X3291Y2524D01*
X3291Y2524D01*
X3294Y2532D01*
X3296Y2542D01*
X3294Y2551D01*
X3291Y2560D01*
X3285Y2567D01*
X3278Y2573D01*
X3269Y2576D01*
X3260Y2577D01*
X3251Y2576D01*
X3242Y2573D01*
X3235Y2567D01*
X3229Y2560D01*
X3225Y2551D01*
X3224Y2542D01*
X3225Y2532D01*
X3229Y2524D01*
X3235Y2516D01*
X3242Y2511D01*
X3251Y2507D01*
X3260Y2506D01*
X3269Y2507D01*
X3278Y2511D01*
X3278Y2511D01*
X3310Y2479D01*
X3308Y2474D01*
X3283D01*
X3283Y2474D01*
X3279Y2473D01*
X3278Y2472D01*
X3278Y2473D01*
X3269Y2476D01*
X3260Y2477D01*
X3251Y2476D01*
X3242Y2473D01*
X3235Y2467D01*
X3229Y2460D01*
X3225Y2451D01*
X3225Y2451D01*
X2789D01*
X2134Y3105D01*
Y3424D01*
X2135Y3425D01*
X2135Y3425D01*
X2161D01*
Y3496D01*
X2090D01*
Y3425D01*
X2116D01*
X2116Y3425D01*
X2116Y3424D01*
Y3105D01*
X1971Y2961D01*
X1971Y2960D01*
X1970Y2960D01*
X1970Y2960D01*
X1970Y2959D01*
X1970Y2959D01*
X1970Y2959D01*
X1970Y2959D01*
X1970Y2959D01*
X1968Y2959D01*
X1965Y2957D01*
X1962Y2953D01*
X1961Y2949D01*
X1962Y2945D01*
X1965Y2941D01*
X1968Y2939D01*
X1972Y2938D01*
X1977Y2939D01*
X1980Y2941D01*
X1983Y2945D01*
X1983Y2946D01*
X1984Y2947D01*
X1984Y2947D01*
X1984Y2948D01*
X2125Y3089D01*
X2779Y2435D01*
X2782Y2433D01*
X2785Y2433D01*
X3225D01*
X3225Y2432D01*
X3229Y2424D01*
X3229Y2424D01*
X3009Y2204D01*
X3007Y2201D01*
X3007Y2198D01*
Y1882D01*
X3007Y1878D01*
X3009Y1876D01*
X4211Y674D01*
X4214Y672D01*
X4217Y671D01*
X5119D01*
X5119Y671D01*
X5123Y662D01*
X5128Y655D01*
X5136Y649D01*
X5144Y646D01*
X5154Y645D01*
X5163Y646D01*
X5171Y649D01*
X5179Y655D01*
X5184Y662D01*
X5188Y671D01*
X5189Y680D01*
X5188Y690D01*
X5184Y698D01*
X5179Y706D01*
X5171Y711D01*
X5163Y715D01*
X5163Y715D01*
Y1674D01*
Y3043D01*
X5163Y3043D01*
X5162Y3047D01*
X5160Y3050D01*
X5160Y3050D01*
X4643Y3567D01*
X4640Y3569D01*
X4636Y3570D01*
X4578D01*
X4542Y3605D01*
X4539Y3607D01*
X4536Y3608D01*
X4504D01*
X4500Y3607D01*
X4497Y3605D01*
X4462Y3570D01*
X4460Y3567D01*
X4460Y3566D01*
X4455Y3566D01*
X4454Y3570D01*
X4451Y3578D01*
X4445Y3586D01*
X4438Y3592D01*
X4429Y3595D01*
X4420Y3596D01*
X4410Y3595D01*
X4402Y3592D01*
X4394Y3586D01*
X4389Y3578D01*
X4385Y3570D01*
X4384Y3561D01*
X4385Y3551D01*
X4389Y3543D01*
X4394Y3535D01*
X4402Y3530D01*
X4410Y3526D01*
X4420Y3525D01*
X4429Y3526D01*
X4438Y3530D01*
X4445Y3535D01*
X4451Y3543D01*
X4454Y3551D01*
X4454Y3553D01*
X4459Y3553D01*
Y3513D01*
X4438Y3491D01*
X4438Y3492D01*
X4429Y3495D01*
X4420Y3496D01*
X4410Y3495D01*
X4402Y3492D01*
X4394Y3486D01*
X4389Y3478D01*
X4385Y3470D01*
X4384Y3461D01*
X4385Y3451D01*
X4389Y3443D01*
X4389Y3443D01*
X4183Y3237D01*
X4178Y3239D01*
Y3306D01*
X4302Y3430D01*
X4302Y3430D01*
X4310Y3426D01*
X4320Y3425D01*
X4329Y3426D01*
X4338Y3430D01*
X4345Y3435D01*
X4351Y3443D01*
X4354Y3451D01*
X4355Y3461D01*
X4354Y3470D01*
X4351Y3478D01*
X4345Y3486D01*
X4338Y3492D01*
X4329Y3495D01*
X4320Y3496D01*
X4310Y3495D01*
X4302Y3492D01*
X4294Y3486D01*
X4289Y3478D01*
X4285Y3470D01*
X4284Y3461D01*
X4285Y3451D01*
X4289Y3443D01*
X4289Y3443D01*
X4168Y3321D01*
X4163Y3323D01*
Y3391D01*
X4202Y3430D01*
X4202Y3430D01*
X4210Y3426D01*
X4220Y3425D01*
X4229Y3426D01*
X4238Y3430D01*
X4245Y3435D01*
X4251Y3443D01*
X4254Y3451D01*
X4255Y3461D01*
X4254Y3470D01*
X4251Y3478D01*
X4245Y3486D01*
X4238Y3492D01*
X4229Y3495D01*
X4220Y3496D01*
X4210Y3495D01*
X4202Y3492D01*
X4194Y3486D01*
X4189Y3478D01*
X4185Y3470D01*
X4184Y3461D01*
X4185Y3451D01*
X4189Y3443D01*
X4189Y3443D01*
X4147Y3401D01*
X4145Y3398D01*
X4145Y3394D01*
Y3390D01*
X4140Y3387D01*
X4129Y3398D01*
Y3426D01*
X4129Y3426D01*
X4138Y3430D01*
X4145Y3435D01*
X4151Y3443D01*
X4154Y3451D01*
X4155Y3461D01*
X4154Y3470D01*
X4151Y3478D01*
X4145Y3486D01*
X4138Y3492D01*
X4129Y3495D01*
X4120Y3496D01*
X4110Y3495D01*
X4102Y3492D01*
X4094Y3486D01*
X4089Y3478D01*
X4085Y3470D01*
X4084Y3461D01*
X4085Y3451D01*
X4089Y3443D01*
X4094Y3435D01*
X4102Y3430D01*
X4110Y3426D01*
X4111Y3426D01*
Y3394D01*
X4111Y3391D01*
X4113Y3388D01*
X4126Y3376D01*
X4126Y3375D01*
X4120Y3373D01*
X4051Y3443D01*
X4051Y3443D01*
X4054Y3451D01*
X4055Y3461D01*
X4054Y3470D01*
X4051Y3478D01*
X4045Y3486D01*
X4038Y3492D01*
X4029Y3495D01*
X4029Y3495D01*
Y3506D01*
X4029Y3506D01*
X4028Y3510D01*
X4026Y3513D01*
X4026Y3513D01*
X4018Y3520D01*
X4021Y3525D01*
X4029Y3526D01*
X4038Y3530D01*
X4045Y3535D01*
X4051Y3543D01*
X4054Y3551D01*
X4055Y3561D01*
X4054Y3570D01*
X4051Y3578D01*
X4045Y3586D01*
X4038Y3592D01*
X4029Y3595D01*
X4020Y3596D01*
X4010Y3595D01*
X4002Y3592D01*
X3995Y3587D01*
X3990Y3588D01*
Y3601D01*
X3990Y3605D01*
X3988Y3608D01*
X3912Y3684D01*
X3909Y3686D01*
X3906Y3686D01*
D02*
G37*
G36*
X3591Y3227D02*
X3540Y3177D01*
X3591Y3127D01*
X3641Y3177D01*
X3591Y3227D01*
D02*
G37*
G36*
X3520Y3142D02*
X3511Y3141D01*
X3502Y3137D01*
X3495Y3132D01*
X3489Y3124D01*
X3485Y3116D01*
X3484Y3106D01*
X3485Y3097D01*
X3489Y3089D01*
X3495Y3081D01*
X3502Y3076D01*
X3511Y3072D01*
X3520Y3071D01*
X3529Y3072D01*
X3538Y3076D01*
X3545Y3081D01*
X3551Y3089D01*
X3554Y3097D01*
X3556Y3106D01*
X3554Y3116D01*
X3551Y3124D01*
X3545Y3132D01*
X3538Y3137D01*
X3529Y3141D01*
X3520Y3142D01*
D02*
G37*
G36*
X3449Y3071D02*
X3440Y3070D01*
X3431Y3067D01*
X3424Y3061D01*
X3418Y3054D01*
X3415Y3045D01*
X3413Y3036D01*
X3415Y3026D01*
X3418Y3018D01*
X3424Y3010D01*
X3431Y3005D01*
X3440Y3001D01*
X3449Y3000D01*
X3458Y3001D01*
X3467Y3005D01*
X3474Y3010D01*
X3480Y3018D01*
X3484Y3026D01*
X3485Y3036D01*
X3484Y3045D01*
X3480Y3054D01*
X3474Y3061D01*
X3467Y3067D01*
X3458Y3070D01*
X3449Y3071D01*
D02*
G37*
G36*
X1730Y2996D02*
X1714D01*
Y2974D01*
X1730D01*
Y2996D01*
D02*
G37*
G36*
X1704D02*
X1687D01*
Y2974D01*
X1704D01*
Y2996D01*
D02*
G37*
G36*
X1730Y2964D02*
X1714D01*
Y2941D01*
X1730D01*
Y2964D01*
D02*
G37*
G36*
X1704D02*
X1687D01*
Y2941D01*
X1704D01*
Y2964D01*
D02*
G37*
G36*
X3378Y3001D02*
X3369Y3000D01*
X3361Y2996D01*
X3353Y2990D01*
X3347Y2983D01*
X3344Y2974D01*
X3343Y2965D01*
X3344Y2956D01*
X3347Y2947D01*
X3353Y2940D01*
X3361Y2934D01*
X3369Y2931D01*
X3378Y2929D01*
X3388Y2931D01*
X3396Y2934D01*
X3404Y2940D01*
X3409Y2947D01*
X3413Y2956D01*
X3414Y2965D01*
X3413Y2974D01*
X3409Y2983D01*
X3404Y2990D01*
X3396Y2996D01*
X3388Y3000D01*
X3378Y3001D01*
D02*
G37*
G36*
X3308Y2930D02*
X3298Y2929D01*
X3290Y2925D01*
X3282Y2920D01*
X3277Y2912D01*
X3273Y2904D01*
X3272Y2894D01*
X3273Y2885D01*
X3277Y2876D01*
X3282Y2869D01*
X3290Y2863D01*
X3298Y2860D01*
X3308Y2859D01*
X3317Y2860D01*
X3326Y2863D01*
X3333Y2869D01*
X3339Y2876D01*
X3342Y2885D01*
X3343Y2894D01*
X3342Y2904D01*
X3339Y2912D01*
X3333Y2920D01*
X3326Y2925D01*
X3317Y2929D01*
X3308Y2930D01*
D02*
G37*
G36*
X1656Y2823D02*
X1645D01*
Y2793D01*
X1656D01*
Y2823D01*
D02*
G37*
G36*
X594Y2491D02*
X590Y2491D01*
X589Y2490D01*
X588Y2490D01*
X588Y2490D01*
X587Y2489D01*
X346D01*
X343Y2489D01*
X340Y2487D01*
X340Y2487D01*
X240Y2387D01*
X219D01*
X219Y2387D01*
X219Y2387D01*
Y2407D01*
X144D01*
Y2348D01*
X219D01*
Y2369D01*
X219Y2369D01*
X219Y2369D01*
X244D01*
X248Y2370D01*
X250Y2372D01*
X293Y2414D01*
X297Y2411D01*
X297Y2407D01*
Y2383D01*
X334D01*
Y2412D01*
X302D01*
X298Y2412D01*
X294Y2415D01*
X350Y2471D01*
X587D01*
X588Y2471D01*
X588Y2471D01*
X589Y2471D01*
X589Y2471D01*
X589Y2471D01*
X589Y2471D01*
X589Y2471D01*
X589Y2471D01*
X590Y2470D01*
X594Y2469D01*
X599Y2470D01*
X602Y2473D01*
X605Y2476D01*
X606Y2480D01*
X605Y2485D01*
X602Y2488D01*
X599Y2491D01*
X594Y2491D01*
D02*
G37*
G36*
X951Y2455D02*
X914D01*
Y2426D01*
X951D01*
Y2455D01*
D02*
G37*
G36*
X904D02*
X868D01*
Y2426D01*
X904D01*
Y2455D01*
D02*
G37*
G36*
X951Y2416D02*
X914D01*
Y2388D01*
X951D01*
Y2416D01*
D02*
G37*
G36*
X904D02*
X868D01*
Y2388D01*
X904D01*
Y2416D01*
D02*
G37*
G36*
X344Y2412D02*
Y2383D01*
X380D01*
Y2412D01*
X344D01*
D02*
G37*
G36*
X380Y2373D02*
X344D01*
Y2344D01*
X380D01*
Y2373D01*
D02*
G37*
G36*
X334D02*
X297D01*
Y2344D01*
X334D01*
Y2373D01*
D02*
G37*
G36*
X219Y2856D02*
X144D01*
Y2797D01*
X172D01*
X172Y2797D01*
X172Y2796D01*
Y2752D01*
X64Y2644D01*
X63Y2641D01*
X62Y2638D01*
Y2350D01*
X63Y2347D01*
X64Y2344D01*
X104Y2305D01*
X107Y2303D01*
X110Y2302D01*
X110Y2302D01*
X351D01*
X397Y2256D01*
X395Y2251D01*
X166D01*
X165Y2251D01*
X165Y2251D01*
Y2277D01*
X94D01*
Y2206D01*
X165D01*
Y2232D01*
X165Y2232D01*
X166Y2233D01*
X397D01*
X474Y2155D01*
X472Y2151D01*
X164D01*
X164Y2151D01*
X161Y2160D01*
X155Y2167D01*
X148Y2173D01*
X139Y2176D01*
X130Y2177D01*
X121Y2176D01*
X112Y2173D01*
X105Y2167D01*
X99Y2160D01*
X95Y2151D01*
X94Y2142D01*
X95Y2132D01*
X99Y2124D01*
X105Y2116D01*
X112Y2111D01*
X121Y2107D01*
X130Y2106D01*
X139Y2107D01*
X148Y2111D01*
X155Y2116D01*
X161Y2124D01*
X164Y2132D01*
X164Y2133D01*
X480D01*
X719Y1894D01*
Y1884D01*
X699D01*
Y1855D01*
X327D01*
X187Y1995D01*
X185Y1997D01*
X181Y1997D01*
X106D01*
X104Y2002D01*
X113Y2010D01*
X121Y2007D01*
X130Y2006D01*
X139Y2007D01*
X148Y2011D01*
X155Y2016D01*
X161Y2024D01*
X164Y2032D01*
X166Y2042D01*
X164Y2051D01*
X161Y2060D01*
X155Y2067D01*
X148Y2073D01*
X139Y2076D01*
X130Y2077D01*
X121Y2076D01*
X112Y2073D01*
X105Y2067D01*
X99Y2060D01*
X95Y2051D01*
X94Y2042D01*
X95Y2032D01*
X99Y2024D01*
X100Y2023D01*
X49Y1972D01*
X47Y1969D01*
X46Y1966D01*
Y1268D01*
X47Y1264D01*
X49Y1261D01*
X407Y903D01*
X407Y903D01*
X485Y825D01*
X488Y823D01*
X491Y823D01*
X491Y823D01*
X535D01*
X715Y642D01*
Y636D01*
X695D01*
Y561D01*
X754D01*
Y636D01*
X733D01*
Y646D01*
X733Y649D01*
X731Y652D01*
X545Y838D01*
X542Y840D01*
X538Y841D01*
X495D01*
X426Y909D01*
X463Y946D01*
X465Y949D01*
X466Y953D01*
Y1063D01*
X477D01*
Y1091D01*
Y1118D01*
X464D01*
Y1114D01*
X443D01*
Y1114D01*
X417D01*
Y1100D01*
X253D01*
X76Y1276D01*
Y1625D01*
X81Y1627D01*
X473Y1234D01*
Y1205D01*
X462D01*
Y1177D01*
Y1149D01*
X475D01*
Y1154D01*
X496D01*
Y1201D01*
X492D01*
X492Y1201D01*
X491Y1202D01*
Y1234D01*
X578Y1322D01*
X1410D01*
X1711Y1020D01*
X1708Y1016D01*
X1708Y1016D01*
X1705Y1017D01*
X1441D01*
X1437Y1016D01*
X1435Y1014D01*
X1433Y1011D01*
X1432Y1008D01*
Y614D01*
X1309Y491D01*
X1309Y491D01*
X1300Y495D01*
X1291Y496D01*
X1282Y495D01*
X1273Y491D01*
X1266Y486D01*
X1260Y478D01*
X1256Y469D01*
X1255Y460D01*
X1256Y451D01*
X1260Y442D01*
X1266Y435D01*
X1273Y429D01*
X1282Y426D01*
X1291Y424D01*
X1300Y426D01*
X1309Y429D01*
X1309Y429D01*
X1414Y324D01*
X1417Y322D01*
X1420Y322D01*
X1827D01*
X1830Y322D01*
X1833Y324D01*
X2423Y914D01*
X2423Y914D01*
X2431Y910D01*
X2441Y909D01*
X2450Y910D01*
X2458Y914D01*
X2459Y914D01*
X3198Y174D01*
X3201Y172D01*
X3205Y171D01*
X5117D01*
X5118Y171D01*
X5118Y171D01*
Y145D01*
X5189D01*
Y216D01*
X5118D01*
Y190D01*
X5118Y190D01*
X5117Y189D01*
X3208D01*
X2471Y926D01*
X2472Y927D01*
X2475Y935D01*
X2476Y944D01*
X2475Y954D01*
X2472Y962D01*
X2466Y970D01*
X2458Y975D01*
X2450Y979D01*
X2441Y980D01*
X2431Y979D01*
X2423Y975D01*
X2415Y970D01*
X2410Y962D01*
X2406Y954D01*
X2405Y944D01*
X2406Y935D01*
X2410Y927D01*
X2410Y926D01*
X1823Y340D01*
X1424D01*
X1322Y442D01*
X1322Y442D01*
X1325Y451D01*
X1327Y460D01*
X1325Y469D01*
X1322Y478D01*
X1322Y478D01*
X1447Y604D01*
X1447Y604D01*
X1449Y607D01*
X1450Y610D01*
X1450Y610D01*
Y999D01*
X1701D01*
X1765Y935D01*
X1765Y935D01*
X1768Y933D01*
X1772Y932D01*
X1894D01*
X1898Y933D01*
X1901Y935D01*
X1951Y985D01*
X1951Y985D01*
X1953Y988D01*
X1954Y991D01*
Y1035D01*
X1953Y1039D01*
X1951Y1042D01*
X1892Y1101D01*
X1889Y1103D01*
X1886Y1104D01*
X1689D01*
X1400Y1392D01*
X1398Y1394D01*
X1394Y1394D01*
X1314D01*
X1314Y1395D01*
X1310Y1403D01*
X1304Y1411D01*
X1297Y1416D01*
X1288Y1420D01*
X1279Y1421D01*
X1270Y1420D01*
X1261Y1416D01*
X1254Y1411D01*
X1248Y1403D01*
X1245Y1395D01*
X1243Y1385D01*
X1245Y1376D01*
X1248Y1368D01*
X1254Y1360D01*
X1261Y1354D01*
X1270Y1351D01*
X1279Y1350D01*
X1288Y1351D01*
X1297Y1354D01*
X1304Y1360D01*
X1310Y1368D01*
X1314Y1376D01*
X1314Y1376D01*
X1390D01*
X1679Y1088D01*
X1682Y1086D01*
X1685Y1085D01*
X1882D01*
X1936Y1032D01*
Y995D01*
X1908Y967D01*
X1904Y969D01*
Y1026D01*
X1844D01*
Y998D01*
X1844Y998D01*
X1844Y997D01*
X1760D01*
X1420Y1337D01*
X1417Y1339D01*
X1413Y1340D01*
X575D01*
X575Y1340D01*
X571Y1339D01*
X568Y1337D01*
X568Y1337D01*
X482Y1251D01*
X88Y1645D01*
Y1810D01*
X92Y1812D01*
X105Y1800D01*
Y1756D01*
X106Y1753D01*
X108Y1750D01*
X372Y1486D01*
X375Y1484D01*
X378Y1483D01*
X378Y1483D01*
X413D01*
Y1468D01*
X418D01*
Y1423D01*
X419Y1420D01*
X421Y1417D01*
X486Y1352D01*
X489Y1350D01*
X492Y1349D01*
X713D01*
X716Y1350D01*
X719Y1352D01*
X735Y1368D01*
X737Y1371D01*
X737Y1374D01*
X737Y1374D01*
Y1383D01*
X738Y1384D01*
X738Y1384D01*
X758D01*
Y1412D01*
X758Y1412D01*
X759Y1412D01*
X874D01*
X906Y1381D01*
X906Y1380D01*
X906Y1380D01*
X907Y1379D01*
X907Y1379D01*
X907Y1379D01*
X907Y1379D01*
X907Y1379D01*
X907Y1379D01*
X907Y1378D01*
X910Y1374D01*
X913Y1372D01*
X917Y1371D01*
X922Y1372D01*
X925Y1374D01*
X928Y1378D01*
X928Y1382D01*
X928Y1386D01*
X925Y1390D01*
X922Y1392D01*
X920Y1392D01*
X919Y1393D01*
X919Y1393D01*
X918Y1394D01*
X884Y1428D01*
X881Y1430D01*
X878Y1430D01*
X759D01*
X758Y1431D01*
X758Y1431D01*
Y1459D01*
X699D01*
Y1384D01*
X719D01*
X719Y1384D01*
X719Y1383D01*
Y1378D01*
X709Y1367D01*
X496D01*
X436Y1427D01*
Y1465D01*
X440Y1468D01*
X441Y1468D01*
X444Y1465D01*
Y1449D01*
X444Y1445D01*
X446Y1442D01*
X470Y1419D01*
X473Y1417D01*
X476Y1416D01*
X531D01*
X535Y1417D01*
X538Y1419D01*
X609Y1490D01*
X611Y1493D01*
X611Y1496D01*
Y1701D01*
X665Y1755D01*
X831D01*
X834Y1755D01*
X837Y1757D01*
X839Y1760D01*
X840Y1764D01*
Y1835D01*
X839Y1838D01*
X837Y1841D01*
X361Y2317D01*
X358Y2319D01*
X354Y2320D01*
X114D01*
X80Y2354D01*
Y2634D01*
X187Y2742D01*
X187Y2742D01*
X189Y2745D01*
X190Y2748D01*
Y2796D01*
X190Y2797D01*
X190Y2797D01*
X219D01*
Y2856D01*
D02*
G37*
G36*
X1041Y1884D02*
X982D01*
Y1855D01*
X957D01*
X957Y1855D01*
X953Y1855D01*
X950Y1853D01*
X950Y1853D01*
X795Y1698D01*
X758D01*
Y1726D01*
X699D01*
Y1652D01*
X758D01*
Y1680D01*
X799D01*
X803Y1681D01*
X806Y1683D01*
X960Y1837D01*
X982D01*
Y1809D01*
X1003D01*
Y1757D01*
X1003Y1753D01*
X1005Y1750D01*
X1021Y1735D01*
X1019Y1730D01*
X1017D01*
Y1694D01*
X1045D01*
Y1704D01*
X1050Y1706D01*
X1250Y1506D01*
X1248Y1503D01*
X1245Y1495D01*
X1243Y1485D01*
X1245Y1476D01*
X1248Y1468D01*
X1254Y1460D01*
X1261Y1454D01*
X1270Y1451D01*
X1279Y1450D01*
X1288Y1451D01*
X1297Y1454D01*
X1304Y1460D01*
X1310Y1468D01*
X1314Y1476D01*
X1315Y1485D01*
X1314Y1495D01*
X1310Y1503D01*
X1304Y1511D01*
X1297Y1516D01*
X1288Y1520D01*
X1279Y1521D01*
X1270Y1520D01*
X1264Y1517D01*
X1021Y1760D01*
Y1809D01*
X1041D01*
Y1884D01*
D02*
G37*
G36*
X1007Y1730D02*
X978D01*
Y1694D01*
X1007D01*
Y1730D01*
D02*
G37*
G36*
X1045Y1684D02*
X1017D01*
Y1647D01*
X1045D01*
Y1684D01*
D02*
G37*
G36*
X1007D02*
X978D01*
Y1647D01*
X1007D01*
Y1684D01*
D02*
G37*
G36*
X1279Y1621D02*
X1270Y1620D01*
X1261Y1616D01*
X1254Y1611D01*
X1248Y1603D01*
X1245Y1595D01*
X1243Y1585D01*
X1245Y1576D01*
X1248Y1568D01*
X1254Y1560D01*
X1261Y1554D01*
X1270Y1551D01*
X1279Y1550D01*
X1288Y1551D01*
X1297Y1554D01*
X1304Y1560D01*
X1310Y1568D01*
X1314Y1576D01*
X1315Y1585D01*
X1314Y1595D01*
X1310Y1603D01*
X1304Y1611D01*
X1297Y1616D01*
X1288Y1620D01*
X1279Y1621D01*
D02*
G37*
G36*
X1045Y1463D02*
X1017D01*
Y1426D01*
X1045D01*
Y1463D01*
D02*
G37*
G36*
X1007D02*
X978D01*
Y1426D01*
X1007D01*
Y1463D01*
D02*
G37*
G36*
X1045Y1416D02*
X1017D01*
Y1380D01*
X1045D01*
Y1416D01*
D02*
G37*
G36*
X1007D02*
X978D01*
Y1380D01*
X1007D01*
Y1416D01*
D02*
G37*
G36*
X1122Y1302D02*
X1118Y1302D01*
X1114Y1299D01*
X1112Y1296D01*
X1112Y1294D01*
X1111Y1293D01*
X1111Y1293D01*
X1110Y1292D01*
X1091Y1273D01*
X1042D01*
X1041Y1273D01*
X1041Y1273D01*
Y1301D01*
X982D01*
Y1273D01*
X982Y1273D01*
X982Y1273D01*
X759D01*
X758Y1273D01*
X758Y1273D01*
Y1301D01*
X699D01*
Y1226D01*
X758D01*
Y1254D01*
X758Y1254D01*
X759Y1255D01*
X982D01*
X982Y1254D01*
X982Y1254D01*
Y1226D01*
X1041D01*
Y1254D01*
X1041Y1254D01*
X1042Y1255D01*
X1094D01*
X1098Y1255D01*
X1101Y1257D01*
X1123Y1280D01*
X1124Y1280D01*
X1124Y1280D01*
X1125Y1281D01*
X1125Y1281D01*
X1125Y1281D01*
X1125Y1281D01*
X1125Y1281D01*
X1125Y1281D01*
X1126Y1281D01*
X1130Y1284D01*
X1132Y1287D01*
X1133Y1291D01*
X1132Y1296D01*
X1130Y1299D01*
X1126Y1302D01*
X1122Y1302D01*
D02*
G37*
G36*
X2719Y1435D02*
X2644D01*
Y1376D01*
X2672D01*
X2672Y1376D01*
X2672Y1375D01*
Y1304D01*
X2673Y1300D01*
X2675Y1298D01*
X2710Y1263D01*
X2710Y1262D01*
X2706Y1254D01*
X2705Y1244D01*
X2706Y1235D01*
X2710Y1227D01*
X2715Y1219D01*
X2723Y1214D01*
X2731Y1210D01*
X2741Y1209D01*
X2750Y1210D01*
X2758Y1214D01*
X2766Y1219D01*
X2772Y1227D01*
X2775Y1235D01*
X2776Y1244D01*
X2775Y1254D01*
X2772Y1262D01*
X2766Y1270D01*
X2758Y1275D01*
X2750Y1279D01*
X2741Y1280D01*
X2731Y1279D01*
X2723Y1275D01*
X2723Y1275D01*
X2690Y1308D01*
Y1375D01*
X2690Y1376D01*
X2690Y1376D01*
X2719D01*
Y1435D01*
D02*
G37*
G36*
X452Y1205D02*
X439D01*
Y1201D01*
X417D01*
Y1154D01*
X439D01*
Y1149D01*
X452D01*
Y1177D01*
Y1205D01*
D02*
G37*
G36*
X500Y1118D02*
X487D01*
Y1096D01*
X490D01*
Y1096D01*
X490Y1096D01*
X490Y1096D01*
X500D01*
Y1118D01*
D02*
G37*
G36*
X529Y1105D02*
Y1096D01*
X538D01*
X538Y1096D01*
X534Y1101D01*
X529Y1105D01*
X529Y1105D01*
D02*
G37*
G36*
X519D02*
X518Y1105D01*
X513Y1101D01*
X510Y1096D01*
X509Y1096D01*
X519D01*
Y1105D01*
D02*
G37*
G36*
X500Y1086D02*
X490D01*
X490Y1085D01*
X490Y1085D01*
Y1086D01*
X487D01*
Y1063D01*
X500D01*
Y1086D01*
D02*
G37*
G36*
X538D02*
X529D01*
Y1076D01*
X529Y1076D01*
X534Y1080D01*
X538Y1085D01*
X538Y1086D01*
D02*
G37*
G36*
X519D02*
X509D01*
X510Y1085D01*
X513Y1080D01*
X518Y1076D01*
X519Y1076D01*
Y1086D01*
D02*
G37*
G36*
X1053Y1049D02*
X1025D01*
Y1013D01*
X1053D01*
Y1049D01*
D02*
G37*
G36*
X1015D02*
X986D01*
Y1013D01*
X1015D01*
Y1049D01*
D02*
G37*
G36*
X2441Y1080D02*
X2431Y1079D01*
X2423Y1075D01*
X2415Y1070D01*
X2410Y1062D01*
X2406Y1054D01*
X2406Y1054D01*
X2237D01*
X2234Y1053D01*
X2231Y1051D01*
X2206Y1026D01*
X2152D01*
Y971D01*
X2020Y840D01*
X1904D01*
X1904Y840D01*
X1904Y840D01*
Y868D01*
X1844D01*
Y793D01*
X1904D01*
Y821D01*
X1904Y821D01*
X1904Y822D01*
X2024D01*
X2027Y822D01*
X2030Y824D01*
X2156Y951D01*
X2211D01*
Y1005D01*
X2241Y1035D01*
X2406D01*
X2406Y1035D01*
X2410Y1027D01*
X2415Y1019D01*
X2423Y1014D01*
X2431Y1010D01*
X2441Y1009D01*
X2450Y1010D01*
X2458Y1014D01*
X2466Y1019D01*
X2472Y1027D01*
X2475Y1035D01*
X2476Y1044D01*
X2475Y1054D01*
X2472Y1062D01*
X2466Y1070D01*
X2458Y1075D01*
X2450Y1079D01*
X2441Y1080D01*
D02*
G37*
G36*
X754Y1045D02*
X695D01*
Y970D01*
X754D01*
Y999D01*
X754Y999D01*
X755Y999D01*
X819D01*
X820Y999D01*
X820Y999D01*
X821Y998D01*
X821Y998D01*
X821Y998D01*
X821Y998D01*
X821Y998D01*
X821Y998D01*
X823Y998D01*
X827Y997D01*
X831Y998D01*
X835Y1000D01*
X837Y1004D01*
X838Y1008D01*
X837Y1012D01*
X835Y1016D01*
X831Y1018D01*
X827Y1019D01*
X823Y1018D01*
X821Y1017D01*
X820Y1017D01*
X820Y1017D01*
X819Y1017D01*
X755D01*
X754Y1017D01*
X754Y1017D01*
Y1045D01*
D02*
G37*
G36*
X1053Y1003D02*
X1025D01*
Y966D01*
X1053D01*
Y1003D01*
D02*
G37*
G36*
X1015D02*
X986D01*
Y966D01*
X1015D01*
Y1003D01*
D02*
G37*
G36*
X2780Y939D02*
X2746D01*
Y905D01*
X2751Y906D01*
X2760Y910D01*
X2769Y916D01*
X2775Y925D01*
X2779Y934D01*
X2780Y939D01*
D02*
G37*
G36*
X2736D02*
X2701D01*
X2702Y934D01*
X2706Y925D01*
X2712Y916D01*
X2721Y910D01*
X2730Y906D01*
X2736Y905D01*
Y939D01*
D02*
G37*
G36*
X1049Y888D02*
X990D01*
Y860D01*
X990Y860D01*
X989Y859D01*
X755D01*
X754Y860D01*
X754Y860D01*
Y888D01*
X695D01*
Y813D01*
X754D01*
Y841D01*
X754Y841D01*
X755Y841D01*
X989D01*
X990Y841D01*
X990Y841D01*
Y813D01*
X1049D01*
Y841D01*
X1049Y841D01*
X1050Y841D01*
X1097D01*
X1260Y678D01*
X1260Y678D01*
X1256Y669D01*
X1255Y660D01*
X1256Y651D01*
X1260Y642D01*
X1266Y635D01*
X1273Y629D01*
X1282Y626D01*
X1291Y624D01*
X1300Y626D01*
X1309Y629D01*
X1316Y635D01*
X1322Y642D01*
X1325Y651D01*
X1327Y660D01*
X1325Y669D01*
X1322Y678D01*
X1316Y686D01*
X1309Y691D01*
X1300Y695D01*
X1291Y696D01*
X1282Y695D01*
X1273Y691D01*
X1273Y691D01*
X1107Y857D01*
X1104Y859D01*
X1101Y859D01*
X1050D01*
X1049Y860D01*
X1049Y860D01*
Y888D01*
D02*
G37*
G36*
X2215Y872D02*
X2186D01*
Y836D01*
X2215D01*
Y872D01*
D02*
G37*
G36*
X2176D02*
X2147D01*
Y836D01*
X2176D01*
Y872D01*
D02*
G37*
G36*
X2215Y826D02*
X2186D01*
Y789D01*
X2215D01*
Y826D01*
D02*
G37*
G36*
X2176D02*
X2147D01*
Y789D01*
X2176D01*
Y826D01*
D02*
G37*
G36*
X1400Y931D02*
X1325D01*
Y872D01*
X1353D01*
X1353Y872D01*
X1353Y871D01*
Y835D01*
X1314Y796D01*
X1256D01*
Y725D01*
X1326D01*
Y783D01*
X1369Y825D01*
X1369Y825D01*
X1371Y828D01*
X1371Y831D01*
Y871D01*
X1372Y872D01*
X1372Y872D01*
X1400D01*
Y931D01*
D02*
G37*
G36*
X1557D02*
X1482D01*
Y872D01*
X1510D01*
X1510Y872D01*
X1511Y871D01*
Y831D01*
X1511Y828D01*
X1513Y825D01*
X1560Y778D01*
X1560Y778D01*
X1556Y769D01*
X1555Y760D01*
X1556Y751D01*
X1560Y742D01*
X1566Y735D01*
X1573Y729D01*
X1582Y726D01*
X1591Y724D01*
X1600Y726D01*
X1609Y729D01*
X1616Y735D01*
X1622Y742D01*
X1625Y751D01*
X1627Y760D01*
X1625Y769D01*
X1622Y778D01*
X1616Y786D01*
X1609Y791D01*
X1600Y795D01*
X1591Y796D01*
X1582Y795D01*
X1573Y791D01*
X1573Y791D01*
X1529Y835D01*
Y871D01*
X1529Y872D01*
X1529Y872D01*
X1557D01*
Y931D01*
D02*
G37*
G36*
X5159Y620D02*
Y585D01*
X5193D01*
X5192Y591D01*
X5188Y600D01*
X5182Y609D01*
X5173Y615D01*
X5164Y619D01*
X5159Y620D01*
D02*
G37*
G36*
X5149D02*
X5143Y619D01*
X5134Y615D01*
X5125Y609D01*
X5119Y600D01*
X5115Y591D01*
X5114Y585D01*
X5149D01*
Y620D01*
D02*
G37*
G36*
X5193Y575D02*
X5159D01*
Y541D01*
X5164Y542D01*
X5173Y546D01*
X5182Y552D01*
X5188Y560D01*
X5192Y570D01*
X5193Y575D01*
D02*
G37*
G36*
X5149D02*
X5114D01*
X5115Y570D01*
X5119Y560D01*
X5125Y552D01*
X5134Y546D01*
X5143Y542D01*
X5149Y541D01*
Y575D01*
D02*
G37*
G36*
X1049Y636D02*
X990D01*
Y608D01*
X990Y608D01*
X989Y607D01*
X882D01*
X878Y607D01*
X876Y605D01*
X836Y565D01*
X834Y563D01*
X833Y559D01*
Y519D01*
X764Y450D01*
X754D01*
Y478D01*
X695D01*
Y404D01*
X754D01*
Y432D01*
X768D01*
X771Y433D01*
X774Y435D01*
X849Y509D01*
X851Y512D01*
X852Y516D01*
Y555D01*
X886Y589D01*
X989D01*
X990Y589D01*
X990Y589D01*
Y561D01*
X1049D01*
Y589D01*
X1049Y589D01*
X1050Y589D01*
X1249D01*
X1260Y578D01*
X1260Y578D01*
X1256Y569D01*
X1255Y560D01*
X1256Y551D01*
X1260Y542D01*
X1266Y535D01*
X1273Y529D01*
X1282Y526D01*
X1291Y524D01*
X1300Y526D01*
X1309Y529D01*
X1316Y535D01*
X1322Y542D01*
X1325Y551D01*
X1327Y560D01*
X1325Y569D01*
X1322Y578D01*
X1316Y586D01*
X1309Y591D01*
X1300Y595D01*
X1291Y596D01*
X1282Y595D01*
X1273Y591D01*
X1273Y591D01*
X1259Y605D01*
X1256Y607D01*
X1253Y607D01*
X1050D01*
X1049Y608D01*
X1049Y608D01*
Y636D01*
D02*
G37*
G36*
X1596Y499D02*
Y465D01*
X1630D01*
X1629Y471D01*
X1625Y480D01*
X1619Y488D01*
X1611Y495D01*
X1601Y499D01*
X1596Y499D01*
D02*
G37*
G36*
X1586D02*
X1581Y499D01*
X1571Y495D01*
X1563Y488D01*
X1556Y480D01*
X1552Y471D01*
X1552Y465D01*
X1586D01*
Y499D01*
D02*
G37*
G36*
X1053Y482D02*
X1025D01*
Y446D01*
X1053D01*
Y482D01*
D02*
G37*
G36*
X1015D02*
X986D01*
Y446D01*
X1015D01*
Y482D01*
D02*
G37*
G36*
X1228Y3548D02*
X1219Y3546D01*
X1210Y3543D01*
X1203Y3537D01*
X1197Y3530D01*
X1194Y3521D01*
X1193Y3512D01*
X1194Y3503D01*
X1197Y3494D01*
X1203Y3487D01*
X1210Y3481D01*
X1219Y3477D01*
X1228Y3476D01*
X1238Y3477D01*
X1246Y3481D01*
X1246Y3481D01*
X1299Y3428D01*
Y3029D01*
X1234D01*
X1231Y3028D01*
X1228Y3026D01*
X1228Y3026D01*
X1218Y3016D01*
X1216Y3013D01*
X1215Y3010D01*
Y2992D01*
X1207D01*
Y2978D01*
X480D01*
X480Y2978D01*
X477Y2977D01*
X474Y2975D01*
X355Y2856D01*
X301D01*
Y2797D01*
X330D01*
Y2764D01*
X295Y2730D01*
X248D01*
X245Y2729D01*
X242Y2727D01*
X175Y2660D01*
X173Y2657D01*
X172Y2654D01*
Y2632D01*
X144D01*
Y2573D01*
X219D01*
Y2632D01*
X190D01*
Y2650D01*
X252Y2711D01*
X299D01*
X303Y2712D01*
X306Y2714D01*
X345Y2753D01*
X347Y2756D01*
X348Y2760D01*
Y2797D01*
X376D01*
Y2851D01*
X484Y2959D01*
X1207D01*
Y2945D01*
X1242D01*
Y2992D01*
X1233D01*
Y3006D01*
X1238Y3011D01*
X1299D01*
Y2992D01*
X1270D01*
Y2964D01*
X1244Y2938D01*
X849D01*
X849Y2938D01*
X846Y2937D01*
X843Y2936D01*
X792Y2884D01*
X560D01*
X560Y2884D01*
X557Y2883D01*
X554Y2881D01*
X332Y2660D01*
X330Y2657D01*
X330Y2654D01*
Y2632D01*
X301D01*
Y2573D01*
X376D01*
Y2632D01*
X348D01*
Y2650D01*
X564Y2866D01*
X795D01*
X798Y2864D01*
Y2692D01*
X799Y2689D01*
X801Y2686D01*
X901Y2586D01*
X899Y2581D01*
X874D01*
X874Y2581D01*
X871Y2580D01*
X868Y2578D01*
X824Y2535D01*
X822Y2532D01*
X822Y2528D01*
Y2394D01*
X822Y2390D01*
X824Y2387D01*
X872Y2340D01*
Y2285D01*
X947D01*
Y2344D01*
X893D01*
X840Y2397D01*
Y2525D01*
X867Y2552D01*
X872Y2550D01*
Y2510D01*
X947D01*
Y2525D01*
X952Y2528D01*
X967Y2512D01*
Y2291D01*
X968Y2288D01*
X970Y2285D01*
X1370Y1885D01*
X1368Y1880D01*
X1309D01*
Y1821D01*
X1337D01*
X1337Y1821D01*
X1337Y1820D01*
Y1756D01*
X1302Y1721D01*
X1244D01*
Y1650D01*
X1315D01*
Y1708D01*
X1353Y1746D01*
X1355Y1749D01*
X1355Y1753D01*
Y1820D01*
X1356Y1821D01*
X1356Y1821D01*
X1384D01*
Y1865D01*
X1388Y1866D01*
X1412Y1843D01*
Y1429D01*
X1413Y1426D01*
X1415Y1423D01*
X1490Y1348D01*
X1493Y1346D01*
X1496Y1345D01*
X1552D01*
X1557Y1341D01*
X1557Y1341D01*
X1560Y1339D01*
X1563Y1338D01*
X1563Y1338D01*
X1590D01*
X1651Y1277D01*
X1651Y1277D01*
X1654Y1275D01*
X1657Y1274D01*
X1701D01*
X1840Y1135D01*
X1840Y1135D01*
X1843Y1133D01*
X1846Y1133D01*
X1921D01*
X1983Y1071D01*
Y922D01*
X1839D01*
X1835Y922D01*
X1832Y920D01*
X1793Y880D01*
X1791Y877D01*
X1790Y874D01*
Y772D01*
X1609Y591D01*
X1609Y591D01*
X1600Y595D01*
X1591Y596D01*
X1582Y595D01*
X1573Y591D01*
X1566Y586D01*
X1560Y578D01*
X1556Y569D01*
X1555Y560D01*
X1556Y551D01*
X1560Y542D01*
X1566Y535D01*
X1573Y529D01*
X1582Y526D01*
X1591Y524D01*
X1600Y526D01*
X1609Y529D01*
X1616Y535D01*
X1622Y542D01*
X1625Y551D01*
X1627Y560D01*
X1625Y569D01*
X1622Y578D01*
X1622Y578D01*
X1797Y754D01*
X1802Y752D01*
Y539D01*
X1662Y399D01*
X1575D01*
X1474Y500D01*
Y613D01*
X1511Y651D01*
X1556D01*
X1556Y651D01*
X1560Y642D01*
X1566Y635D01*
X1573Y629D01*
X1582Y626D01*
X1591Y624D01*
X1600Y626D01*
X1609Y629D01*
X1616Y635D01*
X1622Y642D01*
X1625Y651D01*
X1627Y660D01*
X1625Y669D01*
X1622Y678D01*
X1616Y686D01*
X1609Y691D01*
X1600Y695D01*
X1591Y696D01*
X1582Y695D01*
X1573Y691D01*
X1566Y686D01*
X1560Y678D01*
X1556Y669D01*
X1556Y669D01*
X1508D01*
X1504Y669D01*
X1501Y667D01*
X1458Y624D01*
X1456Y621D01*
X1456Y617D01*
Y496D01*
X1456Y493D01*
X1458Y490D01*
X1564Y383D01*
X1567Y381D01*
X1571Y381D01*
X1571Y381D01*
X1665D01*
X1669Y381D01*
X1672Y383D01*
X1817Y529D01*
X1819Y532D01*
X1820Y535D01*
Y865D01*
X1847Y893D01*
X1997D01*
X2000Y893D01*
X2003Y895D01*
X2152Y1044D01*
X2154Y1047D01*
X2155Y1050D01*
Y1092D01*
X2156Y1097D01*
X2156Y1097D01*
X2449D01*
X2557Y990D01*
X2560Y988D01*
X2563Y987D01*
X2727D01*
X2728Y982D01*
X2721Y979D01*
X2712Y973D01*
X2706Y964D01*
X2702Y955D01*
X2701Y949D01*
X2780D01*
X2779Y955D01*
X2775Y964D01*
X2769Y973D01*
X2760Y979D01*
X2751Y983D01*
X2751Y984D01*
X2750Y986D01*
X2750Y988D01*
X2753Y990D01*
X2785Y1022D01*
X2785Y1022D01*
X2787Y1025D01*
X2788Y1029D01*
Y1060D01*
X2787Y1064D01*
X2785Y1067D01*
X2763Y1089D01*
X2760Y1091D01*
X2756Y1092D01*
X2657D01*
X2655Y1094D01*
Y1118D01*
X2672Y1135D01*
X2706D01*
X2706Y1135D01*
X2710Y1127D01*
X2715Y1119D01*
X2723Y1114D01*
X2731Y1110D01*
X2741Y1109D01*
X2750Y1110D01*
X2758Y1114D01*
X2759Y1114D01*
X3598Y274D01*
X3601Y272D01*
X3605Y271D01*
X5119D01*
X5119Y271D01*
X5123Y262D01*
X5128Y255D01*
X5136Y249D01*
X5144Y246D01*
X5154Y245D01*
X5163Y246D01*
X5171Y249D01*
X5179Y255D01*
X5184Y262D01*
X5188Y271D01*
X5189Y280D01*
X5188Y290D01*
X5184Y298D01*
X5179Y306D01*
X5171Y311D01*
X5163Y315D01*
X5154Y316D01*
X5144Y315D01*
X5136Y311D01*
X5128Y306D01*
X5123Y298D01*
X5119Y290D01*
X5119Y289D01*
X3608D01*
X2771Y1126D01*
X2772Y1127D01*
X2775Y1135D01*
X2776Y1144D01*
X2775Y1154D01*
X2772Y1162D01*
X2766Y1170D01*
X2758Y1175D01*
X2750Y1179D01*
X2741Y1180D01*
X2731Y1179D01*
X2723Y1175D01*
X2715Y1170D01*
X2710Y1162D01*
X2706Y1154D01*
X2706Y1154D01*
X2668D01*
X2665Y1153D01*
X2662Y1151D01*
X2662Y1151D01*
X2639Y1128D01*
X2637Y1126D01*
X2637Y1122D01*
Y1091D01*
X2637Y1087D01*
X2639Y1084D01*
X2647Y1076D01*
X2647Y1076D01*
X2650Y1075D01*
X2653Y1074D01*
X2713D01*
X2715Y1069D01*
X2710Y1062D01*
X2706Y1054D01*
X2706Y1054D01*
X2593D01*
X2573Y1074D01*
Y1964D01*
X2572Y1968D01*
X2570Y1971D01*
X2570Y1971D01*
X2091Y2450D01*
X2088Y2452D01*
X2084Y2453D01*
X1749D01*
Y2454D01*
X1714D01*
X1679D01*
Y2453D01*
X1346D01*
X1344Y2458D01*
X1357Y2470D01*
X1359Y2473D01*
X1359Y2476D01*
X1359Y2476D01*
Y2733D01*
X1364Y2735D01*
X1628Y2472D01*
X1628Y2472D01*
X1631Y2470D01*
X1634Y2469D01*
X1634Y2469D01*
X1679D01*
Y2464D01*
X1714D01*
X1749D01*
Y2475D01*
X1744D01*
Y2489D01*
X1745Y2489D01*
X1745Y2489D01*
X1911D01*
X1915Y2490D01*
X1918Y2492D01*
X1942Y2516D01*
X1943Y2516D01*
X1943Y2516D01*
X1943Y2517D01*
X1944Y2517D01*
X1944Y2517D01*
X1944Y2517D01*
X1944Y2517D01*
X1944Y2517D01*
X1945Y2517D01*
X1949Y2520D01*
X1951Y2523D01*
X1951Y2525D01*
X1952Y2526D01*
X1952Y2526D01*
X1953Y2527D01*
X1991Y2564D01*
X1993Y2567D01*
X1993Y2571D01*
Y2722D01*
X1993Y2726D01*
X1991Y2728D01*
X1781Y2938D01*
Y2944D01*
X1781Y2945D01*
X1781Y2945D01*
X1789D01*
Y2992D01*
X1754D01*
Y2945D01*
X1762D01*
X1762Y2945D01*
X1763Y2944D01*
Y2938D01*
X1714Y2890D01*
X1707Y2896D01*
X1704Y2898D01*
X1701Y2899D01*
X1647D01*
X1644Y2898D01*
X1641Y2896D01*
X1619Y2874D01*
X1617Y2871D01*
X1616Y2868D01*
Y2863D01*
X1605D01*
Y2828D01*
Y2793D01*
X1616D01*
Y2797D01*
X1624D01*
Y2793D01*
X1635D01*
Y2828D01*
X1640D01*
Y2833D01*
X1656D01*
Y2863D01*
X1640D01*
X1638Y2868D01*
X1651Y2881D01*
X1697D01*
X1705Y2873D01*
Y2766D01*
X1704Y2766D01*
X1704Y2766D01*
X1683D01*
Y2744D01*
X1683Y2744D01*
X1682Y2743D01*
X1536D01*
X1536Y2744D01*
X1536Y2744D01*
X1535Y2744D01*
X1532Y2746D01*
X1528Y2747D01*
X1523Y2746D01*
X1520Y2744D01*
X1517Y2740D01*
X1517Y2736D01*
X1517Y2732D01*
X1520Y2728D01*
X1523Y2726D01*
X1528Y2725D01*
X1529Y2725D01*
X1529Y2725D01*
X1529Y2725D01*
X1529Y2725D01*
X1530Y2725D01*
X1530D01*
X1535Y2725D01*
X1535Y2725D01*
X1535Y2725D01*
X1536Y2725D01*
X1682D01*
X1683Y2725D01*
X1683Y2725D01*
Y2703D01*
Y2665D01*
X1683Y2665D01*
X1682Y2665D01*
X1644D01*
X1618Y2690D01*
X1618Y2691D01*
X1618Y2691D01*
X1617Y2691D01*
X1617Y2692D01*
X1617Y2692D01*
X1617Y2692D01*
X1617Y2692D01*
X1617Y2692D01*
X1616Y2693D01*
X1614Y2697D01*
X1611Y2699D01*
X1606Y2700D01*
X1602Y2699D01*
X1598Y2697D01*
X1596Y2693D01*
X1595Y2689D01*
X1596Y2685D01*
X1598Y2681D01*
X1602Y2679D01*
X1603Y2679D01*
X1604Y2678D01*
X1605Y2677D01*
X1605Y2677D01*
X1633Y2649D01*
X1636Y2647D01*
X1640Y2646D01*
X1682D01*
X1683Y2646D01*
X1683Y2646D01*
Y2632D01*
X1679D01*
Y2621D01*
X1714D01*
X1749D01*
Y2622D01*
X1762D01*
X1763Y2622D01*
X1763Y2622D01*
X1764D01*
X1765Y2622D01*
X1765Y2622D01*
X1884D01*
X1885Y2622D01*
X1885Y2622D01*
X1885D01*
X1886Y2622D01*
X1887Y2622D01*
X1887Y2622D01*
X1889Y2620D01*
X1894Y2619D01*
X1898Y2620D01*
X1902Y2622D01*
X1904Y2626D01*
X1905Y2630D01*
X1904Y2634D01*
X1902Y2638D01*
X1898Y2640D01*
X1894Y2641D01*
X1891Y2640D01*
X1891Y2640D01*
X1888Y2640D01*
X1887Y2640D01*
X1774D01*
X1774Y2640D01*
X1773Y2645D01*
Y2665D01*
X1773Y2665D01*
X1772Y2669D01*
X1770Y2672D01*
X1760Y2682D01*
X1757Y2684D01*
X1754Y2684D01*
X1745D01*
X1745Y2685D01*
X1744Y2685D01*
Y2722D01*
Y2766D01*
X1723D01*
X1723Y2766D01*
X1723Y2766D01*
Y2873D01*
X1772Y2922D01*
X1975Y2718D01*
Y2618D01*
X1970Y2616D01*
X1969Y2616D01*
X1965Y2617D01*
X1960Y2616D01*
X1957Y2614D01*
X1954Y2611D01*
X1954Y2606D01*
X1954Y2602D01*
X1955Y2601D01*
X1955Y2600D01*
X1955Y2599D01*
X1956Y2599D01*
Y2575D01*
X1927Y2546D01*
X1745D01*
X1745Y2547D01*
X1744Y2547D01*
Y2565D01*
Y2600D01*
X1749D01*
Y2611D01*
X1714D01*
X1679D01*
Y2605D01*
X1658D01*
X1657Y2606D01*
X1657Y2606D01*
X1657Y2606D01*
X1652Y2605D01*
X1652D01*
X1651Y2605D01*
X1651Y2605D01*
X1651Y2605D01*
X1651Y2605D01*
X1650Y2606D01*
X1645Y2605D01*
X1642Y2602D01*
X1639Y2599D01*
X1639Y2594D01*
X1639Y2593D01*
X1636Y2588D01*
X1586D01*
X1586Y2588D01*
X1585Y2588D01*
X1585Y2588D01*
X1584Y2588D01*
X1584Y2588D01*
X1584Y2588D01*
X1584Y2588D01*
X1584Y2588D01*
X1583Y2589D01*
X1579Y2590D01*
X1575Y2589D01*
X1571Y2587D01*
X1569Y2583D01*
X1568Y2581D01*
X1563Y2579D01*
X1389Y2753D01*
X1389Y2758D01*
X1394Y2759D01*
X1397Y2758D01*
X1401Y2757D01*
X1406Y2758D01*
X1409Y2760D01*
X1412Y2763D01*
X1412Y2768D01*
X1412Y2768D01*
X1413Y2770D01*
Y2771D01*
X1413Y2775D01*
X1413Y2775D01*
X1413Y2775D01*
X1413Y2776D01*
Y2793D01*
X1418D01*
Y2828D01*
X1428D01*
Y2793D01*
X1432D01*
Y2775D01*
X1432Y2775D01*
X1432Y2774D01*
X1432Y2774D01*
X1432Y2773D01*
X1432Y2773D01*
X1432Y2773D01*
X1432Y2773D01*
X1432Y2773D01*
X1431Y2772D01*
X1430Y2768D01*
X1431Y2763D01*
X1433Y2760D01*
X1437Y2758D01*
X1441Y2757D01*
X1445Y2758D01*
X1449Y2760D01*
X1451Y2763D01*
X1492D01*
X1496Y2763D01*
X1499Y2765D01*
X1504Y2771D01*
X1509Y2769D01*
X1509Y2767D01*
X1512Y2764D01*
X1515Y2761D01*
X1520Y2761D01*
X1524Y2761D01*
X1527Y2764D01*
X1530Y2767D01*
X1531Y2772D01*
X1530Y2776D01*
X1529Y2777D01*
X1529Y2778D01*
X1529Y2779D01*
X1529Y2779D01*
Y2796D01*
X1529Y2797D01*
X1529Y2797D01*
X1584D01*
Y2793D01*
X1595D01*
Y2828D01*
Y2863D01*
X1590D01*
Y2879D01*
X1619Y2908D01*
X1673D01*
X1674Y2908D01*
X1675Y2908D01*
X1675Y2908D01*
X1676Y2908D01*
X1676Y2908D01*
X1676Y2908D01*
X1676Y2908D01*
X1676Y2908D01*
X1677Y2907D01*
X1681Y2906D01*
X1685Y2907D01*
X1689Y2910D01*
X1691Y2913D01*
X1692Y2917D01*
X1691Y2922D01*
X1689Y2925D01*
X1685Y2928D01*
X1681Y2928D01*
X1677Y2928D01*
X1676Y2927D01*
X1675Y2927D01*
X1674Y2927D01*
X1673Y2926D01*
X1626D01*
X1625Y2927D01*
X1623Y2931D01*
X1623Y2933D01*
Y2944D01*
X1624Y2945D01*
X1624Y2945D01*
X1632D01*
Y2992D01*
X1596D01*
Y2945D01*
X1605D01*
X1605Y2945D01*
X1605Y2944D01*
Y2937D01*
X1555Y2887D01*
X1552Y2888D01*
X1550Y2889D01*
Y2908D01*
X1558Y2915D01*
X1560Y2918D01*
X1560Y2921D01*
Y2944D01*
X1561Y2945D01*
X1561Y2945D01*
X1569D01*
Y2992D01*
X1533D01*
Y2945D01*
X1542D01*
X1542Y2945D01*
X1542Y2944D01*
Y2925D01*
X1535Y2918D01*
X1533Y2915D01*
X1532Y2911D01*
Y2859D01*
X1532Y2859D01*
X1532Y2859D01*
X1511D01*
X1511Y2859D01*
X1511Y2859D01*
Y2990D01*
X1511Y2990D01*
X1510Y2994D01*
X1508Y2997D01*
X1508Y2997D01*
X1499Y3006D01*
X1496Y3008D01*
X1492Y3009D01*
X1466D01*
Y3036D01*
X1488Y3058D01*
X1736D01*
X4420Y374D01*
X4423Y372D01*
X4427Y371D01*
X5119D01*
X5119Y371D01*
X5123Y362D01*
X5128Y355D01*
X5136Y349D01*
X5144Y346D01*
X5154Y345D01*
X5163Y346D01*
X5171Y349D01*
X5179Y355D01*
X5184Y362D01*
X5188Y371D01*
X5189Y380D01*
X5188Y390D01*
X5184Y398D01*
X5179Y406D01*
X5171Y411D01*
X5163Y415D01*
X5154Y416D01*
X5144Y415D01*
X5136Y411D01*
X5128Y406D01*
X5123Y398D01*
X5119Y390D01*
X5119Y389D01*
X4431D01*
X4353Y467D01*
X4355Y471D01*
X5119D01*
X5119Y471D01*
X5123Y462D01*
X5128Y455D01*
X5136Y449D01*
X5144Y446D01*
X5154Y445D01*
X5163Y446D01*
X5171Y449D01*
X5179Y455D01*
X5184Y462D01*
X5188Y471D01*
X5189Y480D01*
X5188Y490D01*
X5184Y498D01*
X5179Y506D01*
X5171Y511D01*
X5163Y515D01*
X5154Y516D01*
X5144Y515D01*
X5136Y511D01*
X5128Y506D01*
X5123Y498D01*
X5119Y490D01*
X5119Y489D01*
X4347D01*
X1751Y3085D01*
X1749Y3087D01*
X1745Y3088D01*
X1452D01*
X1448Y3087D01*
X1445Y3085D01*
X1340Y2980D01*
X1338Y2977D01*
X1337Y2973D01*
Y2929D01*
X1333Y2927D01*
X1317Y2943D01*
Y3020D01*
Y3432D01*
X1317Y3432D01*
X1316Y3436D01*
X1314Y3438D01*
X1314Y3438D01*
X1259Y3494D01*
X1259Y3494D01*
X1263Y3503D01*
X1264Y3512D01*
X1263Y3521D01*
X1259Y3530D01*
X1254Y3537D01*
X1246Y3543D01*
X1238Y3546D01*
X1228Y3548D01*
D02*
G37*
G36*
X1630Y455D02*
X1596D01*
Y421D01*
X1601Y422D01*
X1611Y426D01*
X1619Y432D01*
X1625Y440D01*
X1629Y450D01*
X1630Y455D01*
D02*
G37*
G36*
X1586D02*
X1552D01*
X1552Y450D01*
X1556Y440D01*
X1563Y432D01*
X1571Y426D01*
X1581Y422D01*
X1586Y421D01*
Y455D01*
D02*
G37*
G36*
X1053Y436D02*
X1025D01*
Y399D01*
X1053D01*
Y436D01*
D02*
G37*
G36*
X1015D02*
X986D01*
Y399D01*
X1015D01*
Y436D01*
D02*
G37*
%LPD*%
G36*
X3819Y3531D02*
X3815Y3531D01*
X3803Y3530D01*
X3799Y3530D01*
X3796Y3529D01*
X3794Y3528D01*
X3792Y3527D01*
X3790Y3526D01*
X3788Y3525D01*
X3784Y3529D01*
X3785Y3531D01*
X3786Y3533D01*
X3787Y3535D01*
X3788Y3537D01*
X3789Y3540D01*
X3789Y3543D01*
X3790Y3551D01*
X3790Y3556D01*
X3790Y3560D01*
X3819Y3531D01*
D02*
G37*
G36*
X2131Y3431D02*
X2130Y3431D01*
X2130Y3431D01*
X2129Y3430D01*
X2129Y3430D01*
X2129Y3429D01*
X2128Y3428D01*
X2128Y3427D01*
X2128Y3426D01*
X2128Y3425D01*
X2122D01*
X2122Y3426D01*
X2122Y3427D01*
X2122Y3428D01*
X2122Y3429D01*
X2122Y3430D01*
X2121Y3430D01*
X2121Y3431D01*
X2120Y3431D01*
X2120Y3431D01*
X2119Y3431D01*
X2131D01*
X2131Y3431D01*
D02*
G37*
G36*
X4519Y3431D02*
X4515Y3431D01*
X4503Y3430D01*
X4499Y3430D01*
X4496Y3429D01*
X4494Y3428D01*
X4492Y3427D01*
X4490Y3426D01*
X4488Y3425D01*
X4484Y3429D01*
X4485Y3431D01*
X4486Y3433D01*
X4487Y3435D01*
X4488Y3437D01*
X4489Y3440D01*
X4489Y3443D01*
X4490Y3451D01*
X4490Y3456D01*
X4490Y3460D01*
X4519Y3431D01*
D02*
G37*
G36*
X1979Y2952D02*
X1979Y2951D01*
X1978Y2950D01*
X1978Y2950D01*
X1978Y2949D01*
X1977Y2949D01*
X1977Y2949D01*
X1977Y2949D01*
X1972Y2954D01*
X1973Y2954D01*
X1973Y2954D01*
X1973Y2954D01*
X1973Y2954D01*
X1974Y2954D01*
X1974Y2955D01*
X1975Y2955D01*
X1975Y2956D01*
X1979Y2952D01*
D02*
G37*
G36*
X4204Y2530D02*
X4198D01*
X4198Y2530D01*
X4198Y2530D01*
X4198Y2536D01*
X4204D01*
X4204Y2530D01*
D02*
G37*
G36*
X4188D02*
X4182D01*
X4182Y2530D01*
X4182Y2530D01*
X4182Y2536D01*
X4188D01*
X4188Y2530D01*
D02*
G37*
G36*
X4172D02*
X4166D01*
X4166Y2530D01*
X4166Y2530D01*
X4166Y2536D01*
X4172D01*
X4172Y2530D01*
D02*
G37*
G36*
X4157D02*
X4151D01*
X4151Y2530D01*
X4151Y2530D01*
X4151Y2536D01*
X4156D01*
X4157Y2530D01*
D02*
G37*
G36*
X4141D02*
X4135D01*
X4135Y2530D01*
X4135Y2530D01*
X4135Y2536D01*
X4141D01*
X4141Y2530D01*
D02*
G37*
G36*
X4125D02*
X4119D01*
X4119Y2530D01*
X4119Y2530D01*
X4119Y2536D01*
X4125D01*
X4125Y2530D01*
D02*
G37*
G36*
X4109D02*
X4103D01*
X4103Y2530D01*
X4103Y2530D01*
X4103Y2536D01*
X4109D01*
X4109Y2530D01*
D02*
G37*
G36*
X4094D02*
X4088D01*
X4088Y2530D01*
X4088Y2530D01*
X4088Y2536D01*
X4094D01*
X4094Y2530D01*
D02*
G37*
G36*
X4078D02*
X4072D01*
X4072Y2530D01*
X4072Y2530D01*
X4072Y2536D01*
X4078D01*
X4078Y2530D01*
D02*
G37*
G36*
X4211Y2495D02*
X4209Y2495D01*
X4207Y2495D01*
X4206Y2495D01*
X4205Y2495D01*
X4205Y2494D01*
X4205Y2494D01*
X4204Y2494D01*
X4204Y2494D01*
X4203Y2500D01*
X4210Y2501D01*
X4211Y2495D01*
D02*
G37*
G36*
X4072Y2493D02*
X4072Y2493D01*
X4072Y2493D01*
X4066Y2493D01*
Y2499D01*
X4072Y2499D01*
Y2493D01*
D02*
G37*
G36*
Y2477D02*
X4072Y2477D01*
X4072Y2477D01*
X4066Y2477D01*
Y2483D01*
X4072Y2483D01*
Y2477D01*
D02*
G37*
G36*
X3285Y2462D02*
X3284Y2462D01*
X3283Y2461D01*
X3283Y2460D01*
X3283Y2460D01*
X3283Y2460D01*
X3278Y2465D01*
X3278Y2465D01*
X3278Y2465D01*
X3279Y2465D01*
X3279Y2465D01*
X3279Y2465D01*
X3280Y2466D01*
X3281Y2467D01*
X3285Y2462D01*
D02*
G37*
G36*
X4072Y2462D02*
X4072Y2462D01*
X4072Y2462D01*
X4066Y2462D01*
Y2468D01*
X4072Y2468D01*
Y2462D01*
D02*
G37*
G36*
X4203Y2452D02*
X4204Y2452D01*
X4209Y2452D01*
Y2446D01*
X4203Y2446D01*
Y2452D01*
X4203Y2452D01*
D02*
G37*
G36*
Y2436D02*
X4204Y2436D01*
X4209Y2436D01*
Y2430D01*
X4203Y2430D01*
Y2436D01*
X4203Y2436D01*
D02*
G37*
G36*
X4167Y2430D02*
X4167Y2430D01*
X4166Y2430D01*
X4161Y2430D01*
Y2436D01*
X4167Y2436D01*
Y2430D01*
D02*
G37*
G36*
X4072D02*
X4072Y2430D01*
X4072Y2430D01*
X4066Y2430D01*
Y2436D01*
X4072Y2436D01*
Y2430D01*
D02*
G37*
G36*
X4157Y2436D02*
X4157Y2436D01*
X4158Y2436D01*
X4158Y2436D01*
X4158Y2436D01*
X4159Y2436D01*
X4160Y2436D01*
X4160Y2436D01*
X4160Y2430D01*
X4160Y2430D01*
X4158Y2430D01*
X4158Y2430D01*
X4158Y2430D01*
X4157Y2430D01*
X4157Y2430D01*
X4157Y2430D01*
X4157Y2437D01*
X4157Y2436D01*
D02*
G37*
G36*
X4204Y2399D02*
X4204Y2399D01*
X4204Y2393D01*
X4198D01*
X4198Y2399D01*
X4204D01*
X4204Y2399D01*
D02*
G37*
G36*
X4188D02*
X4188Y2399D01*
X4188Y2393D01*
X4182D01*
X4182Y2399D01*
X4188D01*
X4188Y2399D01*
D02*
G37*
G36*
X4172D02*
X4172Y2399D01*
X4172Y2393D01*
X4166D01*
X4166Y2399D01*
X4172D01*
X4172Y2399D01*
D02*
G37*
G36*
X4157D02*
X4157Y2399D01*
X4156Y2393D01*
X4151D01*
X4151Y2399D01*
X4157D01*
X4157Y2399D01*
D02*
G37*
G36*
X4141D02*
X4141Y2399D01*
X4141Y2393D01*
X4135D01*
X4135Y2399D01*
X4141D01*
X4141Y2399D01*
D02*
G37*
G36*
X4125D02*
X4125Y2399D01*
X4125Y2393D01*
X4119D01*
X4119Y2399D01*
X4125D01*
X4125Y2399D01*
D02*
G37*
G36*
X4109D02*
X4109Y2399D01*
X4109Y2393D01*
X4103D01*
X4103Y2399D01*
X4109D01*
X4109Y2399D01*
D02*
G37*
G36*
X4094D02*
X4094Y2399D01*
X4094Y2393D01*
X4088D01*
X4088Y2399D01*
X4094D01*
X4094Y2399D01*
D02*
G37*
G36*
X4078D02*
X4078Y2399D01*
X4078Y2393D01*
X4072D01*
X4072Y2399D01*
X4078D01*
X4078Y2399D01*
D02*
G37*
G36*
X4939Y2034D02*
X4939Y2033D01*
X4940Y2033D01*
X4941Y2033D01*
X4941Y2032D01*
X4942Y2032D01*
X4943Y2032D01*
X4943Y2032D01*
X4944Y2032D01*
X4944Y2033D01*
X4936Y2024D01*
X4936Y2025D01*
X4936Y2025D01*
X4936Y2026D01*
X4936Y2026D01*
X4936Y2027D01*
X4936Y2028D01*
X4936Y2028D01*
X4935Y2029D01*
X4934Y2030D01*
X4934Y2031D01*
X4938Y2035D01*
X4939Y2034D01*
D02*
G37*
G36*
X4568Y3554D02*
X4568Y3554D01*
X4571Y3552D01*
X4574Y3552D01*
X4574Y3552D01*
X4632D01*
X5145Y3040D01*
Y1702D01*
X5140Y1700D01*
X4921Y1919D01*
X4921Y1919D01*
X4924Y1928D01*
X4926Y1937D01*
X4924Y1946D01*
X4921Y1955D01*
X4915Y1962D01*
X4908Y1968D01*
X4899Y1972D01*
X4890Y1973D01*
X4881Y1972D01*
X4872Y1968D01*
X4872Y1968D01*
X4355Y2484D01*
X4357Y2489D01*
X4467D01*
X4926Y2030D01*
X4926Y2023D01*
X4911Y2008D01*
X4961Y1958D01*
X5011Y2008D01*
X4961Y2058D01*
X4945Y2043D01*
X4939Y2043D01*
X4477Y2504D01*
X4474Y2506D01*
X4470Y2507D01*
X4218D01*
X4216Y2512D01*
X4220Y2516D01*
X4222Y2519D01*
X4223Y2522D01*
Y2533D01*
X4223Y2533D01*
X4222Y2536D01*
X4222Y2537D01*
Y2540D01*
X4222Y2540D01*
Y3127D01*
X4506Y3412D01*
X4508Y3412D01*
X4517D01*
X4521Y3413D01*
X4521Y3413D01*
X4523D01*
X4523Y3413D01*
X4536D01*
X4539Y3414D01*
X4542Y3416D01*
X4564Y3438D01*
X4566Y3441D01*
X4567Y3445D01*
Y3477D01*
X4567Y3477D01*
X4566Y3480D01*
X4564Y3483D01*
X4564Y3483D01*
X4529Y3519D01*
Y3526D01*
X4529Y3526D01*
X4538Y3530D01*
X4545Y3535D01*
X4551Y3543D01*
X4554Y3551D01*
X4555Y3559D01*
X4560Y3562D01*
X4568Y3554D01*
D02*
G37*
G36*
X4810Y1987D02*
Y1901D01*
X4810Y1901D01*
X4801Y1897D01*
X4794Y1892D01*
X4788Y1884D01*
X4785Y1876D01*
X4783Y1866D01*
X4785Y1857D01*
X4788Y1849D01*
X4794Y1841D01*
X4801Y1836D01*
X4810Y1832D01*
X4819Y1831D01*
X4828Y1832D01*
X4837Y1836D01*
X4844Y1841D01*
X4850Y1849D01*
X4854Y1857D01*
X4855Y1866D01*
X4854Y1876D01*
X4850Y1884D01*
X4844Y1892D01*
X4837Y1897D01*
X4828Y1901D01*
X4828Y1901D01*
Y1980D01*
X4833Y1981D01*
X4859Y1955D01*
X4859Y1955D01*
X4855Y1946D01*
X4854Y1937D01*
X4855Y1928D01*
X4859Y1919D01*
X4865Y1912D01*
X4872Y1906D01*
X4881Y1903D01*
X4890Y1901D01*
X4899Y1903D01*
X4908Y1906D01*
X4908Y1906D01*
X5145Y1670D01*
Y715D01*
X5144Y715D01*
X5136Y711D01*
X5128Y706D01*
X5123Y698D01*
X5119Y690D01*
X5119Y689D01*
X4221D01*
X3025Y1886D01*
Y2194D01*
X3242Y2411D01*
X3242Y2411D01*
X3251Y2407D01*
X3260Y2406D01*
X3269Y2407D01*
X3278Y2411D01*
X3285Y2416D01*
X3291Y2424D01*
X3294Y2432D01*
X3296Y2442D01*
X3294Y2451D01*
X3295Y2452D01*
X3297Y2456D01*
X4057D01*
X4058Y2454D01*
X4075D01*
Y2444D01*
X4058D01*
X4057Y2442D01*
X3451D01*
X3448Y2441D01*
X3445Y2439D01*
X3278Y2273D01*
X3278Y2273D01*
X3269Y2276D01*
X3260Y2277D01*
X3251Y2276D01*
X3242Y2273D01*
X3235Y2267D01*
X3229Y2260D01*
X3225Y2251D01*
X3224Y2242D01*
X3225Y2232D01*
X3229Y2224D01*
X3235Y2216D01*
X3242Y2211D01*
X3251Y2207D01*
X3260Y2206D01*
X3269Y2207D01*
X3278Y2211D01*
X3285Y2216D01*
X3291Y2224D01*
X3294Y2232D01*
X3296Y2242D01*
X3294Y2251D01*
X3291Y2260D01*
X3291Y2260D01*
X3455Y2424D01*
X4060D01*
X4061Y2424D01*
X4064Y2419D01*
X4064Y2417D01*
X4065Y2413D01*
X4067Y2410D01*
X4066Y2405D01*
X4065Y2402D01*
X4065Y2398D01*
X4065Y2393D01*
X4066Y2392D01*
Y1708D01*
X3810Y1451D01*
X3808Y1448D01*
X3807Y1445D01*
Y1440D01*
X3794Y1428D01*
X3790Y1430D01*
X3789Y1438D01*
X3785Y1447D01*
X3780Y1454D01*
X3772Y1460D01*
X3764Y1464D01*
X3754Y1465D01*
X3745Y1464D01*
X3736Y1460D01*
X3729Y1454D01*
X3723Y1447D01*
X3720Y1438D01*
X3719Y1429D01*
X3720Y1420D01*
X3723Y1411D01*
X3729Y1404D01*
X3736Y1398D01*
X3745Y1395D01*
X3753Y1394D01*
X3756Y1389D01*
X3748Y1381D01*
X3746Y1378D01*
X3745Y1375D01*
Y1365D01*
X3745Y1365D01*
X3745Y1365D01*
X3719D01*
Y1294D01*
X3790D01*
Y1365D01*
X3764D01*
X3764Y1365D01*
X3763Y1365D01*
Y1371D01*
X3815Y1423D01*
X3820Y1421D01*
X3820Y1420D01*
X3823Y1411D01*
X3829Y1404D01*
X3836Y1398D01*
X3845Y1395D01*
X3853Y1394D01*
X3856Y1389D01*
X3848Y1381D01*
X3846Y1378D01*
X3845Y1375D01*
Y1364D01*
X3845Y1364D01*
X3836Y1360D01*
X3829Y1354D01*
X3823Y1347D01*
X3820Y1338D01*
X3819Y1329D01*
X3820Y1320D01*
X3823Y1311D01*
X3829Y1304D01*
X3836Y1298D01*
X3845Y1295D01*
X3854Y1293D01*
X3864Y1295D01*
X3872Y1298D01*
X3880Y1304D01*
X3885Y1311D01*
X3889Y1320D01*
X3890Y1329D01*
X3889Y1338D01*
X3885Y1347D01*
X3880Y1354D01*
X3872Y1360D01*
X3864Y1364D01*
X3863Y1364D01*
Y1371D01*
X3915Y1423D01*
X3920Y1421D01*
X3920Y1420D01*
X3923Y1411D01*
X3929Y1404D01*
X3936Y1398D01*
X3945Y1395D01*
X3953Y1394D01*
X3956Y1389D01*
X3948Y1381D01*
X3946Y1378D01*
X3945Y1375D01*
Y1364D01*
X3945Y1364D01*
X3936Y1360D01*
X3929Y1354D01*
X3923Y1347D01*
X3920Y1338D01*
X3919Y1329D01*
X3920Y1320D01*
X3923Y1311D01*
X3929Y1304D01*
X3936Y1298D01*
X3945Y1295D01*
X3954Y1293D01*
X3964Y1295D01*
X3972Y1298D01*
X3980Y1304D01*
X3985Y1311D01*
X3989Y1320D01*
X3990Y1329D01*
X3989Y1338D01*
X3985Y1347D01*
X3980Y1354D01*
X3972Y1360D01*
X3964Y1364D01*
X3963Y1364D01*
Y1371D01*
X4002Y1410D01*
X4004Y1410D01*
X4008Y1409D01*
X4010Y1407D01*
X4045Y1371D01*
Y1364D01*
X4045Y1364D01*
X4036Y1360D01*
X4029Y1354D01*
X4023Y1347D01*
X4020Y1338D01*
X4019Y1329D01*
X4020Y1320D01*
X4023Y1311D01*
X4029Y1304D01*
X4036Y1298D01*
X4045Y1295D01*
X4054Y1293D01*
X4064Y1295D01*
X4072Y1298D01*
X4080Y1304D01*
X4085Y1311D01*
X4089Y1320D01*
X4090Y1329D01*
X4089Y1338D01*
X4085Y1347D01*
X4080Y1354D01*
X4072Y1360D01*
X4064Y1364D01*
X4063Y1364D01*
Y1375D01*
X4063Y1375D01*
X4063Y1378D01*
X4061Y1381D01*
X4061Y1381D01*
X4053Y1389D01*
X4055Y1394D01*
X4064Y1395D01*
X4072Y1398D01*
X4080Y1404D01*
X4085Y1411D01*
X4089Y1420D01*
X4090Y1429D01*
X4089Y1438D01*
X4085Y1447D01*
X4080Y1454D01*
X4072Y1460D01*
X4064Y1464D01*
X4055Y1465D01*
X4053Y1469D01*
X4124Y1540D01*
X4129Y1538D01*
Y1471D01*
X4110Y1451D01*
X4108Y1448D01*
X4107Y1445D01*
Y1413D01*
X4108Y1410D01*
X4110Y1407D01*
X4129Y1388D01*
Y1354D01*
X4123Y1347D01*
X4120Y1338D01*
X4119Y1329D01*
X4120Y1320D01*
X4123Y1311D01*
X4129Y1304D01*
X4136Y1298D01*
X4145Y1295D01*
X4154Y1293D01*
X4164Y1295D01*
X4172Y1298D01*
X4180Y1304D01*
X4185Y1311D01*
X4189Y1320D01*
X4190Y1329D01*
X4189Y1338D01*
X4185Y1347D01*
X4180Y1354D01*
X4172Y1360D01*
X4164Y1364D01*
X4154Y1365D01*
X4151Y1364D01*
X4147Y1368D01*
Y1389D01*
X4150Y1393D01*
X4151Y1394D01*
X4154Y1393D01*
X4164Y1395D01*
X4172Y1398D01*
X4179Y1403D01*
X4184Y1402D01*
Y1391D01*
X4184Y1387D01*
X4186Y1384D01*
X4224Y1347D01*
X4223Y1347D01*
X4220Y1338D01*
X4219Y1329D01*
X4220Y1320D01*
X4223Y1311D01*
X4229Y1304D01*
X4236Y1298D01*
X4245Y1295D01*
X4254Y1293D01*
X4264Y1295D01*
X4272Y1298D01*
X4280Y1304D01*
X4285Y1311D01*
X4289Y1320D01*
X4290Y1329D01*
X4289Y1338D01*
X4285Y1347D01*
X4280Y1354D01*
X4272Y1360D01*
X4264Y1364D01*
X4254Y1365D01*
X4245Y1364D01*
X4236Y1360D01*
X4236Y1360D01*
X4202Y1394D01*
Y1445D01*
X4201Y1448D01*
X4199Y1451D01*
X4163Y1488D01*
Y1555D01*
X4168Y1557D01*
X4256Y1469D01*
X4253Y1465D01*
X4245Y1464D01*
X4236Y1460D01*
X4229Y1454D01*
X4223Y1447D01*
X4220Y1438D01*
X4219Y1429D01*
X4220Y1420D01*
X4223Y1411D01*
X4229Y1404D01*
X4236Y1398D01*
X4245Y1395D01*
X4254Y1393D01*
X4264Y1395D01*
X4272Y1398D01*
X4279Y1403D01*
X4284Y1402D01*
Y1391D01*
X4284Y1387D01*
X4286Y1384D01*
X4324Y1347D01*
X4323Y1347D01*
X4320Y1338D01*
X4319Y1329D01*
X4320Y1320D01*
X4323Y1311D01*
X4329Y1304D01*
X4336Y1298D01*
X4345Y1295D01*
X4354Y1293D01*
X4364Y1295D01*
X4372Y1298D01*
X4380Y1304D01*
X4385Y1311D01*
X4389Y1320D01*
X4390Y1329D01*
X4389Y1338D01*
X4385Y1347D01*
X4380Y1354D01*
X4372Y1360D01*
X4364Y1364D01*
X4354Y1365D01*
X4345Y1364D01*
X4336Y1360D01*
X4336Y1360D01*
X4302Y1394D01*
Y1445D01*
X4302Y1445D01*
X4301Y1448D01*
X4299Y1451D01*
X4299Y1451D01*
X4178Y1572D01*
Y1640D01*
X4183Y1642D01*
X4356Y1469D01*
X4353Y1465D01*
X4345Y1464D01*
X4336Y1460D01*
X4329Y1454D01*
X4323Y1447D01*
X4320Y1438D01*
X4319Y1429D01*
X4320Y1420D01*
X4323Y1411D01*
X4329Y1404D01*
X4336Y1398D01*
X4345Y1395D01*
X4354Y1393D01*
X4364Y1395D01*
X4372Y1398D01*
X4379Y1403D01*
X4384Y1402D01*
Y1391D01*
X4384Y1387D01*
X4386Y1384D01*
X4424Y1347D01*
X4423Y1347D01*
X4420Y1338D01*
X4419Y1329D01*
X4420Y1320D01*
X4423Y1311D01*
X4429Y1304D01*
X4436Y1298D01*
X4445Y1295D01*
X4454Y1293D01*
X4464Y1295D01*
X4472Y1298D01*
X4480Y1304D01*
X4485Y1311D01*
X4489Y1320D01*
X4490Y1329D01*
X4489Y1338D01*
X4485Y1347D01*
X4480Y1354D01*
X4472Y1360D01*
X4464Y1364D01*
X4454Y1365D01*
X4445Y1364D01*
X4436Y1360D01*
X4436Y1360D01*
X4402Y1394D01*
Y1445D01*
X4402Y1445D01*
X4401Y1448D01*
X4399Y1451D01*
X4194Y1656D01*
Y1699D01*
X4199Y1702D01*
X4436Y1465D01*
X4435Y1459D01*
X4429Y1454D01*
X4423Y1447D01*
X4420Y1438D01*
X4419Y1429D01*
X4420Y1420D01*
X4423Y1411D01*
X4429Y1404D01*
X4436Y1398D01*
X4445Y1395D01*
X4454Y1393D01*
X4464Y1395D01*
X4472Y1398D01*
X4480Y1404D01*
X4485Y1411D01*
X4486Y1413D01*
X4491Y1412D01*
Y1383D01*
X4492Y1380D01*
X4494Y1377D01*
X4524Y1347D01*
X4523Y1347D01*
X4520Y1338D01*
X4519Y1329D01*
X4520Y1320D01*
X4523Y1311D01*
X4529Y1304D01*
X4536Y1298D01*
X4545Y1295D01*
X4554Y1293D01*
X4564Y1295D01*
X4572Y1298D01*
X4580Y1304D01*
X4585Y1311D01*
X4589Y1320D01*
X4590Y1329D01*
X4589Y1338D01*
X4585Y1347D01*
X4580Y1354D01*
X4572Y1360D01*
X4564Y1364D01*
X4554Y1365D01*
X4545Y1364D01*
X4536Y1360D01*
X4536Y1360D01*
X4509Y1387D01*
Y1438D01*
X4509Y1438D01*
X4508Y1441D01*
X4507Y1444D01*
X4477Y1474D01*
X4474Y1476D01*
X4470Y1477D01*
X4450D01*
X4210Y1716D01*
Y2392D01*
X4210Y2393D01*
X4210Y2398D01*
X4211Y2402D01*
X4210Y2405D01*
X4210Y2407D01*
X4211Y2407D01*
X4214Y2412D01*
X4214Y2412D01*
X4201D01*
Y2422D01*
X4217D01*
X4219Y2424D01*
X4242D01*
X4669Y1998D01*
Y1760D01*
X4669Y1760D01*
X4660Y1756D01*
X4653Y1750D01*
X4647Y1743D01*
X4643Y1734D01*
X4642Y1725D01*
X4643Y1716D01*
X4647Y1707D01*
X4653Y1700D01*
X4660Y1694D01*
X4669Y1691D01*
X4678Y1689D01*
X4687Y1691D01*
X4696Y1694D01*
X4703Y1700D01*
X4709Y1707D01*
X4712Y1716D01*
X4714Y1725D01*
X4712Y1734D01*
X4709Y1743D01*
X4703Y1750D01*
X4696Y1756D01*
X4687Y1760D01*
X4687Y1760D01*
Y1990D01*
X4691Y1992D01*
X4739Y1944D01*
Y1830D01*
X4739Y1830D01*
X4731Y1827D01*
X4723Y1821D01*
X4718Y1814D01*
X4714Y1805D01*
X4713Y1796D01*
X4714Y1786D01*
X4718Y1778D01*
X4723Y1770D01*
X4731Y1765D01*
X4739Y1761D01*
X4748Y1760D01*
X4758Y1761D01*
X4766Y1765D01*
X4774Y1770D01*
X4779Y1778D01*
X4783Y1786D01*
X4784Y1796D01*
X4783Y1805D01*
X4779Y1814D01*
X4774Y1821D01*
X4766Y1827D01*
X4758Y1830D01*
X4758Y1830D01*
Y1947D01*
X4757Y1951D01*
X4755Y1954D01*
X4254Y2454D01*
X4255Y2457D01*
X4256Y2459D01*
X4338D01*
X4810Y1987D01*
D02*
G37*
G36*
X3757Y1363D02*
X3757Y1362D01*
X3758Y1361D01*
X3758Y1361D01*
X3758Y1360D01*
X3758Y1359D01*
X3759Y1359D01*
X3759Y1359D01*
X3760Y1358D01*
X3760Y1358D01*
X3748D01*
X3749Y1358D01*
X3749Y1359D01*
X3750Y1359D01*
X3750Y1359D01*
X3751Y1360D01*
X3751Y1361D01*
X3751Y1361D01*
X3751Y1362D01*
X3751Y1363D01*
X3751Y1364D01*
X3757D01*
X3757Y1363D01*
D02*
G37*
%LPC*%
G36*
X4654Y3227D02*
X4603Y3177D01*
X4654Y3127D01*
X4704Y3177D01*
X4654Y3227D01*
D02*
G37*
G36*
X4724Y3146D02*
X4714Y3145D01*
X4704Y3141D01*
X4700Y3138D01*
X4724Y3114D01*
X4748Y3138D01*
X4744Y3141D01*
X4735Y3145D01*
X4724Y3146D01*
D02*
G37*
G36*
X4693Y3131D02*
X4690Y3126D01*
X4686Y3117D01*
X4684Y3106D01*
X4686Y3096D01*
X4690Y3087D01*
X4693Y3082D01*
X4717Y3106D01*
X4693Y3131D01*
D02*
G37*
G36*
X4756D02*
X4731Y3106D01*
X4756Y3082D01*
X4759Y3087D01*
X4763Y3096D01*
X4764Y3106D01*
X4763Y3117D01*
X4759Y3126D01*
X4756Y3131D01*
D02*
G37*
G36*
X4724Y3099D02*
X4700Y3075D01*
X4704Y3072D01*
X4714Y3068D01*
X4724Y3067D01*
X4735Y3068D01*
X4744Y3072D01*
X4748Y3075D01*
X4724Y3099D01*
D02*
G37*
G36*
X4795Y3071D02*
X4786Y3070D01*
X4777Y3067D01*
X4770Y3061D01*
X4764Y3054D01*
X4760Y3045D01*
X4759Y3036D01*
X4760Y3026D01*
X4764Y3018D01*
X4770Y3010D01*
X4777Y3005D01*
X4786Y3001D01*
X4795Y3000D01*
X4804Y3001D01*
X4813Y3005D01*
X4820Y3010D01*
X4826Y3018D01*
X4829Y3026D01*
X4831Y3036D01*
X4829Y3045D01*
X4826Y3054D01*
X4820Y3061D01*
X4813Y3067D01*
X4804Y3070D01*
X4795Y3071D01*
D02*
G37*
G36*
X4866Y3001D02*
X4856Y3000D01*
X4848Y2996D01*
X4840Y2990D01*
X4835Y2983D01*
X4831Y2974D01*
X4830Y2965D01*
X4831Y2956D01*
X4835Y2947D01*
X4840Y2940D01*
X4848Y2934D01*
X4856Y2931D01*
X4866Y2929D01*
X4875Y2931D01*
X4884Y2934D01*
X4891Y2940D01*
X4897Y2947D01*
X4900Y2956D01*
X4901Y2965D01*
X4900Y2974D01*
X4897Y2983D01*
X4891Y2990D01*
X4884Y2996D01*
X4875Y3000D01*
X4866Y3001D01*
D02*
G37*
G36*
X4936Y2930D02*
X4927Y2929D01*
X4919Y2925D01*
X4911Y2920D01*
X4905Y2912D01*
X4902Y2904D01*
X4901Y2894D01*
X4902Y2885D01*
X4905Y2876D01*
X4911Y2869D01*
X4919Y2863D01*
X4927Y2860D01*
X4936Y2859D01*
X4946Y2860D01*
X4954Y2863D01*
X4962Y2869D01*
X4967Y2876D01*
X4971Y2885D01*
X4972Y2894D01*
X4971Y2904D01*
X4967Y2912D01*
X4962Y2920D01*
X4954Y2925D01*
X4946Y2929D01*
X4936Y2930D01*
D02*
G37*
G36*
X5043Y2677D02*
X4972D01*
Y2606D01*
X5043D01*
Y2677D01*
D02*
G37*
G36*
X5008Y2577D02*
X4999Y2576D01*
X4990Y2573D01*
X4983Y2567D01*
X4977Y2560D01*
X4973Y2551D01*
X4972Y2542D01*
X4973Y2532D01*
X4977Y2524D01*
X4983Y2516D01*
X4990Y2511D01*
X4999Y2507D01*
X5008Y2506D01*
X5017Y2507D01*
X5026Y2511D01*
X5033Y2516D01*
X5039Y2524D01*
X5042Y2532D01*
X5044Y2542D01*
X5042Y2551D01*
X5039Y2560D01*
X5033Y2567D01*
X5026Y2573D01*
X5017Y2576D01*
X5008Y2577D01*
D02*
G37*
G36*
Y2477D02*
X4999Y2476D01*
X4990Y2473D01*
X4983Y2467D01*
X4977Y2460D01*
X4973Y2451D01*
X4972Y2442D01*
X4973Y2432D01*
X4977Y2424D01*
X4983Y2416D01*
X4990Y2411D01*
X4999Y2407D01*
X5008Y2406D01*
X5017Y2407D01*
X5026Y2411D01*
X5033Y2416D01*
X5039Y2424D01*
X5042Y2432D01*
X5044Y2442D01*
X5042Y2451D01*
X5039Y2460D01*
X5033Y2467D01*
X5026Y2473D01*
X5017Y2476D01*
X5008Y2477D01*
D02*
G37*
G36*
Y2377D02*
X4999Y2376D01*
X4990Y2373D01*
X4983Y2367D01*
X4977Y2360D01*
X4973Y2351D01*
X4972Y2342D01*
X4973Y2332D01*
X4977Y2324D01*
X4983Y2316D01*
X4990Y2311D01*
X4999Y2307D01*
X5008Y2306D01*
X5017Y2307D01*
X5026Y2311D01*
X5033Y2316D01*
X5039Y2324D01*
X5042Y2332D01*
X5044Y2342D01*
X5042Y2351D01*
X5039Y2360D01*
X5033Y2367D01*
X5026Y2373D01*
X5017Y2376D01*
X5008Y2377D01*
D02*
G37*
G36*
Y2277D02*
X4999Y2276D01*
X4990Y2273D01*
X4983Y2267D01*
X4977Y2260D01*
X4973Y2251D01*
X4972Y2242D01*
X4973Y2232D01*
X4977Y2224D01*
X4983Y2216D01*
X4990Y2211D01*
X4999Y2207D01*
X5008Y2206D01*
X5017Y2207D01*
X5026Y2211D01*
X5033Y2216D01*
X5039Y2224D01*
X5042Y2232D01*
X5044Y2242D01*
X5042Y2251D01*
X5039Y2260D01*
X5033Y2267D01*
X5026Y2273D01*
X5017Y2276D01*
X5008Y2277D01*
D02*
G37*
G36*
X3265Y2381D02*
Y2347D01*
X3299D01*
X3298Y2352D01*
X3294Y2362D01*
X3288Y2370D01*
X3280Y2376D01*
X3270Y2380D01*
X3265Y2381D01*
D02*
G37*
G36*
X3255D02*
X3250Y2380D01*
X3240Y2376D01*
X3232Y2370D01*
X3225Y2362D01*
X3221Y2352D01*
X3221Y2347D01*
X3255D01*
Y2381D01*
D02*
G37*
G36*
X3299Y2337D02*
X3265D01*
Y2303D01*
X3270Y2303D01*
X3280Y2307D01*
X3288Y2314D01*
X3294Y2322D01*
X3298Y2331D01*
X3299Y2337D01*
D02*
G37*
G36*
X3255D02*
X3221D01*
X3221Y2331D01*
X3225Y2322D01*
X3232Y2314D01*
X3240Y2307D01*
X3250Y2303D01*
X3255Y2303D01*
Y2337D01*
D02*
G37*
G36*
X3315Y2058D02*
X3265Y2008D01*
X3315Y1958D01*
X3365Y2008D01*
X3315Y2058D01*
D02*
G37*
G36*
X3386Y1973D02*
X3376Y1972D01*
X3368Y1968D01*
X3360Y1962D01*
X3355Y1955D01*
X3351Y1946D01*
X3350Y1937D01*
X3351Y1928D01*
X3355Y1919D01*
X3360Y1912D01*
X3368Y1906D01*
X3376Y1903D01*
X3386Y1901D01*
X3395Y1903D01*
X3404Y1906D01*
X3411Y1912D01*
X3417Y1919D01*
X3420Y1928D01*
X3421Y1937D01*
X3420Y1946D01*
X3417Y1955D01*
X3411Y1962D01*
X3404Y1968D01*
X3395Y1972D01*
X3386Y1973D01*
D02*
G37*
G36*
X3456Y1902D02*
X3447Y1901D01*
X3439Y1897D01*
X3431Y1892D01*
X3425Y1884D01*
X3422Y1876D01*
X3421Y1866D01*
X3422Y1857D01*
X3425Y1849D01*
X3431Y1841D01*
X3439Y1836D01*
X3447Y1832D01*
X3456Y1831D01*
X3466Y1832D01*
X3474Y1836D01*
X3482Y1841D01*
X3487Y1849D01*
X3491Y1857D01*
X3492Y1866D01*
X3491Y1876D01*
X3487Y1884D01*
X3482Y1892D01*
X3474Y1897D01*
X3466Y1901D01*
X3456Y1902D01*
D02*
G37*
G36*
X3527Y1831D02*
X3518Y1830D01*
X3509Y1827D01*
X3502Y1821D01*
X3496Y1814D01*
X3493Y1805D01*
X3491Y1796D01*
X3493Y1786D01*
X3496Y1778D01*
X3502Y1770D01*
X3509Y1765D01*
X3518Y1761D01*
X3527Y1760D01*
X3536Y1761D01*
X3545Y1765D01*
X3552Y1770D01*
X3558Y1778D01*
X3562Y1786D01*
X3563Y1796D01*
X3562Y1805D01*
X3558Y1814D01*
X3552Y1821D01*
X3545Y1827D01*
X3536Y1830D01*
X3527Y1831D01*
D02*
G37*
G36*
X3598Y1761D02*
X3589Y1760D01*
X3580Y1756D01*
X3573Y1750D01*
X3567Y1743D01*
X3563Y1734D01*
X3562Y1725D01*
X3563Y1716D01*
X3567Y1707D01*
X3573Y1700D01*
X3580Y1694D01*
X3589Y1691D01*
X3598Y1689D01*
X3607Y1691D01*
X3616Y1694D01*
X3623Y1700D01*
X3629Y1707D01*
X3632Y1716D01*
X3634Y1725D01*
X3632Y1734D01*
X3629Y1743D01*
X3623Y1750D01*
X3616Y1756D01*
X3607Y1760D01*
X3598Y1761D01*
D02*
G37*
G36*
X4559Y1468D02*
Y1434D01*
X4594D01*
X4593Y1439D01*
X4589Y1449D01*
X4583Y1457D01*
X4574Y1464D01*
X4565Y1468D01*
X4559Y1468D01*
D02*
G37*
G36*
X4549D02*
X4544Y1468D01*
X4534Y1464D01*
X4526Y1457D01*
X4520Y1449D01*
X4516Y1439D01*
X4515Y1434D01*
X4549D01*
Y1468D01*
D02*
G37*
G36*
X4594Y1424D02*
X4559D01*
Y1390D01*
X4565Y1391D01*
X4574Y1395D01*
X4583Y1401D01*
X4589Y1409D01*
X4593Y1419D01*
X4594Y1424D01*
D02*
G37*
G36*
X4549D02*
X4515D01*
X4516Y1419D01*
X4520Y1409D01*
X4526Y1401D01*
X4534Y1395D01*
X4544Y1391D01*
X4549Y1390D01*
Y1424D01*
D02*
G37*
%LPD*%
G36*
X591Y2477D02*
X591Y2477D01*
X591Y2477D01*
X590Y2477D01*
X590Y2477D01*
X590Y2477D01*
X589Y2477D01*
X588Y2477D01*
X588Y2477D01*
Y2483D01*
X588Y2483D01*
X590Y2483D01*
X590Y2483D01*
X590Y2484D01*
X591Y2484D01*
X591Y2484D01*
X591Y2484D01*
Y2477D01*
D02*
G37*
G36*
X212Y2383D02*
X213Y2383D01*
X213Y2382D01*
X213Y2382D01*
X214Y2382D01*
X215Y2381D01*
X215Y2381D01*
X216Y2381D01*
X217Y2381D01*
X218Y2381D01*
Y2375D01*
X217Y2375D01*
X216Y2375D01*
X215Y2375D01*
X215Y2375D01*
X214Y2374D01*
X213Y2374D01*
X213Y2374D01*
X213Y2373D01*
X212Y2373D01*
X212Y2372D01*
Y2384D01*
X212Y2383D01*
D02*
G37*
G36*
X186Y2803D02*
X186Y2803D01*
X186Y2803D01*
X185Y2802D01*
X185Y2802D01*
X185Y2801D01*
X184Y2800D01*
X184Y2800D01*
X184Y2799D01*
X184Y2797D01*
X178D01*
X178Y2799D01*
X178Y2800D01*
X178Y2800D01*
X178Y2801D01*
X177Y2802D01*
X177Y2802D01*
X177Y2803D01*
X176Y2803D01*
X176Y2803D01*
X175Y2803D01*
X187D01*
X186Y2803D01*
D02*
G37*
G36*
X159Y2247D02*
X159Y2247D01*
X160Y2246D01*
X160Y2246D01*
X161Y2245D01*
X161Y2245D01*
X162Y2245D01*
X163Y2245D01*
X164Y2245D01*
X165Y2245D01*
Y2239D01*
X164Y2239D01*
X163Y2239D01*
X162Y2239D01*
X161Y2238D01*
X161Y2238D01*
X160Y2238D01*
X160Y2237D01*
X159Y2237D01*
X159Y2236D01*
X159Y2236D01*
Y2248D01*
X159Y2247D01*
D02*
G37*
G36*
X130Y1912D02*
X125Y1912D01*
X113Y1911D01*
X109Y1911D01*
X107Y1910D01*
X104Y1909D01*
X102Y1909D01*
X100Y1908D01*
X99Y1906D01*
X95Y1911D01*
X96Y1912D01*
X97Y1914D01*
X98Y1916D01*
X98Y1918D01*
X99Y1921D01*
X100Y1925D01*
X100Y1932D01*
X100Y1937D01*
X100Y1941D01*
X130Y1912D01*
D02*
G37*
G36*
X456Y1514D02*
X456Y1513D01*
X456Y1512D01*
X456Y1512D01*
X456Y1511D01*
X457Y1510D01*
X457Y1510D01*
X457Y1510D01*
X458Y1510D01*
X458Y1510D01*
X447D01*
X448Y1510D01*
X448Y1510D01*
X449Y1510D01*
X449Y1510D01*
X449Y1511D01*
X449Y1512D01*
X450Y1512D01*
X450Y1513D01*
X450Y1514D01*
X450Y1515D01*
X456D01*
X456Y1514D01*
D02*
G37*
G36*
X458Y1475D02*
X458Y1474D01*
X457Y1474D01*
X457Y1474D01*
X456Y1473D01*
X456Y1472D01*
X456Y1472D01*
X456Y1471D01*
X456Y1470D01*
X456Y1469D01*
X450D01*
X450Y1470D01*
X450Y1471D01*
X450Y1472D01*
X449Y1472D01*
X449Y1473D01*
X449Y1474D01*
X448Y1474D01*
X448Y1474D01*
X447Y1475D01*
X447Y1475D01*
X459D01*
X458Y1475D01*
D02*
G37*
G36*
X312Y1828D02*
X314Y1826D01*
X318Y1826D01*
X669D01*
X695Y1800D01*
X698Y1798D01*
X701Y1797D01*
X701Y1797D01*
X756D01*
X759Y1798D01*
X762Y1800D01*
X794Y1831D01*
X794Y1831D01*
X796Y1834D01*
X796Y1838D01*
X796Y1838D01*
Y1849D01*
X801Y1851D01*
X822Y1831D01*
Y1773D01*
X661D01*
X658Y1772D01*
X655Y1770D01*
X596Y1711D01*
X594Y1708D01*
X593Y1705D01*
Y1500D01*
X528Y1434D01*
X480D01*
X462Y1453D01*
Y1464D01*
X473D01*
Y1492D01*
Y1510D01*
X472D01*
X473Y1510D01*
X473Y1510D01*
Y1520D01*
X460D01*
X459Y1521D01*
X459Y1521D01*
X459Y1521D01*
X434Y1546D01*
X437Y1551D01*
X448D01*
Y1579D01*
Y1606D01*
X435D01*
Y1602D01*
X413D01*
Y1574D01*
X409Y1572D01*
X159Y1821D01*
X161Y1824D01*
X164Y1832D01*
X166Y1842D01*
X164Y1851D01*
X161Y1860D01*
X155Y1867D01*
X148Y1873D01*
X139Y1876D01*
X131Y1877D01*
X129Y1882D01*
X139Y1893D01*
X247D01*
X312Y1828D01*
D02*
G37*
G36*
X752Y1427D02*
X752Y1426D01*
X752Y1426D01*
X753Y1425D01*
X753Y1425D01*
X754Y1425D01*
X755Y1424D01*
X756Y1424D01*
X757Y1424D01*
X758Y1424D01*
Y1418D01*
X757Y1418D01*
X756Y1418D01*
X755Y1418D01*
X754Y1418D01*
X753Y1418D01*
X753Y1417D01*
X752Y1417D01*
X752Y1416D01*
X752Y1416D01*
X752Y1415D01*
Y1427D01*
X752Y1427D01*
D02*
G37*
G36*
X734Y1390D02*
X733Y1390D01*
X733Y1389D01*
X732Y1389D01*
X732Y1388D01*
X732Y1388D01*
X732Y1387D01*
X731Y1386D01*
X731Y1385D01*
X731Y1384D01*
X725D01*
X725Y1385D01*
X725Y1386D01*
X725Y1387D01*
X725Y1388D01*
X725Y1388D01*
X724Y1389D01*
X724Y1389D01*
X724Y1390D01*
X723Y1390D01*
X722Y1390D01*
X734D01*
X734Y1390D01*
D02*
G37*
G36*
X915Y1388D02*
X916Y1387D01*
X917Y1387D01*
X917Y1387D01*
X917Y1387D01*
X917Y1387D01*
X917Y1387D01*
X912Y1382D01*
X912Y1382D01*
X912Y1382D01*
X912Y1382D01*
X912Y1383D01*
X912Y1383D01*
X911Y1384D01*
X911Y1384D01*
X910Y1385D01*
X915Y1389D01*
X915Y1388D01*
D02*
G37*
G36*
X485Y1200D02*
X485Y1198D01*
X485Y1198D01*
X486Y1197D01*
X486Y1196D01*
X486Y1196D01*
X487Y1195D01*
X487Y1195D01*
X488Y1195D01*
X488Y1195D01*
X476D01*
X477Y1195D01*
X477Y1195D01*
X478Y1195D01*
X478Y1196D01*
X479Y1196D01*
X479Y1197D01*
X479Y1198D01*
X479Y1198D01*
X479Y1200D01*
X479Y1201D01*
X485D01*
X485Y1200D01*
D02*
G37*
G36*
X1851Y982D02*
X1851Y983D01*
X1850Y983D01*
X1850Y984D01*
X1850Y984D01*
X1849Y984D01*
X1848Y985D01*
X1848Y985D01*
X1847Y985D01*
X1846Y985D01*
X1845Y985D01*
Y991D01*
X1846Y991D01*
X1847Y991D01*
X1848Y991D01*
X1848Y992D01*
X1849Y992D01*
X1850Y992D01*
X1850Y993D01*
X1850Y993D01*
X1851Y994D01*
X1851Y994D01*
Y982D01*
D02*
G37*
G36*
X5124Y174D02*
X5124Y175D01*
X5124Y175D01*
X5124Y176D01*
X5123Y176D01*
X5123Y177D01*
X5122Y177D01*
X5121Y177D01*
X5120Y177D01*
X5119Y177D01*
X5118Y177D01*
Y183D01*
X5119Y183D01*
X5120Y183D01*
X5121Y184D01*
X5122Y184D01*
X5123Y184D01*
X5123Y184D01*
X5124Y185D01*
X5124Y185D01*
X5124Y186D01*
X5124Y186D01*
Y174D01*
D02*
G37*
%LPC*%
G36*
X496Y1606D02*
X483D01*
Y1584D01*
X496D01*
Y1606D01*
D02*
G37*
G36*
Y1574D02*
X483D01*
Y1561D01*
X484D01*
X484Y1561D01*
X483Y1561D01*
Y1551D01*
X496D01*
Y1574D01*
D02*
G37*
G36*
X471Y1606D02*
X458D01*
Y1579D01*
Y1551D01*
X460D01*
Y1551D01*
X473D01*
Y1561D01*
X473Y1561D01*
X472Y1561D01*
X473D01*
Y1579D01*
Y1606D01*
X471D01*
Y1606D01*
D02*
G37*
G36*
X521Y1506D02*
Y1497D01*
X530D01*
X530Y1498D01*
X526Y1503D01*
X522Y1506D01*
X521Y1506D01*
D02*
G37*
G36*
X530Y1487D02*
X521D01*
Y1478D01*
X522Y1478D01*
X526Y1481D01*
X530Y1486D01*
X530Y1487D01*
D02*
G37*
G36*
X496Y1520D02*
X483D01*
Y1510D01*
X484Y1510D01*
X484Y1510D01*
X483D01*
Y1492D01*
Y1464D01*
X496D01*
Y1488D01*
X501Y1489D01*
X502Y1486D01*
X505Y1481D01*
X510Y1478D01*
X511Y1478D01*
Y1489D01*
X510Y1489D01*
X509Y1489D01*
X509Y1489D01*
Y1495D01*
X509Y1495D01*
X511Y1495D01*
Y1506D01*
X510Y1506D01*
X505Y1503D01*
X502Y1498D01*
X501Y1496D01*
X496Y1496D01*
Y1520D01*
D02*
G37*
%LPD*%
G36*
X486Y1497D02*
X486Y1497D01*
X487Y1497D01*
X487Y1496D01*
X488Y1496D01*
X488Y1496D01*
X489Y1495D01*
X490Y1495D01*
X491Y1495D01*
X492Y1495D01*
Y1489D01*
X491Y1489D01*
X490Y1489D01*
X489Y1489D01*
X488Y1489D01*
X488Y1488D01*
X487Y1488D01*
X487Y1488D01*
X486Y1487D01*
X486Y1487D01*
X486Y1486D01*
Y1498D01*
X486Y1497D01*
D02*
G37*
G36*
X1122Y1286D02*
X1122Y1286D01*
X1122Y1286D01*
X1121Y1286D01*
X1121Y1286D01*
X1121Y1286D01*
X1120Y1285D01*
X1120Y1285D01*
X1119Y1284D01*
X1115Y1289D01*
X1115Y1289D01*
X1117Y1290D01*
X1117Y1291D01*
X1117Y1291D01*
X1117Y1291D01*
X1117Y1291D01*
X1117Y1291D01*
X1122Y1286D01*
D02*
G37*
G36*
X1035Y1269D02*
X1036Y1269D01*
X1036Y1268D01*
X1036Y1268D01*
X1037Y1267D01*
X1037Y1267D01*
X1038Y1267D01*
X1039Y1267D01*
X1040Y1267D01*
X1041Y1267D01*
Y1261D01*
X1040Y1261D01*
X1039Y1261D01*
X1038Y1261D01*
X1037Y1260D01*
X1037Y1260D01*
X1036Y1260D01*
X1036Y1259D01*
X1036Y1259D01*
X1035Y1258D01*
X1035Y1258D01*
Y1270D01*
X1035Y1269D01*
D02*
G37*
G36*
X988Y1258D02*
X988Y1258D01*
X988Y1259D01*
X988Y1259D01*
X987Y1260D01*
X987Y1260D01*
X986Y1260D01*
X985Y1261D01*
X985Y1261D01*
X984Y1261D01*
X982Y1261D01*
Y1267D01*
X984Y1267D01*
X985Y1267D01*
X985Y1267D01*
X986Y1267D01*
X987Y1267D01*
X987Y1268D01*
X988Y1268D01*
X988Y1269D01*
X988Y1269D01*
X988Y1270D01*
Y1258D01*
D02*
G37*
G36*
X752Y1269D02*
X752Y1269D01*
X752Y1268D01*
X753Y1268D01*
X753Y1267D01*
X754Y1267D01*
X755Y1267D01*
X756Y1267D01*
X757Y1267D01*
X758Y1267D01*
Y1261D01*
X757Y1261D01*
X756Y1261D01*
X755Y1261D01*
X754Y1260D01*
X753Y1260D01*
X753Y1260D01*
X752Y1259D01*
X752Y1259D01*
X752Y1258D01*
X752Y1258D01*
Y1270D01*
X752Y1269D01*
D02*
G37*
G36*
X2686Y1382D02*
X2686Y1382D01*
X2686Y1382D01*
X2685Y1381D01*
X2685Y1381D01*
X2685Y1380D01*
X2684Y1379D01*
X2684Y1378D01*
X2684Y1377D01*
X2684Y1376D01*
X2678D01*
X2678Y1377D01*
X2678Y1378D01*
X2678Y1379D01*
X2678Y1380D01*
X2677Y1381D01*
X2677Y1381D01*
X2677Y1382D01*
X2676Y1382D01*
X2676Y1382D01*
X2675Y1382D01*
X2687D01*
X2686Y1382D01*
D02*
G37*
G36*
X1898Y836D02*
X1898Y836D01*
X1898Y835D01*
X1898Y835D01*
X1899Y834D01*
X1900Y834D01*
X1900Y834D01*
X1901Y834D01*
X1902Y834D01*
X1903Y834D01*
Y828D01*
X1902Y828D01*
X1901Y828D01*
X1900Y827D01*
X1900Y827D01*
X1899Y827D01*
X1898Y827D01*
X1898Y826D01*
X1898Y826D01*
X1898Y825D01*
X1898Y825D01*
Y837D01*
X1898Y836D01*
D02*
G37*
G36*
X823Y1004D02*
X823Y1005D01*
X823Y1005D01*
X823Y1005D01*
X822Y1005D01*
X822Y1005D01*
X821Y1005D01*
X820Y1005D01*
X820Y1005D01*
Y1011D01*
X820Y1011D01*
X822Y1011D01*
X822Y1011D01*
X823Y1011D01*
X823Y1011D01*
X823Y1011D01*
X823Y1011D01*
Y1004D01*
D02*
G37*
G36*
X748Y1013D02*
X748Y1013D01*
X748Y1012D01*
X749Y1012D01*
X749Y1012D01*
X750Y1011D01*
X751Y1011D01*
X752Y1011D01*
X753Y1011D01*
X754Y1011D01*
Y1005D01*
X753Y1005D01*
X752Y1005D01*
X751Y1005D01*
X750Y1004D01*
X749Y1004D01*
X749Y1004D01*
X748Y1003D01*
X748Y1003D01*
X748Y1003D01*
X748Y1002D01*
Y1014D01*
X748Y1013D01*
D02*
G37*
G36*
X1043Y856D02*
X1043Y855D01*
X1044Y855D01*
X1044Y854D01*
X1045Y854D01*
X1045Y854D01*
X1046Y854D01*
X1047Y853D01*
X1048Y853D01*
X1049Y853D01*
Y847D01*
X1048Y847D01*
X1047Y847D01*
X1046Y847D01*
X1045Y847D01*
X1045Y847D01*
X1044Y846D01*
X1044Y846D01*
X1043Y846D01*
X1043Y845D01*
X1043Y844D01*
Y856D01*
X1043Y856D01*
D02*
G37*
G36*
X996Y844D02*
X996Y845D01*
X996Y846D01*
X996Y846D01*
X995Y846D01*
X995Y847D01*
X994Y847D01*
X993Y847D01*
X992Y847D01*
X991Y847D01*
X990Y847D01*
Y853D01*
X991Y853D01*
X992Y853D01*
X993Y854D01*
X994Y854D01*
X995Y854D01*
X995Y854D01*
X996Y855D01*
X996Y855D01*
X996Y856D01*
X996Y856D01*
Y844D01*
D02*
G37*
G36*
X748Y856D02*
X748Y855D01*
X748Y855D01*
X749Y854D01*
X749Y854D01*
X750Y854D01*
X751Y854D01*
X752Y853D01*
X753Y853D01*
X754Y853D01*
Y847D01*
X753Y847D01*
X752Y847D01*
X751Y847D01*
X750Y847D01*
X749Y847D01*
X749Y846D01*
X748Y846D01*
X748Y846D01*
X748Y845D01*
X748Y844D01*
Y856D01*
X748Y856D01*
D02*
G37*
G36*
X1368Y878D02*
X1367Y878D01*
X1367Y878D01*
X1366Y877D01*
X1366Y877D01*
X1366Y876D01*
X1365Y875D01*
X1365Y874D01*
X1365Y873D01*
X1365Y872D01*
X1359D01*
X1359Y873D01*
X1359Y874D01*
X1359Y875D01*
X1359Y876D01*
X1359Y877D01*
X1358Y877D01*
X1358Y878D01*
X1357Y878D01*
X1357Y878D01*
X1356Y878D01*
X1368D01*
X1368Y878D01*
D02*
G37*
G36*
X1525D02*
X1525Y878D01*
X1524Y878D01*
X1524Y877D01*
X1523Y877D01*
X1523Y876D01*
X1523Y875D01*
X1523Y874D01*
X1523Y873D01*
X1523Y872D01*
X1517D01*
X1517Y873D01*
X1517Y874D01*
X1516Y875D01*
X1516Y876D01*
X1516Y877D01*
X1516Y877D01*
X1515Y878D01*
X1515Y878D01*
X1514Y878D01*
X1514Y878D01*
X1526D01*
X1525Y878D01*
D02*
G37*
G36*
X1043Y604D02*
X1043Y603D01*
X1044Y603D01*
X1044Y602D01*
X1045Y602D01*
X1045Y602D01*
X1046Y602D01*
X1047Y601D01*
X1048Y601D01*
X1049Y601D01*
Y595D01*
X1048Y595D01*
X1047Y595D01*
X1046Y595D01*
X1045Y595D01*
X1045Y595D01*
X1044Y594D01*
X1044Y594D01*
X1043Y594D01*
X1043Y593D01*
X1043Y593D01*
Y604D01*
X1043Y604D01*
D02*
G37*
G36*
X996Y593D02*
X996Y593D01*
X996Y594D01*
X996Y594D01*
X995Y594D01*
X995Y595D01*
X994Y595D01*
X993Y595D01*
X992Y595D01*
X991Y595D01*
X990Y595D01*
Y601D01*
X991Y601D01*
X992Y601D01*
X993Y602D01*
X994Y602D01*
X995Y602D01*
X995Y602D01*
X996Y603D01*
X996Y603D01*
X996Y604D01*
X996Y604D01*
Y593D01*
D02*
G37*
G36*
X1777Y2951D02*
X1776Y2951D01*
X1776Y2950D01*
X1776Y2950D01*
X1775Y2950D01*
X1775Y2949D01*
X1775Y2948D01*
X1775Y2947D01*
X1775Y2946D01*
X1775Y2945D01*
X1769D01*
X1769Y2946D01*
X1769Y2947D01*
X1768Y2948D01*
X1768Y2949D01*
X1768Y2950D01*
X1768Y2950D01*
X1767Y2950D01*
X1767Y2951D01*
X1766Y2951D01*
X1766Y2951D01*
X1778D01*
X1777Y2951D01*
D02*
G37*
G36*
X1620Y2951D02*
X1619Y2951D01*
X1619Y2950D01*
X1618Y2950D01*
X1618Y2949D01*
X1618Y2949D01*
X1617Y2948D01*
X1617Y2947D01*
X1617Y2946D01*
X1617Y2945D01*
X1611D01*
X1611Y2946D01*
X1611Y2947D01*
X1611Y2948D01*
X1611Y2949D01*
X1610Y2949D01*
X1610Y2950D01*
X1610Y2950D01*
X1609Y2951D01*
X1609Y2951D01*
X1608Y2951D01*
X1620D01*
X1620Y2951D01*
D02*
G37*
G36*
X1557D02*
X1556Y2951D01*
X1556Y2950D01*
X1555Y2950D01*
X1555Y2949D01*
X1555Y2949D01*
X1554Y2948D01*
X1554Y2947D01*
X1554Y2946D01*
X1554Y2945D01*
X1548D01*
X1548Y2946D01*
X1548Y2947D01*
X1548Y2948D01*
X1548Y2949D01*
X1547Y2949D01*
X1547Y2950D01*
X1547Y2950D01*
X1546Y2951D01*
X1546Y2951D01*
X1545Y2951D01*
X1557D01*
X1557Y2951D01*
D02*
G37*
G36*
X1458D02*
X1458Y2951D01*
X1457Y2950D01*
X1457Y2950D01*
X1456Y2949D01*
X1456Y2949D01*
X1456Y2948D01*
X1456Y2947D01*
X1456Y2946D01*
X1456Y2945D01*
X1450D01*
X1450Y2946D01*
X1450Y2947D01*
X1450Y2948D01*
X1449Y2949D01*
X1449Y2949D01*
X1449Y2950D01*
X1448Y2950D01*
X1448Y2951D01*
X1447Y2951D01*
X1447Y2951D01*
X1459D01*
X1458Y2951D01*
D02*
G37*
G36*
X1293Y2951D02*
X1292Y2951D01*
X1292Y2950D01*
X1291Y2950D01*
X1291Y2950D01*
X1291Y2949D01*
X1291Y2948D01*
X1290Y2947D01*
X1290Y2946D01*
X1290Y2945D01*
X1284D01*
X1284Y2946D01*
X1284Y2947D01*
X1284Y2948D01*
X1284Y2949D01*
X1284Y2950D01*
X1283Y2950D01*
X1283Y2950D01*
X1283Y2951D01*
X1282Y2951D01*
X1281Y2951D01*
X1293D01*
X1293Y2951D01*
D02*
G37*
G36*
X1484Y2933D02*
X1484Y2933D01*
X1484Y2933D01*
X1483Y2933D01*
X1483Y2932D01*
X1483Y2932D01*
X1483Y2931D01*
X1483Y2930D01*
X1477D01*
X1477Y2931D01*
X1477Y2932D01*
X1477Y2933D01*
X1477Y2933D01*
X1477Y2933D01*
X1477Y2933D01*
X1477Y2933D01*
X1484D01*
X1484Y2933D01*
D02*
G37*
G36*
X1290Y2928D02*
X1290Y2926D01*
X1291Y2926D01*
X1291Y2925D01*
X1291Y2925D01*
X1291Y2925D01*
X1291Y2925D01*
X1284Y2925D01*
X1284Y2925D01*
X1284Y2925D01*
X1284Y2925D01*
X1284Y2926D01*
X1284Y2926D01*
X1284Y2927D01*
X1284Y2928D01*
X1284Y2928D01*
X1290Y2928D01*
X1290Y2928D01*
D02*
G37*
G36*
X1678Y2914D02*
X1677Y2914D01*
X1677Y2914D01*
X1677Y2914D01*
X1677Y2914D01*
X1677Y2914D01*
X1676Y2914D01*
X1675Y2914D01*
X1674Y2914D01*
Y2920D01*
X1675Y2920D01*
X1677Y2920D01*
X1677Y2920D01*
X1677Y2921D01*
X1677Y2921D01*
X1677Y2921D01*
X1678Y2921D01*
Y2914D01*
D02*
G37*
G36*
X1456Y2919D02*
X1456Y2918D01*
X1456Y2917D01*
X1456Y2916D01*
X1457Y2915D01*
X1457Y2914D01*
X1458Y2913D01*
X1458Y2912D01*
X1459Y2911D01*
X1460Y2910D01*
X1457Y2905D01*
X1456Y2906D01*
X1455Y2906D01*
X1454Y2907D01*
X1454Y2907D01*
X1453Y2907D01*
X1452Y2907D01*
X1451Y2907D01*
X1450Y2906D01*
X1449Y2906D01*
X1449Y2905D01*
X1446Y2910D01*
X1446Y2911D01*
X1447Y2912D01*
X1448Y2913D01*
X1448Y2914D01*
X1449Y2915D01*
X1449Y2916D01*
X1449Y2917D01*
X1450Y2918D01*
X1450Y2919D01*
X1450Y2921D01*
X1456D01*
X1456Y2919D01*
D02*
G37*
G36*
X1233Y2884D02*
X1233Y2884D01*
X1233Y2884D01*
X1233Y2884D01*
X1233Y2883D01*
X1234Y2883D01*
X1234Y2883D01*
X1235Y2882D01*
X1235Y2882D01*
X1229Y2879D01*
X1227Y2881D01*
X1233Y2885D01*
X1233Y2884D01*
D02*
G37*
G36*
X1406Y2878D02*
X1401Y2878D01*
X1401Y2879D01*
X1400Y2880D01*
X1400Y2880D01*
X1400Y2881D01*
X1400Y2881D01*
X1400Y2881D01*
X1400Y2881D01*
X1400Y2881D01*
X1406Y2884D01*
X1406Y2878D01*
D02*
G37*
G36*
X1426Y2870D02*
X1420Y2870D01*
X1420Y2871D01*
X1420Y2872D01*
X1420Y2872D01*
X1420Y2873D01*
X1420Y2873D01*
X1420Y2873D01*
X1420Y2873D01*
X1420Y2873D01*
X1426Y2876D01*
X1426Y2870D01*
D02*
G37*
G36*
X1584Y2857D02*
X1584Y2856D01*
X1584Y2856D01*
X1584Y2855D01*
X1584Y2854D01*
X1585Y2854D01*
X1585Y2853D01*
X1585Y2853D01*
X1586Y2853D01*
X1586Y2853D01*
X1575D01*
X1575Y2853D01*
X1576Y2853D01*
X1576Y2853D01*
X1577Y2854D01*
X1577Y2854D01*
X1577Y2855D01*
X1578Y2856D01*
X1578Y2856D01*
X1578Y2857D01*
X1578Y2859D01*
X1584D01*
X1584Y2857D01*
D02*
G37*
G36*
X1564D02*
X1564Y2856D01*
X1564Y2856D01*
X1564Y2855D01*
X1565Y2854D01*
X1565Y2854D01*
X1565Y2853D01*
X1566Y2853D01*
X1566Y2853D01*
X1567Y2853D01*
X1555D01*
X1556Y2853D01*
X1556Y2853D01*
X1557Y2853D01*
X1557Y2854D01*
X1557Y2854D01*
X1558Y2855D01*
X1558Y2856D01*
X1558Y2856D01*
X1558Y2857D01*
X1558Y2859D01*
X1564D01*
X1564Y2857D01*
D02*
G37*
G36*
X1544D02*
X1544Y2856D01*
X1545Y2856D01*
X1545Y2855D01*
X1545Y2854D01*
X1545Y2854D01*
X1546Y2853D01*
X1546Y2853D01*
X1547Y2853D01*
X1547Y2853D01*
X1536D01*
X1536Y2853D01*
X1537Y2853D01*
X1537Y2853D01*
X1537Y2854D01*
X1538Y2854D01*
X1538Y2855D01*
X1538Y2856D01*
X1538Y2856D01*
X1538Y2857D01*
X1538Y2859D01*
X1544D01*
X1544Y2857D01*
D02*
G37*
G36*
X1505D02*
X1505Y2856D01*
X1505Y2856D01*
X1505Y2855D01*
X1506Y2854D01*
X1506Y2854D01*
X1506Y2853D01*
X1507Y2853D01*
X1507Y2853D01*
X1508Y2853D01*
X1496D01*
X1497Y2853D01*
X1497Y2853D01*
X1498Y2853D01*
X1498Y2854D01*
X1498Y2854D01*
X1499Y2855D01*
X1499Y2856D01*
X1499Y2856D01*
X1499Y2857D01*
X1499Y2859D01*
X1505D01*
X1505Y2857D01*
D02*
G37*
G36*
X1466D02*
X1466Y2856D01*
X1466Y2856D01*
X1466Y2855D01*
X1466Y2854D01*
X1467Y2854D01*
X1467Y2853D01*
X1467Y2853D01*
X1468Y2853D01*
X1468Y2853D01*
X1457D01*
X1457Y2853D01*
X1458Y2853D01*
X1458Y2853D01*
X1459Y2854D01*
X1459Y2854D01*
X1459Y2855D01*
X1459Y2856D01*
X1460Y2856D01*
X1460Y2857D01*
X1460Y2859D01*
X1466D01*
X1466Y2857D01*
D02*
G37*
G36*
X1426D02*
X1426Y2856D01*
X1426Y2856D01*
X1427Y2855D01*
X1427Y2854D01*
X1427Y2854D01*
X1428Y2853D01*
X1428Y2853D01*
X1428Y2853D01*
X1429Y2853D01*
X1417D01*
X1418Y2853D01*
X1418Y2853D01*
X1419Y2853D01*
X1419Y2854D01*
X1420Y2854D01*
X1420Y2855D01*
X1420Y2856D01*
X1420Y2856D01*
X1420Y2857D01*
X1420Y2859D01*
X1426D01*
X1426Y2857D01*
D02*
G37*
G36*
X1407D02*
X1407Y2856D01*
X1407Y2856D01*
X1407Y2855D01*
X1407Y2854D01*
X1408Y2854D01*
X1408Y2853D01*
X1408Y2853D01*
X1409Y2853D01*
X1409Y2853D01*
X1398D01*
X1398Y2853D01*
X1399Y2853D01*
X1399Y2853D01*
X1400Y2854D01*
X1400Y2854D01*
X1400Y2855D01*
X1400Y2856D01*
X1400Y2856D01*
X1401Y2857D01*
X1401Y2859D01*
X1406D01*
X1407Y2857D01*
D02*
G37*
G36*
X1367D02*
X1367Y2856D01*
X1367Y2856D01*
X1368Y2855D01*
X1368Y2854D01*
X1368Y2854D01*
X1369Y2853D01*
X1369Y2853D01*
X1369Y2853D01*
X1370Y2853D01*
X1358D01*
X1359Y2853D01*
X1359Y2853D01*
X1360Y2853D01*
X1360Y2854D01*
X1361Y2854D01*
X1361Y2855D01*
X1361Y2856D01*
X1361Y2856D01*
X1361Y2857D01*
X1361Y2859D01*
X1367D01*
X1367Y2857D01*
D02*
G37*
G36*
X1626Y2853D02*
X1619Y2853D01*
X1620Y2853D01*
X1620Y2853D01*
X1621Y2853D01*
X1621Y2854D01*
X1621Y2854D01*
X1622Y2855D01*
X1622Y2855D01*
X1622Y2856D01*
X1622Y2857D01*
X1622Y2859D01*
X1628D01*
X1626Y2853D01*
D02*
G37*
G36*
X1483Y2857D02*
X1483Y2856D01*
X1484Y2855D01*
X1484Y2855D01*
X1484Y2854D01*
X1484Y2853D01*
X1485Y2853D01*
X1485Y2853D01*
X1486Y2853D01*
X1486Y2853D01*
X1476Y2853D01*
X1477Y2853D01*
X1477Y2853D01*
X1477Y2853D01*
X1477Y2854D01*
X1477Y2854D01*
X1477Y2855D01*
X1477Y2856D01*
X1477Y2859D01*
X1483D01*
X1483Y2857D01*
D02*
G37*
G36*
X1098Y2851D02*
X1098Y2850D01*
X1097Y2850D01*
X1097Y2850D01*
X1097Y2850D01*
X1097Y2849D01*
X1097Y2849D01*
X1097Y2848D01*
X1097Y2848D01*
X1098Y2847D01*
X1099Y2846D01*
X1090D01*
X1090Y2847D01*
X1089Y2848D01*
X1088Y2849D01*
X1087Y2849D01*
X1086Y2850D01*
X1085Y2850D01*
X1085Y2850D01*
X1084Y2850D01*
X1083Y2851D01*
X1082Y2851D01*
X1098Y2851D01*
D02*
G37*
G36*
X1072Y2851D02*
X1072Y2850D01*
X1071Y2850D01*
X1071Y2850D01*
X1071Y2849D01*
X1070Y2848D01*
X1070Y2848D01*
X1070Y2847D01*
X1070Y2846D01*
X1070Y2845D01*
X1064D01*
X1064Y2846D01*
X1064Y2847D01*
X1064Y2848D01*
X1064Y2848D01*
X1063Y2849D01*
X1063Y2850D01*
X1063Y2850D01*
X1062Y2850D01*
X1062Y2851D01*
X1061Y2851D01*
X1073D01*
X1072Y2851D01*
D02*
G37*
G36*
X915D02*
X914Y2850D01*
X914Y2850D01*
X913Y2850D01*
X913Y2849D01*
X913Y2848D01*
X913Y2848D01*
X913Y2847D01*
X912Y2846D01*
X912Y2845D01*
X906D01*
X906Y2846D01*
X906Y2847D01*
X906Y2848D01*
X906Y2848D01*
X906Y2849D01*
X905Y2850D01*
X905Y2850D01*
X905Y2850D01*
X904Y2851D01*
X904Y2851D01*
X915D01*
X915Y2851D01*
D02*
G37*
G36*
X1304Y2846D02*
X1304Y2846D01*
X1304Y2846D01*
X1304Y2846D01*
X1305Y2845D01*
X1305Y2845D01*
X1306Y2844D01*
X1306Y2844D01*
X1302Y2839D01*
X1302Y2840D01*
X1300Y2841D01*
X1300Y2841D01*
X1300Y2841D01*
X1300Y2841D01*
X1299Y2842D01*
X1299Y2842D01*
X1304Y2846D01*
X1304Y2846D01*
D02*
G37*
G36*
X1476Y2822D02*
X1476Y2823D01*
X1476Y2823D01*
X1476Y2824D01*
X1476Y2824D01*
X1475Y2824D01*
X1474Y2825D01*
X1474Y2825D01*
X1473Y2825D01*
X1472Y2825D01*
X1472Y2825D01*
X1471Y2825D01*
X1470Y2825D01*
X1470Y2824D01*
X1469Y2824D01*
X1469Y2824D01*
X1469Y2823D01*
X1468Y2823D01*
X1468Y2822D01*
Y2834D01*
X1468Y2833D01*
X1469Y2833D01*
X1469Y2832D01*
X1469Y2832D01*
X1470Y2832D01*
X1470Y2831D01*
X1471Y2831D01*
X1472Y2831D01*
X1472Y2831D01*
X1473Y2831D01*
X1474Y2831D01*
X1474Y2831D01*
X1475Y2832D01*
X1476Y2832D01*
X1476Y2832D01*
X1476Y2833D01*
X1476Y2833D01*
X1476Y2834D01*
Y2822D01*
D02*
G37*
G36*
X1525Y2803D02*
X1525Y2803D01*
X1524Y2803D01*
X1524Y2802D01*
X1523Y2802D01*
X1523Y2801D01*
X1523Y2800D01*
X1523Y2800D01*
X1523Y2799D01*
X1523Y2797D01*
X1517D01*
X1517Y2798D01*
X1517Y2802D01*
X1516Y2802D01*
X1516Y2803D01*
X1516Y2803D01*
X1516Y2803D01*
X1516Y2803D01*
X1526Y2803D01*
X1525Y2803D01*
D02*
G37*
G36*
X1507Y2803D02*
X1507Y2803D01*
X1506Y2803D01*
X1506Y2802D01*
X1506Y2802D01*
X1505Y2801D01*
X1505Y2800D01*
X1505Y2799D01*
X1505Y2798D01*
X1505Y2797D01*
X1499D01*
X1499Y2798D01*
X1499Y2799D01*
X1499Y2800D01*
X1499Y2801D01*
X1498Y2802D01*
X1498Y2802D01*
X1498Y2803D01*
X1497Y2803D01*
X1497Y2803D01*
X1496Y2803D01*
X1508D01*
X1507Y2803D01*
D02*
G37*
G36*
X1446Y2803D02*
X1446Y2803D01*
X1445Y2803D01*
X1445Y2802D01*
X1445Y2802D01*
X1444Y2801D01*
X1444Y2800D01*
X1444Y2800D01*
X1444Y2799D01*
X1444Y2797D01*
X1438D01*
X1438Y2798D01*
X1438Y2802D01*
X1438Y2802D01*
X1438Y2803D01*
X1437Y2803D01*
X1437Y2803D01*
X1437Y2803D01*
X1447Y2803D01*
X1446Y2803D01*
D02*
G37*
G36*
X1409Y2803D02*
X1408Y2803D01*
X1408Y2803D01*
X1408Y2802D01*
X1407Y2802D01*
X1407Y2801D01*
X1407Y2800D01*
X1407Y2799D01*
X1407Y2798D01*
X1406Y2797D01*
X1401D01*
X1401Y2798D01*
X1400Y2799D01*
X1400Y2800D01*
X1400Y2801D01*
X1400Y2802D01*
X1400Y2802D01*
X1399Y2803D01*
X1399Y2803D01*
X1398Y2803D01*
X1398Y2803D01*
X1409D01*
X1409Y2803D01*
D02*
G37*
G36*
X1387Y2803D02*
X1387Y2803D01*
X1386Y2803D01*
X1386Y2802D01*
X1386Y2802D01*
X1385Y2801D01*
X1385Y2800D01*
X1385Y2800D01*
X1385Y2799D01*
X1385Y2797D01*
X1379D01*
X1379Y2798D01*
X1379Y2802D01*
X1379Y2802D01*
X1379Y2803D01*
X1378Y2803D01*
X1378Y2803D01*
X1378Y2803D01*
X1388Y2803D01*
X1387Y2803D01*
D02*
G37*
G36*
X1070Y2796D02*
X1070Y2795D01*
X1070Y2794D01*
X1070Y2793D01*
X1071Y2793D01*
X1071Y2792D01*
X1071Y2792D01*
X1072Y2791D01*
X1072Y2791D01*
X1073Y2791D01*
X1061D01*
X1062Y2791D01*
X1062Y2791D01*
X1063Y2792D01*
X1063Y2792D01*
X1063Y2793D01*
X1064Y2793D01*
X1064Y2794D01*
X1064Y2795D01*
X1064Y2796D01*
X1064Y2797D01*
X1070D01*
X1070Y2796D01*
D02*
G37*
G36*
X1271Y2802D02*
X1271Y2800D01*
X1269Y2797D01*
X1265Y2796D01*
X1260Y2793D01*
X1256Y2788D01*
X1256Y2787D01*
X1270D01*
Y2779D01*
X1274D01*
X1274Y2779D01*
X1274Y2778D01*
X1274Y2778D01*
X1274Y2778D01*
X1274Y2778D01*
X1273Y2777D01*
X1273Y2776D01*
X1273Y2775D01*
X1268D01*
X1268Y2776D01*
X1267Y2777D01*
X1256D01*
X1256Y2776D01*
X1258Y2775D01*
X1255Y2770D01*
X1236D01*
Y2759D01*
X1305D01*
Y2762D01*
X1310Y2764D01*
X1341Y2732D01*
Y2480D01*
X1329Y2468D01*
X1302D01*
X1301Y2468D01*
X1301Y2468D01*
Y2486D01*
Y2526D01*
Y2561D01*
X1305D01*
Y2572D01*
X1270D01*
Y2582D01*
X1305D01*
Y2591D01*
X1236D01*
X1231Y2590D01*
X1132Y2689D01*
Y2818D01*
X1131Y2821D01*
X1129Y2824D01*
X1104Y2849D01*
Y2850D01*
X1105Y2850D01*
X1105Y2851D01*
X1105Y2851D01*
X1104Y2852D01*
Y2904D01*
X1104D01*
X1105Y2908D01*
X1166D01*
X1271Y2802D01*
D02*
G37*
G36*
X1523Y2778D02*
X1523Y2776D01*
X1523Y2776D01*
X1523Y2776D01*
X1523Y2775D01*
X1523Y2775D01*
X1523Y2775D01*
X1516D01*
X1516Y2775D01*
X1516Y2775D01*
X1516Y2776D01*
X1517Y2776D01*
X1517Y2776D01*
X1517Y2777D01*
X1517Y2778D01*
X1517Y2779D01*
X1523D01*
X1523Y2778D01*
D02*
G37*
G36*
X1444Y2774D02*
X1444Y2772D01*
X1444Y2772D01*
X1444Y2772D01*
X1444Y2772D01*
X1444Y2771D01*
X1444Y2771D01*
X1438D01*
X1438Y2771D01*
X1438Y2772D01*
X1438Y2772D01*
X1438Y2772D01*
X1438Y2772D01*
X1438Y2773D01*
X1438Y2774D01*
X1438Y2775D01*
X1444D01*
X1444Y2774D01*
D02*
G37*
G36*
X1385D02*
X1385Y2772D01*
X1385Y2772D01*
X1385Y2772D01*
X1385Y2772D01*
X1385Y2771D01*
X1385Y2771D01*
X1378D01*
X1379Y2771D01*
X1379Y2772D01*
X1379Y2772D01*
X1379Y2772D01*
X1379Y2772D01*
X1379Y2773D01*
X1379Y2774D01*
X1379Y2775D01*
X1385D01*
X1385Y2774D01*
D02*
G37*
G36*
X1406Y2775D02*
X1406Y2769D01*
X1400Y2772D01*
X1400Y2772D01*
X1400Y2773D01*
X1400Y2773D01*
X1400Y2773D01*
X1400Y2773D01*
X1400Y2774D01*
X1401Y2774D01*
X1401Y2775D01*
X1401Y2776D01*
X1406Y2775D01*
D02*
G37*
G36*
X1717Y2765D02*
X1717Y2764D01*
X1717Y2763D01*
X1717Y2762D01*
X1717Y2761D01*
X1718Y2761D01*
X1718Y2760D01*
X1719Y2760D01*
X1719Y2760D01*
X1720Y2760D01*
X1708D01*
X1708Y2760D01*
X1709Y2760D01*
X1709Y2760D01*
X1710Y2761D01*
X1710Y2761D01*
X1710Y2762D01*
X1711Y2763D01*
X1711Y2764D01*
X1711Y2765D01*
X1711Y2766D01*
X1717D01*
X1717Y2765D01*
D02*
G37*
G36*
X1273Y2764D02*
X1274Y2763D01*
X1274Y2763D01*
X1274Y2762D01*
X1274Y2761D01*
X1274Y2761D01*
X1275Y2760D01*
X1275Y2760D01*
X1276Y2760D01*
X1276Y2760D01*
X1265D01*
X1265Y2760D01*
X1266Y2760D01*
X1266Y2760D01*
X1266Y2761D01*
X1267Y2761D01*
X1267Y2762D01*
X1267Y2763D01*
X1267Y2763D01*
X1267Y2764D01*
X1268Y2766D01*
X1273D01*
X1273Y2764D01*
D02*
G37*
G36*
X1532Y2738D02*
X1532Y2738D01*
X1533Y2738D01*
X1533Y2737D01*
X1533Y2737D01*
X1533Y2737D01*
X1534Y2737D01*
X1535Y2737D01*
X1535Y2737D01*
X1535Y2731D01*
X1529Y2732D01*
X1532Y2738D01*
X1532Y2738D01*
D02*
G37*
G36*
X1689Y2728D02*
X1689Y2729D01*
X1689Y2729D01*
X1689Y2730D01*
X1688Y2730D01*
X1688Y2731D01*
X1687Y2731D01*
X1686Y2731D01*
X1685Y2731D01*
X1684Y2731D01*
X1683Y2731D01*
Y2737D01*
X1684Y2737D01*
X1685Y2737D01*
X1686Y2737D01*
X1687Y2738D01*
X1688Y2738D01*
X1688Y2738D01*
X1689Y2739D01*
X1689Y2739D01*
X1689Y2739D01*
X1689Y2740D01*
Y2728D01*
D02*
G37*
G36*
X1719Y2709D02*
X1719Y2709D01*
X1718Y2708D01*
X1718Y2708D01*
X1717Y2707D01*
X1717Y2707D01*
X1717Y2706D01*
X1717Y2705D01*
X1717Y2705D01*
X1717Y2704D01*
X1717Y2704D01*
X1717Y2703D01*
X1717Y2702D01*
X1718Y2702D01*
X1718Y2701D01*
X1719Y2701D01*
X1719Y2701D01*
X1720Y2701D01*
X1708D01*
X1708Y2701D01*
X1709Y2701D01*
X1709Y2701D01*
X1710Y2702D01*
X1710Y2702D01*
X1710Y2703D01*
X1711Y2704D01*
X1711Y2704D01*
X1711Y2705D01*
X1711Y2705D01*
X1711Y2706D01*
X1710Y2707D01*
X1710Y2707D01*
X1710Y2708D01*
X1709Y2708D01*
X1709Y2709D01*
X1708Y2709D01*
X1708Y2709D01*
X1720D01*
X1719Y2709D01*
D02*
G37*
G36*
X1611Y2689D02*
X1611Y2689D01*
X1611Y2688D01*
X1612Y2688D01*
X1612Y2688D01*
X1612Y2687D01*
X1613Y2687D01*
X1613Y2686D01*
X1609Y2682D01*
X1609Y2682D01*
X1607Y2684D01*
X1607Y2684D01*
X1607Y2684D01*
X1607Y2684D01*
X1607Y2684D01*
X1606Y2684D01*
X1611Y2689D01*
X1611Y2689D01*
D02*
G37*
G36*
X1719Y2689D02*
X1719Y2689D01*
X1718Y2689D01*
X1718Y2688D01*
X1717Y2688D01*
X1717Y2687D01*
X1717Y2686D01*
X1717Y2685D01*
X1717Y2685D01*
X1717Y2685D01*
X1717Y2684D01*
X1717Y2683D01*
X1717Y2682D01*
X1718Y2682D01*
X1718Y2682D01*
X1719Y2681D01*
X1719Y2681D01*
X1720Y2681D01*
X1708D01*
X1708Y2681D01*
X1709Y2681D01*
X1709Y2682D01*
X1710Y2682D01*
X1710Y2682D01*
X1710Y2683D01*
X1711Y2684D01*
X1711Y2685D01*
X1711Y2685D01*
X1711Y2685D01*
X1711Y2686D01*
X1710Y2687D01*
X1710Y2688D01*
X1710Y2688D01*
X1709Y2689D01*
X1709Y2689D01*
X1708Y2689D01*
X1708Y2689D01*
X1720D01*
X1719Y2689D01*
D02*
G37*
G36*
X1739Y2680D02*
X1739Y2680D01*
X1739Y2680D01*
X1739Y2679D01*
X1740Y2679D01*
X1741Y2679D01*
X1741Y2678D01*
X1742Y2678D01*
X1743Y2678D01*
X1744Y2678D01*
Y2672D01*
X1743Y2672D01*
X1742Y2672D01*
X1741Y2672D01*
X1741Y2672D01*
X1740Y2672D01*
X1739Y2671D01*
X1739Y2671D01*
X1739Y2670D01*
X1739Y2670D01*
X1738Y2669D01*
Y2681D01*
X1739Y2680D01*
D02*
G37*
G36*
X1689Y2650D02*
X1689Y2650D01*
X1689Y2651D01*
X1689Y2651D01*
X1688Y2652D01*
X1688Y2652D01*
X1687Y2652D01*
X1686Y2652D01*
X1685Y2652D01*
X1684Y2653D01*
X1683Y2653D01*
Y2658D01*
X1684Y2658D01*
X1685Y2659D01*
X1686Y2659D01*
X1687Y2659D01*
X1688Y2659D01*
X1688Y2659D01*
X1689Y2660D01*
X1689Y2660D01*
X1689Y2661D01*
X1689Y2661D01*
Y2650D01*
D02*
G37*
G36*
X1098Y2634D02*
X1097Y2634D01*
X1097Y2634D01*
X1097Y2633D01*
X1097Y2633D01*
X1097Y2632D01*
X1097Y2632D01*
X1097Y2631D01*
X1098Y2631D01*
X1099Y2630D01*
X1090D01*
X1090Y2631D01*
X1089Y2631D01*
X1088Y2632D01*
X1087Y2632D01*
X1086Y2633D01*
X1085Y2633D01*
X1085Y2634D01*
X1084Y2634D01*
X1083Y2634D01*
X1082Y2634D01*
X1098D01*
X1098Y2634D01*
D02*
G37*
G36*
X1072Y2634D02*
X1072Y2634D01*
X1071Y2633D01*
X1071Y2633D01*
X1071Y2633D01*
X1070Y2632D01*
X1070Y2631D01*
X1070Y2630D01*
X1070Y2629D01*
X1070Y2628D01*
X1064D01*
X1064Y2629D01*
X1064Y2630D01*
X1064Y2631D01*
X1064Y2632D01*
X1063Y2633D01*
X1063Y2633D01*
X1063Y2633D01*
X1062Y2634D01*
X1062Y2634D01*
X1061Y2634D01*
X1073D01*
X1072Y2634D01*
D02*
G37*
G36*
X1767Y2639D02*
X1767Y2638D01*
X1767Y2637D01*
X1768Y2636D01*
X1768Y2635D01*
X1769Y2635D01*
X1770Y2634D01*
X1771Y2634D01*
X1772Y2634D01*
X1773Y2634D01*
X1764Y2628D01*
X1755Y2634D01*
X1756Y2634D01*
X1757Y2634D01*
X1758Y2634D01*
X1759Y2635D01*
X1759Y2635D01*
X1760Y2636D01*
X1760Y2637D01*
X1761Y2638D01*
X1761Y2639D01*
X1761Y2640D01*
X1767D01*
X1767Y2639D01*
D02*
G37*
G36*
X1738Y2636D02*
X1739Y2636D01*
X1739Y2635D01*
X1739Y2635D01*
X1740Y2635D01*
X1741Y2634D01*
X1741Y2634D01*
X1742Y2634D01*
X1743Y2634D01*
X1744Y2634D01*
Y2628D01*
X1738Y2630D01*
X1738Y2637D01*
X1738Y2636D01*
D02*
G37*
G36*
X1890Y2627D02*
X1889Y2627D01*
X1889Y2628D01*
X1889Y2628D01*
X1889Y2628D01*
X1889Y2628D01*
X1888Y2628D01*
X1888Y2628D01*
X1887Y2628D01*
X1886Y2628D01*
X1888Y2634D01*
X1891Y2634D01*
X1890Y2627D01*
D02*
G37*
G36*
X1968Y2603D02*
X1968Y2602D01*
X1968Y2602D01*
X1968Y2602D01*
X1968Y2602D01*
X1968Y2601D01*
X1968Y2600D01*
X1968Y2599D01*
X1962D01*
X1962Y2600D01*
X1961Y2602D01*
X1961Y2602D01*
X1961Y2602D01*
X1961Y2602D01*
X1961Y2603D01*
X1961Y2603D01*
X1968D01*
X1968Y2603D01*
D02*
G37*
G36*
X1657Y2594D02*
X1657Y2593D01*
X1655Y2593D01*
X1655Y2593D01*
X1655Y2593D01*
X1655Y2593D01*
X1654Y2593D01*
X1654Y2593D01*
X1654Y2593D01*
X1651Y2599D01*
X1657Y2599D01*
X1657Y2594D01*
D02*
G37*
G36*
X1689Y2591D02*
X1689Y2591D01*
X1689Y2592D01*
X1689Y2592D01*
X1688Y2592D01*
X1688Y2593D01*
X1687Y2593D01*
X1686Y2593D01*
X1685Y2593D01*
X1684Y2593D01*
X1683Y2594D01*
Y2599D01*
X1684Y2599D01*
X1685Y2600D01*
X1686Y2600D01*
X1687Y2600D01*
X1688Y2600D01*
X1688Y2600D01*
X1689Y2601D01*
X1689Y2601D01*
X1689Y2602D01*
X1689Y2602D01*
Y2591D01*
D02*
G37*
G36*
X1582Y2582D02*
X1583Y2582D01*
X1583Y2582D01*
X1583Y2582D01*
X1583Y2582D01*
X1584Y2582D01*
X1585Y2582D01*
X1586Y2582D01*
Y2576D01*
X1585Y2576D01*
X1583Y2576D01*
X1583Y2576D01*
X1583Y2576D01*
X1583Y2575D01*
X1582Y2575D01*
X1582Y2575D01*
Y2582D01*
X1582Y2582D01*
D02*
G37*
G36*
X1689Y2573D02*
X1689Y2573D01*
X1689Y2574D01*
X1689Y2574D01*
X1688Y2575D01*
X1688Y2575D01*
X1687Y2575D01*
X1686Y2576D01*
X1685Y2576D01*
X1684Y2576D01*
X1683Y2576D01*
Y2582D01*
X1684Y2582D01*
X1688Y2582D01*
X1688Y2582D01*
X1689Y2582D01*
X1689Y2582D01*
X1689Y2582D01*
X1689Y2583D01*
X1689Y2573D01*
D02*
G37*
G36*
X1070Y2568D02*
X1070Y2567D01*
X1070Y2566D01*
X1070Y2565D01*
X1071Y2564D01*
X1071Y2564D01*
X1071Y2563D01*
X1072Y2563D01*
X1072Y2563D01*
X1073Y2563D01*
X1061D01*
X1062Y2563D01*
X1062Y2563D01*
X1063Y2563D01*
X1063Y2564D01*
X1063Y2564D01*
X1064Y2565D01*
X1064Y2566D01*
X1064Y2567D01*
X1064Y2568D01*
X1064Y2569D01*
X1070D01*
X1070Y2568D01*
D02*
G37*
G36*
X1689Y2551D02*
X1689Y2552D01*
X1689Y2552D01*
X1689Y2553D01*
X1688Y2553D01*
X1688Y2553D01*
X1687Y2554D01*
X1686Y2554D01*
X1685Y2554D01*
X1684Y2554D01*
X1683Y2554D01*
Y2560D01*
X1684Y2560D01*
X1685Y2560D01*
X1686Y2560D01*
X1687Y2560D01*
X1688Y2561D01*
X1688Y2561D01*
X1689Y2561D01*
X1689Y2562D01*
X1689Y2562D01*
X1689Y2563D01*
Y2551D01*
D02*
G37*
G36*
X941Y2545D02*
X941Y2544D01*
X941Y2544D01*
X942Y2543D01*
X942Y2543D01*
X943Y2543D01*
X944Y2543D01*
X945Y2542D01*
X946Y2542D01*
X947Y2542D01*
Y2536D01*
X946Y2536D01*
X945Y2536D01*
X944Y2536D01*
X943Y2536D01*
X942Y2536D01*
X942Y2535D01*
X941Y2535D01*
X941Y2535D01*
X941Y2534D01*
X941Y2533D01*
Y2545D01*
X941Y2545D01*
D02*
G37*
G36*
X1739Y2543D02*
X1739Y2542D01*
X1739Y2542D01*
X1739Y2541D01*
X1740Y2541D01*
X1741Y2541D01*
X1741Y2541D01*
X1742Y2540D01*
X1743Y2540D01*
X1744Y2540D01*
Y2534D01*
X1743Y2534D01*
X1742Y2534D01*
X1741Y2534D01*
X1741Y2534D01*
X1740Y2534D01*
X1739Y2533D01*
X1739Y2533D01*
X1739Y2533D01*
X1739Y2532D01*
X1738Y2532D01*
Y2543D01*
X1739Y2543D01*
D02*
G37*
G36*
X1242Y2546D02*
X1246Y2543D01*
X1246Y2543D01*
Y2532D01*
X1246Y2532D01*
X1246Y2533D01*
X1245Y2534D01*
X1245Y2534D01*
X1244Y2535D01*
X1244Y2536D01*
X1242Y2538D01*
X1240Y2541D01*
X1242Y2547D01*
X1242Y2546D01*
D02*
G37*
G36*
X1948Y2530D02*
X1948Y2530D01*
X1946Y2529D01*
X1946Y2528D01*
X1946Y2528D01*
X1946Y2528D01*
X1946Y2528D01*
X1946Y2528D01*
X1941Y2532D01*
X1941Y2532D01*
X1941Y2533D01*
X1942Y2533D01*
X1942Y2533D01*
X1942Y2533D01*
X1943Y2533D01*
X1943Y2534D01*
X1944Y2535D01*
X1948Y2530D01*
D02*
G37*
G36*
X1941Y2523D02*
X1941Y2523D01*
X1941Y2523D01*
X1940Y2522D01*
X1940Y2522D01*
X1940Y2522D01*
X1939Y2522D01*
X1939Y2521D01*
X1938Y2521D01*
X1934Y2525D01*
X1934Y2525D01*
X1936Y2526D01*
X1936Y2527D01*
X1936Y2527D01*
X1936Y2527D01*
X1936Y2527D01*
X1936Y2528D01*
X1941Y2523D01*
D02*
G37*
G36*
X1631Y2521D02*
X1631Y2521D01*
X1631Y2521D01*
X1631Y2521D01*
X1632Y2521D01*
X1632Y2521D01*
X1632Y2521D01*
X1633Y2521D01*
X1634Y2521D01*
X1633Y2515D01*
X1628Y2515D01*
X1631Y2521D01*
X1631Y2521D01*
D02*
G37*
G36*
X1689Y2512D02*
X1689Y2512D01*
X1689Y2513D01*
X1689Y2513D01*
X1688Y2514D01*
X1688Y2514D01*
X1687Y2514D01*
X1686Y2515D01*
X1685Y2515D01*
X1684Y2515D01*
X1683Y2515D01*
Y2521D01*
X1684Y2521D01*
X1685Y2521D01*
X1686Y2521D01*
X1687Y2521D01*
X1688Y2521D01*
X1688Y2522D01*
X1689Y2522D01*
X1689Y2522D01*
X1689Y2523D01*
X1689Y2524D01*
Y2512D01*
D02*
G37*
G36*
X1739Y2503D02*
X1739Y2503D01*
X1739Y2502D01*
X1739Y2502D01*
X1740Y2502D01*
X1741Y2501D01*
X1741Y2501D01*
X1742Y2501D01*
X1743Y2501D01*
X1744Y2501D01*
Y2495D01*
X1743Y2495D01*
X1742Y2495D01*
X1741Y2495D01*
X1741Y2495D01*
X1740Y2494D01*
X1739Y2494D01*
X1739Y2494D01*
X1739Y2493D01*
X1739Y2493D01*
X1738Y2492D01*
Y2504D01*
X1739Y2503D01*
D02*
G37*
G36*
X1246Y2492D02*
X1246Y2493D01*
X1246Y2493D01*
X1245Y2494D01*
X1245Y2494D01*
X1244Y2494D01*
X1244Y2495D01*
X1243Y2495D01*
X1242Y2495D01*
X1241Y2495D01*
X1240Y2495D01*
Y2501D01*
X1241Y2501D01*
X1242Y2501D01*
X1243Y2501D01*
X1244Y2501D01*
X1244Y2502D01*
X1245Y2502D01*
X1245Y2502D01*
X1246Y2503D01*
X1246Y2503D01*
X1246Y2504D01*
Y2492D01*
D02*
G37*
G36*
X1689Y2473D02*
X1689Y2473D01*
X1689Y2474D01*
X1689Y2474D01*
X1688Y2474D01*
X1688Y2475D01*
X1687Y2475D01*
X1686Y2475D01*
X1685Y2475D01*
X1684Y2475D01*
X1683Y2475D01*
Y2481D01*
X1684Y2481D01*
X1685Y2481D01*
X1686Y2482D01*
X1687Y2482D01*
X1688Y2482D01*
X1688Y2482D01*
X1689Y2483D01*
X1689Y2483D01*
X1689Y2484D01*
X1689Y2484D01*
Y2473D01*
D02*
G37*
G36*
X1295Y2464D02*
X1295Y2463D01*
X1296Y2463D01*
X1296Y2463D01*
X1297Y2462D01*
X1297Y2462D01*
X1298Y2462D01*
X1299Y2462D01*
X1300Y2462D01*
X1301Y2462D01*
Y2456D01*
X1300Y2456D01*
X1299Y2456D01*
X1298Y2455D01*
X1297Y2455D01*
X1297Y2455D01*
X1296Y2455D01*
X1296Y2454D01*
X1295Y2454D01*
X1295Y2453D01*
X1295Y2453D01*
Y2464D01*
X1295Y2464D01*
D02*
G37*
G36*
X1470Y2430D02*
X1469Y2429D01*
X1468Y2428D01*
X1468Y2427D01*
X1467Y2426D01*
X1467Y2425D01*
X1466Y2424D01*
X1466Y2423D01*
X1466Y2422D01*
X1466Y2421D01*
X1466Y2420D01*
X1460Y2418D01*
X1460Y2419D01*
X1459Y2420D01*
X1459Y2421D01*
X1459Y2422D01*
X1458Y2423D01*
X1458Y2423D01*
X1457Y2424D01*
X1456Y2424D01*
X1455Y2424D01*
X1454Y2424D01*
X1455Y2430D01*
X1457Y2430D01*
X1458Y2430D01*
X1459Y2430D01*
X1460Y2431D01*
X1461Y2431D01*
X1462Y2432D01*
X1463Y2432D01*
X1464Y2433D01*
X1465Y2433D01*
X1465Y2434D01*
X1470Y2430D01*
D02*
G37*
G36*
X1387Y2420D02*
X1387Y2419D01*
X1387Y2419D01*
X1387Y2419D01*
X1387Y2419D01*
X1387Y2418D01*
X1387Y2417D01*
X1387Y2416D01*
X1381D01*
X1381Y2417D01*
X1381Y2419D01*
X1381Y2419D01*
X1381Y2419D01*
X1381Y2419D01*
X1381Y2420D01*
X1380Y2420D01*
X1387D01*
X1387Y2420D01*
D02*
G37*
G36*
X1505Y2414D02*
X1505Y2413D01*
X1505Y2412D01*
X1505Y2411D01*
X1506Y2411D01*
X1506Y2410D01*
X1506Y2410D01*
X1507Y2410D01*
X1507Y2409D01*
X1508Y2409D01*
X1496D01*
X1497Y2409D01*
X1497Y2410D01*
X1498Y2410D01*
X1498Y2410D01*
X1498Y2411D01*
X1499Y2411D01*
X1499Y2412D01*
X1499Y2413D01*
X1499Y2414D01*
X1499Y2415D01*
X1505D01*
X1505Y2414D01*
D02*
G37*
G36*
X1466D02*
X1466Y2413D01*
X1466Y2412D01*
X1466Y2411D01*
X1466Y2411D01*
X1467Y2410D01*
X1467Y2410D01*
X1467Y2410D01*
X1468Y2409D01*
X1468Y2409D01*
X1457D01*
X1457Y2409D01*
X1458Y2410D01*
X1458Y2410D01*
X1459Y2410D01*
X1459Y2411D01*
X1459Y2411D01*
X1459Y2412D01*
X1460Y2413D01*
X1460Y2414D01*
X1460Y2415D01*
X1466D01*
X1466Y2414D01*
D02*
G37*
G36*
X1407D02*
X1407Y2413D01*
X1407Y2412D01*
X1407Y2411D01*
X1407Y2411D01*
X1408Y2410D01*
X1408Y2410D01*
X1408Y2410D01*
X1409Y2409D01*
X1409Y2409D01*
X1398D01*
X1398Y2409D01*
X1399Y2410D01*
X1399Y2410D01*
X1400Y2410D01*
X1400Y2411D01*
X1400Y2411D01*
X1400Y2412D01*
X1400Y2413D01*
X1401Y2414D01*
X1401Y2415D01*
X1406D01*
X1407Y2414D01*
D02*
G37*
G36*
X1387D02*
X1387Y2413D01*
X1387Y2412D01*
X1387Y2411D01*
X1388Y2411D01*
X1388Y2410D01*
X1388Y2410D01*
X1389Y2410D01*
X1389Y2409D01*
X1390Y2409D01*
X1378D01*
X1379Y2409D01*
X1379Y2410D01*
X1380Y2410D01*
X1380Y2410D01*
X1380Y2411D01*
X1380Y2411D01*
X1381Y2412D01*
X1381Y2413D01*
X1381Y2414D01*
X1381Y2415D01*
X1387D01*
X1387Y2414D01*
D02*
G37*
G36*
X1072Y2398D02*
X1072Y2398D01*
X1071Y2397D01*
X1071Y2397D01*
X1071Y2396D01*
X1070Y2396D01*
X1070Y2395D01*
X1070Y2394D01*
X1070Y2393D01*
X1070Y2392D01*
X1064D01*
X1064Y2393D01*
X1064Y2394D01*
X1064Y2395D01*
X1064Y2396D01*
X1063Y2396D01*
X1063Y2397D01*
X1063Y2397D01*
X1062Y2398D01*
X1062Y2398D01*
X1061Y2398D01*
X1073D01*
X1072Y2398D01*
D02*
G37*
G36*
X1437Y2379D02*
X1437Y2379D01*
X1437Y2380D01*
X1437Y2380D01*
X1436Y2381D01*
X1436Y2381D01*
X1435Y2381D01*
X1434Y2381D01*
X1433Y2382D01*
X1433Y2382D01*
X1433Y2382D01*
X1432Y2381D01*
X1431Y2381D01*
X1430Y2381D01*
X1430Y2381D01*
X1430Y2380D01*
X1429Y2380D01*
X1429Y2379D01*
X1429Y2379D01*
Y2391D01*
X1429Y2390D01*
X1429Y2389D01*
X1430Y2389D01*
X1430Y2389D01*
X1430Y2388D01*
X1431Y2388D01*
X1432Y2388D01*
X1433Y2388D01*
X1433Y2388D01*
X1433Y2388D01*
X1434Y2388D01*
X1435Y2388D01*
X1436Y2388D01*
X1436Y2389D01*
X1437Y2389D01*
X1437Y2389D01*
X1437Y2390D01*
X1437Y2391D01*
Y2379D01*
D02*
G37*
G36*
X2017Y2382D02*
X2017Y2382D01*
X2017Y2381D01*
X2017Y2381D01*
X2017Y2381D01*
X2018Y2380D01*
X2018Y2380D01*
X2019Y2379D01*
X2015Y2375D01*
X2014Y2375D01*
X2013Y2376D01*
X2013Y2377D01*
X2012Y2377D01*
X2012Y2377D01*
X2012Y2377D01*
X2012Y2377D01*
X2017Y2382D01*
X2017Y2382D01*
D02*
G37*
G36*
X1646Y2360D02*
X1645Y2360D01*
X1645Y2360D01*
X1645Y2359D01*
X1645Y2359D01*
X1645Y2358D01*
X1645Y2358D01*
X1645Y2356D01*
X1645Y2354D01*
X1639D01*
X1639Y2355D01*
X1639Y2356D01*
X1639Y2357D01*
X1638Y2358D01*
X1638Y2359D01*
X1638Y2359D01*
X1637Y2360D01*
X1637Y2360D01*
X1636Y2360D01*
X1636Y2360D01*
X1646Y2360D01*
D02*
G37*
G36*
X1566Y2360D02*
X1566Y2360D01*
X1565Y2359D01*
X1565Y2359D01*
X1565Y2358D01*
X1564Y2358D01*
X1564Y2357D01*
X1564Y2356D01*
X1564Y2355D01*
X1564Y2354D01*
X1558D01*
X1558Y2355D01*
X1558Y2356D01*
X1558Y2357D01*
X1558Y2358D01*
X1557Y2358D01*
X1557Y2359D01*
X1557Y2359D01*
X1556Y2360D01*
X1556Y2360D01*
X1555Y2360D01*
X1567D01*
X1566Y2360D01*
D02*
G37*
G36*
X1507D02*
X1507Y2360D01*
X1506Y2359D01*
X1506Y2359D01*
X1506Y2358D01*
X1505Y2358D01*
X1505Y2357D01*
X1505Y2356D01*
X1505Y2355D01*
X1505Y2354D01*
X1499D01*
X1499Y2355D01*
X1499Y2356D01*
X1499Y2357D01*
X1499Y2358D01*
X1498Y2358D01*
X1498Y2359D01*
X1498Y2359D01*
X1497Y2360D01*
X1497Y2360D01*
X1496Y2360D01*
X1508D01*
X1507Y2360D01*
D02*
G37*
G36*
X1488D02*
X1487Y2360D01*
X1487Y2359D01*
X1486Y2359D01*
X1486Y2358D01*
X1486Y2358D01*
X1485Y2357D01*
X1485Y2356D01*
X1485Y2355D01*
X1485Y2354D01*
X1479D01*
X1479Y2355D01*
X1479Y2356D01*
X1479Y2357D01*
X1479Y2358D01*
X1479Y2358D01*
X1478Y2359D01*
X1478Y2359D01*
X1478Y2360D01*
X1477Y2360D01*
X1476Y2360D01*
X1488D01*
X1488Y2360D01*
D02*
G37*
G36*
X1428D02*
X1428Y2360D01*
X1428Y2359D01*
X1427Y2359D01*
X1427Y2358D01*
X1427Y2358D01*
X1426Y2357D01*
X1426Y2356D01*
X1426Y2355D01*
X1426Y2354D01*
X1420D01*
X1420Y2355D01*
X1420Y2356D01*
X1420Y2357D01*
X1420Y2358D01*
X1420Y2358D01*
X1419Y2359D01*
X1419Y2359D01*
X1418Y2360D01*
X1418Y2360D01*
X1417Y2360D01*
X1429D01*
X1428Y2360D01*
D02*
G37*
G36*
X1389D02*
X1389Y2360D01*
X1388Y2359D01*
X1388Y2359D01*
X1388Y2358D01*
X1387Y2358D01*
X1387Y2357D01*
X1387Y2356D01*
X1387Y2355D01*
X1387Y2354D01*
X1381D01*
X1381Y2355D01*
X1381Y2356D01*
X1381Y2357D01*
X1380Y2358D01*
X1380Y2358D01*
X1380Y2359D01*
X1380Y2359D01*
X1379Y2360D01*
X1379Y2360D01*
X1378Y2360D01*
X1390D01*
X1389Y2360D01*
D02*
G37*
G36*
X1350D02*
X1349Y2360D01*
X1349Y2359D01*
X1348Y2359D01*
X1348Y2358D01*
X1348Y2358D01*
X1348Y2357D01*
X1348Y2356D01*
X1347Y2355D01*
X1347Y2354D01*
X1342D01*
X1342Y2355D01*
X1341Y2356D01*
X1341Y2357D01*
X1341Y2358D01*
X1341Y2358D01*
X1341Y2359D01*
X1340Y2359D01*
X1340Y2360D01*
X1339Y2360D01*
X1339Y2360D01*
X1350D01*
X1350Y2360D01*
D02*
G37*
G36*
X2091Y2341D02*
X2091Y2341D01*
X2091Y2342D01*
X2090Y2342D01*
X2090Y2342D01*
X2089Y2343D01*
X2089Y2343D01*
X2088Y2343D01*
X2087Y2343D01*
X2086Y2343D01*
X2085Y2344D01*
Y2349D01*
X2086Y2349D01*
X2087Y2350D01*
X2088Y2350D01*
X2089Y2350D01*
X2089Y2350D01*
X2090Y2350D01*
X2090Y2351D01*
X2091Y2351D01*
X2091Y2352D01*
X2091Y2352D01*
Y2341D01*
D02*
G37*
G36*
X1070Y2343D02*
X1070Y2342D01*
X1070Y2341D01*
X1070Y2341D01*
X1071Y2340D01*
X1071Y2339D01*
X1071Y2339D01*
X1072Y2339D01*
X1072Y2339D01*
X1073Y2338D01*
X1061D01*
X1062Y2339D01*
X1062Y2339D01*
X1063Y2339D01*
X1063Y2339D01*
X1063Y2340D01*
X1064Y2341D01*
X1064Y2341D01*
X1064Y2342D01*
X1064Y2343D01*
X1064Y2344D01*
X1070D01*
X1070Y2343D01*
D02*
G37*
G36*
X1505Y2330D02*
X1505Y2325D01*
X1498Y2327D01*
X1498Y2328D01*
X1499Y2328D01*
X1499Y2328D01*
X1499Y2328D01*
X1499Y2328D01*
X1499Y2329D01*
X1499Y2329D01*
X1499Y2330D01*
X1499Y2331D01*
X1505Y2330D01*
D02*
G37*
G36*
X1602Y2326D02*
X1602Y2326D01*
X1602Y2326D01*
X1603Y2326D01*
X1603Y2326D01*
X1604Y2326D01*
X1605Y2326D01*
X1605Y2326D01*
Y2320D01*
X1605Y2320D01*
X1603Y2320D01*
X1603Y2320D01*
X1602Y2320D01*
X1602Y2320D01*
X1602Y2319D01*
X1602Y2319D01*
Y2326D01*
X1602Y2326D01*
D02*
G37*
G36*
X1645Y2323D02*
X1639Y2314D01*
X1639Y2315D01*
X1639Y2316D01*
X1638Y2317D01*
X1638Y2318D01*
X1637Y2318D01*
X1637Y2319D01*
X1636Y2319D01*
X1635Y2320D01*
X1634Y2320D01*
X1633Y2320D01*
Y2326D01*
X1634Y2326D01*
X1635Y2326D01*
X1636Y2326D01*
X1637Y2327D01*
X1637Y2327D01*
X1638Y2328D01*
X1638Y2329D01*
X1639Y2330D01*
X1639Y2331D01*
X1639Y2332D01*
X1645Y2323D01*
D02*
G37*
G36*
X1982Y2312D02*
X1982Y2312D01*
X1983Y2311D01*
X1983Y2311D01*
X1984Y2311D01*
X1984Y2311D01*
X1985Y2310D01*
X1986Y2310D01*
X1987Y2310D01*
X1988Y2310D01*
Y2304D01*
X1987Y2304D01*
X1986Y2304D01*
X1985Y2304D01*
X1984Y2304D01*
X1984Y2303D01*
X1983Y2303D01*
X1983Y2303D01*
X1982Y2302D01*
X1982Y2302D01*
X1982Y2301D01*
Y2313D01*
X1982Y2312D01*
D02*
G37*
G36*
X1853Y2301D02*
X1853Y2302D01*
X1852Y2302D01*
X1852Y2303D01*
X1852Y2303D01*
X1851Y2303D01*
X1850Y2304D01*
X1850Y2304D01*
X1849Y2304D01*
X1848Y2304D01*
X1847Y2304D01*
Y2310D01*
X1848Y2310D01*
X1849Y2310D01*
X1850Y2310D01*
X1850Y2311D01*
X1851Y2311D01*
X1852Y2311D01*
X1852Y2311D01*
X1852Y2312D01*
X1853Y2312D01*
X1853Y2313D01*
Y2301D01*
D02*
G37*
G36*
X872Y2904D02*
X872D01*
Y2844D01*
X900D01*
X900Y2844D01*
X900Y2844D01*
Y2835D01*
X901Y2832D01*
X903Y2829D01*
X926Y2806D01*
X924Y2801D01*
X914D01*
Y2773D01*
X951D01*
Y2775D01*
X956Y2776D01*
X1018Y2714D01*
Y2512D01*
X1018Y2509D01*
X1020Y2506D01*
X1025Y2501D01*
X1025Y2501D01*
X1028Y2499D01*
X1032Y2498D01*
X1032Y2498D01*
X1175D01*
X1236Y2438D01*
X1239Y2436D01*
X1242Y2435D01*
X1373D01*
X1374Y2434D01*
X1375Y2430D01*
X1374Y2427D01*
X1373Y2423D01*
X1373Y2420D01*
X1371Y2416D01*
X1370Y2415D01*
X1370Y2415D01*
X1370Y2415D01*
X1333D01*
Y2361D01*
X1332Y2361D01*
X1332Y2360D01*
X1332Y2360D01*
X1333Y2359D01*
Y2354D01*
X1335D01*
X1335Y2354D01*
X1335Y2353D01*
Y2124D01*
X1336Y2121D01*
X1338Y2118D01*
X1861Y1595D01*
Y1436D01*
X1861Y1435D01*
X1861Y1435D01*
X1841D01*
Y1406D01*
X1839Y1406D01*
X1836Y1404D01*
X1783Y1350D01*
X1782Y1350D01*
X1781Y1350D01*
X1781Y1349D01*
X1781Y1349D01*
X1781Y1349D01*
X1781Y1349D01*
X1781Y1349D01*
X1781Y1349D01*
X1779Y1349D01*
X1776Y1346D01*
X1773Y1343D01*
X1772Y1339D01*
X1773Y1334D01*
X1776Y1331D01*
X1779Y1328D01*
X1783Y1328D01*
X1788Y1328D01*
X1791Y1331D01*
X1794Y1334D01*
X1794Y1336D01*
X1795Y1337D01*
X1795Y1337D01*
X1795Y1338D01*
X1836Y1378D01*
X1841Y1376D01*
Y1360D01*
X1900D01*
Y1435D01*
X1879D01*
X1879Y1435D01*
X1879Y1436D01*
Y1598D01*
X1878Y1602D01*
X1876Y1605D01*
X1354Y2128D01*
Y2353D01*
X1354Y2354D01*
X1354Y2354D01*
X1375D01*
X1375Y2354D01*
X1375Y2353D01*
Y2333D01*
X1376Y2329D01*
X1377Y2326D01*
X1383Y2320D01*
X1386Y2318D01*
X1390Y2318D01*
X1413D01*
X1417Y2318D01*
X1420Y2320D01*
X1430Y2330D01*
X1430Y2330D01*
X1432Y2333D01*
X1432Y2337D01*
Y2353D01*
X1433Y2354D01*
X1433Y2354D01*
X1473D01*
X1473Y2354D01*
X1473Y2353D01*
Y2266D01*
X1473Y2266D01*
X1473Y2266D01*
X1447D01*
Y2207D01*
X1503D01*
X1505Y2202D01*
X1498Y2195D01*
X1496Y2192D01*
X1495Y2188D01*
Y2146D01*
X1495Y2146D01*
X1495Y2146D01*
X1476D01*
Y2035D01*
X1531D01*
Y2146D01*
X1513D01*
X1513Y2146D01*
X1513Y2146D01*
Y2185D01*
X1531Y2203D01*
X1532Y2205D01*
X1567Y2240D01*
X1569Y2243D01*
X1570Y2246D01*
Y2353D01*
X1570Y2354D01*
X1570Y2354D01*
X1604D01*
Y2350D01*
X1615D01*
Y2385D01*
X1625D01*
Y2350D01*
X1633D01*
Y2333D01*
X1633Y2333D01*
X1628Y2332D01*
X1606D01*
X1605Y2332D01*
X1605Y2332D01*
X1604Y2332D01*
X1604Y2332D01*
X1604Y2332D01*
X1604Y2332D01*
X1604Y2332D01*
X1604Y2332D01*
X1603Y2333D01*
X1598Y2334D01*
X1594Y2333D01*
X1591Y2331D01*
X1588Y2327D01*
X1587Y2323D01*
X1588Y2319D01*
X1591Y2315D01*
X1594Y2313D01*
X1598Y2312D01*
X1603Y2313D01*
X1604Y2313D01*
X1605Y2313D01*
X1605Y2313D01*
X1606Y2314D01*
X1628D01*
X1633Y2313D01*
X1633Y2312D01*
Y2266D01*
X1632Y2266D01*
X1632Y2266D01*
X1604D01*
Y2207D01*
X1679D01*
Y2227D01*
X1679Y2227D01*
X1680Y2227D01*
X1768D01*
X1771Y2228D01*
X1774Y2230D01*
X1779Y2235D01*
X1846D01*
X1846Y2235D01*
X1846Y2235D01*
Y2226D01*
X1894D01*
Y2235D01*
X1894Y2235D01*
X1894Y2235D01*
X1940D01*
X1941Y2235D01*
X1941Y2235D01*
Y2226D01*
X1970D01*
X2013Y2183D01*
X2016Y2181D01*
X2020Y2180D01*
X2020Y2180D01*
X2084D01*
X2085Y2180D01*
X2085Y2180D01*
Y2172D01*
X2012Y2100D01*
X1658D01*
X1658Y2100D01*
X1657Y2100D01*
Y2146D01*
X1602D01*
Y2035D01*
X1657D01*
Y2044D01*
X1662Y2046D01*
X1742Y1966D01*
X1742Y1966D01*
X1745Y1964D01*
X1748Y1963D01*
X1748Y1963D01*
X1788D01*
X1788Y1963D01*
X1789Y1963D01*
X1789Y1963D01*
X1790Y1963D01*
X1790Y1963D01*
X1790Y1963D01*
X1790Y1963D01*
X1790Y1963D01*
X1791Y1962D01*
X1795Y1961D01*
X1799Y1962D01*
X1803Y1965D01*
X1805Y1968D01*
X1806Y1972D01*
X1805Y1977D01*
X1803Y1980D01*
X1799Y1983D01*
X1795Y1983D01*
X1791Y1983D01*
X1790Y1982D01*
X1789Y1982D01*
X1788Y1982D01*
X1788Y1981D01*
X1752D01*
X1657Y2076D01*
Y2081D01*
X1658Y2081D01*
X1658Y2082D01*
X2016D01*
X2019Y2082D01*
X2022Y2084D01*
X2090Y2152D01*
X2144D01*
Y2226D01*
X2085D01*
Y2198D01*
X2085Y2198D01*
X2084Y2198D01*
X2023D01*
X1988Y2233D01*
Y2262D01*
X1941D01*
Y2253D01*
X1941Y2253D01*
X1940Y2253D01*
X1894D01*
X1894Y2253D01*
X1894Y2253D01*
Y2262D01*
X1846D01*
Y2253D01*
X1846Y2253D01*
X1846Y2253D01*
X1776D01*
X1772Y2252D01*
X1769Y2250D01*
X1764Y2245D01*
X1680D01*
X1679Y2246D01*
X1679Y2246D01*
Y2266D01*
X1651D01*
X1651Y2266D01*
X1651Y2266D01*
Y2321D01*
X1651Y2322D01*
X1651Y2323D01*
Y2323D01*
X1651Y2324D01*
X1651Y2324D01*
Y2353D01*
X1651Y2354D01*
X1652D01*
Y2359D01*
X1652Y2360D01*
X1652Y2360D01*
X1652Y2360D01*
X1652Y2361D01*
Y2397D01*
X1656Y2399D01*
X1711Y2343D01*
Y2317D01*
X1712Y2313D01*
X1714Y2310D01*
X1747Y2277D01*
X1747Y2277D01*
X1750Y2275D01*
X1754Y2274D01*
X1807D01*
X1811Y2275D01*
X1813Y2277D01*
X1834Y2298D01*
X1846D01*
X1846Y2298D01*
X1846Y2298D01*
Y2289D01*
X1894D01*
Y2325D01*
X1846D01*
Y2316D01*
X1846Y2316D01*
X1846Y2316D01*
X1831D01*
X1827Y2315D01*
X1824Y2313D01*
X1803Y2292D01*
X1757D01*
X1730Y2320D01*
Y2336D01*
X1734Y2337D01*
X1767Y2305D01*
X1767Y2304D01*
X1769Y2301D01*
X1772Y2299D01*
X1776Y2298D01*
X1779Y2299D01*
X1782Y2301D01*
X1784Y2304D01*
X1785Y2307D01*
Y2309D01*
X1784Y2312D01*
X1782Y2315D01*
X1667Y2430D01*
X1669Y2435D01*
X2081D01*
X2127Y2388D01*
X2125Y2384D01*
X2085D01*
Y2356D01*
X2085Y2356D01*
X2084Y2355D01*
X2051D01*
X2024Y2383D01*
X2023Y2384D01*
X2023Y2384D01*
X2023Y2384D01*
X2022Y2385D01*
X2022Y2385D01*
X2022Y2385D01*
X2022Y2385D01*
X2022Y2385D01*
X2022Y2386D01*
X2020Y2390D01*
X2016Y2392D01*
X2012Y2393D01*
X2008Y2392D01*
X2004Y2390D01*
X2002Y2386D01*
X2001Y2382D01*
X2002Y2378D01*
X2004Y2374D01*
X2008Y2372D01*
X2009Y2371D01*
X2010Y2371D01*
X2010Y2370D01*
X2011Y2370D01*
X2041Y2340D01*
X2044Y2338D01*
X2047Y2337D01*
X2047Y2337D01*
X2084D01*
X2085Y2337D01*
X2085Y2337D01*
Y2330D01*
X2071Y2316D01*
X1989D01*
X1988Y2316D01*
X1988Y2316D01*
Y2325D01*
X1941D01*
Y2289D01*
X1988D01*
Y2298D01*
X1988Y2298D01*
X1989Y2298D01*
X2075D01*
X2078Y2299D01*
X2081Y2301D01*
X2090Y2309D01*
X2144D01*
Y2365D01*
X2148Y2367D01*
X2555Y1961D01*
Y1435D01*
X2486D01*
Y1376D01*
X2514D01*
X2514Y1376D01*
X2515Y1375D01*
Y1331D01*
X2463Y1280D01*
X2405D01*
Y1209D01*
X2476D01*
Y1267D01*
X2530Y1321D01*
X2532Y1324D01*
X2533Y1328D01*
Y1375D01*
X2533Y1376D01*
X2533Y1376D01*
X2555D01*
Y1070D01*
X2556Y1066D01*
X2558Y1063D01*
X2583Y1038D01*
X2586Y1036D01*
X2589Y1035D01*
X2589Y1035D01*
X2706D01*
X2706Y1035D01*
X2710Y1027D01*
X2715Y1019D01*
X2723Y1014D01*
X2731Y1010D01*
X2731Y1005D01*
X2567D01*
X2462Y1110D01*
X2462Y1116D01*
X2462Y1116D01*
X2466Y1119D01*
X2472Y1127D01*
X2475Y1135D01*
X2476Y1144D01*
X2475Y1154D01*
X2472Y1162D01*
X2466Y1170D01*
X2458Y1175D01*
X2450Y1179D01*
X2441Y1180D01*
X2431Y1179D01*
X2423Y1175D01*
X2415Y1170D01*
X2410Y1162D01*
X2406Y1154D01*
X2406Y1154D01*
X2237D01*
X2193Y1198D01*
X2195Y1203D01*
X2207D01*
Y1278D01*
X2148D01*
Y1250D01*
X2148Y1250D01*
X2147Y1249D01*
X1900D01*
X1900Y1250D01*
X1900Y1250D01*
Y1278D01*
X1841D01*
Y1214D01*
X1836Y1212D01*
X1678Y1370D01*
Y1495D01*
X1678Y1499D01*
X1676Y1502D01*
X1610Y1567D01*
X1610Y1568D01*
X1614Y1576D01*
X1615Y1585D01*
X1614Y1595D01*
X1610Y1603D01*
X1604Y1611D01*
X1597Y1616D01*
X1588Y1620D01*
X1579Y1621D01*
X1570Y1620D01*
X1561Y1616D01*
X1554Y1611D01*
X1548Y1603D01*
X1545Y1595D01*
X1543Y1585D01*
X1545Y1576D01*
X1548Y1568D01*
X1554Y1560D01*
X1561Y1554D01*
X1570Y1551D01*
X1579Y1550D01*
X1588Y1551D01*
X1597Y1554D01*
X1597Y1555D01*
X1660Y1492D01*
Y1366D01*
X1661Y1363D01*
X1663Y1360D01*
X1867Y1155D01*
X1865Y1151D01*
X1850D01*
X1711Y1290D01*
X1708Y1292D01*
X1705Y1292D01*
X1661D01*
X1604Y1350D01*
X1604Y1355D01*
X1607Y1357D01*
X1614Y1365D01*
X1618Y1375D01*
X1618Y1380D01*
X1540D01*
X1541Y1375D01*
X1543Y1368D01*
X1540Y1363D01*
X1500D01*
X1430Y1433D01*
Y1835D01*
X1435Y1837D01*
X1444Y1828D01*
Y1612D01*
X1444Y1608D01*
X1446Y1605D01*
X1548Y1503D01*
X1548Y1503D01*
X1545Y1495D01*
X1543Y1485D01*
X1545Y1476D01*
X1548Y1468D01*
X1554Y1460D01*
X1561Y1454D01*
X1570Y1451D01*
X1579Y1450D01*
X1588Y1451D01*
X1597Y1454D01*
X1604Y1460D01*
X1610Y1468D01*
X1614Y1476D01*
X1615Y1485D01*
X1614Y1495D01*
X1610Y1503D01*
X1604Y1511D01*
X1597Y1516D01*
X1588Y1520D01*
X1579Y1521D01*
X1570Y1520D01*
X1561Y1516D01*
X1561Y1516D01*
X1462Y1616D01*
Y1820D01*
X1467Y1821D01*
X1467Y1821D01*
X1495D01*
X1495Y1821D01*
X1495Y1820D01*
Y1761D01*
X1496Y1757D01*
X1498Y1754D01*
X1548Y1703D01*
X1548Y1703D01*
X1545Y1695D01*
X1543Y1685D01*
X1545Y1676D01*
X1548Y1668D01*
X1554Y1660D01*
X1561Y1654D01*
X1570Y1651D01*
X1579Y1650D01*
X1588Y1651D01*
X1597Y1654D01*
X1604Y1660D01*
X1610Y1668D01*
X1614Y1676D01*
X1615Y1685D01*
X1614Y1695D01*
X1610Y1703D01*
X1604Y1711D01*
X1597Y1716D01*
X1588Y1720D01*
X1579Y1721D01*
X1570Y1720D01*
X1561Y1716D01*
X1561Y1716D01*
X1513Y1764D01*
Y1820D01*
X1513Y1821D01*
X1513Y1821D01*
X1541D01*
Y1880D01*
X1467D01*
Y1833D01*
X1462Y1833D01*
X1461Y1835D01*
X1459Y1838D01*
X997Y2300D01*
Y2487D01*
X1002Y2489D01*
X1036Y2455D01*
X1034Y2451D01*
X1030D01*
Y2392D01*
X1058D01*
X1058Y2392D01*
X1058Y2391D01*
Y2345D01*
X1058Y2345D01*
X1058Y2344D01*
X1030D01*
Y2285D01*
X1104D01*
Y2344D01*
X1076D01*
X1076Y2345D01*
X1076Y2345D01*
Y2391D01*
X1076Y2392D01*
X1076Y2392D01*
X1104D01*
Y2451D01*
X1066D01*
X1009Y2508D01*
Y2533D01*
X1008Y2537D01*
X1006Y2540D01*
X956Y2590D01*
X953Y2592D01*
X950Y2593D01*
X919D01*
X893Y2619D01*
X895Y2624D01*
X904D01*
Y2652D01*
X868D01*
Y2651D01*
X863Y2649D01*
X816Y2696D01*
Y2866D01*
X858Y2908D01*
X871D01*
X872Y2904D01*
D02*
G37*
G36*
X1645Y2264D02*
X1645Y2263D01*
X1645Y2263D01*
X1645Y2262D01*
X1645Y2261D01*
X1646Y2261D01*
X1646Y2260D01*
X1647Y2260D01*
X1647Y2260D01*
X1648Y2260D01*
X1636D01*
X1636Y2260D01*
X1637Y2260D01*
X1637Y2260D01*
X1638Y2261D01*
X1638Y2261D01*
X1638Y2262D01*
X1639Y2263D01*
X1639Y2263D01*
X1639Y2264D01*
X1639Y2266D01*
X1645D01*
X1645Y2264D01*
D02*
G37*
G36*
X1485D02*
X1485Y2263D01*
X1486Y2263D01*
X1486Y2262D01*
X1486Y2261D01*
X1486Y2261D01*
X1487Y2260D01*
X1487Y2260D01*
X1488Y2260D01*
X1488Y2260D01*
X1476D01*
X1477Y2260D01*
X1477Y2260D01*
X1478Y2260D01*
X1478Y2261D01*
X1479Y2261D01*
X1479Y2262D01*
X1479Y2263D01*
X1479Y2263D01*
X1479Y2264D01*
X1479Y2266D01*
X1485D01*
X1485Y2264D01*
D02*
G37*
G36*
X1947Y2238D02*
X1947Y2239D01*
X1947Y2239D01*
X1947Y2240D01*
X1946Y2240D01*
X1946Y2240D01*
X1945Y2241D01*
X1944Y2241D01*
X1943Y2241D01*
X1942Y2241D01*
X1941Y2241D01*
Y2247D01*
X1942Y2247D01*
X1943Y2247D01*
X1944Y2247D01*
X1945Y2248D01*
X1946Y2248D01*
X1946Y2248D01*
X1947Y2248D01*
X1947Y2249D01*
X1947Y2249D01*
X1947Y2250D01*
Y2238D01*
D02*
G37*
G36*
X1888Y2249D02*
X1888Y2249D01*
X1888Y2248D01*
X1889Y2248D01*
X1889Y2248D01*
X1890Y2248D01*
X1891Y2247D01*
X1891Y2247D01*
X1892Y2247D01*
X1894Y2247D01*
Y2241D01*
X1892Y2241D01*
X1891Y2241D01*
X1891Y2241D01*
X1890Y2241D01*
X1889Y2240D01*
X1889Y2240D01*
X1888Y2240D01*
X1888Y2239D01*
X1888Y2239D01*
X1888Y2238D01*
Y2250D01*
X1888Y2249D01*
D02*
G37*
G36*
X1853Y2238D02*
X1853Y2239D01*
X1852Y2239D01*
X1852Y2240D01*
X1852Y2240D01*
X1851Y2240D01*
X1850Y2241D01*
X1850Y2241D01*
X1849Y2241D01*
X1848Y2241D01*
X1847Y2241D01*
Y2247D01*
X1848Y2247D01*
X1849Y2247D01*
X1850Y2247D01*
X1850Y2248D01*
X1851Y2248D01*
X1852Y2248D01*
X1852Y2248D01*
X1852Y2249D01*
X1853Y2249D01*
X1853Y2250D01*
Y2238D01*
D02*
G37*
G36*
X1673Y2242D02*
X1673Y2241D01*
X1674Y2241D01*
X1674Y2240D01*
X1674Y2240D01*
X1675Y2240D01*
X1676Y2239D01*
X1677Y2239D01*
X1678Y2239D01*
X1679Y2239D01*
Y2233D01*
X1678Y2233D01*
X1677Y2233D01*
X1676Y2233D01*
X1675Y2233D01*
X1674Y2233D01*
X1674Y2232D01*
X1674Y2232D01*
X1673Y2231D01*
X1673Y2231D01*
X1673Y2230D01*
Y2242D01*
X1673Y2242D01*
D02*
G37*
G36*
X2091Y2183D02*
X2091Y2184D01*
X2091Y2184D01*
X2090Y2185D01*
X2090Y2185D01*
X2089Y2185D01*
X2089Y2186D01*
X2088Y2186D01*
X2087Y2186D01*
X2086Y2186D01*
X2085Y2186D01*
Y2192D01*
X2086Y2192D01*
X2087Y2192D01*
X2088Y2192D01*
X2089Y2192D01*
X2089Y2193D01*
X2090Y2193D01*
X2090Y2193D01*
X2091Y2194D01*
X2091Y2194D01*
X2091Y2195D01*
Y2183D01*
D02*
G37*
G36*
X1507Y2144D02*
X1507Y2143D01*
X1507Y2143D01*
X1507Y2142D01*
X1508Y2141D01*
X1508Y2141D01*
X1508Y2140D01*
X1509Y2140D01*
X1509Y2140D01*
X1510Y2140D01*
X1498D01*
X1499Y2140D01*
X1499Y2140D01*
X1500Y2140D01*
X1500Y2141D01*
X1500Y2141D01*
X1501Y2142D01*
X1501Y2143D01*
X1501Y2143D01*
X1501Y2144D01*
X1501Y2146D01*
X1507D01*
X1507Y2144D01*
D02*
G37*
G36*
X1651Y2096D02*
X1652Y2095D01*
X1652Y2095D01*
X1652Y2095D01*
X1653Y2094D01*
X1654Y2094D01*
X1654Y2094D01*
X1655Y2094D01*
X1656Y2094D01*
X1657Y2094D01*
Y2088D01*
X1656Y2088D01*
X1655Y2087D01*
X1654Y2087D01*
X1654Y2087D01*
X1653Y2087D01*
X1652Y2087D01*
X1652Y2086D01*
X1652Y2086D01*
X1651Y2085D01*
X1651Y2085D01*
Y2096D01*
X1651Y2096D01*
D02*
G37*
G36*
X1792Y1969D02*
X1792Y1969D01*
X1791Y1969D01*
X1791Y1969D01*
X1791Y1969D01*
X1791Y1969D01*
X1790Y1969D01*
X1789Y1969D01*
X1788Y1969D01*
Y1975D01*
X1789Y1975D01*
X1791Y1976D01*
X1791Y1976D01*
X1791Y1976D01*
X1791Y1976D01*
X1792Y1976D01*
X1792Y1976D01*
Y1969D01*
D02*
G37*
G36*
X1509Y1827D02*
X1509Y1827D01*
X1508Y1826D01*
X1508Y1826D01*
X1508Y1826D01*
X1507Y1825D01*
X1507Y1824D01*
X1507Y1823D01*
X1507Y1822D01*
X1507Y1821D01*
X1501D01*
X1501Y1822D01*
X1501Y1823D01*
X1501Y1824D01*
X1501Y1825D01*
X1500Y1826D01*
X1500Y1826D01*
X1500Y1826D01*
X1499Y1827D01*
X1499Y1827D01*
X1498Y1827D01*
X1510D01*
X1509Y1827D01*
D02*
G37*
G36*
X1352D02*
X1351Y1827D01*
X1351Y1826D01*
X1350Y1826D01*
X1350Y1826D01*
X1350Y1825D01*
X1350Y1824D01*
X1350Y1823D01*
X1349Y1822D01*
X1349Y1821D01*
X1344D01*
X1343Y1822D01*
X1343Y1823D01*
X1343Y1824D01*
X1343Y1825D01*
X1343Y1826D01*
X1342Y1826D01*
X1342Y1826D01*
X1342Y1827D01*
X1341Y1827D01*
X1341Y1827D01*
X1352D01*
X1352Y1827D01*
D02*
G37*
G36*
X1873Y1434D02*
X1873Y1433D01*
X1873Y1432D01*
X1874Y1431D01*
X1874Y1430D01*
X1874Y1430D01*
X1874Y1429D01*
X1875Y1429D01*
X1875Y1429D01*
X1876Y1429D01*
X1864D01*
X1865Y1429D01*
X1865Y1429D01*
X1866Y1429D01*
X1866Y1430D01*
X1866Y1430D01*
X1867Y1431D01*
X1867Y1432D01*
X1867Y1433D01*
X1867Y1434D01*
X1867Y1435D01*
X1873D01*
X1873Y1434D01*
D02*
G37*
G36*
X1847Y1394D02*
X1847Y1394D01*
X1847Y1394D01*
X1846Y1394D01*
X1846Y1394D01*
X1846Y1394D01*
X1845Y1395D01*
X1845Y1395D01*
X1844Y1395D01*
X1843Y1395D01*
Y1401D01*
X1843Y1401D01*
X1845Y1401D01*
X1846Y1401D01*
X1846Y1401D01*
X1846Y1401D01*
X1847Y1401D01*
X1847Y1401D01*
X1847Y1402D01*
Y1394D01*
D02*
G37*
G36*
X2529Y1382D02*
X2528Y1382D01*
X2528Y1382D01*
X2528Y1381D01*
X2527Y1381D01*
X2527Y1380D01*
X2527Y1379D01*
X2527Y1378D01*
X2527Y1377D01*
X2527Y1376D01*
X2521D01*
X2521Y1377D01*
X2521Y1378D01*
X2520Y1379D01*
X2520Y1380D01*
X2520Y1381D01*
X2520Y1381D01*
X2519Y1382D01*
X2519Y1382D01*
X2518Y1382D01*
X2518Y1382D01*
X2530D01*
X2529Y1382D01*
D02*
G37*
G36*
X1790Y1341D02*
X1790Y1341D01*
X1789Y1340D01*
X1789Y1339D01*
X1789Y1339D01*
X1788Y1339D01*
X1788Y1339D01*
X1788Y1339D01*
X1784Y1344D01*
X1784Y1344D01*
X1784Y1344D01*
X1784Y1344D01*
X1784Y1344D01*
X1785Y1344D01*
X1785Y1344D01*
X1786Y1345D01*
X1786Y1346D01*
X1790Y1341D01*
D02*
G37*
G36*
X2154Y1234D02*
X2154Y1235D01*
X2154Y1235D01*
X2153Y1236D01*
X2153Y1236D01*
X2152Y1236D01*
X2152Y1237D01*
X2151Y1237D01*
X2150Y1237D01*
X2149Y1237D01*
X2148Y1237D01*
Y1243D01*
X2149Y1243D01*
X2150Y1243D01*
X2151Y1243D01*
X2152Y1244D01*
X2152Y1244D01*
X2153Y1244D01*
X2153Y1245D01*
X2154Y1245D01*
X2154Y1246D01*
X2154Y1246D01*
Y1234D01*
D02*
G37*
G36*
X1894Y1246D02*
X1894Y1245D01*
X1894Y1245D01*
X1895Y1244D01*
X1895Y1244D01*
X1896Y1244D01*
X1896Y1243D01*
X1897Y1243D01*
X1898Y1243D01*
X1899Y1243D01*
Y1237D01*
X1898Y1237D01*
X1897Y1237D01*
X1896Y1237D01*
X1896Y1237D01*
X1895Y1236D01*
X1895Y1236D01*
X1894Y1236D01*
X1894Y1235D01*
X1894Y1235D01*
X1894Y1234D01*
Y1246D01*
X1894Y1246D01*
D02*
G37*
G36*
X2155Y1103D02*
X2153Y1103D01*
X2152Y1103D01*
X2152Y1103D01*
X2151Y1102D01*
X2150Y1102D01*
X2150Y1101D01*
X2149Y1100D01*
X2149Y1099D01*
X2149Y1098D01*
X2149Y1097D01*
X2143D01*
X2143Y1098D01*
X2142Y1099D01*
X2142Y1100D01*
X2142Y1101D01*
X2141Y1102D01*
X2141Y1102D01*
X2140Y1103D01*
X2139Y1103D01*
X2138Y1103D01*
X2137Y1103D01*
X2146Y1109D01*
X2155Y1103D01*
D02*
G37*
%LPC*%
G36*
X1305Y2749D02*
X1236D01*
Y2739D01*
X1305D01*
Y2749D01*
D02*
G37*
G36*
Y2729D02*
X1236D01*
Y2720D01*
X1305D01*
Y2729D01*
D02*
G37*
G36*
Y2710D02*
X1236D01*
Y2700D01*
X1305D01*
Y2710D01*
D02*
G37*
G36*
Y2690D02*
X1236D01*
Y2680D01*
X1305D01*
Y2690D01*
D02*
G37*
G36*
Y2670D02*
X1236D01*
Y2661D01*
X1305D01*
Y2670D01*
D02*
G37*
G36*
Y2651D02*
X1236D01*
Y2641D01*
X1305D01*
Y2651D01*
D02*
G37*
G36*
Y2631D02*
X1236D01*
Y2621D01*
X1305D01*
Y2631D01*
D02*
G37*
G36*
Y2611D02*
X1236D01*
Y2601D01*
X1305D01*
Y2611D01*
D02*
G37*
G36*
X904Y2801D02*
X868D01*
Y2773D01*
X904D01*
Y2801D01*
D02*
G37*
G36*
X951Y2763D02*
X914D01*
Y2744D01*
X915D01*
X915Y2744D01*
X914Y2744D01*
Y2734D01*
X951D01*
Y2763D01*
D02*
G37*
G36*
X904D02*
X868D01*
Y2734D01*
X904D01*
Y2744D01*
X904Y2744D01*
X904Y2744D01*
X904D01*
Y2763D01*
D02*
G37*
G36*
X951Y2691D02*
X914D01*
Y2681D01*
X915Y2681D01*
X915Y2681D01*
X914D01*
Y2662D01*
X951D01*
Y2691D01*
D02*
G37*
G36*
X904D02*
X868D01*
Y2662D01*
X904D01*
Y2681D01*
X904D01*
X904Y2681D01*
X904Y2681D01*
Y2691D01*
D02*
G37*
G36*
X951Y2652D02*
X914D01*
Y2624D01*
X951D01*
Y2652D01*
D02*
G37*
G36*
X2211Y1439D02*
X2182D01*
Y1403D01*
X2211D01*
Y1439D01*
D02*
G37*
G36*
X2172D02*
X2144D01*
Y1403D01*
X2172D01*
Y1439D01*
D02*
G37*
G36*
X1584Y1425D02*
Y1390D01*
X1618D01*
X1618Y1396D01*
X1614Y1405D01*
X1607Y1414D01*
X1599Y1420D01*
X1589Y1424D01*
X1584Y1425D01*
D02*
G37*
G36*
X1574D02*
X1569Y1424D01*
X1559Y1420D01*
X1551Y1414D01*
X1545Y1405D01*
X1541Y1396D01*
X1540Y1390D01*
X1574D01*
Y1425D01*
D02*
G37*
G36*
X2211Y1393D02*
X2182D01*
Y1356D01*
X2211D01*
Y1393D01*
D02*
G37*
G36*
X2172D02*
X2144D01*
Y1356D01*
X2172D01*
Y1393D01*
D02*
G37*
%LPD*%
D17*
X4201Y2402D02*
D03*
X4185D02*
D03*
X4169D02*
D03*
X4154D02*
D03*
X4138D02*
D03*
X4122D02*
D03*
X4106D02*
D03*
X4091D02*
D03*
X4075D02*
D03*
X4201Y2417D02*
D03*
X4185D02*
D03*
X4169D02*
D03*
X4154D02*
D03*
X4138D02*
D03*
X4122D02*
D03*
X4106D02*
D03*
X4091D02*
D03*
X4075D02*
D03*
X4201Y2433D02*
D03*
X4185D02*
D03*
X4169D02*
D03*
X4106D02*
D03*
X4091D02*
D03*
X4075D02*
D03*
X4201Y2449D02*
D03*
X4185D02*
D03*
X4169D02*
D03*
X4106D02*
D03*
X4091D02*
D03*
X4075D02*
D03*
X4201Y2465D02*
D03*
X4185D02*
D03*
X4169D02*
D03*
X4106D02*
D03*
X4091D02*
D03*
X4075D02*
D03*
X4201Y2480D02*
D03*
X4185D02*
D03*
X4169D02*
D03*
X4106D02*
D03*
X4091D02*
D03*
X4075D02*
D03*
X4201Y2496D02*
D03*
X4185D02*
D03*
X4169D02*
D03*
X4106D02*
D03*
X4091D02*
D03*
X4075D02*
D03*
X4201Y2512D02*
D03*
X4185D02*
D03*
X4169D02*
D03*
X4154D02*
D03*
X4138D02*
D03*
X4122D02*
D03*
X4106D02*
D03*
X4091D02*
D03*
X4075D02*
D03*
X4201Y2528D02*
D03*
X4185D02*
D03*
X4169D02*
D03*
X4154D02*
D03*
X4138D02*
D03*
X4122D02*
D03*
X4106D02*
D03*
X4091D02*
D03*
X4075D02*
D03*
D18*
X427Y1579D02*
D03*
X453Y1579D02*
D03*
X478Y1579D02*
D03*
X427Y1492D02*
D03*
X453Y1492D02*
D03*
X478Y1492D02*
D03*
X431Y1177D02*
D03*
X457Y1177D02*
D03*
X482Y1177D02*
D03*
X431Y1091D02*
D03*
X457Y1091D02*
D03*
X482Y1091D02*
D03*
D19*
X1270Y2754D02*
D03*
Y2734D02*
D03*
Y2715D02*
D03*
Y2695D02*
D03*
Y2675D02*
D03*
Y2656D02*
D03*
Y2636D02*
D03*
Y2616D02*
D03*
Y2596D02*
D03*
Y2577D02*
D03*
Y2557D02*
D03*
Y2537D02*
D03*
Y2518D02*
D03*
Y2498D02*
D03*
Y2478D02*
D03*
Y2459D02*
D03*
X1714D02*
D03*
Y2478D02*
D03*
Y2498D02*
D03*
Y2518D02*
D03*
Y2537D02*
D03*
Y2557D02*
D03*
Y2577D02*
D03*
Y2596D02*
D03*
Y2616D02*
D03*
Y2636D02*
D03*
Y2656D02*
D03*
Y2675D02*
D03*
Y2695D02*
D03*
Y2715D02*
D03*
Y2734D02*
D03*
Y2754D02*
D03*
D20*
X1344Y2385D02*
D03*
X1364D02*
D03*
X1384D02*
D03*
X1404D02*
D03*
X1423D02*
D03*
X1443D02*
D03*
X1463D02*
D03*
X1482D02*
D03*
X1502D02*
D03*
X1522D02*
D03*
X1541D02*
D03*
X1561D02*
D03*
X1581D02*
D03*
X1600D02*
D03*
X1620D02*
D03*
X1640D02*
D03*
Y2828D02*
D03*
X1620D02*
D03*
X1600D02*
D03*
X1581D02*
D03*
X1561D02*
D03*
X1541D02*
D03*
X1522D02*
D03*
X1502D02*
D03*
X1482D02*
D03*
X1463D02*
D03*
X1443D02*
D03*
X1423D02*
D03*
X1404D02*
D03*
X1384D02*
D03*
X1364D02*
D03*
X1344D02*
D03*
D21*
X1504Y2091D02*
D03*
X1630D02*
D03*
D22*
X2524Y1406D02*
D03*
X2681D02*
D03*
X1642Y2236D02*
D03*
X1484D02*
D03*
X909Y2421D02*
D03*
X1067D02*
D03*
X909Y2657D02*
D03*
X1067D02*
D03*
X909Y2768D02*
D03*
X1067D02*
D03*
X1504Y1850D02*
D03*
X1346D02*
D03*
X339Y2378D02*
D03*
X181D02*
D03*
X339Y2602D02*
D03*
X181D02*
D03*
X339Y2827D02*
D03*
X181D02*
D03*
X1067Y2315D02*
D03*
X909D02*
D03*
X1067Y2539D02*
D03*
X909D02*
D03*
X1067Y2874D02*
D03*
X909D02*
D03*
X1520Y902D02*
D03*
X1362D02*
D03*
D23*
X2177Y1398D02*
D03*
Y1240D02*
D03*
X2114Y2346D02*
D03*
Y2189D02*
D03*
X1012Y1689D02*
D03*
Y1846D02*
D03*
Y1264D02*
D03*
Y1421D02*
D03*
X1020Y441D02*
D03*
Y598D02*
D03*
Y850D02*
D03*
Y1008D02*
D03*
X728Y1689D02*
D03*
Y1846D02*
D03*
Y1264D02*
D03*
Y1421D02*
D03*
X724Y441D02*
D03*
Y598D02*
D03*
X1874Y831D02*
D03*
Y988D02*
D03*
X724Y850D02*
D03*
Y1008D02*
D03*
X1870Y1240D02*
D03*
Y1398D02*
D03*
X2181Y988D02*
D03*
Y831D02*
D03*
D24*
X1965Y2307D02*
D03*
Y2244D02*
D03*
X1870Y2307D02*
D03*
Y2244D02*
D03*
D25*
X1453Y2969D02*
D03*
X1390D02*
D03*
X1614D02*
D03*
X1551D02*
D03*
X1287D02*
D03*
X1224D02*
D03*
X1709D02*
D03*
X1772D02*
D03*
D41*
X5154Y580D02*
X5227D01*
X1452Y2995D02*
X1457Y3000D01*
X1437Y2995D02*
X1452D01*
X1432Y2990D02*
X1437Y2995D01*
X1432Y2975D02*
Y2990D01*
X1425Y2969D02*
X1432Y2975D01*
X1390Y2969D02*
X1425D01*
X1234Y3020D02*
X1308D01*
X1224Y3010D02*
X1234Y3020D01*
X1224Y2969D02*
Y3010D01*
X1308Y3020D02*
Y3432D01*
Y2939D02*
Y3020D01*
X1228Y3512D02*
X1308Y3432D01*
X560Y2875D02*
X795D01*
X339Y2654D02*
X560Y2875D01*
X339Y2602D02*
Y2654D01*
X181Y2654D02*
X248Y2720D01*
X181Y2602D02*
Y2654D01*
X299Y2720D02*
X339Y2760D01*
X248Y2720D02*
X299D01*
X339Y2760D02*
Y2827D01*
X957Y1846D02*
X1012D01*
X799Y1689D02*
X957Y1846D01*
X728Y1689D02*
X799D01*
X728Y1846D02*
Y1897D01*
X484Y2142D02*
X728Y1897D01*
X130Y2142D02*
X484D01*
X135Y1902D02*
X251D01*
X98Y1864D02*
X135Y1902D01*
X98Y1864D02*
Y1864D01*
X92Y1858D02*
X98Y1864D01*
X92Y1826D02*
Y1858D01*
Y1826D02*
X114Y1803D01*
X378Y1492D02*
X427D01*
X114Y1756D02*
X378Y1492D01*
X114Y1756D02*
Y1803D01*
X249Y1091D02*
X431D01*
X67Y1273D02*
X249Y1091D01*
X67Y1273D02*
Y1961D01*
X724Y598D02*
Y646D01*
X413Y909D02*
X491Y832D01*
X538D01*
X413Y909D02*
X457Y953D01*
X538Y832D02*
X724Y646D01*
X413Y909D02*
X413D01*
X55Y1268D02*
X413Y909D01*
X768Y441D02*
X843Y516D01*
X724Y441D02*
X768D01*
X843Y516D02*
Y559D01*
X882Y598D01*
X2233Y1144D02*
X2441D01*
X2177Y1201D02*
X2233Y1144D01*
X2177Y1201D02*
Y1240D01*
X3858Y3499D02*
Y3579D01*
X3838Y3599D02*
X3858Y3579D01*
X4116Y1445D02*
X4138Y1467D01*
X4116Y1413D02*
Y1445D01*
Y1413D02*
X4138Y1391D01*
Y1346D02*
Y1391D01*
X2564Y3468D02*
Y3477D01*
X2541Y3499D02*
X2564Y3477D01*
X2533Y3499D02*
X2541D01*
X2528Y3504D02*
X2533Y3499D01*
X2469Y3504D02*
X2528D01*
X2564Y3468D02*
X2646Y3386D01*
X3567D01*
X4203Y2512D02*
Y2515D01*
X457Y953D02*
Y1091D01*
X55Y1268D02*
Y1966D01*
X4213Y2540D02*
Y3131D01*
Y2540D02*
X4213Y2540D01*
Y2534D02*
Y2540D01*
Y2534D02*
X4214Y2533D01*
X4213Y3131D02*
X4502Y3420D01*
X4214Y2522D02*
Y2533D01*
X4206Y2515D02*
X4214Y2522D01*
X4203Y2515D02*
X4206D01*
X4523Y3422D02*
X4536D01*
X4523Y3422D02*
X4523Y3422D01*
X4518Y3422D02*
X4523D01*
X4517Y3421D02*
X4518Y3422D01*
X4506Y3421D02*
X4517D01*
X4506Y3421D02*
X4506Y3421D01*
X4503Y3421D02*
X4506D01*
X4502Y3420D02*
X4503Y3421D01*
X4502Y3420D02*
X4502D01*
X4558Y3445D02*
Y3477D01*
X4536Y3422D02*
X4558Y3445D01*
X478Y1492D02*
X516D01*
X482Y1091D02*
X524D01*
X4217Y680D02*
X5154D01*
X3016Y1882D02*
X4217Y680D01*
X3016Y1882D02*
Y2198D01*
X3260Y2442D01*
X3816Y1445D02*
X4075Y1704D01*
X3816Y1436D02*
Y1445D01*
X3754Y1375D02*
X3816Y1436D01*
X1745Y3079D02*
X4343Y480D01*
X1270Y2754D02*
Y2782D01*
X1421Y2878D02*
X1423Y2876D01*
Y2828D02*
Y2876D01*
X4342Y2469D02*
X4819Y1991D01*
X4209Y2469D02*
X4342D01*
X4205Y2465D02*
X4209Y2469D01*
X4201Y2449D02*
X4247D01*
X4819Y1866D02*
Y1991D01*
X1404Y2770D02*
Y2828D01*
X1714Y2675D02*
Y2695D01*
X1384Y2385D02*
Y2423D01*
X1502Y2828D02*
Y2990D01*
Y2325D02*
Y2385D01*
X1527D02*
Y2413D01*
X3321Y2480D02*
X4075D01*
X4075Y2512D02*
X4075Y2512D01*
X4106Y2449D02*
X4106Y2449D01*
X3406Y2496D02*
X4075D01*
X4091Y2496D02*
X4091D01*
Y2480D02*
X4091Y2480D01*
X4106Y2465D02*
X4106Y2465D01*
X4106Y2433D02*
X4106D01*
X4106Y2480D02*
X4106Y2480D01*
X4138Y2512D02*
Y2512D01*
X4122Y2512D02*
X4122Y2512D01*
X4154Y2528D02*
Y3394D01*
X4169Y2465D02*
X4169D01*
X4169Y2449D02*
X4169D01*
X4169Y2480D02*
X4169D01*
X4185Y2496D02*
X4185D01*
X4203Y2498D02*
X4470D01*
X4185Y2465D02*
Y2465D01*
X4201Y2433D02*
X4246D01*
X4201Y2528D02*
Y3142D01*
X4185Y2528D02*
Y3226D01*
X4075Y2417D02*
X4075Y2417D01*
X3283Y2465D02*
X4075D01*
X3260Y2542D02*
X3321Y2480D01*
X4185Y2449D02*
Y2449D01*
Y2433D02*
Y2433D01*
X4138Y2417D02*
X4138Y2417D01*
X4122Y2417D02*
X4122Y2417D01*
X4106D02*
X4106D01*
X4091Y2512D02*
Y2512D01*
X4091Y2465D02*
X4091D01*
X3451Y2433D02*
X4075D01*
X4154Y1484D02*
Y2402D01*
X4138Y1467D02*
Y2402D01*
X4169Y1568D02*
Y2402D01*
X4185Y1653D02*
Y2402D01*
X4154Y2433D02*
X4154Y2433D01*
X4201Y1713D02*
Y2402D01*
X4169Y2528D02*
Y3310D01*
X4470Y2498D02*
X4961Y2008D01*
X4341Y2486D02*
X4890Y1937D01*
X4211Y2486D02*
X4341D01*
X4201Y2496D02*
X4203Y2498D01*
X4205Y2480D02*
X4211Y2486D01*
X4201Y2480D02*
X4205D01*
X4201Y2465D02*
X4205D01*
X4246Y2433D02*
X4678Y2001D01*
Y1725D02*
Y2001D01*
X4247Y2449D02*
X4748Y1947D01*
Y1796D02*
Y1947D01*
X4138Y2528D02*
Y3376D01*
X4122Y2528D02*
Y3358D01*
X4106Y2528D02*
Y3274D01*
X4091Y2417D02*
Y2417D01*
X4201Y2512D02*
X4203D01*
X4091Y2528D02*
Y3190D01*
X4075Y2528D02*
Y3106D01*
X4091Y1620D02*
Y2402D01*
X4169Y2417D02*
X4169Y2417D01*
X4091Y2433D02*
X4091D01*
X4169Y3310D02*
X4320Y3461D01*
X4154Y3394D02*
X4220Y3461D01*
X1598Y2826D02*
X1600Y2828D01*
X1270Y2754D02*
X1272Y2752D01*
X1441Y2768D02*
Y2826D01*
X1714Y2616D02*
X1716Y2614D01*
X909Y2657D02*
Y2768D01*
X4106Y1552D02*
Y2402D01*
X4075Y1704D02*
Y2402D01*
X5154Y680D02*
Y1674D01*
X478Y1492D02*
Y1579D01*
X478Y1579D02*
X478Y1579D01*
X2024Y831D02*
X2181Y988D01*
X1874Y831D02*
X2024D01*
X1831Y2307D02*
X1870D01*
X1807Y2283D02*
X1831Y2307D01*
X1754Y2283D02*
X1807D01*
X1598Y2323D02*
X1642D01*
X1561Y2246D02*
Y2385D01*
X1712Y2461D02*
X1714Y2459D01*
X1600Y2385D02*
X1605Y2390D01*
Y2413D01*
X1611Y2418D01*
X1649D02*
X1720Y2347D01*
X1611Y2418D02*
X1649D01*
X1654Y2430D02*
X1776Y2309D01*
X1544Y2430D02*
X1654D01*
X1242Y2444D02*
X2084D01*
X1720Y2317D02*
Y2347D01*
X1776Y2307D02*
Y2309D01*
X1016Y437D02*
X1020Y441D01*
X1465Y496D02*
X1571Y390D01*
X1465Y496D02*
Y617D01*
X1571Y390D02*
X1665D01*
X1287Y2921D02*
Y2969D01*
Y2921D02*
X1287Y2921D01*
X1401Y2768D02*
X1404Y2770D01*
X1308Y2939D02*
X1364Y2883D01*
Y2828D02*
Y2883D01*
X1362Y2902D02*
X1441D01*
X1606Y2689D02*
X1640Y2656D01*
X1714D01*
X1764Y2631D02*
X1893D01*
X1719D02*
X1764D01*
Y2665D01*
X1754Y2675D02*
X1764Y2665D01*
X1714Y2675D02*
X1754D01*
X1714Y2695D02*
Y2715D01*
X1480Y2830D02*
X1482Y2828D01*
X1480Y2830D02*
Y2937D01*
X1748Y1972D02*
X1795D01*
X2075Y2307D02*
X2114Y2346D01*
X1965Y2307D02*
X2075D01*
X2084Y2444D02*
X2564Y1964D01*
X1630Y2091D02*
X1748Y1972D01*
X1652Y2596D02*
X1714D01*
X1650Y2594D02*
X1652Y2596D01*
X1712Y2579D02*
X1714Y2577D01*
X1579Y2579D02*
X1712D01*
X1382Y2826D02*
X1384Y2828D01*
X1382Y2768D02*
Y2826D01*
X1404Y2828D02*
Y2884D01*
X1402Y2886D02*
X1404Y2884D01*
X1457Y3000D02*
Y3039D01*
X1484Y3067D01*
X1740D01*
X1581Y2828D02*
Y2883D01*
X1615Y2917D01*
X1681D01*
X1972Y2949D02*
X2125Y3102D01*
Y3461D01*
X1965Y2571D02*
Y2606D01*
X1941Y2528D02*
X1984Y2571D01*
Y2722D01*
X1772Y2935D02*
X1984Y2722D01*
X1931Y2537D02*
X1965Y2571D01*
X1714Y2537D02*
X1931D01*
X1911Y2498D02*
X1941Y2528D01*
X1628Y2518D02*
X1714D01*
X1626Y2520D02*
X1628Y2518D01*
X1528Y2736D02*
X1530Y2734D01*
X1492Y2772D02*
X1502Y2781D01*
X1445Y2772D02*
X1492D01*
X1441Y2768D02*
X1445Y2772D01*
X1530Y2734D02*
X1714D01*
X1572Y2557D02*
X1714D01*
X1330Y2799D02*
X1572Y2557D01*
X1330Y2799D02*
Y2816D01*
X1299Y2846D02*
X1330Y2816D01*
X1634Y2478D02*
X1714D01*
X1228Y2884D02*
X1634Y2478D01*
X1228Y2884D02*
Y2886D01*
X1625Y2833D02*
Y2868D01*
X1647Y2890D01*
X1701D01*
X3820Y3461D02*
X3858Y3499D01*
X3784Y3599D02*
X3838D01*
X3758Y3573D02*
X3784Y3599D01*
X3758Y3545D02*
Y3573D01*
X3736Y3522D02*
X3758Y3545D01*
X3687Y3522D02*
X3736D01*
X3562Y3398D02*
X3687Y3522D01*
X2689Y3398D02*
X3562D01*
X2664Y3423D02*
X2689Y3398D01*
X3567Y3386D02*
X3681Y3500D01*
X2664Y3423D02*
Y3477D01*
X2624Y3516D02*
X2664Y3477D01*
X2380Y3516D02*
X2624D01*
X2325Y3461D02*
X2380Y3516D01*
X3759Y3500D02*
X3820Y3561D01*
X3681Y3500D02*
X3759D01*
X4020Y3461D02*
Y3506D01*
X3981Y3545D02*
X4020Y3506D01*
X3633Y3374D02*
X3720Y3461D01*
X2612Y3374D02*
X3633D01*
X2787Y3522D02*
Y3577D01*
X2725Y3461D02*
X2787Y3522D01*
X2425Y3461D02*
X2469Y3504D01*
X2887Y3677D02*
X3906D01*
X2787Y3577D02*
X2887Y3677D01*
X2525Y3461D02*
X2612Y3374D01*
X3906Y3677D02*
X3981Y3601D01*
X3720Y3461D02*
X4075Y3106D01*
X2785Y2442D02*
X3260D01*
X2125Y3102D02*
X2785Y2442D01*
X1714Y2498D02*
X1911D01*
X1714Y2877D02*
X1772Y2935D01*
Y2969D01*
X1714Y2754D02*
Y2877D01*
X1701Y2890D02*
X1714Y2877D01*
X1620Y2828D02*
X1625Y2833D01*
X1520Y2826D02*
X1522Y2828D01*
X1520Y2772D02*
Y2826D01*
X2012Y2382D02*
X2047Y2346D01*
X2114D01*
X1714Y2636D02*
X1719Y2631D01*
X1893D02*
X1894Y2630D01*
X346Y2480D02*
X594D01*
X244Y2378D02*
X346Y2480D01*
X181Y2378D02*
X244D01*
X1502Y2781D02*
Y2828D01*
X1441Y2826D02*
X1443Y2828D01*
X1415Y2427D02*
X1463D01*
X1404Y2415D02*
X1415Y2427D01*
X1642Y2323D02*
Y2383D01*
Y2236D02*
Y2323D01*
X1500D02*
X1502Y2325D01*
X1527Y2413D02*
X1544Y2430D01*
X1720Y2317D02*
X1754Y2283D01*
X1012Y1264D02*
X1094D01*
X1122Y1291D01*
X1843Y1398D02*
X1870D01*
X1783Y1339D02*
X1843Y1398D01*
X728Y1421D02*
X878D01*
X917Y1382D01*
X724Y1008D02*
X827D01*
X1423Y2385D02*
X1443D01*
X1423Y2337D02*
Y2385D01*
X1413Y2327D02*
X1423Y2337D01*
X1390Y2327D02*
X1413D01*
X1384Y2333D02*
X1390Y2327D01*
X1384Y2333D02*
Y2385D01*
X1468Y2432D02*
X1488D01*
X1463Y2427D02*
X1468Y2432D01*
X1488D02*
X1502Y2418D01*
X1463Y2385D02*
Y2427D01*
X1404Y2385D02*
Y2415D01*
X1502Y2385D02*
Y2418D01*
X1522Y2385D02*
X1527D01*
X1768Y2236D02*
X1776Y2244D01*
X1642Y2236D02*
X1768D01*
X1870Y1398D02*
Y1598D01*
X1344Y2124D02*
X1870Y1598D01*
X1344Y2124D02*
Y2385D01*
X1630Y2091D02*
X2016D01*
X2114Y2189D01*
X401Y2242D02*
X787Y1855D01*
Y1838D02*
Y1855D01*
X756Y1806D02*
X787Y1838D01*
X701Y1806D02*
X756D01*
X323Y1846D02*
X728D01*
X673Y1835D02*
X701Y1806D01*
X318Y1835D02*
X673D01*
X130Y2242D02*
X401D01*
X110Y2311D02*
X354D01*
X831Y1835D01*
X251Y1902D02*
X318Y1835D01*
X79Y1891D02*
X130Y1942D01*
X79Y1642D02*
Y1891D01*
Y1642D02*
X482Y1238D01*
X67Y1961D02*
X94Y1988D01*
X55Y1966D02*
X130Y2040D01*
Y2042D01*
X2146Y1106D02*
X2453D01*
X1978D02*
X2146D01*
Y1050D02*
Y1106D01*
X1997Y902D02*
X2146Y1050D01*
X1843Y902D02*
X1997D01*
X1811Y869D02*
X1843Y902D01*
X1811Y535D02*
Y869D01*
X1665Y390D02*
X1811Y535D01*
X1465Y617D02*
X1508Y660D01*
X1591D01*
X1291Y460D02*
X1420Y331D01*
X1827D01*
X2441Y944D01*
X1799Y874D02*
X1839Y913D01*
X1799Y769D02*
Y874D01*
X1591Y560D02*
X1799Y769D01*
X1685Y1094D02*
X1886D01*
X1394Y1385D02*
X1685Y1094D01*
X1279Y1385D02*
X1394D01*
X1756Y988D02*
X1874D01*
X1413Y1331D02*
X1756Y988D01*
X575Y1331D02*
X1413D01*
X1846Y1142D02*
X1925D01*
X1705Y1283D02*
X1846Y1142D01*
X1657Y1283D02*
X1705D01*
X1882Y1154D02*
X1930D01*
X1669Y1366D02*
X1882Y1154D01*
X1669Y1366D02*
Y1495D01*
X1925Y1142D02*
X1992Y1075D01*
Y913D02*
Y1075D01*
X1839Y913D02*
X1992D01*
X1594Y1347D02*
X1657Y1283D01*
X1563Y1347D02*
X1594D01*
X1556Y1354D02*
X1563Y1347D01*
X1496Y1354D02*
X1556D01*
X1930Y1154D02*
X1978Y1106D01*
X2453D02*
X2563Y996D01*
X1886Y1094D02*
X1945Y1035D01*
Y991D02*
Y1035D01*
X1421Y1429D02*
X1496Y1354D01*
X1421Y1429D02*
Y1846D01*
X1894Y941D02*
X1945Y991D01*
X1772Y941D02*
X1894D01*
X1705Y1008D02*
X1772Y941D01*
X1441Y1008D02*
X1705D01*
X1441Y610D02*
Y1008D01*
X1291Y460D02*
X1441Y610D01*
X1579Y1585D02*
X1669Y1495D01*
X2563Y996D02*
X2746D01*
X2779Y1029D01*
Y1060D01*
X2756Y1083D02*
X2779Y1060D01*
X2653Y1083D02*
X2756D01*
X2646Y1091D02*
X2653Y1083D01*
X2646Y1091D02*
Y1122D01*
X2668Y1144D01*
X2741D01*
X4343Y480D02*
X5154D01*
X1452Y3079D02*
X1745D01*
X1441Y2902D02*
X1453Y2913D01*
X1346Y2917D02*
X1362Y2902D01*
X1346Y2917D02*
Y2973D01*
X1452Y3079D01*
X4293Y1391D02*
Y1445D01*
Y1391D02*
X4354Y1329D01*
X4193Y1391D02*
Y1445D01*
Y1391D02*
X4254Y1329D01*
X4169Y1568D02*
X4293Y1445D01*
X4185Y1653D02*
X4393Y1445D01*
X2741Y1144D02*
X3605Y280D01*
X5154D01*
X2441Y944D02*
X3205Y180D01*
X5154D01*
X1457Y3000D02*
X1492D01*
X4427Y380D02*
X5154D01*
X1740Y3067D02*
X4427Y380D01*
X1492Y3000D02*
X1502Y2990D01*
X1463Y2828D02*
Y2904D01*
X1453Y2913D02*
X1463Y2904D01*
X1453Y2913D02*
Y2969D01*
X1463Y2828D02*
X1482D01*
X1551Y2921D02*
Y2969D01*
X1541Y2911D02*
X1551Y2921D01*
X1541Y2828D02*
Y2911D01*
X1561Y2828D02*
Y2880D01*
X1614Y2933D01*
Y2969D01*
X795Y2875D02*
X849Y2929D01*
X1248D01*
X1287Y2969D01*
X854Y2917D02*
X1169D01*
X807Y2870D02*
X854Y2917D01*
X807Y2692D02*
Y2870D01*
Y2692D02*
X916Y2584D01*
X1169Y2917D02*
X1350Y2736D01*
X1000Y2504D02*
X1067Y2437D01*
Y2421D02*
Y2437D01*
X1000Y2504D02*
Y2533D01*
X950Y2584D02*
X1000Y2533D01*
X916Y2584D02*
X950D01*
X1350Y2476D02*
Y2736D01*
X1333Y2459D02*
X1350Y2476D01*
X1270Y2459D02*
X1333D01*
X1179Y2507D02*
X1242Y2444D01*
X1237Y2548D02*
Y2567D01*
Y2548D02*
X1247Y2537D01*
X1270D01*
X1067Y2874D02*
X1123Y2818D01*
X1067Y2874D02*
X1067Y2874D01*
X1123Y2685D02*
Y2818D01*
X1237Y2567D02*
Y2571D01*
X1123Y2685D02*
X1237Y2571D01*
X831Y2528D02*
X874Y2572D01*
X831Y2394D02*
Y2528D01*
Y2394D02*
X909Y2315D01*
X988Y2296D02*
Y2528D01*
X945Y2572D02*
X988Y2528D01*
X874Y2572D02*
X945D01*
X988Y2296D02*
X1453Y1832D01*
Y1612D02*
Y1832D01*
Y1612D02*
X1579Y1485D01*
X909Y2835D02*
Y2874D01*
Y2835D02*
X1027Y2718D01*
Y2512D02*
Y2718D01*
Y2512D02*
X1032Y2507D01*
X1179D01*
X2564Y1070D02*
Y1964D01*
Y1070D02*
X2589Y1044D01*
X2741D01*
X94Y1988D02*
X181D01*
X323Y1846D01*
X1504Y1761D02*
X1579Y1685D01*
X1504Y1761D02*
Y1850D01*
X1279Y1685D02*
X1346Y1753D01*
Y1850D01*
X1776Y2244D02*
X1870D01*
X1965D01*
X2020Y2189D01*
X2114D01*
X1525Y2210D02*
X1561Y2246D01*
X1525Y2209D02*
Y2210D01*
X1504Y2188D02*
X1525Y2209D01*
X1504Y2091D02*
Y2188D01*
X1640Y2385D02*
X1642Y2383D01*
X1482Y2238D02*
X1484Y2236D01*
X1482Y2238D02*
Y2385D01*
X1067Y2768D02*
Y2874D01*
X1067Y2657D02*
X1226Y2498D01*
X1067Y2657D02*
X1067Y2657D01*
X1226Y2498D02*
X1270D01*
X1067Y2539D02*
Y2657D01*
X1067Y2421D02*
X1067Y2421D01*
Y2315D02*
Y2421D01*
X480Y2969D02*
X1224D01*
X339Y2827D02*
X480Y2969D01*
X181Y2748D02*
Y2827D01*
X71Y2638D02*
X181Y2748D01*
X71Y2350D02*
Y2638D01*
Y2350D02*
X110Y2311D01*
X831Y1764D02*
Y1835D01*
X661Y1764D02*
X831D01*
X602Y1705D02*
X661Y1764D01*
X602Y1496D02*
Y1705D01*
X531Y1425D02*
X602Y1496D01*
X476Y1425D02*
X531D01*
X453Y1449D02*
X476Y1425D01*
X453Y1449D02*
Y1492D01*
Y1515D01*
X130Y1838D02*
X453Y1515D01*
X130Y1838D02*
Y1842D01*
X728Y1374D02*
Y1421D01*
X713Y1358D02*
X728Y1374D01*
X492Y1358D02*
X713D01*
X427Y1423D02*
X492Y1358D01*
X427Y1423D02*
Y1492D01*
X1279Y1485D02*
Y1489D01*
X1012Y1757D02*
X1279Y1489D01*
X1012Y1757D02*
Y1846D01*
X909Y2539D02*
X953D01*
X976Y2516D01*
Y2291D02*
Y2516D01*
Y2291D02*
X1421Y1846D01*
X1520Y831D02*
X1591Y760D01*
X1520Y831D02*
Y902D01*
X1291Y760D02*
X1362Y831D01*
Y902D01*
X1020Y598D02*
X1253D01*
X1291Y560D01*
X882Y598D02*
X1020D01*
X1101Y850D02*
X1291Y660D01*
X1020Y850D02*
X1101D01*
X724D02*
X1020D01*
X482Y1238D02*
X575Y1331D01*
X482Y1177D02*
Y1238D01*
X728Y1264D02*
X1012D01*
X1870Y1240D02*
X2177D01*
X2181Y988D02*
X2237Y1044D01*
X2441D01*
Y1244D02*
X2524Y1328D01*
Y1406D01*
X2681Y1304D02*
X2741Y1244D01*
X2681Y1304D02*
Y1406D01*
X3981Y3545D02*
Y3601D01*
X4154Y2433D02*
X4169D01*
X4169Y2449D02*
X4169Y2449D01*
X4169Y2465D02*
X4169Y2465D01*
X4169Y2480D02*
X4169Y2480D01*
X4185Y2496D02*
X4185Y2496D01*
Y3226D02*
X4420Y3461D01*
X4091Y2433D02*
X4091Y2433D01*
X4091Y2417D02*
X4091Y2417D01*
X4091Y2465D02*
X4091Y2465D01*
X4091Y2496D02*
X4091Y2496D01*
X4122Y1551D02*
Y2402D01*
X4520Y3515D02*
Y3561D01*
Y3515D02*
X4558Y3477D01*
X4201Y3142D02*
X4520Y3461D01*
X3260Y2642D02*
X3406Y2496D01*
X3260Y2242D02*
X3451Y2433D01*
X3260Y2442D02*
X3283Y2465D01*
X3820Y3461D02*
X4091Y3190D01*
X3920Y3461D02*
X4106Y3274D01*
X4020Y3461D02*
X4122Y3358D01*
X4120Y3394D02*
Y3461D01*
Y3394D02*
X4138Y3376D01*
X4470Y1468D02*
X4500Y1438D01*
Y1383D02*
Y1438D01*
Y1383D02*
X4554Y1329D01*
X4446Y1468D02*
X4470D01*
X4201Y1713D02*
X4446Y1468D01*
X3916Y1445D02*
X4091Y1620D01*
X3916Y1436D02*
Y1445D01*
X3854Y1375D02*
X3916Y1436D01*
X4004Y1450D02*
X4106Y1552D01*
X4004Y1425D02*
Y1450D01*
X3954Y1375D02*
X4004Y1425D01*
X3754Y1329D02*
Y1375D01*
X3854Y1329D02*
Y1375D01*
X3954Y1329D02*
Y1375D01*
X4054Y1329D02*
Y1375D01*
X4016Y1413D02*
X4054Y1375D01*
X4016Y1413D02*
Y1445D01*
X4122Y1551D01*
X4138Y1346D02*
X4154Y1329D01*
X4154Y1484D02*
X4193Y1445D01*
X4393Y1391D02*
X4454Y1329D01*
X4393Y1391D02*
Y1445D01*
X4469Y3509D02*
Y3564D01*
X4504Y3599D01*
X4536D02*
X4574Y3561D01*
X4636D01*
X4504Y3599D02*
X4536D01*
X4636Y3561D02*
X5154Y3043D01*
X4420Y3461D02*
X4469Y3509D01*
X5154Y1674D02*
Y3043D01*
X4890Y1937D02*
X5154Y1674D01*
D42*
X2741Y944D02*
D03*
Y1044D02*
D03*
Y1144D02*
D03*
Y1244D02*
D03*
X2441Y944D02*
D03*
Y1044D02*
D03*
Y1144D02*
D03*
X4554Y1429D02*
D03*
X4454D02*
D03*
X4354D02*
D03*
X4254D02*
D03*
X4154D02*
D03*
X4054D02*
D03*
X3954D02*
D03*
X3854D02*
D03*
X3754D02*
D03*
X4554Y1329D02*
D03*
X4454D02*
D03*
X4354D02*
D03*
X4254D02*
D03*
X4154D02*
D03*
X4054D02*
D03*
X3954D02*
D03*
X3854D02*
D03*
X3025Y3561D02*
D03*
Y3461D02*
D03*
X2925Y3561D02*
D03*
Y3461D02*
D03*
X2825Y3561D02*
D03*
Y3461D02*
D03*
X2725Y3561D02*
D03*
Y3461D02*
D03*
X2625Y3561D02*
D03*
Y3461D02*
D03*
X2525Y3561D02*
D03*
Y3461D02*
D03*
X2425Y3561D02*
D03*
Y3461D02*
D03*
X2325Y3561D02*
D03*
Y3461D02*
D03*
X2225Y3561D02*
D03*
Y3461D02*
D03*
X2125Y3561D02*
D03*
X5154Y280D02*
D03*
Y380D02*
D03*
Y480D02*
D03*
Y580D02*
D03*
Y680D02*
D03*
X3598Y1725D02*
D03*
X3527Y1796D02*
D03*
X3456Y1866D02*
D03*
X3386Y1937D02*
D03*
X628Y3512D02*
D03*
X728D02*
D03*
X828D02*
D03*
X928D02*
D03*
X1028D02*
D03*
X1128D02*
D03*
X1228D02*
D03*
X1328D02*
D03*
X1428D02*
D03*
X1528D02*
D03*
X1628D02*
D03*
X130Y2142D02*
D03*
Y2042D02*
D03*
Y1942D02*
D03*
Y1842D02*
D03*
X1279Y1585D02*
D03*
Y1485D02*
D03*
Y1385D02*
D03*
X1579Y1685D02*
D03*
Y1585D02*
D03*
Y1485D02*
D03*
Y1385D02*
D03*
X1291Y660D02*
D03*
Y560D02*
D03*
Y460D02*
D03*
X1591Y760D02*
D03*
Y660D02*
D03*
Y560D02*
D03*
Y460D02*
D03*
X3820Y3461D02*
D03*
X3920D02*
D03*
X4020D02*
D03*
X4120D02*
D03*
X4220D02*
D03*
X4320D02*
D03*
X4420D02*
D03*
X4520D02*
D03*
X3720Y3561D02*
D03*
X3820D02*
D03*
X3920D02*
D03*
X4020D02*
D03*
X4120D02*
D03*
X4220D02*
D03*
X4320D02*
D03*
X4420D02*
D03*
X4520D02*
D03*
X3260Y2542D02*
D03*
Y2442D02*
D03*
Y2342D02*
D03*
Y2242D02*
D03*
X3520Y3106D02*
D03*
X3449Y3036D02*
D03*
X3378Y2965D02*
D03*
X3308Y2894D02*
D03*
X5008Y2542D02*
D03*
Y2442D02*
D03*
Y2342D02*
D03*
Y2242D02*
D03*
X4724Y3106D02*
D03*
X4795Y3036D02*
D03*
X4866Y2965D02*
D03*
X4936Y2894D02*
D03*
X4890Y1937D02*
D03*
X4819Y1866D02*
D03*
X4748Y1796D02*
D03*
X4678Y1725D02*
D03*
D43*
X2441Y1244D02*
D03*
X3754Y1329D02*
D03*
X2125Y3461D02*
D03*
X528Y3512D02*
D03*
X1279Y1685D02*
D03*
X1291Y760D02*
D03*
X3720Y3461D02*
D03*
D44*
X5154Y180D02*
D03*
X130Y2242D02*
D03*
X3260Y2642D02*
D03*
X5008D02*
D03*
D45*
X3315Y2008D02*
D03*
X4654Y3177D02*
D03*
D46*
X3591D02*
D03*
X4961Y2008D02*
D03*
D47*
X5227Y580D02*
D03*
X516Y1492D02*
D03*
X524Y1091D02*
D03*
X1270Y2782D02*
D03*
X1421Y2878D02*
D03*
X4106Y2449D02*
D03*
X4091Y2496D02*
D03*
X4091Y2480D02*
D03*
X4106Y2465D02*
D03*
X4106Y2433D02*
D03*
X4106Y2480D02*
D03*
X4138Y2512D02*
D03*
X4122Y2512D02*
D03*
X4169Y2465D02*
D03*
Y2449D02*
D03*
Y2480D02*
D03*
X4185Y2496D02*
D03*
X4185Y2512D02*
D03*
Y2465D02*
D03*
X4169Y2512D02*
D03*
X4075Y2417D02*
D03*
X4185Y2449D02*
D03*
Y2433D02*
D03*
X4154Y2417D02*
D03*
X4138Y2417D02*
D03*
X4122Y2417D02*
D03*
X4106Y2417D02*
D03*
X4106Y2496D02*
D03*
Y2512D02*
D03*
X4091Y2512D02*
D03*
X4091Y2465D02*
D03*
Y2449D02*
D03*
X4154Y2433D02*
D03*
X4185Y2417D02*
D03*
Y2480D02*
D03*
X4169Y2496D02*
D03*
X4154Y2512D02*
D03*
X4091Y2417D02*
D03*
X4169Y2417D02*
D03*
X4091Y2433D02*
D03*
X1287Y2921D02*
D03*
X1401Y2768D02*
D03*
X1606Y2689D02*
D03*
X1480Y2937D02*
D03*
X1795Y1972D02*
D03*
X1650Y2594D02*
D03*
X1579Y2579D02*
D03*
X1382Y2768D02*
D03*
X1402Y2886D02*
D03*
X1681Y2917D02*
D03*
X1972Y2949D02*
D03*
X1965Y2606D02*
D03*
X1941Y2528D02*
D03*
X1626Y2520D02*
D03*
X1528Y2736D02*
D03*
X1299Y2846D02*
D03*
X1228Y2886D02*
D03*
X1520Y2772D02*
D03*
X2012Y2382D02*
D03*
X1894Y2630D02*
D03*
X594Y2480D02*
D03*
X1441Y2768D02*
D03*
X1384Y2423D02*
D03*
X1500Y2323D02*
D03*
X1598D02*
D03*
X1122Y1291D02*
D03*
X1279Y1585D02*
D03*
X1783Y1339D02*
D03*
X917Y1382D02*
D03*
X827Y1008D02*
D03*
M02*
