G04*
G04 #@! TF.GenerationSoftware,Altium Limited,Altium Designer,18.0.12 (696)*
G04*
G04 Layer_Physical_Order=2*
G04 Layer_Color=6736896*
%FSLAX23Y23*%
%MOIN*%
G70*
G01*
G75*
%ADD41C,0.006*%
%ADD42C,0.059*%
%ADD43R,0.059X0.059*%
%ADD45P,0.084X4X360.0*%
%ADD46P,0.084X4X270.0*%
%ADD47C,0.010*%
G36*
X3842Y3541D02*
X3841Y3538D01*
X3840Y3535D01*
X3839Y3533D01*
X3838Y3530D01*
X3838Y3528D01*
X3839Y3526D01*
X3839Y3524D01*
X3840Y3522D01*
X3842Y3520D01*
X3835Y3519D01*
X3806Y3535D01*
X3844Y3544D01*
X3842Y3541D01*
D02*
G37*
G36*
X558Y3517D02*
X558Y3517D01*
X558Y3516D01*
X559Y3516D01*
X559Y3516D01*
X560Y3515D01*
X561Y3515D01*
X561Y3515D01*
X563Y3515D01*
X564Y3515D01*
Y3509D01*
X563Y3509D01*
X561Y3509D01*
X561Y3509D01*
X560Y3508D01*
X559Y3508D01*
X559Y3508D01*
X558Y3507D01*
X558Y3507D01*
X558Y3506D01*
X558Y3506D01*
Y3518D01*
X558Y3517D01*
D02*
G37*
G36*
X1416Y3485D02*
X1414Y3486D01*
X1413Y3486D01*
X1412Y3486D01*
X1411Y3486D01*
X1409Y3486D01*
X1408Y3486D01*
X1407Y3485D01*
X1406Y3485D01*
X1405Y3484D01*
X1404Y3483D01*
X1399Y3487D01*
X1400Y3488D01*
X1401Y3489D01*
X1402Y3490D01*
X1402Y3492D01*
X1403Y3493D01*
X1403Y3494D01*
X1403Y3495D01*
X1403Y3496D01*
X1402Y3498D01*
X1402Y3499D01*
X1416Y3485D01*
D02*
G37*
G36*
X1558Y3507D02*
X1559Y3495D01*
X1559Y3491D01*
X1560Y3488D01*
X1561Y3486D01*
X1562Y3484D01*
X1563Y3482D01*
X1564Y3481D01*
X1560Y3476D01*
X1558Y3478D01*
X1556Y3479D01*
X1554Y3480D01*
X1552Y3480D01*
X1549Y3481D01*
X1545Y3481D01*
X1538Y3482D01*
X1533Y3482D01*
X1529Y3482D01*
X1558Y3512D01*
X1558Y3507D01*
D02*
G37*
G36*
X658D02*
X659Y3495D01*
X659Y3491D01*
X660Y3488D01*
X661Y3486D01*
X662Y3484D01*
X663Y3482D01*
X664Y3481D01*
X660Y3476D01*
X658Y3478D01*
X656Y3479D01*
X654Y3480D01*
X652Y3480D01*
X649Y3481D01*
X645Y3481D01*
X638Y3482D01*
X633Y3482D01*
X629Y3482D01*
X658Y3512D01*
X658Y3507D01*
D02*
G37*
G36*
X1646Y3487D02*
X1638Y3478D01*
X1636Y3476D01*
X1634Y3473D01*
X1633Y3471D01*
X1632Y3469D01*
X1631Y3467D01*
X1631Y3465D01*
X1625D01*
X1625Y3467D01*
X1625Y3469D01*
X1624Y3471D01*
X1623Y3473D01*
X1621Y3476D01*
X1619Y3478D01*
X1614Y3484D01*
X1611Y3487D01*
X1608Y3491D01*
X1649D01*
X1646Y3487D01*
D02*
G37*
G36*
X1146D02*
X1138Y3478D01*
X1136Y3476D01*
X1134Y3473D01*
X1133Y3471D01*
X1132Y3469D01*
X1131Y3467D01*
X1131Y3465D01*
X1125D01*
X1125Y3467D01*
X1125Y3469D01*
X1124Y3471D01*
X1123Y3473D01*
X1121Y3476D01*
X1119Y3478D01*
X1114Y3484D01*
X1111Y3487D01*
X1108Y3491D01*
X1149D01*
X1146Y3487D01*
D02*
G37*
G36*
X1046D02*
X1038Y3478D01*
X1036Y3476D01*
X1034Y3473D01*
X1033Y3471D01*
X1032Y3469D01*
X1031Y3467D01*
X1031Y3465D01*
X1025D01*
X1025Y3467D01*
X1025Y3469D01*
X1024Y3471D01*
X1023Y3473D01*
X1021Y3476D01*
X1019Y3478D01*
X1014Y3484D01*
X1011Y3487D01*
X1008Y3491D01*
X1049D01*
X1046Y3487D01*
D02*
G37*
G36*
X946D02*
X938Y3478D01*
X936Y3476D01*
X934Y3473D01*
X933Y3471D01*
X932Y3469D01*
X931Y3467D01*
X931Y3465D01*
X925D01*
X925Y3467D01*
X925Y3469D01*
X924Y3471D01*
X923Y3473D01*
X921Y3476D01*
X919Y3478D01*
X914Y3484D01*
X911Y3487D01*
X908Y3491D01*
X949D01*
X946Y3487D01*
D02*
G37*
G36*
X846D02*
X838Y3478D01*
X836Y3476D01*
X834Y3473D01*
X833Y3471D01*
X832Y3469D01*
X831Y3467D01*
X831Y3465D01*
X825D01*
X825Y3467D01*
X825Y3469D01*
X824Y3471D01*
X823Y3473D01*
X821Y3476D01*
X819Y3478D01*
X814Y3484D01*
X811Y3487D01*
X808Y3491D01*
X849D01*
X846Y3487D01*
D02*
G37*
G36*
X3596Y3141D02*
X3595Y3141D01*
X3595Y3141D01*
X3595Y3140D01*
X3594Y3139D01*
X3594Y3138D01*
X3594Y3137D01*
X3594Y3136D01*
X3594Y3133D01*
X3588D01*
X3588Y3134D01*
X3587Y3137D01*
X3587Y3138D01*
X3587Y3139D01*
X3587Y3140D01*
X3586Y3141D01*
X3586Y3141D01*
X3585Y3141D01*
X3585Y3141D01*
X3596D01*
X3596Y3141D01*
D02*
G37*
G36*
X3537Y3082D02*
X3529Y3073D01*
X3527Y3070D01*
X3526Y3068D01*
X3524Y3065D01*
X3524Y3063D01*
X3523Y3061D01*
X3523Y3059D01*
X3517D01*
X3517Y3061D01*
X3516Y3063D01*
X3515Y3065D01*
X3514Y3068D01*
X3512Y3070D01*
X3511Y3073D01*
X3506Y3079D01*
X3503Y3082D01*
X3499Y3085D01*
X3541D01*
X3537Y3082D01*
D02*
G37*
G36*
X3403Y2982D02*
X3412Y2974D01*
X3415Y2972D01*
X3417Y2971D01*
X3420Y2970D01*
X3422Y2969D01*
X3424Y2968D01*
X3426Y2968D01*
Y2962D01*
X3424Y2962D01*
X3422Y2961D01*
X3420Y2960D01*
X3417Y2959D01*
X3415Y2958D01*
X3412Y2956D01*
X3406Y2951D01*
X3403Y2948D01*
X3400Y2944D01*
Y2986D01*
X3403Y2982D01*
D02*
G37*
G36*
X1977Y2949D02*
X1977Y2948D01*
X1978Y2948D01*
X1978Y2948D01*
X1978Y2948D01*
X1978Y2947D01*
X1979Y2946D01*
X1979Y2946D01*
X1975Y2942D01*
X1975Y2942D01*
X1974Y2943D01*
X1973Y2944D01*
X1973Y2944D01*
X1973Y2944D01*
X1973Y2944D01*
X1972Y2944D01*
X1977Y2949D01*
X1977Y2949D01*
D02*
G37*
G36*
X1684Y2924D02*
X1684Y2922D01*
X1684Y2922D01*
X1684Y2921D01*
X1684Y2921D01*
X1684Y2921D01*
X1685Y2921D01*
X1678D01*
X1678Y2921D01*
X1678Y2921D01*
X1678Y2921D01*
X1678Y2922D01*
X1678Y2922D01*
X1678Y2923D01*
X1678Y2924D01*
X1678Y2924D01*
X1684D01*
X1684Y2924D01*
D02*
G37*
G36*
X1405Y2892D02*
X1405Y2890D01*
X1405Y2890D01*
X1405Y2890D01*
X1405Y2890D01*
X1405Y2889D01*
X1405Y2889D01*
X1398D01*
X1398Y2889D01*
X1398Y2890D01*
X1398Y2890D01*
X1398Y2890D01*
X1398Y2890D01*
X1399Y2891D01*
X1399Y2892D01*
X1399Y2893D01*
X1405D01*
X1405Y2892D01*
D02*
G37*
G36*
X1226Y2892D02*
X1227Y2891D01*
X1228Y2891D01*
X1228Y2891D01*
X1228Y2891D01*
X1228Y2891D01*
X1228Y2891D01*
X1223Y2886D01*
X1223Y2886D01*
X1223Y2886D01*
X1223Y2886D01*
X1223Y2887D01*
X1223Y2887D01*
X1222Y2888D01*
X1222Y2888D01*
X1221Y2889D01*
X1226Y2893D01*
X1226Y2892D01*
D02*
G37*
G36*
X3332Y2912D02*
X3341Y2904D01*
X3344Y2902D01*
X3346Y2900D01*
X3349Y2899D01*
X3351Y2898D01*
X3353Y2897D01*
X3355Y2897D01*
Y2891D01*
X3353Y2891D01*
X3351Y2891D01*
X3349Y2890D01*
X3346Y2889D01*
X3344Y2887D01*
X3341Y2885D01*
X3335Y2880D01*
X3332Y2877D01*
X3329Y2874D01*
Y2915D01*
X3332Y2912D01*
D02*
G37*
G36*
X1296Y2843D02*
X1296Y2843D01*
X1295Y2843D01*
X1295Y2843D01*
X1295Y2843D01*
X1295Y2843D01*
X1294Y2843D01*
X1293Y2843D01*
X1292Y2844D01*
Y2849D01*
X1293Y2849D01*
X1295Y2850D01*
X1295Y2850D01*
X1295Y2850D01*
X1295Y2850D01*
X1296Y2850D01*
X1296Y2850D01*
Y2843D01*
D02*
G37*
G36*
X1523Y2775D02*
X1523Y2775D01*
X1524Y2775D01*
X1524Y2775D01*
X1524Y2775D01*
X1525Y2775D01*
X1526Y2775D01*
X1527Y2775D01*
Y2769D01*
X1526Y2769D01*
X1524Y2769D01*
X1524Y2769D01*
X1524Y2768D01*
X1523Y2768D01*
X1523Y2768D01*
X1523Y2768D01*
Y2775D01*
X1523Y2775D01*
D02*
G37*
G36*
X1444Y2764D02*
X1444Y2764D01*
X1444Y2764D01*
X1444Y2763D01*
X1444Y2763D01*
X1444Y2762D01*
X1444Y2761D01*
X1444Y2761D01*
X1438D01*
X1438Y2761D01*
X1438Y2763D01*
X1438Y2763D01*
X1438Y2764D01*
X1438Y2764D01*
X1438Y2764D01*
X1438Y2764D01*
X1444D01*
X1444Y2764D01*
D02*
G37*
G36*
X1524Y2733D02*
X1524Y2733D01*
X1524Y2733D01*
X1524Y2733D01*
X1523Y2733D01*
X1523Y2733D01*
X1522Y2733D01*
X1521Y2733D01*
X1521Y2733D01*
Y2739D01*
X1521Y2739D01*
X1523Y2739D01*
X1523Y2739D01*
X1524Y2739D01*
X1524Y2739D01*
X1524Y2740D01*
X1524Y2740D01*
Y2733D01*
D02*
G37*
G36*
X1604Y2696D02*
X1605Y2694D01*
X1605Y2694D01*
X1606Y2694D01*
X1606Y2694D01*
X1606Y2694D01*
X1606Y2694D01*
X1601Y2689D01*
X1601Y2689D01*
X1601Y2689D01*
X1601Y2690D01*
X1601Y2690D01*
X1601Y2690D01*
X1600Y2691D01*
X1600Y2691D01*
X1599Y2692D01*
X1604Y2696D01*
X1604Y2696D01*
D02*
G37*
G36*
X1897Y2626D02*
X1897Y2626D01*
X1897Y2626D01*
X1897Y2626D01*
X1897Y2625D01*
X1897Y2625D01*
X1897Y2624D01*
X1897Y2623D01*
X1891D01*
X1891Y2624D01*
X1891Y2625D01*
X1891Y2626D01*
X1891Y2626D01*
X1890Y2626D01*
X1890Y2626D01*
X1890Y2626D01*
X1897D01*
X1897Y2626D01*
D02*
G37*
G36*
X1968Y2613D02*
X1968Y2611D01*
X1968Y2611D01*
X1968Y2610D01*
X1968Y2610D01*
X1968Y2610D01*
X1968Y2610D01*
X1961D01*
X1961Y2610D01*
X1961Y2610D01*
X1961Y2610D01*
X1961Y2611D01*
X1961Y2611D01*
X1962Y2612D01*
X1962Y2613D01*
X1962Y2613D01*
X1968D01*
X1968Y2613D01*
D02*
G37*
G36*
X1582Y2585D02*
X1582Y2583D01*
X1582Y2583D01*
X1582Y2583D01*
X1582Y2583D01*
X1582Y2582D01*
X1582Y2582D01*
X1575D01*
X1575Y2582D01*
X1575Y2583D01*
X1576Y2583D01*
X1576Y2583D01*
X1576Y2583D01*
X1576Y2584D01*
X1576Y2585D01*
X1576Y2586D01*
X1582D01*
X1582Y2585D01*
D02*
G37*
G36*
X1948Y2530D02*
X1948Y2530D01*
X1946Y2529D01*
X1946Y2528D01*
X1946Y2528D01*
X1946Y2528D01*
X1946Y2528D01*
X1946Y2528D01*
X1941Y2532D01*
X1941Y2532D01*
X1941Y2533D01*
X1942Y2533D01*
X1942Y2533D01*
X1942Y2533D01*
X1943Y2533D01*
X1943Y2534D01*
X1944Y2535D01*
X1948Y2530D01*
D02*
G37*
G36*
X1629Y2526D02*
X1629Y2524D01*
X1629Y2524D01*
X1629Y2524D01*
X1629Y2523D01*
X1629Y2523D01*
X1629Y2523D01*
X1623D01*
X1623Y2523D01*
X1623Y2523D01*
X1623Y2524D01*
X1623Y2524D01*
X1623Y2524D01*
X1623Y2525D01*
X1623Y2526D01*
X1623Y2527D01*
X1629D01*
X1629Y2526D01*
D02*
G37*
G36*
X598Y2484D02*
X598Y2484D01*
X599Y2484D01*
X599Y2483D01*
X599Y2483D01*
X600Y2483D01*
X601Y2483D01*
X601Y2483D01*
Y2477D01*
X601Y2477D01*
X599Y2477D01*
X599Y2477D01*
X599Y2477D01*
X598Y2477D01*
X598Y2477D01*
X598Y2477D01*
Y2484D01*
X598Y2484D01*
D02*
G37*
G36*
X1391Y2426D02*
X1390Y2426D01*
X1389Y2424D01*
X1389Y2424D01*
X1389Y2424D01*
X1389Y2424D01*
X1389Y2423D01*
X1389Y2423D01*
X1384Y2428D01*
X1384Y2428D01*
X1384Y2428D01*
X1384Y2428D01*
X1385Y2428D01*
X1385Y2429D01*
X1386Y2429D01*
X1386Y2430D01*
X1387Y2430D01*
X1391Y2426D01*
D02*
G37*
G36*
X2009Y2388D02*
X2011Y2387D01*
X2011Y2387D01*
X2011Y2387D01*
X2011Y2387D01*
X2012Y2387D01*
X2012Y2387D01*
X2007Y2382D01*
X2007Y2382D01*
X2007Y2382D01*
X2007Y2382D01*
X2007Y2383D01*
X2006Y2383D01*
X2006Y2384D01*
X2005Y2384D01*
X2005Y2385D01*
X2009Y2389D01*
X2009Y2388D01*
D02*
G37*
G36*
X1595Y2319D02*
X1595Y2319D01*
X1595Y2320D01*
X1594Y2320D01*
X1594Y2320D01*
X1594Y2320D01*
X1593Y2320D01*
X1592Y2320D01*
X1592Y2320D01*
Y2326D01*
X1592Y2326D01*
X1594Y2326D01*
X1594Y2326D01*
X1594Y2326D01*
X1595Y2326D01*
X1595Y2326D01*
X1595Y2326D01*
Y2319D01*
D02*
G37*
G36*
X1504Y2326D02*
X1504Y2326D01*
X1504Y2326D01*
X1504Y2326D01*
X1505Y2326D01*
X1505Y2326D01*
X1506Y2326D01*
X1507Y2326D01*
Y2320D01*
X1506Y2320D01*
X1505Y2320D01*
X1504Y2320D01*
X1504Y2320D01*
X1504Y2320D01*
X1504Y2319D01*
X1504Y2319D01*
Y2326D01*
X1504Y2326D01*
D02*
G37*
G36*
X1279Y1581D02*
X1279Y1580D01*
X1279Y1580D01*
X1279Y1580D01*
X1278Y1580D01*
X1278Y1580D01*
X1277Y1580D01*
X1277Y1579D01*
X1276Y1578D01*
X1272Y1583D01*
X1273Y1583D01*
X1274Y1584D01*
X1274Y1585D01*
X1274Y1585D01*
X1274Y1585D01*
X1274Y1585D01*
X1274Y1585D01*
X1279Y1581D01*
D02*
G37*
G36*
X1279Y1556D02*
X1274Y1556D01*
X1262Y1555D01*
X1259Y1555D01*
X1256Y1554D01*
X1253Y1553D01*
X1251Y1552D01*
X1249Y1551D01*
X1248Y1550D01*
X1244Y1554D01*
X1245Y1556D01*
X1246Y1557D01*
X1247Y1560D01*
X1248Y1562D01*
X1248Y1565D01*
X1249Y1568D01*
X1249Y1576D01*
X1250Y1580D01*
X1250Y1585D01*
X1279Y1556D01*
D02*
G37*
G36*
X3890Y1460D02*
X3889Y1459D01*
X3888Y1457D01*
X3887Y1455D01*
X3886Y1452D01*
X3885Y1450D01*
X3885Y1446D01*
X3884Y1439D01*
X3884Y1434D01*
X3884Y1429D01*
X3855Y1459D01*
X3859Y1459D01*
X3871Y1459D01*
X3875Y1460D01*
X3878Y1461D01*
X3880Y1461D01*
X3882Y1462D01*
X3884Y1463D01*
X3886Y1465D01*
X3890Y1460D01*
D02*
G37*
G36*
X3790D02*
X3789Y1459D01*
X3788Y1457D01*
X3787Y1455D01*
X3786Y1452D01*
X3785Y1450D01*
X3785Y1446D01*
X3784Y1439D01*
X3784Y1434D01*
X3784Y1429D01*
X3755Y1459D01*
X3759Y1459D01*
X3771Y1459D01*
X3775Y1460D01*
X3778Y1461D01*
X3780Y1461D01*
X3782Y1462D01*
X3784Y1463D01*
X3786Y1465D01*
X3790Y1460D01*
D02*
G37*
G36*
X921Y1378D02*
X921Y1378D01*
X921Y1378D01*
X920Y1378D01*
X920Y1377D01*
X920Y1377D01*
X920Y1376D01*
X920Y1375D01*
X914D01*
X914Y1376D01*
X914Y1377D01*
X914Y1378D01*
X914Y1378D01*
X914Y1378D01*
X914Y1378D01*
X914Y1378D01*
X921D01*
X921Y1378D01*
D02*
G37*
G36*
X1783Y1334D02*
X1783Y1334D01*
X1783Y1334D01*
X1783Y1333D01*
X1783Y1333D01*
X1782Y1333D01*
X1782Y1333D01*
X1781Y1332D01*
X1781Y1332D01*
X1777Y1336D01*
X1777Y1336D01*
X1778Y1338D01*
X1778Y1338D01*
X1778Y1338D01*
X1778Y1338D01*
X1779Y1338D01*
X1779Y1339D01*
X1783Y1334D01*
D02*
G37*
G36*
X1125Y1298D02*
X1125Y1296D01*
X1125Y1296D01*
X1125Y1295D01*
X1125Y1295D01*
X1125Y1295D01*
X1125Y1295D01*
X1119D01*
X1119Y1295D01*
X1119Y1295D01*
X1119Y1295D01*
X1119Y1296D01*
X1119Y1296D01*
X1119Y1297D01*
X1119Y1298D01*
X1119Y1298D01*
X1125D01*
X1125Y1298D01*
D02*
G37*
G36*
X920Y1106D02*
X921Y1105D01*
X921Y1104D01*
X921Y1104D01*
X922Y1103D01*
X922Y1102D01*
X923Y1102D01*
X924Y1102D01*
X925Y1101D01*
X926Y1101D01*
X924Y1095D01*
X923Y1095D01*
X922Y1095D01*
X921Y1095D01*
X920Y1095D01*
X919Y1094D01*
X918Y1094D01*
X917Y1093D01*
X916Y1093D01*
X915Y1092D01*
X914Y1091D01*
X910Y1095D01*
X911Y1096D01*
X912Y1097D01*
X912Y1098D01*
X913Y1099D01*
X913Y1100D01*
X914Y1101D01*
X914Y1102D01*
X914Y1103D01*
X914Y1104D01*
X914Y1106D01*
X920Y1107D01*
X920Y1106D01*
D02*
G37*
G36*
X834Y1011D02*
X833Y1010D01*
X832Y1009D01*
X832Y1009D01*
X832Y1008D01*
X832Y1008D01*
X832Y1008D01*
X832Y1008D01*
X827Y1013D01*
X827Y1013D01*
X827Y1013D01*
X827Y1013D01*
X828Y1013D01*
X828Y1013D01*
X828Y1014D01*
X829Y1014D01*
X830Y1015D01*
X834Y1011D01*
D02*
G37*
G36*
X4148Y3551D02*
X4148Y3550D01*
X4148Y3549D01*
X4148Y3548D01*
X4148Y3547D01*
X4149Y3547D01*
X4149Y3546D01*
X4150Y3546D01*
X4151Y3546D01*
X4152Y3545D01*
Y3540D01*
X4150Y3540D01*
X4146Y3539D01*
X4145Y3539D01*
X4141Y3538D01*
X4139Y3537D01*
X4138Y3537D01*
X4136Y3536D01*
X4135Y3535D01*
X4148Y3552D01*
X4148Y3551D01*
D02*
G37*
G36*
X4419Y3531D02*
X4415Y3531D01*
X4403Y3530D01*
X4399Y3530D01*
X4396Y3529D01*
X4394Y3528D01*
X4392Y3527D01*
X4390Y3526D01*
X4388Y3525D01*
X4384Y3529D01*
X4385Y3531D01*
X4386Y3533D01*
X4387Y3535D01*
X4388Y3537D01*
X4389Y3540D01*
X4389Y3543D01*
X4390Y3551D01*
X4390Y3556D01*
X4390Y3560D01*
X4419Y3531D01*
D02*
G37*
G36*
X4319D02*
X4315Y3531D01*
X4303Y3530D01*
X4299Y3530D01*
X4296Y3529D01*
X4294Y3528D01*
X4292Y3527D01*
X4290Y3526D01*
X4288Y3525D01*
X4284Y3529D01*
X4285Y3531D01*
X4286Y3533D01*
X4287Y3535D01*
X4288Y3537D01*
X4289Y3540D01*
X4289Y3543D01*
X4290Y3551D01*
X4290Y3556D01*
X4290Y3560D01*
X4319Y3531D01*
D02*
G37*
G36*
X4219D02*
X4215Y3531D01*
X4203Y3530D01*
X4199Y3530D01*
X4196Y3529D01*
X4194Y3528D01*
X4192Y3527D01*
X4190Y3526D01*
X4188Y3525D01*
X4184Y3529D01*
X4185Y3531D01*
X4186Y3533D01*
X4187Y3535D01*
X4188Y3537D01*
X4189Y3540D01*
X4189Y3543D01*
X4190Y3551D01*
X4190Y3556D01*
X4190Y3560D01*
X4219Y3531D01*
D02*
G37*
G36*
X4036Y3535D02*
X4030Y3530D01*
X4028Y3528D01*
X4027Y3526D01*
X4025Y3523D01*
X4024Y3521D01*
X4023Y3519D01*
X4023Y3517D01*
X4023Y3515D01*
X4017D01*
X4017Y3517D01*
X4016Y3519D01*
X4015Y3521D01*
X4014Y3523D01*
X4013Y3526D01*
X4011Y3528D01*
X4009Y3530D01*
X4007Y3533D01*
X4001Y3538D01*
X4039D01*
X4036Y3535D01*
D02*
G37*
G36*
X3936D02*
X3930Y3530D01*
X3928Y3528D01*
X3927Y3526D01*
X3925Y3523D01*
X3924Y3521D01*
X3923Y3519D01*
X3923Y3517D01*
X3923Y3515D01*
X3917D01*
X3917Y3517D01*
X3916Y3519D01*
X3915Y3521D01*
X3914Y3523D01*
X3913Y3526D01*
X3911Y3528D01*
X3909Y3530D01*
X3907Y3533D01*
X3901Y3538D01*
X3939D01*
X3936Y3535D01*
D02*
G37*
G36*
X4659Y3141D02*
X4658Y3141D01*
X4658Y3141D01*
X4658Y3140D01*
X4657Y3139D01*
X4657Y3138D01*
X4657Y3137D01*
X4657Y3136D01*
X4656Y3133D01*
X4651D01*
X4651Y3134D01*
X4650Y3137D01*
X4650Y3138D01*
X4650Y3139D01*
X4650Y3140D01*
X4649Y3141D01*
X4649Y3141D01*
X4648Y3141D01*
X4648Y3141D01*
X4659D01*
X4659Y3141D01*
D02*
G37*
G36*
X4742Y3082D02*
X4734Y3073D01*
X4732Y3070D01*
X4730Y3068D01*
X4729Y3065D01*
X4728Y3063D01*
X4727Y3061D01*
X4727Y3059D01*
X4721D01*
X4721Y3061D01*
X4721Y3063D01*
X4720Y3065D01*
X4718Y3068D01*
X4717Y3070D01*
X4715Y3073D01*
X4710Y3079D01*
X4707Y3082D01*
X4704Y3085D01*
X4745D01*
X4742Y3082D01*
D02*
G37*
G36*
X4795Y3006D02*
X4790Y3006D01*
X4778Y3005D01*
X4775Y3005D01*
X4772Y3004D01*
X4769Y3003D01*
X4767Y3003D01*
X4765Y3002D01*
X4764Y3000D01*
X4760Y3005D01*
X4761Y3006D01*
X4762Y3008D01*
X4763Y3010D01*
X4763Y3012D01*
X4764Y3015D01*
X4765Y3019D01*
X4765Y3026D01*
X4765Y3031D01*
X4765Y3035D01*
X4795Y3006D01*
D02*
G37*
G36*
X4845Y2944D02*
X4841Y2948D01*
X4832Y2956D01*
X4829Y2958D01*
X4827Y2959D01*
X4825Y2960D01*
X4822Y2961D01*
X4820Y2962D01*
X4819Y2962D01*
Y2968D01*
X4820Y2968D01*
X4822Y2969D01*
X4825Y2970D01*
X4827Y2971D01*
X4829Y2972D01*
X4832Y2974D01*
X4838Y2979D01*
X4841Y2982D01*
X4845Y2986D01*
Y2944D01*
D02*
G37*
G36*
X4915Y2874D02*
X4912Y2877D01*
X4903Y2885D01*
X4900Y2887D01*
X4898Y2889D01*
X4895Y2890D01*
X4893Y2891D01*
X4891Y2891D01*
X4889Y2891D01*
Y2897D01*
X4891Y2897D01*
X4893Y2898D01*
X4895Y2899D01*
X4898Y2900D01*
X4900Y2902D01*
X4903Y2904D01*
X4909Y2909D01*
X4912Y2912D01*
X4915Y2915D01*
Y2874D01*
D02*
G37*
G36*
X4125Y2518D02*
X4125Y2516D01*
X4125Y2516D01*
X4125Y2516D01*
X4125Y2516D01*
X4125Y2515D01*
X4125Y2515D01*
X4119D01*
X4119Y2515D01*
X4119Y2516D01*
X4119Y2516D01*
X4119Y2516D01*
X4119Y2516D01*
X4119Y2517D01*
X4119Y2518D01*
X4119Y2519D01*
X4125D01*
X4125Y2518D01*
D02*
G37*
G36*
X4094Y2518D02*
X4094Y2516D01*
X4094Y2516D01*
X4094Y2516D01*
X4094Y2516D01*
X4094Y2515D01*
X4094Y2515D01*
X4087D01*
X4087Y2515D01*
X4087Y2516D01*
X4087Y2516D01*
X4087Y2516D01*
X4087Y2516D01*
X4088Y2517D01*
X4088Y2518D01*
X4088Y2519D01*
X4094D01*
X4094Y2518D01*
D02*
G37*
G36*
X4188Y2518D02*
X4188Y2516D01*
X4188Y2516D01*
X4188Y2516D01*
X4188Y2516D01*
X4188Y2515D01*
X4188Y2515D01*
X4182D01*
X4182Y2515D01*
X4182Y2516D01*
X4182Y2516D01*
X4182Y2516D01*
X4182Y2516D01*
X4182Y2517D01*
X4182Y2518D01*
X4182Y2519D01*
X4188D01*
X4188Y2518D01*
D02*
G37*
G36*
X4172D02*
X4172Y2516D01*
X4172Y2516D01*
X4172Y2516D01*
X4173Y2516D01*
X4173Y2515D01*
X4173Y2515D01*
X4166D01*
X4166Y2515D01*
X4166Y2516D01*
X4166Y2516D01*
X4166Y2516D01*
X4166Y2516D01*
X4166Y2517D01*
X4166Y2518D01*
X4166Y2519D01*
X4172D01*
X4172Y2518D01*
D02*
G37*
G36*
X4109D02*
X4109Y2516D01*
X4109Y2516D01*
X4109Y2516D01*
X4110Y2516D01*
X4110Y2515D01*
X4110Y2515D01*
X4103D01*
X4103Y2515D01*
X4103Y2516D01*
X4103Y2516D01*
X4103Y2516D01*
X4103Y2516D01*
X4103Y2517D01*
X4103Y2518D01*
X4103Y2519D01*
X4109D01*
X4109Y2518D01*
D02*
G37*
G36*
X4141Y2518D02*
X4141Y2516D01*
X4141Y2516D01*
X4141Y2516D01*
X4141Y2516D01*
X4141Y2515D01*
X4141Y2515D01*
X4134Y2515D01*
X4134Y2515D01*
X4135Y2516D01*
X4135Y2516D01*
X4135Y2516D01*
X4135Y2516D01*
X4135Y2517D01*
X4135Y2518D01*
X4135Y2519D01*
X4141Y2519D01*
X4141Y2518D01*
D02*
G37*
G36*
X4157Y2518D02*
X4157Y2516D01*
X4157Y2516D01*
X4157Y2516D01*
X4157Y2516D01*
X4157Y2515D01*
X4157Y2515D01*
X4150Y2515D01*
X4150Y2515D01*
X4150Y2516D01*
X4150Y2516D01*
X4150Y2516D01*
X4150Y2516D01*
X4151Y2517D01*
X4151Y2518D01*
X4151Y2519D01*
X4156Y2519D01*
X4157Y2518D01*
D02*
G37*
G36*
X4193Y2495D02*
X4192Y2495D01*
X4191Y2495D01*
X4191Y2495D01*
X4190Y2495D01*
X4190Y2495D01*
X4190Y2495D01*
X4190Y2494D01*
X4190Y2494D01*
X4187Y2501D01*
X4192Y2501D01*
X4193Y2495D01*
D02*
G37*
G36*
X4087Y2493D02*
X4087Y2493D01*
X4087Y2493D01*
X4087Y2493D01*
X4086Y2493D01*
X4086Y2493D01*
X4085Y2493D01*
X4084Y2493D01*
X4084Y2493D01*
Y2499D01*
X4084Y2499D01*
X4086Y2499D01*
X4086Y2499D01*
X4087Y2499D01*
X4087Y2499D01*
X4087Y2499D01*
X4087Y2500D01*
Y2493D01*
D02*
G37*
G36*
X4193Y2479D02*
X4192Y2479D01*
X4191Y2479D01*
X4191Y2479D01*
X4190Y2479D01*
X4190Y2479D01*
X4190Y2479D01*
X4190Y2479D01*
X4190Y2479D01*
X4187Y2485D01*
X4193Y2485D01*
X4193Y2479D01*
D02*
G37*
G36*
X4087Y2477D02*
X4087Y2477D01*
X4087Y2477D01*
X4087Y2477D01*
X4086Y2477D01*
X4086Y2477D01*
X4085Y2477D01*
X4084Y2477D01*
X4084Y2477D01*
Y2483D01*
X4084Y2483D01*
X4086Y2483D01*
X4086Y2483D01*
X4087Y2484D01*
X4087Y2484D01*
X4087Y2484D01*
X4087Y2484D01*
Y2477D01*
D02*
G37*
G36*
X4189Y2468D02*
X4189Y2468D01*
X4189Y2468D01*
X4189Y2468D01*
X4190Y2468D01*
X4190Y2468D01*
X4191Y2468D01*
X4192Y2468D01*
Y2462D01*
X4191Y2462D01*
X4190Y2461D01*
X4189Y2461D01*
X4189Y2461D01*
X4189Y2461D01*
X4189Y2461D01*
X4189Y2461D01*
Y2468D01*
X4189Y2468D01*
D02*
G37*
G36*
X4087Y2461D02*
X4087Y2461D01*
X4087Y2461D01*
X4087Y2461D01*
X4086Y2461D01*
X4086Y2461D01*
X4085Y2462D01*
X4084Y2462D01*
X4084Y2462D01*
Y2468D01*
X4084Y2468D01*
X4086Y2468D01*
X4086Y2468D01*
X4087Y2468D01*
X4087Y2468D01*
X4087Y2468D01*
X4087Y2468D01*
Y2461D01*
D02*
G37*
G36*
X4189Y2452D02*
X4189Y2452D01*
X4189Y2452D01*
X4189Y2452D01*
X4190Y2452D01*
X4190Y2452D01*
X4191Y2452D01*
X4192Y2452D01*
Y2446D01*
X4191Y2446D01*
X4190Y2446D01*
X4189Y2446D01*
X4189Y2446D01*
X4189Y2446D01*
X4189Y2445D01*
X4189Y2445D01*
Y2452D01*
X4189Y2452D01*
D02*
G37*
G36*
X4087Y2445D02*
X4087Y2445D01*
X4087Y2446D01*
X4087Y2446D01*
X4086Y2446D01*
X4086Y2446D01*
X4085Y2446D01*
X4084Y2446D01*
X4084Y2446D01*
X4084Y2452D01*
X4084Y2452D01*
X4086Y2452D01*
X4086Y2452D01*
X4087Y2452D01*
X4087Y2452D01*
X4087Y2452D01*
X4087Y2452D01*
X4087Y2445D01*
D02*
G37*
G36*
X4189Y2436D02*
X4189Y2436D01*
X4189Y2436D01*
X4189Y2436D01*
X4190Y2436D01*
X4190Y2436D01*
X4191Y2436D01*
X4192Y2436D01*
Y2430D01*
X4191Y2430D01*
X4190Y2430D01*
X4189Y2430D01*
X4189Y2430D01*
X4189Y2430D01*
X4189Y2430D01*
X4189Y2430D01*
Y2437D01*
X4189Y2436D01*
D02*
G37*
G36*
X4087Y2430D02*
X4087Y2430D01*
X4087Y2430D01*
X4087Y2430D01*
X4086Y2430D01*
X4086Y2430D01*
X4085Y2430D01*
X4084Y2430D01*
X4084Y2430D01*
X4084Y2436D01*
X4084Y2436D01*
X4086Y2436D01*
X4086Y2436D01*
X4087Y2436D01*
X4087Y2436D01*
X4087Y2436D01*
X4087Y2437D01*
X4087Y2430D01*
D02*
G37*
G36*
X4173Y2414D02*
X4173Y2414D01*
X4172Y2413D01*
X4172Y2413D01*
X4172Y2413D01*
X4172Y2412D01*
X4172Y2411D01*
X4172Y2410D01*
X4166D01*
X4166Y2411D01*
X4166Y2413D01*
X4166Y2413D01*
X4166Y2413D01*
X4166Y2414D01*
X4166Y2414D01*
X4166Y2414D01*
X4173D01*
X4173Y2414D01*
D02*
G37*
G36*
X4141D02*
X4141Y2414D01*
X4141Y2413D01*
X4141Y2413D01*
X4141Y2413D01*
X4141Y2412D01*
X4141Y2411D01*
X4141Y2410D01*
X4135D01*
X4135Y2411D01*
X4135Y2413D01*
X4135Y2413D01*
X4135Y2413D01*
X4135Y2414D01*
X4134Y2414D01*
X4134Y2414D01*
X4141D01*
X4141Y2414D01*
D02*
G37*
G36*
X4188Y2414D02*
X4188Y2414D01*
X4188Y2413D01*
X4188Y2413D01*
X4188Y2413D01*
X4188Y2412D01*
X4188Y2411D01*
X4188Y2410D01*
X4182D01*
X4182Y2411D01*
X4182Y2413D01*
X4182Y2413D01*
X4182Y2413D01*
X4182Y2414D01*
X4182Y2414D01*
X4182Y2414D01*
X4188D01*
X4188Y2414D01*
D02*
G37*
G36*
X4157D02*
X4157Y2414D01*
X4157Y2413D01*
X4157Y2413D01*
X4157Y2413D01*
X4157Y2412D01*
X4157Y2411D01*
X4156Y2410D01*
X4151D01*
X4151Y2411D01*
X4150Y2413D01*
X4150Y2413D01*
X4150Y2413D01*
X4150Y2414D01*
X4150Y2414D01*
X4150Y2414D01*
X4157D01*
X4157Y2414D01*
D02*
G37*
G36*
X4110Y2414D02*
X4110Y2414D01*
X4110Y2414D01*
X4109Y2413D01*
X4109Y2413D01*
X4109Y2413D01*
X4109Y2412D01*
X4109Y2411D01*
X4109Y2410D01*
X4103Y2410D01*
X4103Y2411D01*
X4103Y2413D01*
X4103Y2413D01*
X4103Y2413D01*
X4103Y2414D01*
X4103Y2414D01*
X4103Y2414D01*
X4110Y2414D01*
D02*
G37*
G36*
X4125Y2414D02*
X4125Y2414D01*
X4125Y2413D01*
X4125Y2413D01*
X4125Y2413D01*
X4125Y2412D01*
X4125Y2411D01*
X4125Y2410D01*
X4119D01*
X4119Y2411D01*
X4119Y2413D01*
X4119Y2413D01*
X4119Y2413D01*
X4119Y2414D01*
X4119Y2414D01*
X4119Y2414D01*
X4125D01*
X4125Y2414D01*
D02*
G37*
G36*
X4078D02*
X4078Y2414D01*
X4078Y2413D01*
X4078Y2413D01*
X4078Y2413D01*
X4078Y2412D01*
X4078Y2411D01*
X4078Y2410D01*
X4072D01*
X4072Y2411D01*
X4072Y2413D01*
X4072Y2413D01*
X4072Y2413D01*
X4072Y2414D01*
X4071Y2414D01*
X4071Y2414D01*
X4078D01*
X4078Y2414D01*
D02*
G37*
G36*
X4094Y2414D02*
X4094Y2414D01*
X4094Y2413D01*
X4094Y2413D01*
X4094Y2413D01*
X4094Y2412D01*
X4094Y2411D01*
X4094Y2410D01*
X4088D01*
X4088Y2411D01*
X4087Y2413D01*
X4087Y2413D01*
X4087Y2413D01*
X4087Y2414D01*
X4087Y2414D01*
X4087Y2414D01*
X4094D01*
X4094Y2414D01*
D02*
G37*
G36*
X4357Y1474D02*
X4358Y1472D01*
X4359Y1470D01*
X4360Y1468D01*
X4362Y1465D01*
X4364Y1463D01*
X4369Y1457D01*
X4372Y1454D01*
X4375Y1450D01*
X4334D01*
X4337Y1454D01*
X4345Y1463D01*
X4347Y1465D01*
X4349Y1468D01*
X4350Y1470D01*
X4351Y1472D01*
X4351Y1474D01*
X4351Y1476D01*
X4357D01*
X4357Y1474D01*
D02*
G37*
G36*
X4157D02*
X4158Y1472D01*
X4159Y1470D01*
X4160Y1468D01*
X4162Y1465D01*
X4164Y1463D01*
X4169Y1457D01*
X4172Y1454D01*
X4175Y1450D01*
X4134D01*
X4137Y1454D01*
X4145Y1463D01*
X4147Y1465D01*
X4149Y1468D01*
X4150Y1470D01*
X4151Y1472D01*
X4151Y1474D01*
X4151Y1476D01*
X4157D01*
X4157Y1474D01*
D02*
G37*
G36*
X4425Y1463D02*
X4426Y1462D01*
X4428Y1461D01*
X4431Y1461D01*
X4434Y1460D01*
X4437Y1459D01*
X4445Y1459D01*
X4449Y1459D01*
X4454Y1459D01*
X4425Y1429D01*
X4425Y1434D01*
X4424Y1446D01*
X4423Y1450D01*
X4423Y1452D01*
X4422Y1455D01*
X4421Y1457D01*
X4420Y1459D01*
X4419Y1460D01*
X4423Y1465D01*
X4425Y1463D01*
D02*
G37*
G36*
X4225D02*
X4226Y1462D01*
X4228Y1461D01*
X4231Y1461D01*
X4234Y1460D01*
X4237Y1459D01*
X4245Y1459D01*
X4249Y1459D01*
X4254Y1459D01*
X4225Y1429D01*
X4225Y1434D01*
X4224Y1446D01*
X4223Y1450D01*
X4223Y1452D01*
X4222Y1455D01*
X4221Y1457D01*
X4220Y1459D01*
X4219Y1460D01*
X4223Y1465D01*
X4225Y1463D01*
D02*
G37*
G36*
X4090Y1460D02*
X4089Y1459D01*
X4088Y1457D01*
X4087Y1455D01*
X4086Y1452D01*
X4085Y1450D01*
X4085Y1446D01*
X4084Y1439D01*
X4084Y1434D01*
X4084Y1429D01*
X4055Y1459D01*
X4059Y1459D01*
X4071Y1459D01*
X4075Y1460D01*
X4078Y1461D01*
X4080Y1461D01*
X4082Y1462D01*
X4084Y1463D01*
X4086Y1465D01*
X4090Y1460D01*
D02*
G37*
G36*
X3990D02*
X3989Y1459D01*
X3988Y1457D01*
X3987Y1455D01*
X3986Y1452D01*
X3985Y1450D01*
X3985Y1446D01*
X3984Y1439D01*
X3984Y1434D01*
X3984Y1429D01*
X3955Y1459D01*
X3959Y1459D01*
X3971Y1459D01*
X3975Y1460D01*
X3978Y1461D01*
X3980Y1461D01*
X3982Y1462D01*
X3984Y1463D01*
X3986Y1465D01*
X3990Y1460D01*
D02*
G37*
D41*
X4205Y2465D02*
X4211Y2459D01*
X4185Y2465D02*
X4205D01*
X4211Y2459D02*
X4222D01*
X4230Y2467D01*
X4051Y2480D02*
X4091D01*
X3520Y3012D02*
X4051Y2480D01*
X4052Y2496D02*
X4091D01*
X3591Y2958D02*
X4052Y2496D01*
X3533Y2965D02*
X4049Y2449D01*
X3586Y2894D02*
X4047Y2433D01*
X4050Y2465D02*
X4091D01*
X3479Y3036D02*
X4050Y2465D01*
X4049Y2449D02*
X4091D01*
X4138Y2512D02*
Y3424D01*
X4154Y2512D02*
Y3423D01*
X4169Y2512D02*
Y3356D01*
X4122Y2512D02*
Y3404D01*
X4138Y2512D02*
X4138Y2512D01*
X4106Y2512D02*
Y3320D01*
X4185Y2512D02*
Y3272D01*
X4227Y2447D02*
X4242Y2462D01*
X4206Y2447D02*
X4227D01*
X4204Y2449D02*
X4206Y2447D01*
X4202Y2498D02*
X4654Y2950D01*
X4185Y2496D02*
X4187Y2498D01*
X4254Y2461D02*
X4687Y2894D01*
X4254Y2457D02*
Y2461D01*
X4230Y2433D02*
X4254Y2457D01*
X4185Y2433D02*
X4230D01*
X4185Y2449D02*
X4204D01*
X4242Y2466D02*
X4741Y2965D01*
X4242Y2462D02*
Y2466D01*
X4047Y2433D02*
X4091D01*
X4075Y1750D02*
Y2417D01*
X4724Y3004D02*
Y3106D01*
X4203Y2482D02*
X4724Y3004D01*
X4187Y2482D02*
X4203D01*
X4185Y2480D02*
X4187Y2482D01*
X4154Y1530D02*
Y2417D01*
X4138Y1529D02*
Y2417D01*
X4122Y1497D02*
Y2417D01*
X4106Y1581D02*
Y2417D01*
X3954Y1429D02*
X4106Y1581D01*
X4091Y1665D02*
Y2417D01*
X3854Y1429D02*
X4091Y1665D01*
X3754Y1429D02*
X4075Y1750D01*
X4106Y2417D02*
X4106Y2417D01*
X4091Y2512D02*
Y3235D01*
X4169Y1697D02*
Y2417D01*
Y1697D02*
X4354Y1512D01*
X4185Y1698D02*
Y2417D01*
X4230Y2471D02*
X4795Y3036D01*
X4230Y2467D02*
Y2471D01*
X4187Y2498D02*
X4202D01*
X4154Y2512D02*
X4154Y2512D01*
X3881Y3445D02*
X4091Y3235D01*
X4169Y3356D02*
X4258Y3445D01*
X4091Y2433D02*
X4091Y2433D01*
X4154Y3423D02*
X4170Y3440D01*
X3881Y3445D02*
Y3477D01*
X1772Y2350D02*
X1894Y2472D01*
X1291Y2350D02*
X1772D01*
X1161Y2480D02*
X1291Y2350D01*
X1894Y2472D02*
Y2630D01*
X1500Y2323D02*
X1598D01*
X1453Y2759D02*
X1455Y2761D01*
X1128Y3167D02*
Y3512D01*
Y3167D02*
X1388Y2907D01*
Y2880D02*
Y2907D01*
Y2880D02*
X1396Y2872D01*
X1406D01*
X1506Y2772D01*
Y2766D02*
Y2772D01*
Y2766D02*
X1514Y2758D01*
X1537D01*
X1606Y2689D01*
X1028Y3223D02*
Y3512D01*
X1494Y2761D02*
X1519Y2736D01*
X1028Y3223D02*
X1391Y2860D01*
X1519Y2736D02*
X1528D01*
X1494Y2761D02*
Y2767D01*
X1401Y2860D02*
X1494Y2767D01*
X1391Y2860D02*
X1401D01*
X1579Y2579D02*
Y2633D01*
X1453Y2759D02*
X1579Y2633D01*
X1455Y2761D02*
Y2773D01*
X1447Y2781D02*
X1455Y2773D01*
X1430Y2781D02*
X1447D01*
X1337Y2875D02*
X1430Y2781D01*
X1467Y2762D02*
X1626Y2602D01*
X928Y3300D02*
X1435Y2793D01*
X1467Y2762D02*
Y2778D01*
X1452Y2793D02*
X1467Y2778D01*
X1435Y2793D02*
X1452D01*
X1237Y2875D02*
X1337D01*
X1234Y2872D02*
X1237Y2875D01*
X1223Y2872D02*
X1234D01*
X817Y3278D02*
X1223Y2872D01*
X817Y3278D02*
Y3324D01*
X628Y3512D02*
X817Y3324D01*
X1232Y2846D02*
X1299D01*
X805Y3273D02*
X1232Y2846D01*
X805Y3273D02*
Y3290D01*
X621Y3473D02*
X805Y3290D01*
X828Y3286D02*
Y3512D01*
Y3286D02*
X1228Y2886D01*
X1626Y2520D02*
Y2602D01*
X928Y3300D02*
Y3512D01*
X1402Y2886D02*
Y3485D01*
X1428Y3512D01*
X1681Y2917D02*
Y3298D01*
X1617Y3363D02*
X1681Y3298D01*
X1617Y3363D02*
Y3424D01*
X1528Y3512D02*
X1617Y3424D01*
X1965Y2960D02*
Y3031D01*
X1959Y2955D02*
X1965Y2960D01*
X1959Y2943D02*
Y2955D01*
Y2943D02*
X1965Y2937D01*
Y2606D02*
Y2937D01*
X1628Y3368D02*
X1965Y3031D01*
X1972Y2949D02*
X1978Y2943D01*
X1628Y3368D02*
Y3512D01*
X1941Y2528D02*
X1978Y2565D01*
Y2943D01*
X1909Y2484D02*
Y2657D01*
X1795Y2772D02*
X1909Y2657D01*
X612Y3473D02*
X621D01*
X574Y3512D02*
X612Y3473D01*
X528Y3512D02*
X574D01*
X1520Y2772D02*
X1795D01*
X1909Y2484D02*
X2012Y2382D01*
X594Y2480D02*
X1161D01*
X1441D02*
Y2768D01*
X1384Y2423D02*
X1441Y2480D01*
X1122Y1291D02*
Y1428D01*
X1279Y1585D01*
X1543Y1098D02*
X1783Y1339D01*
X917Y1098D02*
X1543D01*
X917D02*
Y1382D01*
X827Y1008D02*
X917Y1098D01*
X4654Y2950D02*
Y3177D01*
X4687Y2894D02*
X4936D01*
X4741Y2965D02*
X4866D01*
X3981Y3445D02*
X4106Y3320D01*
X3591Y2958D02*
Y3177D01*
X3308Y2894D02*
X3586D01*
X3378Y2965D02*
X3533D01*
X3449Y3036D02*
X3479D01*
X3520Y3012D02*
Y3106D01*
X4185Y1698D02*
X4454Y1429D01*
X4054D02*
X4122Y1497D01*
X4154Y1429D02*
Y1512D01*
X4138Y1529D02*
X4154Y1512D01*
X4154Y1530D02*
X4254Y1429D01*
X4354D02*
Y1512D01*
X3820Y3538D02*
X3881Y3477D01*
X3820Y3538D02*
Y3561D01*
X3981Y3445D02*
Y3453D01*
X3920Y3515D02*
X3981Y3453D01*
X3920Y3515D02*
Y3561D01*
X4158Y3499D02*
X4220Y3561D01*
X4158Y3493D02*
Y3499D01*
X4081Y3445D02*
X4122Y3404D01*
X4081Y3445D02*
Y3453D01*
X4020Y3515D02*
X4081Y3453D01*
X4020Y3515D02*
Y3561D01*
X4120D02*
X4138Y3543D01*
X4152D01*
Y3510D02*
Y3543D01*
X4146Y3504D02*
X4152Y3510D01*
X4146Y3488D02*
Y3504D01*
Y3488D02*
X4158Y3477D01*
Y3445D02*
Y3477D01*
X4138Y3424D02*
X4158Y3445D01*
X4170Y3440D02*
Y3481D01*
X4158Y3493D02*
X4170Y3481D01*
X4258Y3499D02*
X4320Y3561D01*
X4258Y3445D02*
Y3499D01*
X4358D02*
X4420Y3561D01*
X4358Y3445D02*
Y3499D01*
X4185Y3272D02*
X4358Y3445D01*
D42*
X4454Y1429D02*
D03*
X4354D02*
D03*
X4254D02*
D03*
X4154D02*
D03*
X4054D02*
D03*
X3954D02*
D03*
X3854D02*
D03*
X3754D02*
D03*
X628Y3512D02*
D03*
X828D02*
D03*
X928D02*
D03*
X1028D02*
D03*
X1128D02*
D03*
X1428D02*
D03*
X1528D02*
D03*
X1628D02*
D03*
X1279Y1585D02*
D03*
X3820Y3561D02*
D03*
X3920D02*
D03*
X4020D02*
D03*
X4120D02*
D03*
X4220D02*
D03*
X4320D02*
D03*
X4420D02*
D03*
X3520Y3106D02*
D03*
X3449Y3036D02*
D03*
X3378Y2965D02*
D03*
X3308Y2894D02*
D03*
X4724Y3106D02*
D03*
X4795Y3036D02*
D03*
X4866Y2965D02*
D03*
X4936Y2894D02*
D03*
D43*
X528Y3512D02*
D03*
D45*
X4654Y3177D02*
D03*
D46*
X3591D02*
D03*
D47*
X4091Y2496D02*
D03*
X4091Y2480D02*
D03*
X4138Y2512D02*
D03*
X4122Y2512D02*
D03*
X4185Y2496D02*
D03*
X4185Y2512D02*
D03*
Y2465D02*
D03*
X4169Y2512D02*
D03*
X4075Y2417D02*
D03*
X4185Y2449D02*
D03*
Y2433D02*
D03*
X4154Y2417D02*
D03*
X4138Y2417D02*
D03*
X4122Y2417D02*
D03*
X4106Y2417D02*
D03*
X4106Y2512D02*
D03*
X4091Y2512D02*
D03*
X4091Y2465D02*
D03*
Y2449D02*
D03*
X4185Y2417D02*
D03*
Y2480D02*
D03*
X4154Y2512D02*
D03*
X4091Y2417D02*
D03*
X4169Y2417D02*
D03*
X4091Y2433D02*
D03*
X1606Y2689D02*
D03*
X1579Y2579D02*
D03*
X1402Y2886D02*
D03*
X1681Y2917D02*
D03*
X1972Y2949D02*
D03*
X1965Y2606D02*
D03*
X1941Y2528D02*
D03*
X1626Y2520D02*
D03*
X1528Y2736D02*
D03*
X1299Y2846D02*
D03*
X1228Y2886D02*
D03*
X1520Y2772D02*
D03*
X2012Y2382D02*
D03*
X1894Y2630D02*
D03*
X594Y2480D02*
D03*
X1441Y2768D02*
D03*
X1384Y2423D02*
D03*
X1500Y2323D02*
D03*
X1598D02*
D03*
X1122Y1291D02*
D03*
X1279Y1585D02*
D03*
X1783Y1339D02*
D03*
X917Y1382D02*
D03*
X827Y1008D02*
D03*
M02*
