G04*
G04 #@! TF.GenerationSoftware,Altium Limited,Altium Designer,18.0.12 (696)*
G04*
G04 Layer_Physical_Order=4*
G04 Layer_Color=16711680*
%FSLAX23Y23*%
%MOIN*%
G70*
G01*
G75*
%ADD42C,0.059*%
%ADD43R,0.059X0.059*%
%ADD44R,0.059X0.059*%
%ADD45P,0.084X4X360.0*%
%ADD46P,0.084X4X270.0*%
%ADD47C,0.010*%
G36*
X5324Y11D02*
X11D01*
Y3812D01*
X5324D01*
Y11D01*
D02*
G37*
%LPC*%
G36*
X3725Y3600D02*
Y3566D01*
X3759D01*
X3758Y3571D01*
X3754Y3581D01*
X3748Y3589D01*
X3740Y3595D01*
X3730Y3599D01*
X3725Y3600D01*
D02*
G37*
G36*
X3715D02*
X3709Y3599D01*
X3700Y3595D01*
X3691Y3589D01*
X3685Y3581D01*
X3681Y3571D01*
X3680Y3566D01*
X3715D01*
Y3600D01*
D02*
G37*
G36*
X3030D02*
Y3566D01*
X3064D01*
X3064Y3571D01*
X3060Y3581D01*
X3053Y3589D01*
X3045Y3595D01*
X3036Y3599D01*
X3030Y3600D01*
D02*
G37*
G36*
X3020D02*
X3015Y3599D01*
X3005Y3595D01*
X2997Y3589D01*
X2991Y3581D01*
X2987Y3571D01*
X2986Y3566D01*
X3020D01*
Y3600D01*
D02*
G37*
G36*
X2930D02*
Y3566D01*
X2964D01*
X2964Y3571D01*
X2960Y3581D01*
X2953Y3589D01*
X2945Y3595D01*
X2936Y3599D01*
X2930Y3600D01*
D02*
G37*
G36*
X2920D02*
X2915Y3599D01*
X2905Y3595D01*
X2897Y3589D01*
X2891Y3581D01*
X2887Y3571D01*
X2886Y3566D01*
X2920D01*
Y3600D01*
D02*
G37*
G36*
X2830D02*
Y3566D01*
X2864D01*
X2864Y3571D01*
X2860Y3581D01*
X2853Y3589D01*
X2845Y3595D01*
X2836Y3599D01*
X2830Y3600D01*
D02*
G37*
G36*
X2820D02*
X2815Y3599D01*
X2805Y3595D01*
X2797Y3589D01*
X2791Y3581D01*
X2787Y3571D01*
X2786Y3566D01*
X2820D01*
Y3600D01*
D02*
G37*
G36*
X2730D02*
Y3566D01*
X2764D01*
X2764Y3571D01*
X2760Y3581D01*
X2753Y3589D01*
X2745Y3595D01*
X2736Y3599D01*
X2730Y3600D01*
D02*
G37*
G36*
X2720D02*
X2715Y3599D01*
X2705Y3595D01*
X2697Y3589D01*
X2691Y3581D01*
X2687Y3571D01*
X2686Y3566D01*
X2720D01*
Y3600D01*
D02*
G37*
G36*
X2630D02*
Y3566D01*
X2664D01*
X2664Y3571D01*
X2660Y3581D01*
X2653Y3589D01*
X2645Y3595D01*
X2636Y3599D01*
X2630Y3600D01*
D02*
G37*
G36*
X2620D02*
X2615Y3599D01*
X2605Y3595D01*
X2597Y3589D01*
X2591Y3581D01*
X2587Y3571D01*
X2586Y3566D01*
X2620D01*
Y3600D01*
D02*
G37*
G36*
X2530D02*
Y3566D01*
X2564D01*
X2564Y3571D01*
X2560Y3581D01*
X2553Y3589D01*
X2545Y3595D01*
X2536Y3599D01*
X2530Y3600D01*
D02*
G37*
G36*
X2520D02*
X2515Y3599D01*
X2505Y3595D01*
X2497Y3589D01*
X2491Y3581D01*
X2487Y3571D01*
X2486Y3566D01*
X2520D01*
Y3600D01*
D02*
G37*
G36*
X2430D02*
Y3566D01*
X2464D01*
X2464Y3571D01*
X2460Y3581D01*
X2453Y3589D01*
X2445Y3595D01*
X2436Y3599D01*
X2430Y3600D01*
D02*
G37*
G36*
X2420D02*
X2415Y3599D01*
X2405Y3595D01*
X2397Y3589D01*
X2391Y3581D01*
X2387Y3571D01*
X2386Y3566D01*
X2420D01*
Y3600D01*
D02*
G37*
G36*
X2330D02*
Y3566D01*
X2364D01*
X2364Y3571D01*
X2360Y3581D01*
X2353Y3589D01*
X2345Y3595D01*
X2336Y3599D01*
X2330Y3600D01*
D02*
G37*
G36*
X2320D02*
X2315Y3599D01*
X2305Y3595D01*
X2297Y3589D01*
X2291Y3581D01*
X2287Y3571D01*
X2286Y3566D01*
X2320D01*
Y3600D01*
D02*
G37*
G36*
X2230D02*
Y3566D01*
X2264D01*
X2264Y3571D01*
X2260Y3581D01*
X2253Y3589D01*
X2245Y3595D01*
X2236Y3599D01*
X2230Y3600D01*
D02*
G37*
G36*
X2220D02*
X2215Y3599D01*
X2205Y3595D01*
X2197Y3589D01*
X2191Y3581D01*
X2187Y3571D01*
X2186Y3566D01*
X2220D01*
Y3600D01*
D02*
G37*
G36*
X4520Y3596D02*
X4510Y3595D01*
X4502Y3592D01*
X4494Y3586D01*
X4489Y3578D01*
X4485Y3570D01*
X4484Y3561D01*
X4485Y3551D01*
X4489Y3543D01*
X4494Y3535D01*
X4502Y3530D01*
X4510Y3526D01*
X4520Y3525D01*
X4529Y3526D01*
X4538Y3530D01*
X4545Y3535D01*
X4551Y3543D01*
X4554Y3551D01*
X4555Y3561D01*
X4554Y3570D01*
X4551Y3578D01*
X4545Y3586D01*
X4538Y3592D01*
X4529Y3595D01*
X4520Y3596D01*
D02*
G37*
G36*
X4420D02*
X4410Y3595D01*
X4402Y3592D01*
X4394Y3586D01*
X4389Y3578D01*
X4385Y3570D01*
X4384Y3561D01*
X4385Y3551D01*
X4389Y3543D01*
X4394Y3535D01*
X4402Y3530D01*
X4410Y3526D01*
X4420Y3525D01*
X4429Y3526D01*
X4438Y3530D01*
X4445Y3535D01*
X4451Y3543D01*
X4454Y3551D01*
X4455Y3561D01*
X4454Y3570D01*
X4451Y3578D01*
X4445Y3586D01*
X4438Y3592D01*
X4429Y3595D01*
X4420Y3596D01*
D02*
G37*
G36*
X4320D02*
X4310Y3595D01*
X4302Y3592D01*
X4294Y3586D01*
X4289Y3578D01*
X4285Y3570D01*
X4284Y3561D01*
X4285Y3551D01*
X4289Y3543D01*
X4294Y3535D01*
X4302Y3530D01*
X4310Y3526D01*
X4320Y3525D01*
X4329Y3526D01*
X4338Y3530D01*
X4345Y3535D01*
X4351Y3543D01*
X4354Y3551D01*
X4355Y3561D01*
X4354Y3570D01*
X4351Y3578D01*
X4345Y3586D01*
X4338Y3592D01*
X4329Y3595D01*
X4320Y3596D01*
D02*
G37*
G36*
X4220D02*
X4210Y3595D01*
X4202Y3592D01*
X4194Y3586D01*
X4189Y3578D01*
X4185Y3570D01*
X4184Y3561D01*
X4185Y3551D01*
X4189Y3543D01*
X4194Y3535D01*
X4202Y3530D01*
X4210Y3526D01*
X4220Y3525D01*
X4229Y3526D01*
X4238Y3530D01*
X4245Y3535D01*
X4251Y3543D01*
X4254Y3551D01*
X4255Y3561D01*
X4254Y3570D01*
X4251Y3578D01*
X4245Y3586D01*
X4238Y3592D01*
X4229Y3595D01*
X4220Y3596D01*
D02*
G37*
G36*
X4120D02*
X4110Y3595D01*
X4102Y3592D01*
X4094Y3586D01*
X4089Y3578D01*
X4085Y3570D01*
X4084Y3561D01*
X4085Y3551D01*
X4089Y3543D01*
X4094Y3535D01*
X4102Y3530D01*
X4110Y3526D01*
X4120Y3525D01*
X4129Y3526D01*
X4138Y3530D01*
X4145Y3535D01*
X4151Y3543D01*
X4154Y3551D01*
X4155Y3561D01*
X4154Y3570D01*
X4151Y3578D01*
X4145Y3586D01*
X4138Y3592D01*
X4129Y3595D01*
X4120Y3596D01*
D02*
G37*
G36*
X4020D02*
X4010Y3595D01*
X4002Y3592D01*
X3994Y3586D01*
X3989Y3578D01*
X3985Y3570D01*
X3984Y3561D01*
X3985Y3551D01*
X3989Y3543D01*
X3994Y3535D01*
X4002Y3530D01*
X4010Y3526D01*
X4020Y3525D01*
X4029Y3526D01*
X4038Y3530D01*
X4045Y3535D01*
X4051Y3543D01*
X4054Y3551D01*
X4055Y3561D01*
X4054Y3570D01*
X4051Y3578D01*
X4045Y3586D01*
X4038Y3592D01*
X4029Y3595D01*
X4020Y3596D01*
D02*
G37*
G36*
X3920D02*
X3910Y3595D01*
X3902Y3592D01*
X3894Y3586D01*
X3889Y3578D01*
X3885Y3570D01*
X3884Y3561D01*
X3885Y3551D01*
X3889Y3543D01*
X3894Y3535D01*
X3902Y3530D01*
X3910Y3526D01*
X3920Y3525D01*
X3929Y3526D01*
X3938Y3530D01*
X3945Y3535D01*
X3951Y3543D01*
X3954Y3551D01*
X3955Y3561D01*
X3954Y3570D01*
X3951Y3578D01*
X3945Y3586D01*
X3938Y3592D01*
X3929Y3595D01*
X3920Y3596D01*
D02*
G37*
G36*
X3820D02*
X3810Y3595D01*
X3802Y3592D01*
X3794Y3586D01*
X3789Y3578D01*
X3785Y3570D01*
X3784Y3561D01*
X3785Y3551D01*
X3789Y3543D01*
X3794Y3535D01*
X3802Y3530D01*
X3810Y3526D01*
X3820Y3525D01*
X3829Y3526D01*
X3838Y3530D01*
X3845Y3535D01*
X3851Y3543D01*
X3854Y3551D01*
X3855Y3561D01*
X3854Y3570D01*
X3851Y3578D01*
X3845Y3586D01*
X3838Y3592D01*
X3829Y3595D01*
X3820Y3596D01*
D02*
G37*
G36*
X2125D02*
X2116Y3595D01*
X2107Y3592D01*
X2100Y3586D01*
X2094Y3578D01*
X2091Y3570D01*
X2089Y3561D01*
X2091Y3551D01*
X2094Y3543D01*
X2100Y3535D01*
X2107Y3530D01*
X2116Y3526D01*
X2125Y3525D01*
X2134Y3526D01*
X2143Y3530D01*
X2150Y3535D01*
X2156Y3543D01*
X2160Y3551D01*
X2161Y3561D01*
X2160Y3570D01*
X2156Y3578D01*
X2150Y3586D01*
X2143Y3592D01*
X2134Y3595D01*
X2125Y3596D01*
D02*
G37*
G36*
X3759Y3556D02*
X3725D01*
Y3521D01*
X3730Y3522D01*
X3740Y3526D01*
X3748Y3532D01*
X3754Y3541D01*
X3758Y3550D01*
X3759Y3556D01*
D02*
G37*
G36*
X3715D02*
X3680D01*
X3681Y3550D01*
X3685Y3541D01*
X3691Y3532D01*
X3700Y3526D01*
X3709Y3522D01*
X3715Y3521D01*
Y3556D01*
D02*
G37*
G36*
X3064D02*
X3030D01*
Y3521D01*
X3036Y3522D01*
X3045Y3526D01*
X3053Y3532D01*
X3060Y3541D01*
X3064Y3550D01*
X3064Y3556D01*
D02*
G37*
G36*
X3020D02*
X2986D01*
X2987Y3550D01*
X2991Y3541D01*
X2997Y3532D01*
X3005Y3526D01*
X3015Y3522D01*
X3020Y3521D01*
Y3556D01*
D02*
G37*
G36*
X2964D02*
X2930D01*
Y3521D01*
X2936Y3522D01*
X2945Y3526D01*
X2953Y3532D01*
X2960Y3541D01*
X2964Y3550D01*
X2964Y3556D01*
D02*
G37*
G36*
X2920D02*
X2886D01*
X2887Y3550D01*
X2891Y3541D01*
X2897Y3532D01*
X2905Y3526D01*
X2915Y3522D01*
X2920Y3521D01*
Y3556D01*
D02*
G37*
G36*
X2864D02*
X2830D01*
Y3521D01*
X2836Y3522D01*
X2845Y3526D01*
X2853Y3532D01*
X2860Y3541D01*
X2864Y3550D01*
X2864Y3556D01*
D02*
G37*
G36*
X2820D02*
X2786D01*
X2787Y3550D01*
X2791Y3541D01*
X2797Y3532D01*
X2805Y3526D01*
X2815Y3522D01*
X2820Y3521D01*
Y3556D01*
D02*
G37*
G36*
X2764D02*
X2730D01*
Y3521D01*
X2736Y3522D01*
X2745Y3526D01*
X2753Y3532D01*
X2760Y3541D01*
X2764Y3550D01*
X2764Y3556D01*
D02*
G37*
G36*
X2720D02*
X2686D01*
X2687Y3550D01*
X2691Y3541D01*
X2697Y3532D01*
X2705Y3526D01*
X2715Y3522D01*
X2720Y3521D01*
Y3556D01*
D02*
G37*
G36*
X2664D02*
X2630D01*
Y3521D01*
X2636Y3522D01*
X2645Y3526D01*
X2653Y3532D01*
X2660Y3541D01*
X2664Y3550D01*
X2664Y3556D01*
D02*
G37*
G36*
X2620D02*
X2586D01*
X2587Y3550D01*
X2591Y3541D01*
X2597Y3532D01*
X2605Y3526D01*
X2615Y3522D01*
X2620Y3521D01*
Y3556D01*
D02*
G37*
G36*
X2564D02*
X2530D01*
Y3521D01*
X2536Y3522D01*
X2545Y3526D01*
X2553Y3532D01*
X2560Y3541D01*
X2564Y3550D01*
X2564Y3556D01*
D02*
G37*
G36*
X2520D02*
X2486D01*
X2487Y3550D01*
X2491Y3541D01*
X2497Y3532D01*
X2505Y3526D01*
X2515Y3522D01*
X2520Y3521D01*
Y3556D01*
D02*
G37*
G36*
X2464D02*
X2430D01*
Y3521D01*
X2436Y3522D01*
X2445Y3526D01*
X2453Y3532D01*
X2460Y3541D01*
X2464Y3550D01*
X2464Y3556D01*
D02*
G37*
G36*
X2420D02*
X2386D01*
X2387Y3550D01*
X2391Y3541D01*
X2397Y3532D01*
X2405Y3526D01*
X2415Y3522D01*
X2420Y3521D01*
Y3556D01*
D02*
G37*
G36*
X2364D02*
X2330D01*
Y3521D01*
X2336Y3522D01*
X2345Y3526D01*
X2353Y3532D01*
X2360Y3541D01*
X2364Y3550D01*
X2364Y3556D01*
D02*
G37*
G36*
X2320D02*
X2286D01*
X2287Y3550D01*
X2291Y3541D01*
X2297Y3532D01*
X2305Y3526D01*
X2315Y3522D01*
X2320Y3521D01*
Y3556D01*
D02*
G37*
G36*
X2264D02*
X2230D01*
Y3521D01*
X2236Y3522D01*
X2245Y3526D01*
X2253Y3532D01*
X2260Y3541D01*
X2264Y3550D01*
X2264Y3556D01*
D02*
G37*
G36*
X2220D02*
X2186D01*
X2187Y3550D01*
X2191Y3541D01*
X2197Y3532D01*
X2205Y3526D01*
X2215Y3522D01*
X2220Y3521D01*
Y3556D01*
D02*
G37*
G36*
X564Y3547D02*
X493D01*
Y3476D01*
X564D01*
Y3547D01*
D02*
G37*
G36*
X1628Y3548D02*
X1619Y3546D01*
X1610Y3543D01*
X1603Y3537D01*
X1597Y3530D01*
X1594Y3521D01*
X1593Y3512D01*
X1594Y3503D01*
X1597Y3494D01*
X1603Y3487D01*
X1610Y3481D01*
X1619Y3477D01*
X1628Y3476D01*
X1638Y3477D01*
X1646Y3481D01*
X1654Y3487D01*
X1659Y3494D01*
X1663Y3503D01*
X1664Y3512D01*
X1663Y3521D01*
X1659Y3530D01*
X1654Y3537D01*
X1646Y3543D01*
X1638Y3546D01*
X1628Y3548D01*
D02*
G37*
G36*
X1528D02*
X1519Y3546D01*
X1510Y3543D01*
X1503Y3537D01*
X1497Y3530D01*
X1494Y3521D01*
X1493Y3512D01*
X1494Y3503D01*
X1497Y3494D01*
X1503Y3487D01*
X1510Y3481D01*
X1519Y3477D01*
X1528Y3476D01*
X1538Y3477D01*
X1546Y3481D01*
X1554Y3487D01*
X1559Y3494D01*
X1563Y3503D01*
X1564Y3512D01*
X1563Y3521D01*
X1559Y3530D01*
X1554Y3537D01*
X1546Y3543D01*
X1538Y3546D01*
X1528Y3548D01*
D02*
G37*
G36*
X1428D02*
X1419Y3546D01*
X1410Y3543D01*
X1403Y3537D01*
X1397Y3530D01*
X1394Y3521D01*
X1393Y3512D01*
X1394Y3503D01*
X1397Y3494D01*
X1403Y3487D01*
X1410Y3481D01*
X1419Y3477D01*
X1428Y3476D01*
X1438Y3477D01*
X1446Y3481D01*
X1454Y3487D01*
X1459Y3494D01*
X1463Y3503D01*
X1464Y3512D01*
X1463Y3521D01*
X1459Y3530D01*
X1454Y3537D01*
X1446Y3543D01*
X1438Y3546D01*
X1428Y3548D01*
D02*
G37*
G36*
X1328D02*
X1319Y3546D01*
X1310Y3543D01*
X1303Y3537D01*
X1297Y3530D01*
X1294Y3521D01*
X1293Y3512D01*
X1294Y3503D01*
X1297Y3494D01*
X1303Y3487D01*
X1310Y3481D01*
X1319Y3477D01*
X1328Y3476D01*
X1338Y3477D01*
X1346Y3481D01*
X1354Y3487D01*
X1359Y3494D01*
X1363Y3503D01*
X1364Y3512D01*
X1363Y3521D01*
X1359Y3530D01*
X1354Y3537D01*
X1346Y3543D01*
X1338Y3546D01*
X1328Y3548D01*
D02*
G37*
G36*
X1228D02*
X1219Y3546D01*
X1210Y3543D01*
X1203Y3537D01*
X1197Y3530D01*
X1194Y3521D01*
X1193Y3512D01*
X1194Y3503D01*
X1197Y3494D01*
X1203Y3487D01*
X1210Y3481D01*
X1219Y3477D01*
X1228Y3476D01*
X1238Y3477D01*
X1246Y3481D01*
X1254Y3487D01*
X1259Y3494D01*
X1263Y3503D01*
X1264Y3512D01*
X1263Y3521D01*
X1259Y3530D01*
X1254Y3537D01*
X1246Y3543D01*
X1238Y3546D01*
X1228Y3548D01*
D02*
G37*
G36*
X1128D02*
X1119Y3546D01*
X1110Y3543D01*
X1103Y3537D01*
X1097Y3530D01*
X1094Y3521D01*
X1093Y3512D01*
X1094Y3503D01*
X1097Y3494D01*
X1103Y3487D01*
X1110Y3481D01*
X1119Y3477D01*
X1128Y3476D01*
X1138Y3477D01*
X1146Y3481D01*
X1154Y3487D01*
X1159Y3494D01*
X1163Y3503D01*
X1164Y3512D01*
X1163Y3521D01*
X1159Y3530D01*
X1154Y3537D01*
X1146Y3543D01*
X1138Y3546D01*
X1128Y3548D01*
D02*
G37*
G36*
X1028D02*
X1019Y3546D01*
X1010Y3543D01*
X1003Y3537D01*
X997Y3530D01*
X994Y3521D01*
X993Y3512D01*
X994Y3503D01*
X997Y3494D01*
X1003Y3487D01*
X1010Y3481D01*
X1019Y3477D01*
X1028Y3476D01*
X1038Y3477D01*
X1046Y3481D01*
X1054Y3487D01*
X1059Y3494D01*
X1063Y3503D01*
X1064Y3512D01*
X1063Y3521D01*
X1059Y3530D01*
X1054Y3537D01*
X1046Y3543D01*
X1038Y3546D01*
X1028Y3548D01*
D02*
G37*
G36*
X928D02*
X919Y3546D01*
X910Y3543D01*
X903Y3537D01*
X897Y3530D01*
X894Y3521D01*
X893Y3512D01*
X894Y3503D01*
X897Y3494D01*
X903Y3487D01*
X910Y3481D01*
X919Y3477D01*
X928Y3476D01*
X938Y3477D01*
X946Y3481D01*
X954Y3487D01*
X959Y3494D01*
X963Y3503D01*
X964Y3512D01*
X963Y3521D01*
X959Y3530D01*
X954Y3537D01*
X946Y3543D01*
X938Y3546D01*
X928Y3548D01*
D02*
G37*
G36*
X828D02*
X819Y3546D01*
X810Y3543D01*
X803Y3537D01*
X797Y3530D01*
X794Y3521D01*
X793Y3512D01*
X794Y3503D01*
X797Y3494D01*
X803Y3487D01*
X810Y3481D01*
X819Y3477D01*
X828Y3476D01*
X838Y3477D01*
X846Y3481D01*
X854Y3487D01*
X859Y3494D01*
X863Y3503D01*
X864Y3512D01*
X863Y3521D01*
X859Y3530D01*
X854Y3537D01*
X846Y3543D01*
X838Y3546D01*
X828Y3548D01*
D02*
G37*
G36*
X728D02*
X719Y3546D01*
X710Y3543D01*
X703Y3537D01*
X697Y3530D01*
X694Y3521D01*
X693Y3512D01*
X694Y3503D01*
X697Y3494D01*
X703Y3487D01*
X710Y3481D01*
X719Y3477D01*
X728Y3476D01*
X738Y3477D01*
X746Y3481D01*
X754Y3487D01*
X759Y3494D01*
X763Y3503D01*
X764Y3512D01*
X763Y3521D01*
X759Y3530D01*
X754Y3537D01*
X746Y3543D01*
X738Y3546D01*
X728Y3548D01*
D02*
G37*
G36*
X628D02*
X619Y3546D01*
X610Y3543D01*
X603Y3537D01*
X597Y3530D01*
X594Y3521D01*
X593Y3512D01*
X594Y3503D01*
X597Y3494D01*
X603Y3487D01*
X610Y3481D01*
X619Y3477D01*
X628Y3476D01*
X638Y3477D01*
X646Y3481D01*
X654Y3487D01*
X659Y3494D01*
X663Y3503D01*
X664Y3512D01*
X663Y3521D01*
X659Y3530D01*
X654Y3537D01*
X646Y3543D01*
X638Y3546D01*
X628Y3548D01*
D02*
G37*
G36*
X3755Y3496D02*
X3684D01*
Y3425D01*
X3755D01*
Y3496D01*
D02*
G37*
G36*
X2161D02*
X2090D01*
Y3425D01*
X2161D01*
Y3496D01*
D02*
G37*
G36*
X4520Y3496D02*
X4510Y3495D01*
X4502Y3492D01*
X4494Y3486D01*
X4489Y3478D01*
X4485Y3470D01*
X4484Y3461D01*
X4485Y3451D01*
X4489Y3443D01*
X4494Y3435D01*
X4502Y3430D01*
X4510Y3426D01*
X4520Y3425D01*
X4529Y3426D01*
X4538Y3430D01*
X4545Y3435D01*
X4551Y3443D01*
X4554Y3451D01*
X4555Y3461D01*
X4554Y3470D01*
X4551Y3478D01*
X4545Y3486D01*
X4538Y3492D01*
X4529Y3495D01*
X4520Y3496D01*
D02*
G37*
G36*
X4420D02*
X4410Y3495D01*
X4402Y3492D01*
X4394Y3486D01*
X4389Y3478D01*
X4385Y3470D01*
X4384Y3461D01*
X4385Y3451D01*
X4389Y3443D01*
X4394Y3435D01*
X4402Y3430D01*
X4410Y3426D01*
X4420Y3425D01*
X4429Y3426D01*
X4438Y3430D01*
X4445Y3435D01*
X4451Y3443D01*
X4454Y3451D01*
X4455Y3461D01*
X4454Y3470D01*
X4451Y3478D01*
X4445Y3486D01*
X4438Y3492D01*
X4429Y3495D01*
X4420Y3496D01*
D02*
G37*
G36*
X4320D02*
X4310Y3495D01*
X4302Y3492D01*
X4294Y3486D01*
X4289Y3478D01*
X4285Y3470D01*
X4284Y3461D01*
X4285Y3451D01*
X4289Y3443D01*
X4294Y3435D01*
X4302Y3430D01*
X4310Y3426D01*
X4320Y3425D01*
X4329Y3426D01*
X4338Y3430D01*
X4345Y3435D01*
X4351Y3443D01*
X4354Y3451D01*
X4355Y3461D01*
X4354Y3470D01*
X4351Y3478D01*
X4345Y3486D01*
X4338Y3492D01*
X4329Y3495D01*
X4320Y3496D01*
D02*
G37*
G36*
X4220D02*
X4210Y3495D01*
X4202Y3492D01*
X4194Y3486D01*
X4189Y3478D01*
X4185Y3470D01*
X4184Y3461D01*
X4185Y3451D01*
X4189Y3443D01*
X4194Y3435D01*
X4202Y3430D01*
X4210Y3426D01*
X4220Y3425D01*
X4229Y3426D01*
X4238Y3430D01*
X4245Y3435D01*
X4251Y3443D01*
X4254Y3451D01*
X4255Y3461D01*
X4254Y3470D01*
X4251Y3478D01*
X4245Y3486D01*
X4238Y3492D01*
X4229Y3495D01*
X4220Y3496D01*
D02*
G37*
G36*
X4120D02*
X4110Y3495D01*
X4102Y3492D01*
X4094Y3486D01*
X4089Y3478D01*
X4085Y3470D01*
X4084Y3461D01*
X4085Y3451D01*
X4089Y3443D01*
X4094Y3435D01*
X4102Y3430D01*
X4110Y3426D01*
X4120Y3425D01*
X4129Y3426D01*
X4138Y3430D01*
X4145Y3435D01*
X4151Y3443D01*
X4154Y3451D01*
X4155Y3461D01*
X4154Y3470D01*
X4151Y3478D01*
X4145Y3486D01*
X4138Y3492D01*
X4129Y3495D01*
X4120Y3496D01*
D02*
G37*
G36*
X4020D02*
X4010Y3495D01*
X4002Y3492D01*
X3994Y3486D01*
X3989Y3478D01*
X3985Y3470D01*
X3984Y3461D01*
X3985Y3451D01*
X3989Y3443D01*
X3994Y3435D01*
X4002Y3430D01*
X4010Y3426D01*
X4020Y3425D01*
X4029Y3426D01*
X4038Y3430D01*
X4045Y3435D01*
X4051Y3443D01*
X4054Y3451D01*
X4055Y3461D01*
X4054Y3470D01*
X4051Y3478D01*
X4045Y3486D01*
X4038Y3492D01*
X4029Y3495D01*
X4020Y3496D01*
D02*
G37*
G36*
X3920D02*
X3910Y3495D01*
X3902Y3492D01*
X3894Y3486D01*
X3889Y3478D01*
X3885Y3470D01*
X3884Y3461D01*
X3885Y3451D01*
X3889Y3443D01*
X3894Y3435D01*
X3902Y3430D01*
X3910Y3426D01*
X3920Y3425D01*
X3929Y3426D01*
X3938Y3430D01*
X3945Y3435D01*
X3951Y3443D01*
X3954Y3451D01*
X3955Y3461D01*
X3954Y3470D01*
X3951Y3478D01*
X3945Y3486D01*
X3938Y3492D01*
X3929Y3495D01*
X3920Y3496D01*
D02*
G37*
G36*
X3820D02*
X3810Y3495D01*
X3802Y3492D01*
X3794Y3486D01*
X3789Y3478D01*
X3785Y3470D01*
X3784Y3461D01*
X3785Y3451D01*
X3789Y3443D01*
X3794Y3435D01*
X3802Y3430D01*
X3810Y3426D01*
X3820Y3425D01*
X3829Y3426D01*
X3838Y3430D01*
X3845Y3435D01*
X3851Y3443D01*
X3854Y3451D01*
X3855Y3461D01*
X3854Y3470D01*
X3851Y3478D01*
X3845Y3486D01*
X3838Y3492D01*
X3829Y3495D01*
X3820Y3496D01*
D02*
G37*
G36*
X3025D02*
X3016Y3495D01*
X3007Y3492D01*
X3000Y3486D01*
X2994Y3478D01*
X2991Y3470D01*
X2989Y3461D01*
X2991Y3451D01*
X2994Y3443D01*
X3000Y3435D01*
X3007Y3430D01*
X3016Y3426D01*
X3025Y3425D01*
X3034Y3426D01*
X3043Y3430D01*
X3050Y3435D01*
X3056Y3443D01*
X3060Y3451D01*
X3061Y3461D01*
X3060Y3470D01*
X3056Y3478D01*
X3050Y3486D01*
X3043Y3492D01*
X3034Y3495D01*
X3025Y3496D01*
D02*
G37*
G36*
X2925D02*
X2916Y3495D01*
X2907Y3492D01*
X2900Y3486D01*
X2894Y3478D01*
X2891Y3470D01*
X2889Y3461D01*
X2891Y3451D01*
X2894Y3443D01*
X2900Y3435D01*
X2907Y3430D01*
X2916Y3426D01*
X2925Y3425D01*
X2934Y3426D01*
X2943Y3430D01*
X2950Y3435D01*
X2956Y3443D01*
X2960Y3451D01*
X2961Y3461D01*
X2960Y3470D01*
X2956Y3478D01*
X2950Y3486D01*
X2943Y3492D01*
X2934Y3495D01*
X2925Y3496D01*
D02*
G37*
G36*
X2825D02*
X2816Y3495D01*
X2807Y3492D01*
X2800Y3486D01*
X2794Y3478D01*
X2791Y3470D01*
X2789Y3461D01*
X2791Y3451D01*
X2794Y3443D01*
X2800Y3435D01*
X2807Y3430D01*
X2816Y3426D01*
X2825Y3425D01*
X2834Y3426D01*
X2843Y3430D01*
X2850Y3435D01*
X2856Y3443D01*
X2860Y3451D01*
X2861Y3461D01*
X2860Y3470D01*
X2856Y3478D01*
X2850Y3486D01*
X2843Y3492D01*
X2834Y3495D01*
X2825Y3496D01*
D02*
G37*
G36*
X2725D02*
X2716Y3495D01*
X2707Y3492D01*
X2700Y3486D01*
X2694Y3478D01*
X2691Y3470D01*
X2689Y3461D01*
X2691Y3451D01*
X2694Y3443D01*
X2700Y3435D01*
X2707Y3430D01*
X2716Y3426D01*
X2725Y3425D01*
X2734Y3426D01*
X2743Y3430D01*
X2750Y3435D01*
X2756Y3443D01*
X2760Y3451D01*
X2761Y3461D01*
X2760Y3470D01*
X2756Y3478D01*
X2750Y3486D01*
X2743Y3492D01*
X2734Y3495D01*
X2725Y3496D01*
D02*
G37*
G36*
X2625D02*
X2616Y3495D01*
X2607Y3492D01*
X2600Y3486D01*
X2594Y3478D01*
X2591Y3470D01*
X2589Y3461D01*
X2591Y3451D01*
X2594Y3443D01*
X2600Y3435D01*
X2607Y3430D01*
X2616Y3426D01*
X2625Y3425D01*
X2634Y3426D01*
X2643Y3430D01*
X2650Y3435D01*
X2656Y3443D01*
X2660Y3451D01*
X2661Y3461D01*
X2660Y3470D01*
X2656Y3478D01*
X2650Y3486D01*
X2643Y3492D01*
X2634Y3495D01*
X2625Y3496D01*
D02*
G37*
G36*
X2525D02*
X2516Y3495D01*
X2507Y3492D01*
X2500Y3486D01*
X2494Y3478D01*
X2491Y3470D01*
X2489Y3461D01*
X2491Y3451D01*
X2494Y3443D01*
X2500Y3435D01*
X2507Y3430D01*
X2516Y3426D01*
X2525Y3425D01*
X2534Y3426D01*
X2543Y3430D01*
X2550Y3435D01*
X2556Y3443D01*
X2560Y3451D01*
X2561Y3461D01*
X2560Y3470D01*
X2556Y3478D01*
X2550Y3486D01*
X2543Y3492D01*
X2534Y3495D01*
X2525Y3496D01*
D02*
G37*
G36*
X2425D02*
X2416Y3495D01*
X2407Y3492D01*
X2400Y3486D01*
X2394Y3478D01*
X2391Y3470D01*
X2389Y3461D01*
X2391Y3451D01*
X2394Y3443D01*
X2400Y3435D01*
X2407Y3430D01*
X2416Y3426D01*
X2425Y3425D01*
X2434Y3426D01*
X2443Y3430D01*
X2450Y3435D01*
X2456Y3443D01*
X2460Y3451D01*
X2461Y3461D01*
X2460Y3470D01*
X2456Y3478D01*
X2450Y3486D01*
X2443Y3492D01*
X2434Y3495D01*
X2425Y3496D01*
D02*
G37*
G36*
X2325D02*
X2316Y3495D01*
X2307Y3492D01*
X2300Y3486D01*
X2294Y3478D01*
X2291Y3470D01*
X2289Y3461D01*
X2291Y3451D01*
X2294Y3443D01*
X2300Y3435D01*
X2307Y3430D01*
X2316Y3426D01*
X2325Y3425D01*
X2334Y3426D01*
X2343Y3430D01*
X2350Y3435D01*
X2356Y3443D01*
X2360Y3451D01*
X2361Y3461D01*
X2360Y3470D01*
X2356Y3478D01*
X2350Y3486D01*
X2343Y3492D01*
X2334Y3495D01*
X2325Y3496D01*
D02*
G37*
G36*
X2225D02*
X2216Y3495D01*
X2207Y3492D01*
X2200Y3486D01*
X2194Y3478D01*
X2191Y3470D01*
X2189Y3461D01*
X2191Y3451D01*
X2194Y3443D01*
X2200Y3435D01*
X2207Y3430D01*
X2216Y3426D01*
X2225Y3425D01*
X2234Y3426D01*
X2243Y3430D01*
X2250Y3435D01*
X2256Y3443D01*
X2260Y3451D01*
X2261Y3461D01*
X2260Y3470D01*
X2256Y3478D01*
X2250Y3486D01*
X2243Y3492D01*
X2234Y3495D01*
X2225Y3496D01*
D02*
G37*
G36*
X4654Y3227D02*
X4603Y3177D01*
X4654Y3127D01*
X4704Y3177D01*
X4654Y3227D01*
D02*
G37*
G36*
X3591D02*
X3540Y3177D01*
X3591Y3127D01*
X3641Y3177D01*
X3591Y3227D01*
D02*
G37*
G36*
X4724Y3146D02*
X4714Y3145D01*
X4704Y3141D01*
X4700Y3138D01*
X4724Y3114D01*
X4748Y3138D01*
X4744Y3141D01*
X4735Y3145D01*
X4724Y3146D01*
D02*
G37*
G36*
X4693Y3131D02*
X4690Y3126D01*
X4686Y3117D01*
X4684Y3106D01*
X4686Y3096D01*
X4690Y3087D01*
X4693Y3082D01*
X4717Y3106D01*
X4693Y3131D01*
D02*
G37*
G36*
X4756D02*
X4731Y3106D01*
X4756Y3082D01*
X4759Y3087D01*
X4763Y3096D01*
X4764Y3106D01*
X4763Y3117D01*
X4759Y3126D01*
X4756Y3131D01*
D02*
G37*
G36*
X3520Y3142D02*
X3511Y3141D01*
X3502Y3137D01*
X3495Y3132D01*
X3489Y3124D01*
X3485Y3116D01*
X3484Y3106D01*
X3485Y3097D01*
X3489Y3089D01*
X3495Y3081D01*
X3502Y3076D01*
X3511Y3072D01*
X3520Y3071D01*
X3529Y3072D01*
X3538Y3076D01*
X3545Y3081D01*
X3551Y3089D01*
X3554Y3097D01*
X3556Y3106D01*
X3554Y3116D01*
X3551Y3124D01*
X3545Y3132D01*
X3538Y3137D01*
X3529Y3141D01*
X3520Y3142D01*
D02*
G37*
G36*
X4724Y3099D02*
X4700Y3075D01*
X4704Y3072D01*
X4714Y3068D01*
X4724Y3067D01*
X4735Y3068D01*
X4744Y3072D01*
X4748Y3075D01*
X4724Y3099D01*
D02*
G37*
G36*
X4795Y3071D02*
X4786Y3070D01*
X4777Y3067D01*
X4770Y3061D01*
X4764Y3054D01*
X4760Y3045D01*
X4759Y3036D01*
X4760Y3026D01*
X4764Y3018D01*
X4770Y3010D01*
X4777Y3005D01*
X4786Y3001D01*
X4795Y3000D01*
X4804Y3001D01*
X4813Y3005D01*
X4820Y3010D01*
X4826Y3018D01*
X4829Y3026D01*
X4831Y3036D01*
X4829Y3045D01*
X4826Y3054D01*
X4820Y3061D01*
X4813Y3067D01*
X4804Y3070D01*
X4795Y3071D01*
D02*
G37*
G36*
X3449Y3071D02*
X3440Y3070D01*
X3431Y3067D01*
X3424Y3061D01*
X3418Y3054D01*
X3415Y3045D01*
X3413Y3036D01*
X3415Y3026D01*
X3418Y3018D01*
X3424Y3010D01*
X3431Y3005D01*
X3440Y3001D01*
X3449Y3000D01*
X3458Y3001D01*
X3467Y3005D01*
X3474Y3010D01*
X3480Y3018D01*
X3484Y3026D01*
X3485Y3036D01*
X3484Y3045D01*
X3480Y3054D01*
X3474Y3061D01*
X3467Y3067D01*
X3458Y3070D01*
X3449Y3071D01*
D02*
G37*
G36*
X4866Y3001D02*
X4856Y3000D01*
X4848Y2996D01*
X4840Y2990D01*
X4835Y2983D01*
X4831Y2974D01*
X4830Y2965D01*
X4831Y2956D01*
X4835Y2947D01*
X4840Y2940D01*
X4848Y2934D01*
X4856Y2931D01*
X4866Y2929D01*
X4875Y2931D01*
X4884Y2934D01*
X4891Y2940D01*
X4897Y2947D01*
X4900Y2956D01*
X4901Y2965D01*
X4900Y2974D01*
X4897Y2983D01*
X4891Y2990D01*
X4884Y2996D01*
X4875Y3000D01*
X4866Y3001D01*
D02*
G37*
G36*
X3378D02*
X3369Y3000D01*
X3361Y2996D01*
X3353Y2990D01*
X3347Y2983D01*
X3344Y2974D01*
X3343Y2965D01*
X3344Y2956D01*
X3347Y2947D01*
X3353Y2940D01*
X3361Y2934D01*
X3369Y2931D01*
X3378Y2929D01*
X3388Y2931D01*
X3396Y2934D01*
X3404Y2940D01*
X3409Y2947D01*
X3413Y2956D01*
X3414Y2965D01*
X3413Y2974D01*
X3409Y2983D01*
X3404Y2990D01*
X3396Y2996D01*
X3388Y3000D01*
X3378Y3001D01*
D02*
G37*
G36*
X1426Y2892D02*
Y2883D01*
X1435D01*
X1435Y2884D01*
X1432Y2889D01*
X1427Y2892D01*
X1426Y2892D01*
D02*
G37*
G36*
X1416D02*
X1415Y2892D01*
X1411Y2889D01*
X1407Y2884D01*
X1407Y2883D01*
X1416D01*
Y2892D01*
D02*
G37*
G36*
X1435Y2873D02*
X1426D01*
Y2864D01*
X1427Y2864D01*
X1432Y2867D01*
X1435Y2872D01*
X1435Y2873D01*
D02*
G37*
G36*
X1416D02*
X1407D01*
X1407Y2872D01*
X1411Y2867D01*
X1415Y2864D01*
X1416Y2864D01*
Y2873D01*
D02*
G37*
G36*
X4936Y2930D02*
X4927Y2929D01*
X4919Y2925D01*
X4911Y2920D01*
X4905Y2912D01*
X4902Y2904D01*
X4901Y2894D01*
X4902Y2885D01*
X4905Y2876D01*
X4911Y2869D01*
X4919Y2863D01*
X4927Y2860D01*
X4936Y2859D01*
X4946Y2860D01*
X4954Y2863D01*
X4962Y2869D01*
X4967Y2876D01*
X4971Y2885D01*
X4972Y2894D01*
X4971Y2904D01*
X4967Y2912D01*
X4962Y2920D01*
X4954Y2925D01*
X4946Y2929D01*
X4936Y2930D01*
D02*
G37*
G36*
X3308Y2930D02*
X3298Y2929D01*
X3290Y2925D01*
X3282Y2920D01*
X3277Y2912D01*
X3273Y2904D01*
X3272Y2894D01*
X3273Y2885D01*
X3277Y2876D01*
X3282Y2869D01*
X3290Y2863D01*
X3298Y2860D01*
X3308Y2859D01*
X3317Y2860D01*
X3326Y2863D01*
X3333Y2869D01*
X3339Y2876D01*
X3342Y2885D01*
X3343Y2894D01*
X3342Y2904D01*
X3339Y2912D01*
X3333Y2920D01*
X3326Y2925D01*
X3317Y2929D01*
X3308Y2930D01*
D02*
G37*
G36*
X1275Y2797D02*
Y2787D01*
X1285D01*
X1285Y2788D01*
X1281Y2793D01*
X1276Y2796D01*
X1275Y2797D01*
D02*
G37*
G36*
X1265D02*
X1265Y2796D01*
X1260Y2793D01*
X1256Y2788D01*
X1256Y2787D01*
X1265D01*
Y2797D01*
D02*
G37*
G36*
X1285Y2777D02*
X1275D01*
Y2768D01*
X1276Y2768D01*
X1281Y2772D01*
X1285Y2776D01*
X1285Y2777D01*
D02*
G37*
G36*
X1265D02*
X1256D01*
X1256Y2776D01*
X1260Y2772D01*
X1265Y2768D01*
X1265Y2768D01*
Y2777D01*
D02*
G37*
G36*
X5043Y2677D02*
X4972D01*
Y2606D01*
X5043D01*
Y2677D01*
D02*
G37*
G36*
X3295D02*
X3224D01*
Y2606D01*
X3295D01*
Y2677D01*
D02*
G37*
G36*
X5008Y2577D02*
X4999Y2576D01*
X4990Y2573D01*
X4983Y2567D01*
X4977Y2560D01*
X4973Y2551D01*
X4972Y2542D01*
X4973Y2532D01*
X4977Y2524D01*
X4983Y2516D01*
X4990Y2511D01*
X4999Y2507D01*
X5008Y2506D01*
X5017Y2507D01*
X5026Y2511D01*
X5033Y2516D01*
X5039Y2524D01*
X5042Y2532D01*
X5044Y2542D01*
X5042Y2551D01*
X5039Y2560D01*
X5033Y2567D01*
X5026Y2573D01*
X5017Y2576D01*
X5008Y2577D01*
D02*
G37*
G36*
X3260D02*
X3251Y2576D01*
X3242Y2573D01*
X3235Y2567D01*
X3229Y2560D01*
X3225Y2551D01*
X3224Y2542D01*
X3225Y2532D01*
X3229Y2524D01*
X3235Y2516D01*
X3242Y2511D01*
X3251Y2507D01*
X3260Y2506D01*
X3269Y2507D01*
X3278Y2511D01*
X3285Y2516D01*
X3291Y2524D01*
X3294Y2532D01*
X3296Y2542D01*
X3294Y2551D01*
X3291Y2560D01*
X3285Y2567D01*
X3278Y2573D01*
X3269Y2576D01*
X3260Y2577D01*
D02*
G37*
G36*
X5008Y2477D02*
X4999Y2476D01*
X4990Y2473D01*
X4983Y2467D01*
X4977Y2460D01*
X4973Y2451D01*
X4972Y2442D01*
X4973Y2432D01*
X4977Y2424D01*
X4983Y2416D01*
X4990Y2411D01*
X4999Y2407D01*
X5008Y2406D01*
X5017Y2407D01*
X5026Y2411D01*
X5033Y2416D01*
X5039Y2424D01*
X5042Y2432D01*
X5044Y2442D01*
X5042Y2451D01*
X5039Y2460D01*
X5033Y2467D01*
X5026Y2473D01*
X5017Y2476D01*
X5008Y2477D01*
D02*
G37*
G36*
X3260D02*
X3251Y2476D01*
X3242Y2473D01*
X3235Y2467D01*
X3229Y2460D01*
X3225Y2451D01*
X3224Y2442D01*
X3225Y2432D01*
X3229Y2424D01*
X3235Y2416D01*
X3242Y2411D01*
X3251Y2407D01*
X3260Y2406D01*
X3269Y2407D01*
X3278Y2411D01*
X3285Y2416D01*
X3291Y2424D01*
X3294Y2432D01*
X3296Y2442D01*
X3294Y2451D01*
X3291Y2460D01*
X3285Y2467D01*
X3278Y2473D01*
X3269Y2476D01*
X3260Y2477D01*
D02*
G37*
G36*
X3265Y2381D02*
Y2347D01*
X3299D01*
X3298Y2352D01*
X3294Y2362D01*
X3288Y2370D01*
X3280Y2376D01*
X3270Y2380D01*
X3265Y2381D01*
D02*
G37*
G36*
X3255D02*
X3250Y2380D01*
X3240Y2376D01*
X3232Y2370D01*
X3225Y2362D01*
X3221Y2352D01*
X3221Y2347D01*
X3255D01*
Y2381D01*
D02*
G37*
G36*
X5008Y2377D02*
X4999Y2376D01*
X4990Y2373D01*
X4983Y2367D01*
X4977Y2360D01*
X4973Y2351D01*
X4972Y2342D01*
X4973Y2332D01*
X4977Y2324D01*
X4983Y2316D01*
X4990Y2311D01*
X4999Y2307D01*
X5008Y2306D01*
X5017Y2307D01*
X5026Y2311D01*
X5033Y2316D01*
X5039Y2324D01*
X5042Y2332D01*
X5044Y2342D01*
X5042Y2351D01*
X5039Y2360D01*
X5033Y2367D01*
X5026Y2373D01*
X5017Y2376D01*
X5008Y2377D01*
D02*
G37*
G36*
X3299Y2337D02*
X3265D01*
Y2303D01*
X3270Y2303D01*
X3280Y2307D01*
X3288Y2314D01*
X3294Y2322D01*
X3298Y2331D01*
X3299Y2337D01*
D02*
G37*
G36*
X3255D02*
X3221D01*
X3221Y2331D01*
X3225Y2322D01*
X3232Y2314D01*
X3240Y2307D01*
X3250Y2303D01*
X3255Y2303D01*
Y2337D01*
D02*
G37*
G36*
X165Y2277D02*
X94D01*
Y2206D01*
X165D01*
Y2277D01*
D02*
G37*
G36*
X5008Y2277D02*
X4999Y2276D01*
X4990Y2273D01*
X4983Y2267D01*
X4977Y2260D01*
X4973Y2251D01*
X4972Y2242D01*
X4973Y2232D01*
X4977Y2224D01*
X4983Y2216D01*
X4990Y2211D01*
X4999Y2207D01*
X5008Y2206D01*
X5017Y2207D01*
X5026Y2211D01*
X5033Y2216D01*
X5039Y2224D01*
X5042Y2232D01*
X5044Y2242D01*
X5042Y2251D01*
X5039Y2260D01*
X5033Y2267D01*
X5026Y2273D01*
X5017Y2276D01*
X5008Y2277D01*
D02*
G37*
G36*
X3260D02*
X3251Y2276D01*
X3242Y2273D01*
X3235Y2267D01*
X3229Y2260D01*
X3225Y2251D01*
X3224Y2242D01*
X3225Y2232D01*
X3229Y2224D01*
X3235Y2216D01*
X3242Y2211D01*
X3251Y2207D01*
X3260Y2206D01*
X3269Y2207D01*
X3278Y2211D01*
X3285Y2216D01*
X3291Y2224D01*
X3294Y2232D01*
X3296Y2242D01*
X3294Y2251D01*
X3291Y2260D01*
X3285Y2267D01*
X3278Y2273D01*
X3269Y2276D01*
X3260Y2277D01*
D02*
G37*
G36*
X130Y2177D02*
X121Y2176D01*
X112Y2173D01*
X105Y2167D01*
X99Y2160D01*
X95Y2151D01*
X94Y2142D01*
X95Y2132D01*
X99Y2124D01*
X105Y2116D01*
X112Y2111D01*
X121Y2107D01*
X130Y2106D01*
X139Y2107D01*
X148Y2111D01*
X155Y2116D01*
X161Y2124D01*
X164Y2132D01*
X166Y2142D01*
X164Y2151D01*
X161Y2160D01*
X155Y2167D01*
X148Y2173D01*
X139Y2176D01*
X130Y2177D01*
D02*
G37*
G36*
Y2077D02*
X121Y2076D01*
X112Y2073D01*
X105Y2067D01*
X99Y2060D01*
X95Y2051D01*
X94Y2042D01*
X95Y2032D01*
X99Y2024D01*
X105Y2016D01*
X112Y2011D01*
X121Y2007D01*
X130Y2006D01*
X139Y2007D01*
X148Y2011D01*
X155Y2016D01*
X161Y2024D01*
X164Y2032D01*
X166Y2042D01*
X164Y2051D01*
X161Y2060D01*
X155Y2067D01*
X148Y2073D01*
X139Y2076D01*
X130Y2077D01*
D02*
G37*
G36*
X4961Y2058D02*
X4911Y2008D01*
X4961Y1958D01*
X5011Y2008D01*
X4961Y2058D01*
D02*
G37*
G36*
X3315D02*
X3265Y2008D01*
X3315Y1958D01*
X3365Y2008D01*
X3315Y2058D01*
D02*
G37*
G36*
X130Y1977D02*
X121Y1976D01*
X112Y1973D01*
X105Y1967D01*
X99Y1960D01*
X95Y1951D01*
X94Y1942D01*
X95Y1932D01*
X99Y1924D01*
X105Y1916D01*
X112Y1911D01*
X121Y1907D01*
X130Y1906D01*
X139Y1907D01*
X148Y1911D01*
X155Y1916D01*
X161Y1924D01*
X164Y1932D01*
X166Y1942D01*
X164Y1951D01*
X161Y1960D01*
X155Y1967D01*
X148Y1973D01*
X139Y1976D01*
X130Y1977D01*
D02*
G37*
G36*
X4890Y1973D02*
X4881Y1972D01*
X4872Y1968D01*
X4865Y1962D01*
X4859Y1955D01*
X4855Y1946D01*
X4854Y1937D01*
X4855Y1928D01*
X4859Y1919D01*
X4865Y1912D01*
X4872Y1906D01*
X4881Y1903D01*
X4890Y1901D01*
X4899Y1903D01*
X4908Y1906D01*
X4915Y1912D01*
X4921Y1919D01*
X4924Y1928D01*
X4926Y1937D01*
X4924Y1946D01*
X4921Y1955D01*
X4915Y1962D01*
X4908Y1968D01*
X4899Y1972D01*
X4890Y1973D01*
D02*
G37*
G36*
X3386D02*
X3376Y1972D01*
X3368Y1968D01*
X3360Y1962D01*
X3355Y1955D01*
X3351Y1946D01*
X3350Y1937D01*
X3351Y1928D01*
X3355Y1919D01*
X3360Y1912D01*
X3368Y1906D01*
X3376Y1903D01*
X3386Y1901D01*
X3395Y1903D01*
X3404Y1906D01*
X3411Y1912D01*
X3417Y1919D01*
X3420Y1928D01*
X3421Y1937D01*
X3420Y1946D01*
X3417Y1955D01*
X3411Y1962D01*
X3404Y1968D01*
X3395Y1972D01*
X3386Y1973D01*
D02*
G37*
G36*
X4819Y1902D02*
X4810Y1901D01*
X4801Y1897D01*
X4794Y1892D01*
X4788Y1884D01*
X4785Y1876D01*
X4783Y1866D01*
X4785Y1857D01*
X4788Y1849D01*
X4794Y1841D01*
X4801Y1836D01*
X4810Y1832D01*
X4819Y1831D01*
X4828Y1832D01*
X4837Y1836D01*
X4844Y1841D01*
X4850Y1849D01*
X4854Y1857D01*
X4855Y1866D01*
X4854Y1876D01*
X4850Y1884D01*
X4844Y1892D01*
X4837Y1897D01*
X4828Y1901D01*
X4819Y1902D01*
D02*
G37*
G36*
X3456D02*
X3447Y1901D01*
X3439Y1897D01*
X3431Y1892D01*
X3425Y1884D01*
X3422Y1876D01*
X3421Y1866D01*
X3422Y1857D01*
X3425Y1849D01*
X3431Y1841D01*
X3439Y1836D01*
X3447Y1832D01*
X3456Y1831D01*
X3466Y1832D01*
X3474Y1836D01*
X3482Y1841D01*
X3487Y1849D01*
X3491Y1857D01*
X3492Y1866D01*
X3491Y1876D01*
X3487Y1884D01*
X3482Y1892D01*
X3474Y1897D01*
X3466Y1901D01*
X3456Y1902D01*
D02*
G37*
G36*
X130Y1877D02*
X121Y1876D01*
X112Y1873D01*
X105Y1867D01*
X99Y1860D01*
X95Y1851D01*
X94Y1842D01*
X95Y1832D01*
X99Y1824D01*
X105Y1816D01*
X112Y1811D01*
X121Y1807D01*
X130Y1806D01*
X139Y1807D01*
X148Y1811D01*
X155Y1816D01*
X161Y1824D01*
X164Y1832D01*
X166Y1842D01*
X164Y1851D01*
X161Y1860D01*
X155Y1867D01*
X148Y1873D01*
X139Y1876D01*
X130Y1877D01*
D02*
G37*
G36*
X4748Y1831D02*
X4739Y1830D01*
X4731Y1827D01*
X4723Y1821D01*
X4718Y1814D01*
X4714Y1805D01*
X4713Y1796D01*
X4714Y1786D01*
X4718Y1778D01*
X4723Y1770D01*
X4731Y1765D01*
X4739Y1761D01*
X4748Y1760D01*
X4758Y1761D01*
X4766Y1765D01*
X4774Y1770D01*
X4779Y1778D01*
X4783Y1786D01*
X4784Y1796D01*
X4783Y1805D01*
X4779Y1814D01*
X4774Y1821D01*
X4766Y1827D01*
X4758Y1830D01*
X4748Y1831D01*
D02*
G37*
G36*
X3527D02*
X3518Y1830D01*
X3509Y1827D01*
X3502Y1821D01*
X3496Y1814D01*
X3493Y1805D01*
X3491Y1796D01*
X3493Y1786D01*
X3496Y1778D01*
X3502Y1770D01*
X3509Y1765D01*
X3518Y1761D01*
X3527Y1760D01*
X3536Y1761D01*
X3545Y1765D01*
X3552Y1770D01*
X3558Y1778D01*
X3562Y1786D01*
X3563Y1796D01*
X3562Y1805D01*
X3558Y1814D01*
X3552Y1821D01*
X3545Y1827D01*
X3536Y1830D01*
X3527Y1831D01*
D02*
G37*
G36*
X4678Y1761D02*
X4669Y1760D01*
X4660Y1756D01*
X4653Y1750D01*
X4647Y1743D01*
X4643Y1734D01*
X4642Y1725D01*
X4643Y1716D01*
X4647Y1707D01*
X4653Y1700D01*
X4660Y1694D01*
X4669Y1691D01*
X4678Y1689D01*
X4687Y1691D01*
X4696Y1694D01*
X4703Y1700D01*
X4709Y1707D01*
X4712Y1716D01*
X4714Y1725D01*
X4712Y1734D01*
X4709Y1743D01*
X4703Y1750D01*
X4696Y1756D01*
X4687Y1760D01*
X4678Y1761D01*
D02*
G37*
G36*
X3598D02*
X3589Y1760D01*
X3580Y1756D01*
X3573Y1750D01*
X3567Y1743D01*
X3563Y1734D01*
X3562Y1725D01*
X3563Y1716D01*
X3567Y1707D01*
X3573Y1700D01*
X3580Y1694D01*
X3589Y1691D01*
X3598Y1689D01*
X3607Y1691D01*
X3616Y1694D01*
X3623Y1700D01*
X3629Y1707D01*
X3632Y1716D01*
X3634Y1725D01*
X3632Y1734D01*
X3629Y1743D01*
X3623Y1750D01*
X3616Y1756D01*
X3607Y1760D01*
X3598Y1761D01*
D02*
G37*
G36*
X1315Y1721D02*
X1244D01*
Y1650D01*
X1315D01*
Y1721D01*
D02*
G37*
G36*
X1579Y1721D02*
X1570Y1720D01*
X1561Y1716D01*
X1554Y1711D01*
X1548Y1703D01*
X1545Y1695D01*
X1543Y1685D01*
X1545Y1676D01*
X1548Y1668D01*
X1554Y1660D01*
X1561Y1654D01*
X1570Y1651D01*
X1579Y1650D01*
X1588Y1651D01*
X1597Y1654D01*
X1604Y1660D01*
X1610Y1668D01*
X1614Y1676D01*
X1615Y1685D01*
X1614Y1695D01*
X1610Y1703D01*
X1604Y1711D01*
X1597Y1716D01*
X1588Y1720D01*
X1579Y1721D01*
D02*
G37*
G36*
Y1621D02*
X1570Y1620D01*
X1561Y1616D01*
X1554Y1611D01*
X1548Y1603D01*
X1545Y1595D01*
X1543Y1585D01*
X1545Y1576D01*
X1548Y1568D01*
X1554Y1560D01*
X1561Y1554D01*
X1570Y1551D01*
X1579Y1550D01*
X1588Y1551D01*
X1597Y1554D01*
X1604Y1560D01*
X1610Y1568D01*
X1614Y1576D01*
X1615Y1585D01*
X1614Y1595D01*
X1610Y1603D01*
X1604Y1611D01*
X1597Y1616D01*
X1588Y1620D01*
X1579Y1621D01*
D02*
G37*
G36*
X1279D02*
X1270Y1620D01*
X1261Y1616D01*
X1254Y1611D01*
X1248Y1603D01*
X1245Y1595D01*
X1243Y1585D01*
X1245Y1576D01*
X1248Y1568D01*
X1254Y1560D01*
X1261Y1554D01*
X1270Y1551D01*
X1279Y1550D01*
X1288Y1551D01*
X1297Y1554D01*
X1304Y1560D01*
X1310Y1568D01*
X1314Y1576D01*
X1315Y1585D01*
X1314Y1595D01*
X1310Y1603D01*
X1304Y1611D01*
X1297Y1616D01*
X1288Y1620D01*
X1279Y1621D01*
D02*
G37*
G36*
X521Y1506D02*
Y1497D01*
X530D01*
X530Y1498D01*
X526Y1503D01*
X522Y1506D01*
X521Y1506D01*
D02*
G37*
G36*
X511D02*
X510Y1506D01*
X505Y1503D01*
X502Y1498D01*
X502Y1497D01*
X511D01*
Y1506D01*
D02*
G37*
G36*
X530Y1487D02*
X521D01*
Y1478D01*
X522Y1478D01*
X526Y1481D01*
X530Y1486D01*
X530Y1487D01*
D02*
G37*
G36*
X511D02*
X502D01*
X502Y1486D01*
X505Y1481D01*
X510Y1478D01*
X511Y1478D01*
Y1487D01*
D02*
G37*
G36*
X1579Y1521D02*
X1570Y1520D01*
X1561Y1516D01*
X1554Y1511D01*
X1548Y1503D01*
X1545Y1495D01*
X1543Y1485D01*
X1545Y1476D01*
X1548Y1468D01*
X1554Y1460D01*
X1561Y1454D01*
X1570Y1451D01*
X1579Y1450D01*
X1588Y1451D01*
X1597Y1454D01*
X1604Y1460D01*
X1610Y1468D01*
X1614Y1476D01*
X1615Y1485D01*
X1614Y1495D01*
X1610Y1503D01*
X1604Y1511D01*
X1597Y1516D01*
X1588Y1520D01*
X1579Y1521D01*
D02*
G37*
G36*
X1279D02*
X1270Y1520D01*
X1261Y1516D01*
X1254Y1511D01*
X1248Y1503D01*
X1245Y1495D01*
X1243Y1485D01*
X1245Y1476D01*
X1248Y1468D01*
X1254Y1460D01*
X1261Y1454D01*
X1270Y1451D01*
X1279Y1450D01*
X1288Y1451D01*
X1297Y1454D01*
X1304Y1460D01*
X1310Y1468D01*
X1314Y1476D01*
X1315Y1485D01*
X1314Y1495D01*
X1310Y1503D01*
X1304Y1511D01*
X1297Y1516D01*
X1288Y1520D01*
X1279Y1521D01*
D02*
G37*
G36*
X4559Y1468D02*
Y1434D01*
X4594D01*
X4593Y1439D01*
X4589Y1449D01*
X4583Y1457D01*
X4574Y1464D01*
X4565Y1468D01*
X4559Y1468D01*
D02*
G37*
G36*
X4549D02*
X4544Y1468D01*
X4534Y1464D01*
X4526Y1457D01*
X4520Y1449D01*
X4516Y1439D01*
X4515Y1434D01*
X4549D01*
Y1468D01*
D02*
G37*
G36*
X4454Y1465D02*
X4445Y1464D01*
X4436Y1460D01*
X4429Y1454D01*
X4423Y1447D01*
X4420Y1438D01*
X4419Y1429D01*
X4420Y1420D01*
X4423Y1411D01*
X4429Y1404D01*
X4436Y1398D01*
X4445Y1395D01*
X4454Y1393D01*
X4464Y1395D01*
X4472Y1398D01*
X4480Y1404D01*
X4485Y1411D01*
X4489Y1420D01*
X4490Y1429D01*
X4489Y1438D01*
X4485Y1447D01*
X4480Y1454D01*
X4472Y1460D01*
X4464Y1464D01*
X4454Y1465D01*
D02*
G37*
G36*
X4354D02*
X4345Y1464D01*
X4336Y1460D01*
X4329Y1454D01*
X4323Y1447D01*
X4320Y1438D01*
X4319Y1429D01*
X4320Y1420D01*
X4323Y1411D01*
X4329Y1404D01*
X4336Y1398D01*
X4345Y1395D01*
X4354Y1393D01*
X4364Y1395D01*
X4372Y1398D01*
X4380Y1404D01*
X4385Y1411D01*
X4389Y1420D01*
X4390Y1429D01*
X4389Y1438D01*
X4385Y1447D01*
X4380Y1454D01*
X4372Y1460D01*
X4364Y1464D01*
X4354Y1465D01*
D02*
G37*
G36*
X4254D02*
X4245Y1464D01*
X4236Y1460D01*
X4229Y1454D01*
X4223Y1447D01*
X4220Y1438D01*
X4219Y1429D01*
X4220Y1420D01*
X4223Y1411D01*
X4229Y1404D01*
X4236Y1398D01*
X4245Y1395D01*
X4254Y1393D01*
X4264Y1395D01*
X4272Y1398D01*
X4280Y1404D01*
X4285Y1411D01*
X4289Y1420D01*
X4290Y1429D01*
X4289Y1438D01*
X4285Y1447D01*
X4280Y1454D01*
X4272Y1460D01*
X4264Y1464D01*
X4254Y1465D01*
D02*
G37*
G36*
X4154D02*
X4145Y1464D01*
X4136Y1460D01*
X4129Y1454D01*
X4123Y1447D01*
X4120Y1438D01*
X4119Y1429D01*
X4120Y1420D01*
X4123Y1411D01*
X4129Y1404D01*
X4136Y1398D01*
X4145Y1395D01*
X4154Y1393D01*
X4164Y1395D01*
X4172Y1398D01*
X4180Y1404D01*
X4185Y1411D01*
X4189Y1420D01*
X4190Y1429D01*
X4189Y1438D01*
X4185Y1447D01*
X4180Y1454D01*
X4172Y1460D01*
X4164Y1464D01*
X4154Y1465D01*
D02*
G37*
G36*
X4054D02*
X4045Y1464D01*
X4036Y1460D01*
X4029Y1454D01*
X4023Y1447D01*
X4020Y1438D01*
X4019Y1429D01*
X4020Y1420D01*
X4023Y1411D01*
X4029Y1404D01*
X4036Y1398D01*
X4045Y1395D01*
X4054Y1393D01*
X4064Y1395D01*
X4072Y1398D01*
X4080Y1404D01*
X4085Y1411D01*
X4089Y1420D01*
X4090Y1429D01*
X4089Y1438D01*
X4085Y1447D01*
X4080Y1454D01*
X4072Y1460D01*
X4064Y1464D01*
X4054Y1465D01*
D02*
G37*
G36*
X3954D02*
X3945Y1464D01*
X3936Y1460D01*
X3929Y1454D01*
X3923Y1447D01*
X3920Y1438D01*
X3919Y1429D01*
X3920Y1420D01*
X3923Y1411D01*
X3929Y1404D01*
X3936Y1398D01*
X3945Y1395D01*
X3954Y1393D01*
X3964Y1395D01*
X3972Y1398D01*
X3980Y1404D01*
X3985Y1411D01*
X3989Y1420D01*
X3990Y1429D01*
X3989Y1438D01*
X3985Y1447D01*
X3980Y1454D01*
X3972Y1460D01*
X3964Y1464D01*
X3954Y1465D01*
D02*
G37*
G36*
X3854D02*
X3845Y1464D01*
X3836Y1460D01*
X3829Y1454D01*
X3823Y1447D01*
X3820Y1438D01*
X3819Y1429D01*
X3820Y1420D01*
X3823Y1411D01*
X3829Y1404D01*
X3836Y1398D01*
X3845Y1395D01*
X3854Y1393D01*
X3864Y1395D01*
X3872Y1398D01*
X3880Y1404D01*
X3885Y1411D01*
X3889Y1420D01*
X3890Y1429D01*
X3889Y1438D01*
X3885Y1447D01*
X3880Y1454D01*
X3872Y1460D01*
X3864Y1464D01*
X3854Y1465D01*
D02*
G37*
G36*
X3754D02*
X3745Y1464D01*
X3736Y1460D01*
X3729Y1454D01*
X3723Y1447D01*
X3720Y1438D01*
X3719Y1429D01*
X3720Y1420D01*
X3723Y1411D01*
X3729Y1404D01*
X3736Y1398D01*
X3745Y1395D01*
X3754Y1393D01*
X3764Y1395D01*
X3772Y1398D01*
X3780Y1404D01*
X3785Y1411D01*
X3789Y1420D01*
X3790Y1429D01*
X3789Y1438D01*
X3785Y1447D01*
X3780Y1454D01*
X3772Y1460D01*
X3764Y1464D01*
X3754Y1465D01*
D02*
G37*
G36*
X1584Y1425D02*
Y1390D01*
X1618D01*
X1618Y1396D01*
X1614Y1405D01*
X1607Y1414D01*
X1599Y1420D01*
X1589Y1424D01*
X1584Y1425D01*
D02*
G37*
G36*
X1574D02*
X1569Y1424D01*
X1559Y1420D01*
X1551Y1414D01*
X1545Y1405D01*
X1541Y1396D01*
X1540Y1390D01*
X1574D01*
Y1425D01*
D02*
G37*
G36*
X4594Y1424D02*
X4559D01*
Y1390D01*
X4565Y1391D01*
X4574Y1395D01*
X4583Y1401D01*
X4589Y1409D01*
X4593Y1419D01*
X4594Y1424D01*
D02*
G37*
G36*
X4549D02*
X4515D01*
X4516Y1419D01*
X4520Y1409D01*
X4526Y1401D01*
X4534Y1395D01*
X4544Y1391D01*
X4549Y1390D01*
Y1424D01*
D02*
G37*
G36*
X1279Y1421D02*
X1270Y1420D01*
X1261Y1416D01*
X1254Y1411D01*
X1248Y1403D01*
X1245Y1395D01*
X1243Y1385D01*
X1245Y1376D01*
X1248Y1368D01*
X1254Y1360D01*
X1261Y1354D01*
X1270Y1351D01*
X1279Y1350D01*
X1288Y1351D01*
X1297Y1354D01*
X1304Y1360D01*
X1310Y1368D01*
X1314Y1376D01*
X1315Y1385D01*
X1314Y1395D01*
X1310Y1403D01*
X1304Y1411D01*
X1297Y1416D01*
X1288Y1420D01*
X1279Y1421D01*
D02*
G37*
G36*
X1618Y1380D02*
X1584D01*
Y1346D01*
X1589Y1347D01*
X1599Y1351D01*
X1607Y1357D01*
X1614Y1365D01*
X1618Y1375D01*
X1618Y1380D01*
D02*
G37*
G36*
X1574D02*
X1540D01*
X1541Y1375D01*
X1545Y1365D01*
X1551Y1357D01*
X1559Y1351D01*
X1569Y1347D01*
X1574Y1346D01*
Y1380D01*
D02*
G37*
G36*
X3790Y1365D02*
X3719D01*
Y1294D01*
X3790D01*
Y1365D01*
D02*
G37*
G36*
X4554Y1365D02*
X4545Y1364D01*
X4536Y1360D01*
X4529Y1354D01*
X4523Y1347D01*
X4520Y1338D01*
X4519Y1329D01*
X4520Y1320D01*
X4523Y1311D01*
X4529Y1304D01*
X4536Y1298D01*
X4545Y1295D01*
X4554Y1293D01*
X4564Y1295D01*
X4572Y1298D01*
X4580Y1304D01*
X4585Y1311D01*
X4589Y1320D01*
X4590Y1329D01*
X4589Y1338D01*
X4585Y1347D01*
X4580Y1354D01*
X4572Y1360D01*
X4564Y1364D01*
X4554Y1365D01*
D02*
G37*
G36*
X4454D02*
X4445Y1364D01*
X4436Y1360D01*
X4429Y1354D01*
X4423Y1347D01*
X4420Y1338D01*
X4419Y1329D01*
X4420Y1320D01*
X4423Y1311D01*
X4429Y1304D01*
X4436Y1298D01*
X4445Y1295D01*
X4454Y1293D01*
X4464Y1295D01*
X4472Y1298D01*
X4480Y1304D01*
X4485Y1311D01*
X4489Y1320D01*
X4490Y1329D01*
X4489Y1338D01*
X4485Y1347D01*
X4480Y1354D01*
X4472Y1360D01*
X4464Y1364D01*
X4454Y1365D01*
D02*
G37*
G36*
X4354D02*
X4345Y1364D01*
X4336Y1360D01*
X4329Y1354D01*
X4323Y1347D01*
X4320Y1338D01*
X4319Y1329D01*
X4320Y1320D01*
X4323Y1311D01*
X4329Y1304D01*
X4336Y1298D01*
X4345Y1295D01*
X4354Y1293D01*
X4364Y1295D01*
X4372Y1298D01*
X4380Y1304D01*
X4385Y1311D01*
X4389Y1320D01*
X4390Y1329D01*
X4389Y1338D01*
X4385Y1347D01*
X4380Y1354D01*
X4372Y1360D01*
X4364Y1364D01*
X4354Y1365D01*
D02*
G37*
G36*
X4254D02*
X4245Y1364D01*
X4236Y1360D01*
X4229Y1354D01*
X4223Y1347D01*
X4220Y1338D01*
X4219Y1329D01*
X4220Y1320D01*
X4223Y1311D01*
X4229Y1304D01*
X4236Y1298D01*
X4245Y1295D01*
X4254Y1293D01*
X4264Y1295D01*
X4272Y1298D01*
X4280Y1304D01*
X4285Y1311D01*
X4289Y1320D01*
X4290Y1329D01*
X4289Y1338D01*
X4285Y1347D01*
X4280Y1354D01*
X4272Y1360D01*
X4264Y1364D01*
X4254Y1365D01*
D02*
G37*
G36*
X4154D02*
X4145Y1364D01*
X4136Y1360D01*
X4129Y1354D01*
X4123Y1347D01*
X4120Y1338D01*
X4119Y1329D01*
X4120Y1320D01*
X4123Y1311D01*
X4129Y1304D01*
X4136Y1298D01*
X4145Y1295D01*
X4154Y1293D01*
X4164Y1295D01*
X4172Y1298D01*
X4180Y1304D01*
X4185Y1311D01*
X4189Y1320D01*
X4190Y1329D01*
X4189Y1338D01*
X4185Y1347D01*
X4180Y1354D01*
X4172Y1360D01*
X4164Y1364D01*
X4154Y1365D01*
D02*
G37*
G36*
X4054D02*
X4045Y1364D01*
X4036Y1360D01*
X4029Y1354D01*
X4023Y1347D01*
X4020Y1338D01*
X4019Y1329D01*
X4020Y1320D01*
X4023Y1311D01*
X4029Y1304D01*
X4036Y1298D01*
X4045Y1295D01*
X4054Y1293D01*
X4064Y1295D01*
X4072Y1298D01*
X4080Y1304D01*
X4085Y1311D01*
X4089Y1320D01*
X4090Y1329D01*
X4089Y1338D01*
X4085Y1347D01*
X4080Y1354D01*
X4072Y1360D01*
X4064Y1364D01*
X4054Y1365D01*
D02*
G37*
G36*
X3954D02*
X3945Y1364D01*
X3936Y1360D01*
X3929Y1354D01*
X3923Y1347D01*
X3920Y1338D01*
X3919Y1329D01*
X3920Y1320D01*
X3923Y1311D01*
X3929Y1304D01*
X3936Y1298D01*
X3945Y1295D01*
X3954Y1293D01*
X3964Y1295D01*
X3972Y1298D01*
X3980Y1304D01*
X3985Y1311D01*
X3989Y1320D01*
X3990Y1329D01*
X3989Y1338D01*
X3985Y1347D01*
X3980Y1354D01*
X3972Y1360D01*
X3964Y1364D01*
X3954Y1365D01*
D02*
G37*
G36*
X3854D02*
X3845Y1364D01*
X3836Y1360D01*
X3829Y1354D01*
X3823Y1347D01*
X3820Y1338D01*
X3819Y1329D01*
X3820Y1320D01*
X3823Y1311D01*
X3829Y1304D01*
X3836Y1298D01*
X3845Y1295D01*
X3854Y1293D01*
X3864Y1295D01*
X3872Y1298D01*
X3880Y1304D01*
X3885Y1311D01*
X3889Y1320D01*
X3890Y1329D01*
X3889Y1338D01*
X3885Y1347D01*
X3880Y1354D01*
X3872Y1360D01*
X3864Y1364D01*
X3854Y1365D01*
D02*
G37*
G36*
X2476Y1280D02*
X2405D01*
Y1209D01*
X2476D01*
Y1280D01*
D02*
G37*
G36*
X2741Y1280D02*
X2731Y1279D01*
X2723Y1275D01*
X2715Y1270D01*
X2710Y1262D01*
X2706Y1254D01*
X2705Y1244D01*
X2706Y1235D01*
X2710Y1227D01*
X2715Y1219D01*
X2723Y1214D01*
X2731Y1210D01*
X2741Y1209D01*
X2750Y1210D01*
X2758Y1214D01*
X2766Y1219D01*
X2772Y1227D01*
X2775Y1235D01*
X2776Y1244D01*
X2775Y1254D01*
X2772Y1262D01*
X2766Y1270D01*
X2758Y1275D01*
X2750Y1279D01*
X2741Y1280D01*
D02*
G37*
G36*
Y1180D02*
X2731Y1179D01*
X2723Y1175D01*
X2715Y1170D01*
X2710Y1162D01*
X2706Y1154D01*
X2705Y1144D01*
X2706Y1135D01*
X2710Y1127D01*
X2715Y1119D01*
X2723Y1114D01*
X2731Y1110D01*
X2741Y1109D01*
X2750Y1110D01*
X2758Y1114D01*
X2766Y1119D01*
X2772Y1127D01*
X2775Y1135D01*
X2776Y1144D01*
X2775Y1154D01*
X2772Y1162D01*
X2766Y1170D01*
X2758Y1175D01*
X2750Y1179D01*
X2741Y1180D01*
D02*
G37*
G36*
X2441D02*
X2431Y1179D01*
X2423Y1175D01*
X2415Y1170D01*
X2410Y1162D01*
X2406Y1154D01*
X2405Y1144D01*
X2406Y1135D01*
X2410Y1127D01*
X2415Y1119D01*
X2423Y1114D01*
X2431Y1110D01*
X2441Y1109D01*
X2450Y1110D01*
X2458Y1114D01*
X2466Y1119D01*
X2472Y1127D01*
X2475Y1135D01*
X2476Y1144D01*
X2475Y1154D01*
X2472Y1162D01*
X2466Y1170D01*
X2458Y1175D01*
X2450Y1179D01*
X2441Y1180D01*
D02*
G37*
G36*
X529Y1105D02*
Y1096D01*
X538D01*
X538Y1096D01*
X534Y1101D01*
X529Y1105D01*
X529Y1105D01*
D02*
G37*
G36*
X519D02*
X518Y1105D01*
X513Y1101D01*
X510Y1096D01*
X509Y1096D01*
X519D01*
Y1105D01*
D02*
G37*
G36*
X538Y1086D02*
X529D01*
Y1076D01*
X529Y1076D01*
X534Y1080D01*
X538Y1085D01*
X538Y1086D01*
D02*
G37*
G36*
X519D02*
X509D01*
X510Y1085D01*
X513Y1080D01*
X518Y1076D01*
X519Y1076D01*
Y1086D01*
D02*
G37*
G36*
X2741Y1080D02*
X2731Y1079D01*
X2723Y1075D01*
X2715Y1070D01*
X2710Y1062D01*
X2706Y1054D01*
X2705Y1044D01*
X2706Y1035D01*
X2710Y1027D01*
X2715Y1019D01*
X2723Y1014D01*
X2731Y1010D01*
X2741Y1009D01*
X2750Y1010D01*
X2758Y1014D01*
X2766Y1019D01*
X2772Y1027D01*
X2775Y1035D01*
X2776Y1044D01*
X2775Y1054D01*
X2772Y1062D01*
X2766Y1070D01*
X2758Y1075D01*
X2750Y1079D01*
X2741Y1080D01*
D02*
G37*
G36*
X2441D02*
X2431Y1079D01*
X2423Y1075D01*
X2415Y1070D01*
X2410Y1062D01*
X2406Y1054D01*
X2405Y1044D01*
X2406Y1035D01*
X2410Y1027D01*
X2415Y1019D01*
X2423Y1014D01*
X2431Y1010D01*
X2441Y1009D01*
X2450Y1010D01*
X2458Y1014D01*
X2466Y1019D01*
X2472Y1027D01*
X2475Y1035D01*
X2476Y1044D01*
X2475Y1054D01*
X2472Y1062D01*
X2466Y1070D01*
X2458Y1075D01*
X2450Y1079D01*
X2441Y1080D01*
D02*
G37*
G36*
X2746Y984D02*
Y949D01*
X2780D01*
X2779Y955D01*
X2775Y964D01*
X2769Y973D01*
X2760Y979D01*
X2751Y983D01*
X2746Y984D01*
D02*
G37*
G36*
X2736D02*
X2730Y983D01*
X2721Y979D01*
X2712Y973D01*
X2706Y964D01*
X2702Y955D01*
X2701Y949D01*
X2736D01*
Y984D01*
D02*
G37*
G36*
X2441Y980D02*
X2431Y979D01*
X2423Y975D01*
X2415Y970D01*
X2410Y962D01*
X2406Y954D01*
X2405Y944D01*
X2406Y935D01*
X2410Y927D01*
X2415Y919D01*
X2423Y914D01*
X2431Y910D01*
X2441Y909D01*
X2450Y910D01*
X2458Y914D01*
X2466Y919D01*
X2472Y927D01*
X2475Y935D01*
X2476Y944D01*
X2475Y954D01*
X2472Y962D01*
X2466Y970D01*
X2458Y975D01*
X2450Y979D01*
X2441Y980D01*
D02*
G37*
G36*
X2780Y939D02*
X2746D01*
Y905D01*
X2751Y906D01*
X2760Y910D01*
X2769Y916D01*
X2775Y925D01*
X2779Y934D01*
X2780Y939D01*
D02*
G37*
G36*
X2736D02*
X2701D01*
X2702Y934D01*
X2706Y925D01*
X2712Y916D01*
X2721Y910D01*
X2730Y906D01*
X2736Y905D01*
Y939D01*
D02*
G37*
G36*
X1326Y796D02*
X1256D01*
Y725D01*
X1326D01*
Y796D01*
D02*
G37*
G36*
X1591Y796D02*
X1582Y795D01*
X1573Y791D01*
X1566Y786D01*
X1560Y778D01*
X1556Y769D01*
X1555Y760D01*
X1556Y751D01*
X1560Y742D01*
X1566Y735D01*
X1573Y729D01*
X1582Y726D01*
X1591Y724D01*
X1600Y726D01*
X1609Y729D01*
X1616Y735D01*
X1622Y742D01*
X1625Y751D01*
X1627Y760D01*
X1625Y769D01*
X1622Y778D01*
X1616Y786D01*
X1609Y791D01*
X1600Y795D01*
X1591Y796D01*
D02*
G37*
G36*
X5154Y716D02*
X5144Y715D01*
X5136Y711D01*
X5128Y706D01*
X5123Y698D01*
X5119Y690D01*
X5118Y680D01*
X5119Y671D01*
X5123Y662D01*
X5128Y655D01*
X5136Y649D01*
X5144Y646D01*
X5154Y645D01*
X5163Y646D01*
X5171Y649D01*
X5179Y655D01*
X5184Y662D01*
X5188Y671D01*
X5189Y680D01*
X5188Y690D01*
X5184Y698D01*
X5179Y706D01*
X5171Y711D01*
X5163Y715D01*
X5154Y716D01*
D02*
G37*
G36*
X1591Y696D02*
X1582Y695D01*
X1573Y691D01*
X1566Y686D01*
X1560Y678D01*
X1556Y669D01*
X1555Y660D01*
X1556Y651D01*
X1560Y642D01*
X1566Y635D01*
X1573Y629D01*
X1582Y626D01*
X1591Y624D01*
X1600Y626D01*
X1609Y629D01*
X1616Y635D01*
X1622Y642D01*
X1625Y651D01*
X1627Y660D01*
X1625Y669D01*
X1622Y678D01*
X1616Y686D01*
X1609Y691D01*
X1600Y695D01*
X1591Y696D01*
D02*
G37*
G36*
X1291D02*
X1282Y695D01*
X1273Y691D01*
X1266Y686D01*
X1260Y678D01*
X1256Y669D01*
X1255Y660D01*
X1256Y651D01*
X1260Y642D01*
X1266Y635D01*
X1273Y629D01*
X1282Y626D01*
X1291Y624D01*
X1300Y626D01*
X1309Y629D01*
X1316Y635D01*
X1322Y642D01*
X1325Y651D01*
X1327Y660D01*
X1325Y669D01*
X1322Y678D01*
X1316Y686D01*
X1309Y691D01*
X1300Y695D01*
X1291Y696D01*
D02*
G37*
G36*
X5159Y620D02*
Y585D01*
X5193D01*
X5192Y591D01*
X5188Y600D01*
X5182Y609D01*
X5173Y615D01*
X5164Y619D01*
X5159Y620D01*
D02*
G37*
G36*
X5149D02*
X5143Y619D01*
X5134Y615D01*
X5125Y609D01*
X5119Y600D01*
X5115Y591D01*
X5114Y585D01*
X5149D01*
Y620D01*
D02*
G37*
G36*
X5193Y575D02*
X5159D01*
Y541D01*
X5164Y542D01*
X5173Y546D01*
X5182Y552D01*
X5188Y560D01*
X5192Y570D01*
X5193Y575D01*
D02*
G37*
G36*
X5149D02*
X5114D01*
X5115Y570D01*
X5119Y560D01*
X5125Y552D01*
X5134Y546D01*
X5143Y542D01*
X5149Y541D01*
Y575D01*
D02*
G37*
G36*
X1591Y596D02*
X1582Y595D01*
X1573Y591D01*
X1566Y586D01*
X1560Y578D01*
X1556Y569D01*
X1555Y560D01*
X1556Y551D01*
X1560Y542D01*
X1566Y535D01*
X1573Y529D01*
X1582Y526D01*
X1591Y524D01*
X1600Y526D01*
X1609Y529D01*
X1616Y535D01*
X1622Y542D01*
X1625Y551D01*
X1627Y560D01*
X1625Y569D01*
X1622Y578D01*
X1616Y586D01*
X1609Y591D01*
X1600Y595D01*
X1591Y596D01*
D02*
G37*
G36*
X1291D02*
X1282Y595D01*
X1273Y591D01*
X1266Y586D01*
X1260Y578D01*
X1256Y569D01*
X1255Y560D01*
X1256Y551D01*
X1260Y542D01*
X1266Y535D01*
X1273Y529D01*
X1282Y526D01*
X1291Y524D01*
X1300Y526D01*
X1309Y529D01*
X1316Y535D01*
X1322Y542D01*
X1325Y551D01*
X1327Y560D01*
X1325Y569D01*
X1322Y578D01*
X1316Y586D01*
X1309Y591D01*
X1300Y595D01*
X1291Y596D01*
D02*
G37*
G36*
X1596Y499D02*
Y465D01*
X1630D01*
X1629Y471D01*
X1625Y480D01*
X1619Y488D01*
X1611Y495D01*
X1601Y499D01*
X1596Y499D01*
D02*
G37*
G36*
X1586D02*
X1581Y499D01*
X1571Y495D01*
X1563Y488D01*
X1556Y480D01*
X1552Y471D01*
X1552Y465D01*
X1586D01*
Y499D01*
D02*
G37*
G36*
X5154Y516D02*
X5144Y515D01*
X5136Y511D01*
X5128Y506D01*
X5123Y498D01*
X5119Y490D01*
X5118Y480D01*
X5119Y471D01*
X5123Y462D01*
X5128Y455D01*
X5136Y449D01*
X5144Y446D01*
X5154Y445D01*
X5163Y446D01*
X5171Y449D01*
X5179Y455D01*
X5184Y462D01*
X5188Y471D01*
X5189Y480D01*
X5188Y490D01*
X5184Y498D01*
X5179Y506D01*
X5171Y511D01*
X5163Y515D01*
X5154Y516D01*
D02*
G37*
G36*
X1291Y496D02*
X1282Y495D01*
X1273Y491D01*
X1266Y486D01*
X1260Y478D01*
X1256Y469D01*
X1255Y460D01*
X1256Y451D01*
X1260Y442D01*
X1266Y435D01*
X1273Y429D01*
X1282Y426D01*
X1291Y424D01*
X1300Y426D01*
X1309Y429D01*
X1316Y435D01*
X1322Y442D01*
X1325Y451D01*
X1327Y460D01*
X1325Y469D01*
X1322Y478D01*
X1316Y486D01*
X1309Y491D01*
X1300Y495D01*
X1291Y496D01*
D02*
G37*
G36*
X1630Y455D02*
X1596D01*
Y421D01*
X1601Y422D01*
X1611Y426D01*
X1619Y432D01*
X1625Y440D01*
X1629Y450D01*
X1630Y455D01*
D02*
G37*
G36*
X1586D02*
X1552D01*
X1552Y450D01*
X1556Y440D01*
X1563Y432D01*
X1571Y426D01*
X1581Y422D01*
X1586Y421D01*
Y455D01*
D02*
G37*
G36*
X5154Y416D02*
X5144Y415D01*
X5136Y411D01*
X5128Y406D01*
X5123Y398D01*
X5119Y390D01*
X5118Y380D01*
X5119Y371D01*
X5123Y362D01*
X5128Y355D01*
X5136Y349D01*
X5144Y346D01*
X5154Y345D01*
X5163Y346D01*
X5171Y349D01*
X5179Y355D01*
X5184Y362D01*
X5188Y371D01*
X5189Y380D01*
X5188Y390D01*
X5184Y398D01*
X5179Y406D01*
X5171Y411D01*
X5163Y415D01*
X5154Y416D01*
D02*
G37*
G36*
Y316D02*
X5144Y315D01*
X5136Y311D01*
X5128Y306D01*
X5123Y298D01*
X5119Y290D01*
X5118Y280D01*
X5119Y271D01*
X5123Y262D01*
X5128Y255D01*
X5136Y249D01*
X5144Y246D01*
X5154Y245D01*
X5163Y246D01*
X5171Y249D01*
X5179Y255D01*
X5184Y262D01*
X5188Y271D01*
X5189Y280D01*
X5188Y290D01*
X5184Y298D01*
X5179Y306D01*
X5171Y311D01*
X5163Y315D01*
X5154Y316D01*
D02*
G37*
G36*
X5189Y216D02*
X5118D01*
Y145D01*
X5189D01*
Y216D01*
D02*
G37*
%LPD*%
D42*
X2741Y944D02*
D03*
Y1044D02*
D03*
Y1144D02*
D03*
Y1244D02*
D03*
X2441Y944D02*
D03*
Y1044D02*
D03*
Y1144D02*
D03*
X4554Y1429D02*
D03*
X4454D02*
D03*
X4354D02*
D03*
X4254D02*
D03*
X4154D02*
D03*
X4054D02*
D03*
X3954D02*
D03*
X3854D02*
D03*
X3754D02*
D03*
X4554Y1329D02*
D03*
X4454D02*
D03*
X4354D02*
D03*
X4254D02*
D03*
X4154D02*
D03*
X4054D02*
D03*
X3954D02*
D03*
X3854D02*
D03*
X3025Y3561D02*
D03*
Y3461D02*
D03*
X2925Y3561D02*
D03*
Y3461D02*
D03*
X2825Y3561D02*
D03*
Y3461D02*
D03*
X2725Y3561D02*
D03*
Y3461D02*
D03*
X2625Y3561D02*
D03*
Y3461D02*
D03*
X2525Y3561D02*
D03*
Y3461D02*
D03*
X2425Y3561D02*
D03*
Y3461D02*
D03*
X2325Y3561D02*
D03*
Y3461D02*
D03*
X2225Y3561D02*
D03*
Y3461D02*
D03*
X2125Y3561D02*
D03*
X5154Y280D02*
D03*
Y380D02*
D03*
Y480D02*
D03*
Y580D02*
D03*
Y680D02*
D03*
X3598Y1725D02*
D03*
X3527Y1796D02*
D03*
X3456Y1866D02*
D03*
X3386Y1937D02*
D03*
X628Y3512D02*
D03*
X728D02*
D03*
X828D02*
D03*
X928D02*
D03*
X1028D02*
D03*
X1128D02*
D03*
X1228D02*
D03*
X1328D02*
D03*
X1428D02*
D03*
X1528D02*
D03*
X1628D02*
D03*
X130Y2142D02*
D03*
Y2042D02*
D03*
Y1942D02*
D03*
Y1842D02*
D03*
X1279Y1585D02*
D03*
Y1485D02*
D03*
Y1385D02*
D03*
X1579Y1685D02*
D03*
Y1585D02*
D03*
Y1485D02*
D03*
Y1385D02*
D03*
X1291Y660D02*
D03*
Y560D02*
D03*
Y460D02*
D03*
X1591Y760D02*
D03*
Y660D02*
D03*
Y560D02*
D03*
Y460D02*
D03*
X3820Y3461D02*
D03*
X3920D02*
D03*
X4020D02*
D03*
X4120D02*
D03*
X4220D02*
D03*
X4320D02*
D03*
X4420D02*
D03*
X4520D02*
D03*
X3720Y3561D02*
D03*
X3820D02*
D03*
X3920D02*
D03*
X4020D02*
D03*
X4120D02*
D03*
X4220D02*
D03*
X4320D02*
D03*
X4420D02*
D03*
X4520D02*
D03*
X3260Y2542D02*
D03*
Y2442D02*
D03*
Y2342D02*
D03*
Y2242D02*
D03*
X3520Y3106D02*
D03*
X3449Y3036D02*
D03*
X3378Y2965D02*
D03*
X3308Y2894D02*
D03*
X5008Y2542D02*
D03*
Y2442D02*
D03*
Y2342D02*
D03*
Y2242D02*
D03*
X4724Y3106D02*
D03*
X4795Y3036D02*
D03*
X4866Y2965D02*
D03*
X4936Y2894D02*
D03*
X4890Y1937D02*
D03*
X4819Y1866D02*
D03*
X4748Y1796D02*
D03*
X4678Y1725D02*
D03*
D43*
X2441Y1244D02*
D03*
X3754Y1329D02*
D03*
X2125Y3461D02*
D03*
X528Y3512D02*
D03*
X1279Y1685D02*
D03*
X1291Y760D02*
D03*
X3720Y3461D02*
D03*
D44*
X5154Y180D02*
D03*
X130Y2242D02*
D03*
X3260Y2642D02*
D03*
X5008D02*
D03*
D45*
X3315Y2008D02*
D03*
X4654Y3177D02*
D03*
D46*
X3591D02*
D03*
X4961Y2008D02*
D03*
D47*
X5227Y580D02*
D03*
X516Y1492D02*
D03*
X524Y1091D02*
D03*
X1270Y2782D02*
D03*
X1421Y2878D02*
D03*
M02*
